G04 Layer_Physical_Order=2*
G04 Layer_Color=36540*
%FSLAX44Y44*%
%MOMM*%
G71*
G01*
G75*
%ADD10C,1.0000*%
%ADD74C,2.0320*%
%ADD76C,2.0000*%
%ADD81C,4.0000*%
%ADD85C,1.7000*%
%ADD86R,1.7000X1.7000*%
%ADD88C,1.8000*%
%ADD91C,0.7000*%
G36*
X168264Y864236D02*
X167279Y862393D01*
X166000Y862647D01*
X163074Y862065D01*
X160593Y860407D01*
X158935Y857926D01*
X158353Y855000D01*
X158935Y852074D01*
X160593Y849593D01*
X163074Y847935D01*
X166000Y847353D01*
X168926Y847935D01*
X171407Y849593D01*
X173065Y852074D01*
X173647Y855000D01*
X173393Y856279D01*
X175236Y857264D01*
X180591Y851909D01*
X179935Y850926D01*
X179353Y848000D01*
X179935Y845074D01*
X181593Y842593D01*
X184074Y840935D01*
X187000Y840353D01*
X189926Y840935D01*
X190909Y841591D01*
X217500Y815000D01*
X560000Y815000D01*
X560000Y517500D01*
X-285000Y517500D01*
X-285000Y544249D01*
X-283000Y546000D01*
X-256400D01*
Y548771D01*
X-254400Y549566D01*
X-252060Y547771D01*
X-248655Y546360D01*
X-245000Y545879D01*
X-241345Y546360D01*
X-237940Y547771D01*
X-235015Y550015D01*
X-233497Y551994D01*
X-233483Y552002D01*
X-231117D01*
X-231103Y551994D01*
X-229585Y550015D01*
X-226660Y547771D01*
X-223255Y546360D01*
X-219600Y545879D01*
X-215945Y546360D01*
X-212540Y547771D01*
X-209615Y550015D01*
X-207371Y552940D01*
X-205960Y556345D01*
X-205479Y560000D01*
X-205960Y563655D01*
X-207371Y567060D01*
X-209615Y569985D01*
X-212540Y572229D01*
X-215945Y573640D01*
X-219600Y574121D01*
X-223255Y573640D01*
X-226660Y572229D01*
X-229585Y569985D01*
X-231103Y568006D01*
X-231117Y567998D01*
X-233483D01*
X-233497Y568006D01*
X-235015Y569985D01*
X-237940Y572229D01*
X-241345Y573640D01*
X-245000Y574121D01*
X-248655Y573640D01*
X-252060Y572229D01*
X-254400Y570434D01*
X-256400Y571229D01*
Y574000D01*
X-283000D01*
X-284400Y574000D01*
X-285000Y575751D01*
X-285000Y917500D01*
X115000Y917500D01*
X168264Y864236D01*
D02*
G37*
G36*
X517500Y-163383D02*
X-60000Y-163383D01*
Y-31726D01*
X-58454Y-30457D01*
X-57500Y-30647D01*
X-54574Y-30065D01*
X-52093Y-28407D01*
X-50435Y-25926D01*
X-49853Y-23000D01*
X-50435Y-20074D01*
X-52093Y-17593D01*
X-54574Y-15935D01*
X-57500Y-15353D01*
X-58454Y-15543D01*
X-60000Y-14274D01*
Y115000D01*
X-282500D01*
Y507500D01*
X-177599Y507500D01*
X-176836Y505500D01*
X-178478Y503043D01*
X-179176Y499531D01*
X-178478Y496019D01*
X-176489Y493042D01*
X-173512Y491053D01*
X-170000Y490355D01*
X-166488Y491053D01*
X-163511Y493042D01*
X-161522Y496019D01*
X-160824Y499531D01*
X-161522Y503043D01*
X-163164Y505500D01*
X-162401Y507500D01*
X324125Y507500D01*
X324732Y505500D01*
X324593Y505407D01*
X322935Y502926D01*
X322353Y500000D01*
X322935Y497074D01*
X324593Y494593D01*
X327074Y492935D01*
X330000Y492353D01*
X332926Y492935D01*
X335407Y494593D01*
X337065Y497074D01*
X337647Y500000D01*
X337065Y502926D01*
X335407Y505407D01*
X335268Y505500D01*
X335875Y507500D01*
X517500Y507500D01*
X517500Y-163383D01*
D02*
G37*
G36*
X-206405Y105000D02*
X-206208Y103000D01*
X-206635Y102915D01*
X-208395Y102565D01*
X-210876Y100907D01*
X-212534Y98426D01*
X-213116Y95500D01*
X-212534Y92574D01*
X-210876Y90093D01*
X-208395Y88435D01*
X-205469Y87853D01*
X-202543Y88435D01*
X-200062Y90093D01*
X-198404Y92574D01*
X-197822Y95500D01*
X-198404Y98426D01*
X-200062Y100907D01*
X-202543Y102565D01*
X-204303Y102915D01*
X-204730Y103000D01*
X-204533Y105000D01*
X-70000Y105000D01*
Y61751D01*
X-71851Y60997D01*
X-72000Y61024D01*
X-73593Y63407D01*
X-76074Y65065D01*
X-79000Y65647D01*
X-81926Y65065D01*
X-84407Y63407D01*
X-86065Y60926D01*
X-86647Y58000D01*
X-86065Y55074D01*
X-84407Y52593D01*
X-81926Y50935D01*
X-79000Y50353D01*
X-76074Y50935D01*
X-73593Y52593D01*
X-72000Y54977D01*
X-71851Y55003D01*
X-70000Y54248D01*
Y27070D01*
X-72000Y25749D01*
X-74000Y26147D01*
X-76926Y25565D01*
X-79407Y23907D01*
X-81065Y21426D01*
X-81647Y18500D01*
X-81065Y15574D01*
X-79407Y13093D01*
X-76926Y11435D01*
X-74000Y10853D01*
X-72000Y11251D01*
X-70000Y9930D01*
Y-15583D01*
X-72000Y-16652D01*
X-73074Y-15935D01*
X-76000Y-15353D01*
X-78926Y-15935D01*
X-81407Y-17593D01*
X-83065Y-20074D01*
X-83647Y-23000D01*
X-83065Y-25926D01*
X-81407Y-28407D01*
X-78926Y-30065D01*
X-76000Y-30647D01*
X-73074Y-30065D01*
X-72000Y-29348D01*
X-70000Y-30417D01*
X-70000Y-144412D01*
X-72000Y-145481D01*
X-73348Y-144580D01*
X-77250Y-143804D01*
X-81152Y-144580D01*
X-84460Y-146790D01*
X-86670Y-150098D01*
X-87446Y-154000D01*
Y-162500D01*
X-95418D01*
X-96487Y-160500D01*
X-95435Y-158926D01*
X-94853Y-156000D01*
X-95435Y-153074D01*
X-97093Y-150593D01*
X-99574Y-148935D01*
X-102500Y-148353D01*
X-105426Y-148935D01*
X-107250Y-150154D01*
X-109074Y-148935D01*
X-112000Y-148353D01*
X-114926Y-148935D01*
X-117407Y-150593D01*
X-117750Y-151106D01*
X-119750D01*
X-120093Y-150593D01*
X-122574Y-148935D01*
X-125500Y-148353D01*
X-128426Y-148935D01*
X-130250Y-150154D01*
X-132074Y-148935D01*
X-135000Y-148353D01*
X-137926Y-148935D01*
X-140407Y-150593D01*
X-142065Y-153074D01*
X-142647Y-156000D01*
X-142065Y-158926D01*
X-141013Y-160500D01*
X-142082Y-162500D01*
X-150554D01*
Y-154000D01*
X-151330Y-150098D01*
X-153540Y-146790D01*
X-156848Y-144580D01*
X-160750Y-143804D01*
X-164652Y-144580D01*
X-167960Y-146790D01*
X-170170Y-150098D01*
X-170946Y-154000D01*
Y-162500D01*
X-282500Y-162500D01*
X-282500Y105000D01*
X-206405D01*
D02*
G37*
G36*
X695000Y848000D02*
X630000Y848000D01*
X630000Y1082500D01*
X462500Y1082500D01*
X462500Y965000D01*
X207065Y965000D01*
Y1065536D01*
X209512Y1066022D01*
X212489Y1068011D01*
X214478Y1070988D01*
X215176Y1074500D01*
X214478Y1078012D01*
X212489Y1080989D01*
X209512Y1082978D01*
X206000Y1083676D01*
X202488Y1082978D01*
X201773Y1082500D01*
X50000Y1082500D01*
X50000Y967500D01*
X-285000Y967500D01*
X-285000Y1815000D01*
X695000Y1815000D01*
X695000Y848000D01*
D02*
G37*
%LPC*%
G36*
X431000Y572282D02*
X427304Y571796D01*
X423859Y570369D01*
X420901Y568099D01*
X418631Y565141D01*
X417205Y561697D01*
X416718Y558000D01*
X417205Y554304D01*
X418631Y550859D01*
X420901Y547901D01*
X423859Y545631D01*
X427304Y544204D01*
X431000Y543718D01*
X434697Y544204D01*
X438141Y545631D01*
X441099Y547901D01*
X443369Y550859D01*
X444795Y554304D01*
X445282Y558000D01*
X444795Y561697D01*
X443369Y565141D01*
X441099Y568099D01*
X438141Y570369D01*
X434697Y571796D01*
X431000Y572282D01*
D02*
G37*
G36*
X7500Y573647D02*
X4574Y573065D01*
X2093Y571407D01*
X435Y568926D01*
X-147Y566000D01*
X435Y563074D01*
X2093Y560593D01*
X4574Y558935D01*
X7500Y558353D01*
X10426Y558935D01*
X12907Y560593D01*
X14565Y563074D01*
X15147Y566000D01*
X14565Y568926D01*
X12907Y571407D01*
X10426Y573065D01*
X7500Y573647D01*
D02*
G37*
G36*
X212000Y602647D02*
X209074Y602065D01*
X206593Y600407D01*
X204935Y597926D01*
X204353Y595000D01*
X204935Y592074D01*
X206593Y589593D01*
X209074Y587935D01*
X212000Y587353D01*
X214926Y587935D01*
X217407Y589593D01*
X219065Y592074D01*
X219647Y595000D01*
X219065Y597926D01*
X217407Y600407D01*
X214926Y602065D01*
X212000Y602647D01*
D02*
G37*
G36*
X98000Y623647D02*
X95074Y623065D01*
X92593Y621407D01*
X90935Y618926D01*
X90353Y616000D01*
X90935Y613074D01*
X92593Y610593D01*
X95074Y608935D01*
X98000Y608353D01*
X100926Y608935D01*
X103407Y610593D01*
X105065Y613074D01*
X105647Y616000D01*
X105065Y618926D01*
X103407Y621407D01*
X100926Y623065D01*
X98000Y623647D01*
D02*
G37*
G36*
X215000Y627647D02*
X212074Y627065D01*
X209593Y625407D01*
X207935Y622926D01*
X207353Y620000D01*
X207935Y617074D01*
X209593Y614593D01*
X212074Y612935D01*
X215000Y612353D01*
X217926Y612935D01*
X220407Y614593D01*
X222065Y617074D01*
X222647Y620000D01*
X222065Y622926D01*
X220407Y625407D01*
X217926Y627065D01*
X215000Y627647D01*
D02*
G37*
G36*
X-88000Y631194D02*
X-90926Y630611D01*
X-93407Y628954D01*
X-95065Y626473D01*
X-95647Y623547D01*
X-95065Y620620D01*
X-93407Y618139D01*
X-90926Y616482D01*
X-88000Y615900D01*
X-85074Y616482D01*
X-82593Y618139D01*
X-80935Y620620D01*
X-80353Y623547D01*
X-80935Y626473D01*
X-82593Y628954D01*
X-85074Y630611D01*
X-88000Y631194D01*
D02*
G37*
G36*
X297000Y602647D02*
X294074Y602065D01*
X291593Y600407D01*
X289935Y597926D01*
X289353Y595000D01*
X289935Y592074D01*
X291593Y589593D01*
X294074Y587935D01*
X297000Y587353D01*
X299926Y587935D01*
X302407Y589593D01*
X304065Y592074D01*
X304647Y595000D01*
X304065Y597926D01*
X302407Y600407D01*
X299926Y602065D01*
X297000Y602647D01*
D02*
G37*
G36*
X35500Y603147D02*
X32574Y602565D01*
X30093Y600907D01*
X28435Y598426D01*
X27853Y595500D01*
X28435Y592574D01*
X30093Y590093D01*
X32574Y588435D01*
X35500Y587853D01*
X38426Y588435D01*
X40907Y590093D01*
X42565Y592574D01*
X43147Y595500D01*
X42565Y598426D01*
X40907Y600907D01*
X38426Y602565D01*
X35500Y603147D01*
D02*
G37*
G36*
X-47500Y623647D02*
X-50426Y623065D01*
X-52907Y621407D01*
X-54565Y618926D01*
X-55147Y616000D01*
X-54565Y613074D01*
X-52907Y610593D01*
X-50426Y608935D01*
X-47500Y608353D01*
X-44574Y608935D01*
X-42093Y610593D01*
X-40435Y613074D01*
X-39853Y616000D01*
X-40435Y618926D01*
X-42093Y621407D01*
X-44574Y623065D01*
X-47500Y623647D01*
D02*
G37*
G36*
X-0Y880147D02*
X-2926Y879565D01*
X-5407Y877907D01*
X-7065Y875426D01*
X-7647Y872500D01*
X-7065Y869574D01*
X-5407Y867093D01*
X-2926Y865435D01*
X-0Y864853D01*
X2926Y865435D01*
X5407Y867093D01*
X7065Y869574D01*
X7647Y872500D01*
X7065Y875426D01*
X5407Y877907D01*
X2926Y879565D01*
X-0Y880147D01*
D02*
G37*
G36*
X121090Y885147D02*
X118163Y884565D01*
X115683Y882907D01*
X114025Y880426D01*
X113443Y877500D01*
X114025Y874574D01*
X115683Y872093D01*
X118163Y870435D01*
X121090Y869853D01*
X124016Y870435D01*
X126497Y872093D01*
X128155Y874574D01*
X128737Y877500D01*
X128155Y880426D01*
X126497Y882907D01*
X124016Y884565D01*
X121090Y885147D01*
D02*
G37*
G36*
X-30000Y891167D02*
X-33317Y890507D01*
X-36128Y888628D01*
X-38007Y885816D01*
X-38667Y882500D01*
X-38007Y879184D01*
X-36128Y876372D01*
X-33317Y874493D01*
X-30000Y873833D01*
X-26683Y874493D01*
X-23872Y876372D01*
X-23832Y876432D01*
X-22908Y877095D01*
X-20427Y875437D01*
X-17501Y874855D01*
X-14574Y875437D01*
X-12093Y877095D01*
X-10436Y879576D01*
X-9854Y882502D01*
X-10436Y885428D01*
X-12093Y887909D01*
X-14574Y889567D01*
X-17501Y890149D01*
X-20427Y889567D01*
X-22908Y887909D01*
X-23834Y888571D01*
X-23872Y888628D01*
X-26683Y890507D01*
X-30000Y891167D01*
D02*
G37*
G36*
X-8000Y858147D02*
X-10926Y857565D01*
X-13407Y855907D01*
X-15065Y853426D01*
X-15647Y850500D01*
X-15065Y847574D01*
X-13407Y845093D01*
X-10926Y843435D01*
X-8000Y842853D01*
X-5074Y843435D01*
X-2593Y845093D01*
X-935Y847574D01*
X-353Y850500D01*
X-935Y853426D01*
X-2593Y855907D01*
X-5074Y857565D01*
X-8000Y858147D01*
D02*
G37*
G36*
X-35000Y862647D02*
X-37926Y862065D01*
X-40407Y860407D01*
X-42065Y857926D01*
X-42647Y855000D01*
X-42065Y852074D01*
X-40407Y849593D01*
X-37926Y847935D01*
X-35000Y847353D01*
X-32074Y847935D01*
X-29593Y849593D01*
X-27935Y852074D01*
X-27353Y855000D01*
X-27935Y857926D01*
X-29593Y860407D01*
X-32074Y862065D01*
X-35000Y862647D01*
D02*
G37*
G36*
X-67500Y882176D02*
X-71012Y881478D01*
X-73989Y879489D01*
X-75978Y876512D01*
X-76676Y873000D01*
X-75978Y869488D01*
X-73989Y866511D01*
X-71012Y864522D01*
X-67500Y863824D01*
X-63988Y864522D01*
X-61011Y866511D01*
X-59022Y869488D01*
X-58324Y873000D01*
X-59022Y876512D01*
X-61011Y879489D01*
X-63988Y881478D01*
X-67500Y882176D01*
D02*
G37*
G36*
X-129000Y852666D02*
X-132317Y852007D01*
X-135128Y850128D01*
X-137007Y847317D01*
X-137667Y844000D01*
X-137283Y842074D01*
X-137463Y840477D01*
X-138735Y839901D01*
X-140426Y839565D01*
X-142907Y837907D01*
X-144565Y835426D01*
X-145147Y832500D01*
X-144565Y829574D01*
X-142907Y827093D01*
X-140426Y825435D01*
X-137500Y824853D01*
X-134574Y825435D01*
X-132093Y827093D01*
X-130435Y829574D01*
X-129853Y832500D01*
X-130053Y833504D01*
X-129763Y834007D01*
X-128401Y835453D01*
X-125683Y835993D01*
X-122872Y837872D01*
X-120993Y840684D01*
X-120333Y844000D01*
X-120993Y847317D01*
X-122872Y850128D01*
X-125683Y852007D01*
X-129000Y852666D01*
D02*
G37*
G36*
X40000Y702147D02*
X37074Y701565D01*
X34593Y699907D01*
X32935Y697426D01*
X32353Y694500D01*
X32935Y691574D01*
X34593Y689093D01*
X37074Y687435D01*
X40000Y686853D01*
X42926Y687435D01*
X45407Y689093D01*
X47065Y691574D01*
X47647Y694500D01*
X47065Y697426D01*
X45407Y699907D01*
X42926Y701565D01*
X40000Y702147D01*
D02*
G37*
G36*
X-150000Y702194D02*
X-152926Y701611D01*
X-155407Y699954D01*
X-157065Y697473D01*
X-157647Y694547D01*
X-157065Y691620D01*
X-155407Y689139D01*
X-152926Y687482D01*
X-150000Y686900D01*
X-147074Y687482D01*
X-144593Y689139D01*
X-142935Y691620D01*
X-142353Y694547D01*
X-142935Y697473D01*
X-144593Y699954D01*
X-147074Y701611D01*
X-150000Y702194D01*
D02*
G37*
G36*
X241500Y707647D02*
X238574Y707065D01*
X236093Y705407D01*
X234435Y702926D01*
X233853Y700000D01*
X234435Y697074D01*
X236093Y694593D01*
X238574Y692935D01*
X241500Y692353D01*
X244426Y692935D01*
X246907Y694593D01*
X248565Y697074D01*
X249147Y700000D01*
X248565Y702926D01*
X246907Y705407D01*
X244426Y707065D01*
X241500Y707647D01*
D02*
G37*
G36*
Y690147D02*
X238574Y689565D01*
X236093Y687907D01*
X234435Y685426D01*
X233853Y682500D01*
X234435Y679574D01*
X236093Y677093D01*
X238574Y675435D01*
X241500Y674853D01*
X244426Y675435D01*
X246907Y677093D01*
X248565Y679574D01*
X249147Y682500D01*
X248565Y685426D01*
X246907Y687907D01*
X244426Y689565D01*
X241500Y690147D01*
D02*
G37*
G36*
X122000Y698647D02*
X119074Y698065D01*
X116593Y696407D01*
X114935Y693926D01*
X114353Y691000D01*
X114935Y688074D01*
X116593Y685593D01*
X119074Y683935D01*
X122000Y683353D01*
X124926Y683935D01*
X127407Y685593D01*
X129065Y688074D01*
X129647Y691000D01*
X129065Y693926D01*
X127407Y696407D01*
X124926Y698065D01*
X122000Y698647D01*
D02*
G37*
G36*
X339000Y700147D02*
X336074Y699565D01*
X333593Y697907D01*
X331935Y695426D01*
X331353Y692500D01*
X331935Y689574D01*
X333593Y687093D01*
X336074Y685435D01*
X339000Y684853D01*
X341926Y685435D01*
X344407Y687093D01*
X346065Y689574D01*
X346647Y692500D01*
X346065Y695426D01*
X344407Y697907D01*
X341926Y699565D01*
X339000Y700147D01*
D02*
G37*
G36*
X-35000Y732647D02*
X-37926Y732065D01*
X-40407Y730407D01*
X-42065Y727926D01*
X-42647Y725000D01*
X-42065Y722074D01*
X-40971Y720436D01*
X-40572Y719000D01*
X-40971Y717564D01*
X-42065Y715926D01*
X-42647Y713000D01*
X-42065Y710074D01*
X-40407Y707593D01*
X-37926Y705935D01*
X-35000Y705353D01*
X-32074Y705935D01*
X-29593Y707593D01*
X-29142Y708267D01*
X-27836Y708145D01*
X-26965Y707925D01*
X-25407Y705593D01*
X-22926Y703935D01*
X-20000Y703353D01*
X-17074Y703935D01*
X-14593Y705593D01*
X-12935Y708074D01*
X-12353Y711000D01*
X-12935Y713926D01*
X-14593Y716407D01*
X-17074Y718065D01*
X-20000Y718647D01*
X-22926Y718065D01*
X-25407Y716407D01*
X-25858Y715733D01*
X-27164Y715855D01*
X-28035Y716075D01*
X-29029Y717564D01*
X-29428Y719000D01*
X-29029Y720436D01*
X-27935Y722074D01*
X-27353Y725000D01*
X-27935Y727926D01*
X-29593Y730407D01*
X-32074Y732065D01*
X-35000Y732647D01*
D02*
G37*
G36*
X-160000Y720647D02*
X-162926Y720065D01*
X-165407Y718407D01*
X-167065Y715926D01*
X-167647Y713000D01*
X-167065Y710074D01*
X-165407Y707593D01*
X-162926Y705935D01*
X-160000Y705353D01*
X-157074Y705935D01*
X-154593Y707593D01*
X-152935Y710074D01*
X-152353Y713000D01*
X-152935Y715926D01*
X-154593Y718407D01*
X-157074Y720065D01*
X-160000Y720647D01*
D02*
G37*
G36*
X-55000D02*
X-57926Y720065D01*
X-60407Y718407D01*
X-62065Y715926D01*
X-62647Y713000D01*
X-62065Y710074D01*
X-60407Y707593D01*
X-57926Y705935D01*
X-55000Y705353D01*
X-52074Y705935D01*
X-49593Y707593D01*
X-47935Y710074D01*
X-47353Y713000D01*
X-47935Y715926D01*
X-49593Y718407D01*
X-52074Y720065D01*
X-55000Y720647D01*
D02*
G37*
G36*
X167500Y702647D02*
X164574Y702065D01*
X162093Y700407D01*
X160692Y698310D01*
X159000Y698647D01*
X156074Y698065D01*
X153593Y696407D01*
X151935Y693926D01*
X151353Y691000D01*
X151935Y688074D01*
X153593Y685593D01*
X156074Y683935D01*
X159000Y683353D01*
X160047Y681522D01*
X160435Y679574D01*
X160616Y679304D01*
X158526Y677907D01*
X156868Y675426D01*
X156286Y672500D01*
X156868Y669574D01*
X158526Y667093D01*
X161007Y665435D01*
X163933Y664853D01*
X166859Y665435D01*
X169340Y667093D01*
X170998Y669574D01*
X171580Y672500D01*
X170998Y675426D01*
X170817Y675696D01*
X172907Y677093D01*
X174565Y679574D01*
X175147Y682500D01*
X174565Y685426D01*
X172907Y687907D01*
Y689593D01*
X174565Y692074D01*
X175147Y695000D01*
X174565Y697926D01*
X172907Y700407D01*
X170426Y702065D01*
X167500Y702647D01*
D02*
G37*
G36*
X339000Y717647D02*
X336074Y717065D01*
X333593Y715407D01*
X331935Y712926D01*
X331353Y710000D01*
X331935Y707074D01*
X333593Y704593D01*
X336074Y702935D01*
X339000Y702353D01*
X341926Y702935D01*
X344407Y704593D01*
X346065Y707074D01*
X346647Y710000D01*
X346065Y712926D01*
X344407Y715407D01*
X341926Y717065D01*
X339000Y717647D01*
D02*
G37*
G36*
X295000Y717647D02*
X292074Y717065D01*
X289593Y715407D01*
X287935Y712926D01*
X287353Y710000D01*
X287935Y707074D01*
X289593Y704593D01*
X292074Y702935D01*
X295000Y702353D01*
X297926Y702935D01*
X300407Y704593D01*
X302065Y707074D01*
X302647Y710000D01*
X302065Y712926D01*
X300407Y715407D01*
X297926Y717065D01*
X295000Y717647D01*
D02*
G37*
G36*
X15953Y637647D02*
X13027Y637065D01*
X10546Y635407D01*
X8888Y632926D01*
X8306Y630000D01*
X8888Y627074D01*
X10546Y624593D01*
X13027Y622935D01*
X15953Y622353D01*
X18880Y622935D01*
X21360Y624593D01*
X23018Y627074D01*
X23600Y630000D01*
X23018Y632926D01*
X21360Y635407D01*
X18880Y637065D01*
X15953Y637647D01*
D02*
G37*
G36*
X-150000Y642647D02*
X-152926Y642065D01*
X-155407Y640407D01*
X-157065Y637926D01*
X-157647Y635000D01*
X-157065Y632074D01*
X-155407Y629593D01*
X-152926Y627935D01*
X-150000Y627353D01*
X-147074Y627935D01*
X-144593Y629593D01*
X-142935Y632074D01*
X-142353Y635000D01*
X-142935Y637926D01*
X-144593Y640407D01*
X-147074Y642065D01*
X-150000Y642647D01*
D02*
G37*
G36*
X315000D02*
X312074Y642065D01*
X309593Y640407D01*
X307935Y637926D01*
X307353Y635000D01*
X307935Y632074D01*
X309593Y629593D01*
X312074Y627935D01*
X315000Y627353D01*
X317926Y627935D01*
X320407Y629593D01*
X322065Y632074D01*
X322647Y635000D01*
X322065Y637926D01*
X320407Y640407D01*
X317926Y642065D01*
X315000Y642647D01*
D02*
G37*
G36*
X-65000Y631194D02*
X-67926Y630611D01*
X-70407Y628954D01*
X-72065Y626473D01*
X-72647Y623547D01*
X-72065Y620620D01*
X-70407Y618139D01*
X-67926Y616482D01*
X-65000Y615900D01*
X-62074Y616482D01*
X-59593Y618139D01*
X-57935Y620620D01*
X-57353Y623547D01*
X-57935Y626473D01*
X-59593Y628954D01*
X-62074Y630611D01*
X-65000Y631194D01*
D02*
G37*
G36*
X252000Y635147D02*
X249074Y634565D01*
X246593Y632907D01*
X244935Y630426D01*
X244353Y627500D01*
X244935Y624574D01*
X246593Y622093D01*
X249074Y620435D01*
X252000Y619853D01*
X254926Y620435D01*
X257407Y622093D01*
X259065Y624574D01*
X259647Y627500D01*
X259065Y630426D01*
X257407Y632907D01*
X254926Y634565D01*
X252000Y635147D01*
D02*
G37*
G36*
X287000Y630147D02*
X284074Y629565D01*
X281593Y627907D01*
X279935Y625426D01*
X279353Y622500D01*
X279396Y622286D01*
X277733Y620578D01*
X277698Y620569D01*
X277511Y620686D01*
X277065Y622926D01*
X275407Y625407D01*
X272926Y627065D01*
X270000Y627647D01*
X267074Y627065D01*
X264593Y625407D01*
X262935Y622926D01*
X262353Y620000D01*
X262935Y617074D01*
X264593Y614593D01*
X267074Y612935D01*
X270000Y612353D01*
X270471Y610407D01*
X270935Y608074D01*
X272593Y605593D01*
X275074Y603935D01*
X278000Y603353D01*
X280926Y603935D01*
X283407Y605593D01*
X285065Y608074D01*
X285647Y611000D01*
X285215Y613169D01*
X286459Y614731D01*
X286755Y614902D01*
X287000Y614853D01*
X289926Y615435D01*
X292407Y617093D01*
X294065Y619574D01*
X294647Y622500D01*
X294065Y625426D01*
X292407Y627907D01*
X289926Y629565D01*
X287000Y630147D01*
D02*
G37*
G36*
X200000Y664647D02*
X197074Y664065D01*
X194593Y662407D01*
X192935Y659926D01*
X192353Y657000D01*
X192935Y654074D01*
X194593Y651593D01*
X197074Y649935D01*
X200000Y649353D01*
X202926Y649935D01*
X205407Y651593D01*
X207065Y654074D01*
X207647Y657000D01*
X207065Y659926D01*
X205407Y662407D01*
X202926Y664065D01*
X200000Y664647D01*
D02*
G37*
G36*
X-30000Y671647D02*
X-32926Y671065D01*
X-35407Y669407D01*
X-37065Y666926D01*
X-37647Y664000D01*
X-37065Y661074D01*
X-35407Y658593D01*
X-32926Y656935D01*
X-30000Y656353D01*
X-27074Y656935D01*
X-24593Y658593D01*
X-22935Y661074D01*
X-22353Y664000D01*
X-22935Y666926D01*
X-24593Y669407D01*
X-27074Y671065D01*
X-30000Y671647D01*
D02*
G37*
G36*
X-117500Y673647D02*
X-120426Y673065D01*
X-122907Y671407D01*
X-124565Y668926D01*
X-125147Y666000D01*
X-124565Y663074D01*
X-122907Y660593D01*
X-120426Y658935D01*
X-117500Y658353D01*
X-114574Y658935D01*
X-112093Y660593D01*
X-110435Y663074D01*
X-109853Y666000D01*
X-110435Y668926D01*
X-112093Y671407D01*
X-114574Y673065D01*
X-117500Y673647D01*
D02*
G37*
G36*
X346000Y655647D02*
X343074Y655065D01*
X340593Y653407D01*
X338935Y650926D01*
X338353Y648000D01*
X338935Y645074D01*
X340593Y642593D01*
X343074Y640935D01*
X346000Y640353D01*
X348926Y640935D01*
X351407Y642593D01*
X353065Y645074D01*
X353647Y648000D01*
X353065Y650926D01*
X351407Y653407D01*
X348926Y655065D01*
X346000Y655647D01*
D02*
G37*
G36*
X162500Y661647D02*
X159574Y661065D01*
X157093Y659407D01*
X155435Y656926D01*
X154853Y654000D01*
X155435Y651074D01*
X157093Y648593D01*
X159574Y646935D01*
X162500Y646353D01*
X165426Y646935D01*
X167907Y648593D01*
X169565Y651074D01*
X170147Y654000D01*
X169565Y656926D01*
X167907Y659407D01*
X165426Y661065D01*
X162500Y661647D01*
D02*
G37*
G36*
X59590Y663647D02*
X56663Y663065D01*
X54183Y661407D01*
X52525Y658926D01*
X51943Y656000D01*
X52525Y653074D01*
X54183Y650593D01*
X56663Y648935D01*
X59590Y648353D01*
X62516Y648935D01*
X64997Y650593D01*
X66655Y653074D01*
X67237Y656000D01*
X66655Y658926D01*
X64997Y661407D01*
X62516Y663065D01*
X59590Y663647D01*
D02*
G37*
G36*
X-136000Y793647D02*
X-138926Y793065D01*
X-141407Y791407D01*
X-143065Y788926D01*
X-143647Y786000D01*
X-143065Y783074D01*
X-141407Y780593D01*
X-138926Y778935D01*
X-136000Y778353D01*
X-133074Y778935D01*
X-130593Y780593D01*
X-128935Y783074D01*
X-128353Y786000D01*
X-128935Y788926D01*
X-130593Y791407D01*
X-133074Y793065D01*
X-136000Y793647D01*
D02*
G37*
G36*
X94000Y800647D02*
X91074Y800065D01*
X88593Y798407D01*
X86935Y795926D01*
X86353Y793000D01*
X86935Y790074D01*
X88593Y787593D01*
X91074Y785935D01*
X93667Y785419D01*
X93935Y784074D01*
X95593Y781593D01*
X98074Y779935D01*
X101000Y779353D01*
X103926Y779935D01*
X106407Y781593D01*
X108065Y784074D01*
X108647Y787000D01*
X108065Y789926D01*
X106407Y792407D01*
X103926Y794065D01*
X101333Y794581D01*
X101065Y795926D01*
X99407Y798407D01*
X96926Y800065D01*
X94000Y800647D01*
D02*
G37*
G36*
X241000Y795147D02*
X238074Y794565D01*
X235593Y792907D01*
X233935Y790426D01*
X233353Y787500D01*
X233935Y784574D01*
X235593Y782093D01*
X238074Y780435D01*
X241000Y779853D01*
X243926Y780435D01*
X246407Y782093D01*
X248065Y784574D01*
X248647Y787500D01*
X248065Y790426D01*
X246407Y792907D01*
X243926Y794565D01*
X241000Y795147D01*
D02*
G37*
G36*
X-70000Y777647D02*
X-72926Y777065D01*
X-75407Y775407D01*
X-77065Y772926D01*
X-77647Y770000D01*
X-77065Y767074D01*
X-75407Y764593D01*
X-72926Y762935D01*
X-70363Y762425D01*
X-70647Y761000D01*
X-70065Y758074D01*
X-68407Y755593D01*
X-65926Y753935D01*
X-63000Y753353D01*
X-60074Y753935D01*
X-57593Y755593D01*
X-55935Y758074D01*
X-55353Y761000D01*
X-55935Y763926D01*
X-57593Y766407D01*
X-60074Y768065D01*
X-62637Y768575D01*
X-62353Y770000D01*
X-62935Y772926D01*
X-64593Y775407D01*
X-67074Y777065D01*
X-70000Y777647D01*
D02*
G37*
G36*
X241000Y775147D02*
X238074Y774565D01*
X235593Y772907D01*
X233935Y770426D01*
X233353Y767500D01*
X233935Y764574D01*
X235593Y762093D01*
X238074Y760435D01*
X241000Y759853D01*
X243926Y760435D01*
X246407Y762093D01*
X248065Y764574D01*
X248647Y767500D01*
X248065Y770426D01*
X246407Y772907D01*
X243926Y774565D01*
X241000Y775147D01*
D02*
G37*
G36*
X156000Y783808D02*
X153074Y783226D01*
X150593Y781568D01*
X148935Y779088D01*
X148353Y776161D01*
X148935Y773235D01*
X150593Y770754D01*
X153074Y769096D01*
X156000Y768514D01*
X158926Y769096D01*
X161407Y770754D01*
X163065Y773235D01*
X163647Y776161D01*
X163065Y779088D01*
X161407Y781568D01*
X158926Y783226D01*
X156000Y783808D01*
D02*
G37*
G36*
X82500Y830647D02*
X79574Y830065D01*
X77093Y828407D01*
X75435Y825926D01*
X74853Y823000D01*
X75435Y820074D01*
X77093Y817593D01*
X79574Y815935D01*
X82500Y815353D01*
X85426Y815935D01*
X87907Y817593D01*
X89565Y820074D01*
X90147Y823000D01*
X89565Y825926D01*
X87907Y828407D01*
X85426Y830065D01*
X82500Y830647D01*
D02*
G37*
G36*
X-43500Y833647D02*
X-46426Y833065D01*
X-48907Y831407D01*
X-50565Y828926D01*
X-51147Y826000D01*
X-50565Y823074D01*
X-48907Y820593D01*
X-46426Y818935D01*
X-43500Y818353D01*
X-40574Y818935D01*
X-38093Y820593D01*
X-36435Y823074D01*
X-35853Y826000D01*
X-36435Y828926D01*
X-38093Y831407D01*
X-40574Y833065D01*
X-43500Y833647D01*
D02*
G37*
G36*
X27500Y825647D02*
X24574Y825065D01*
X22500Y823679D01*
X20426Y825065D01*
X17500Y825647D01*
X14574Y825065D01*
X12500Y823679D01*
X10426Y825065D01*
X7500Y825647D01*
X4574Y825065D01*
X2093Y823407D01*
X435Y820926D01*
X-147Y818000D01*
X435Y815074D01*
X1821Y813000D01*
X435Y810926D01*
X-147Y808000D01*
X435Y805074D01*
X1821Y803000D01*
X435Y800926D01*
X-147Y798000D01*
X435Y795074D01*
X1821Y793000D01*
X435Y790926D01*
X-147Y788000D01*
X435Y785074D01*
X1821Y783000D01*
X435Y780926D01*
X-147Y778000D01*
X435Y775073D01*
X1821Y773000D01*
X435Y770926D01*
X-147Y768000D01*
X435Y765073D01*
X1821Y763000D01*
X435Y760926D01*
X-147Y758000D01*
X435Y755073D01*
X1821Y753000D01*
X435Y750926D01*
X-147Y748000D01*
X435Y745073D01*
X1821Y743000D01*
X435Y740926D01*
X-147Y738000D01*
X435Y735073D01*
X2093Y732593D01*
X4574Y730935D01*
X7500Y730353D01*
X10426Y730935D01*
X12500Y732321D01*
X14574Y730935D01*
X17500Y730353D01*
X20426Y730935D01*
X22500Y732321D01*
X24574Y730935D01*
X27500Y730353D01*
X30426Y730935D01*
X32907Y732593D01*
X34565Y735073D01*
X35147Y738000D01*
X34565Y740926D01*
X33179Y743000D01*
X34565Y745073D01*
X35147Y748000D01*
X34565Y750926D01*
X33179Y753000D01*
X34565Y755073D01*
X35147Y758000D01*
X34565Y760926D01*
X33179Y763000D01*
X34565Y765073D01*
X35147Y768000D01*
X34565Y770926D01*
X33179Y773000D01*
X34565Y775073D01*
X35147Y778000D01*
X34565Y780926D01*
X33179Y783000D01*
X34565Y785074D01*
X35147Y788000D01*
X34565Y790926D01*
X33179Y793000D01*
X34565Y795074D01*
X35147Y798000D01*
X34565Y800926D01*
X33179Y803000D01*
X34565Y805074D01*
X35147Y808000D01*
X34565Y810926D01*
X33179Y813000D01*
X34565Y815074D01*
X35147Y818000D01*
X34565Y820926D01*
X32907Y823407D01*
X30426Y825065D01*
X27500Y825647D01*
D02*
G37*
G36*
X-81000Y810647D02*
X-83926Y810065D01*
X-86407Y808407D01*
X-88065Y805926D01*
X-88647Y803000D01*
X-88065Y800074D01*
X-86407Y797593D01*
X-83926Y795935D01*
X-81000Y795353D01*
X-78074Y795935D01*
X-75593Y797593D01*
X-73935Y800074D01*
X-73353Y803000D01*
X-73935Y805926D01*
X-75593Y808407D01*
X-78074Y810065D01*
X-81000Y810647D01*
D02*
G37*
G36*
X-250000Y846685D02*
X-255613Y845947D01*
X-260843Y843780D01*
X-265334Y840334D01*
X-268780Y835843D01*
X-270947Y830613D01*
X-271686Y825000D01*
X-270947Y819387D01*
X-268780Y814157D01*
X-265334Y809666D01*
X-260843Y806220D01*
X-255613Y804053D01*
X-250000Y803315D01*
X-244387Y804053D01*
X-239157Y806220D01*
X-234666Y809666D01*
X-231220Y814157D01*
X-229053Y819387D01*
X-228314Y825000D01*
X-229053Y830613D01*
X-231220Y835843D01*
X-234666Y840334D01*
X-239157Y843780D01*
X-244387Y845947D01*
X-250000Y846685D01*
D02*
G37*
G36*
X187000Y821647D02*
X184074Y821065D01*
X181593Y819407D01*
X179935Y816926D01*
X179353Y814000D01*
X179935Y811074D01*
X181593Y808593D01*
X184074Y806935D01*
X187000Y806353D01*
X189926Y806935D01*
X192407Y808593D01*
X194065Y811074D01*
X194647Y814000D01*
X194065Y816926D01*
X192407Y819407D01*
X189926Y821065D01*
X187000Y821647D01*
D02*
G37*
G36*
X167500Y727647D02*
X164574Y727065D01*
X162093Y725407D01*
X160435Y722926D01*
X159853Y720000D01*
X160435Y717074D01*
X162093Y714593D01*
X164574Y712935D01*
X167500Y712353D01*
X170426Y712935D01*
X172907Y714593D01*
X174565Y717074D01*
X175147Y720000D01*
X174565Y722926D01*
X172907Y725407D01*
X170426Y727065D01*
X167500Y727647D01*
D02*
G37*
G36*
X76000Y732647D02*
X73074Y732065D01*
X70593Y730407D01*
X68935Y727926D01*
X68353Y725000D01*
X68935Y722074D01*
X70593Y719593D01*
X73074Y717935D01*
X76000Y717353D01*
X78926Y717935D01*
X81407Y719593D01*
X83065Y722074D01*
X83647Y725000D01*
X83065Y727926D01*
X81407Y730407D01*
X78926Y732065D01*
X76000Y732647D01*
D02*
G37*
G36*
X-130000Y734647D02*
X-132926Y734065D01*
X-135407Y732407D01*
X-137065Y729926D01*
X-137647Y727000D01*
X-137065Y724074D01*
X-135407Y721593D01*
X-132926Y719935D01*
X-130000Y719353D01*
X-127074Y719935D01*
X-124593Y721593D01*
X-122935Y724074D01*
X-122353Y727000D01*
X-122935Y729926D01*
X-124593Y732407D01*
X-127074Y734065D01*
X-130000Y734647D01*
D02*
G37*
G36*
X14000Y710147D02*
X11074Y709565D01*
X8593Y707907D01*
X8000Y707020D01*
X6000D01*
X5407Y707907D01*
X2926Y709565D01*
X0Y710147D01*
X-2926Y709565D01*
X-5407Y707907D01*
X-7065Y705426D01*
X-7647Y702500D01*
X-7065Y699574D01*
X-5407Y697093D01*
X-2926Y695435D01*
X0Y694853D01*
X2926Y695435D01*
X5407Y697093D01*
X6000Y697980D01*
X8000D01*
X8593Y697093D01*
X11074Y695435D01*
X14000Y694853D01*
X16926Y695435D01*
X19407Y697093D01*
X21065Y699574D01*
X21647Y702500D01*
X21065Y705426D01*
X19407Y707907D01*
X16926Y709565D01*
X14000Y710147D01*
D02*
G37*
G36*
X95000Y725147D02*
X92074Y724565D01*
X89593Y722907D01*
X87935Y720426D01*
X87353Y717500D01*
X87935Y714574D01*
X89593Y712093D01*
X92074Y710435D01*
X95000Y709853D01*
X97926Y710435D01*
X100304Y712024D01*
X100593Y711593D01*
X103074Y709935D01*
X106000Y709353D01*
X108926Y709935D01*
X111407Y711593D01*
X113065Y714074D01*
X113647Y717000D01*
X113065Y719926D01*
X111407Y722407D01*
X108926Y724065D01*
X106000Y724647D01*
X103074Y724065D01*
X100695Y722476D01*
X100407Y722907D01*
X97926Y724565D01*
X95000Y725147D01*
D02*
G37*
G36*
X241500D02*
X238574Y724565D01*
X236093Y722907D01*
X234435Y720426D01*
X233853Y717500D01*
X234435Y714574D01*
X236093Y712093D01*
X238574Y710435D01*
X241500Y709853D01*
X244426Y710435D01*
X246907Y712093D01*
X248565Y714574D01*
X249147Y717500D01*
X248565Y720426D01*
X246907Y722907D01*
X244426Y724565D01*
X241500Y725147D01*
D02*
G37*
G36*
X303000Y758647D02*
X300074Y758065D01*
X297593Y756407D01*
X295935Y753926D01*
X295353Y751000D01*
X295935Y748074D01*
X297593Y745593D01*
X300074Y743935D01*
X303000Y743353D01*
X305926Y743935D01*
X308407Y745593D01*
X310065Y748074D01*
X310647Y751000D01*
X310065Y753926D01*
X308407Y756407D01*
X305926Y758065D01*
X303000Y758647D01*
D02*
G37*
G36*
X163933Y762647D02*
X161007Y762065D01*
X158526Y760407D01*
X156868Y757926D01*
X156286Y755000D01*
X156868Y752074D01*
X158526Y749593D01*
X161007Y747935D01*
X163933Y747353D01*
X166859Y747935D01*
X169340Y749593D01*
X170998Y752074D01*
X171580Y755000D01*
X170998Y757926D01*
X169340Y760407D01*
X166859Y762065D01*
X163933Y762647D01*
D02*
G37*
G36*
X-140000Y765647D02*
X-142926Y765065D01*
X-145407Y763407D01*
X-147065Y760926D01*
X-147647Y758000D01*
X-147065Y755074D01*
X-145407Y752593D01*
X-142926Y750935D01*
X-140000Y750353D01*
X-137074Y750935D01*
X-134593Y752593D01*
X-132935Y755074D01*
X-132353Y758000D01*
X-132935Y760926D01*
X-134593Y763407D01*
X-137074Y765065D01*
X-140000Y765647D01*
D02*
G37*
G36*
X141000Y741647D02*
X138074Y741065D01*
X135593Y739407D01*
X133935Y736926D01*
X133353Y734000D01*
X133935Y731074D01*
X134270Y730572D01*
X133067Y729223D01*
X132864Y729077D01*
X130000Y729647D01*
X127074Y729065D01*
X124593Y727407D01*
X122935Y724926D01*
X122353Y722000D01*
X122935Y719074D01*
X124593Y716593D01*
X127074Y714935D01*
X130000Y714353D01*
X132926Y714935D01*
X135407Y716593D01*
X137065Y719074D01*
X137647Y722000D01*
X137065Y724926D01*
X136730Y725428D01*
X137933Y726777D01*
X138136Y726923D01*
X141000Y726353D01*
X143926Y726935D01*
X146407Y728593D01*
X148065Y731074D01*
X148647Y734000D01*
X148065Y736926D01*
X146407Y739407D01*
X143926Y741065D01*
X141000Y741647D01*
D02*
G37*
G36*
X-34000Y757647D02*
X-36926Y757065D01*
X-39407Y755407D01*
X-41065Y752926D01*
X-41647Y750000D01*
X-41065Y747074D01*
X-39407Y744593D01*
X-36926Y742935D01*
X-34000Y742353D01*
X-31074Y742935D01*
X-28593Y744593D01*
X-26935Y747074D01*
X-26353Y750000D01*
X-26935Y752926D01*
X-28593Y755407D01*
X-31074Y757065D01*
X-34000Y757647D01*
D02*
G37*
G36*
X200000Y775147D02*
X197074Y774565D01*
X194593Y772907D01*
X192935Y770426D01*
X192353Y767500D01*
X192935Y764574D01*
X194593Y762093D01*
X196845Y760588D01*
X196900Y759674D01*
X196634Y758506D01*
X194414Y758065D01*
X191933Y756407D01*
X190275Y753926D01*
X189693Y751000D01*
X190275Y748074D01*
X191933Y745593D01*
X194414Y743935D01*
X197340Y743353D01*
X200266Y743935D01*
X202747Y745593D01*
X204405Y748074D01*
X204987Y751000D01*
X204405Y753926D01*
X202747Y756407D01*
X200495Y757912D01*
X200440Y758826D01*
X200706Y759994D01*
X202926Y760435D01*
X205407Y762093D01*
X207065Y764574D01*
X207647Y767500D01*
X207065Y770426D01*
X205407Y772907D01*
X202926Y774565D01*
X200000Y775147D01*
D02*
G37*
G36*
X484500Y266176D02*
X480988Y265478D01*
X478011Y263489D01*
X476022Y260512D01*
X475324Y257000D01*
X476022Y253488D01*
X478011Y250511D01*
X480988Y248522D01*
X484500Y247824D01*
X488012Y248522D01*
X490989Y250511D01*
X492978Y253488D01*
X493676Y257000D01*
X492978Y260512D01*
X490989Y263489D01*
X488012Y265478D01*
X484500Y266176D01*
D02*
G37*
G36*
X-111000Y261647D02*
X-113926Y261065D01*
X-116407Y259407D01*
X-118065Y256926D01*
X-118647Y254000D01*
X-118065Y251074D01*
X-116407Y248593D01*
X-113926Y246935D01*
X-111000Y246353D01*
X-108074Y246935D01*
X-105593Y248593D01*
X-103935Y251074D01*
X-103353Y254000D01*
X-103935Y256926D01*
X-105593Y259407D01*
X-108074Y261065D01*
X-111000Y261647D01*
D02*
G37*
G36*
X-255000Y294790D02*
X-258916Y294274D01*
X-262565Y292763D01*
X-265698Y290358D01*
X-268102Y287225D01*
X-269614Y283576D01*
X-270129Y279660D01*
X-269614Y275744D01*
X-268102Y272096D01*
X-265698Y268962D01*
X-262565Y266558D01*
X-258916Y265046D01*
X-255000Y264531D01*
X-251084Y265046D01*
X-247435Y266558D01*
X-244302Y268962D01*
X-241897Y272096D01*
X-240386Y275744D01*
X-239870Y279660D01*
X-240386Y283576D01*
X-241897Y287225D01*
X-244302Y290358D01*
X-247435Y292763D01*
X-251084Y294274D01*
X-255000Y294790D01*
D02*
G37*
G36*
X260000Y267647D02*
X257074Y267065D01*
X254593Y265407D01*
X254407D01*
X251926Y267065D01*
X249000Y267647D01*
X246074Y267065D01*
X243593Y265407D01*
X241935Y262926D01*
X241353Y260000D01*
X241935Y257074D01*
X243593Y254593D01*
X246074Y252935D01*
X249000Y252353D01*
X251926Y252935D01*
X254407Y254593D01*
X254593D01*
X257074Y252935D01*
X260000Y252353D01*
X262926Y252935D01*
X265407Y254593D01*
X267065Y257074D01*
X267647Y260000D01*
X267065Y262926D01*
X265407Y265407D01*
X262926Y267065D01*
X260000Y267647D01*
D02*
G37*
G36*
Y300647D02*
X257074Y300065D01*
X254593Y298407D01*
X252935Y295926D01*
X252353Y293000D01*
X252935Y290074D01*
X253781Y288808D01*
X253417Y287930D01*
X252677Y286860D01*
X250074Y286342D01*
X247593Y284685D01*
X245935Y282204D01*
X245353Y279277D01*
X245935Y276351D01*
X247593Y273870D01*
X250074Y272213D01*
X253000Y271630D01*
X255926Y272213D01*
X258407Y273870D01*
X260065Y276351D01*
X260647Y279277D01*
X260065Y282204D01*
X259219Y283469D01*
X259583Y284348D01*
X260323Y285417D01*
X262926Y285935D01*
X265407Y287593D01*
X267065Y290074D01*
X267647Y293000D01*
X267065Y295926D01*
X265407Y298407D01*
X262926Y300065D01*
X260000Y300647D01*
D02*
G37*
G36*
X-240000Y329660D02*
X-270000D01*
Y299660D01*
X-240000D01*
Y329660D01*
D02*
G37*
G36*
X214580Y317647D02*
X211653Y317065D01*
X209173Y315407D01*
X207515Y312926D01*
X206933Y310000D01*
X207515Y307074D01*
X209173Y304593D01*
X211653Y302935D01*
X214580Y302353D01*
X217506Y302935D01*
X219987Y304593D01*
X221645Y307074D01*
X222227Y310000D01*
X221645Y312926D01*
X219987Y315407D01*
X217506Y317065D01*
X214580Y317647D01*
D02*
G37*
G36*
X316658Y300647D02*
X313732Y300065D01*
X311251Y298407D01*
X309594Y295926D01*
X309011Y293000D01*
X309594Y290074D01*
X311251Y287593D01*
X313732Y285935D01*
X316658Y285353D01*
X319585Y285935D01*
X322066Y287593D01*
X323723Y290074D01*
X324305Y293000D01*
X323723Y295926D01*
X322066Y298407D01*
X319585Y300065D01*
X316658Y300647D01*
D02*
G37*
G36*
X94000Y297647D02*
X91074Y297065D01*
X88593Y295407D01*
X86935Y292926D01*
X86353Y290000D01*
X86935Y287074D01*
X88593Y284593D01*
X91074Y282935D01*
X94000Y282353D01*
X96926Y282935D01*
X99407Y284593D01*
X101065Y287074D01*
X101647Y290000D01*
X101065Y292926D01*
X99407Y295407D01*
X96926Y297065D01*
X94000Y297647D01*
D02*
G37*
G36*
X202000Y300647D02*
X199074Y300065D01*
X196593Y298407D01*
X194935Y295926D01*
X194353Y293000D01*
X194935Y290074D01*
X196593Y287593D01*
X199074Y285935D01*
X202000Y285353D01*
X204926Y285935D01*
X207407Y287593D01*
X209065Y290074D01*
X209647Y293000D01*
X209065Y295926D01*
X207407Y298407D01*
X204926Y300065D01*
X202000Y300647D01*
D02*
G37*
G36*
X-184000Y254307D02*
X-186926Y253725D01*
X-189407Y252067D01*
X-191065Y249587D01*
X-191647Y246660D01*
X-191065Y243734D01*
X-189407Y241253D01*
X-186926Y239595D01*
X-184000Y239013D01*
X-181074Y239595D01*
X-178593Y241253D01*
X-176935Y243734D01*
X-176353Y246660D01*
X-176935Y249587D01*
X-178593Y252067D01*
X-181074Y253725D01*
X-184000Y254307D01*
D02*
G37*
G36*
X363000Y231095D02*
X360128Y230717D01*
X357453Y229608D01*
X355155Y227845D01*
X353391Y225548D01*
X352283Y222872D01*
X351905Y220000D01*
X352283Y217128D01*
X353391Y214452D01*
X355155Y212155D01*
X357453Y210392D01*
X360128Y209283D01*
X363000Y208905D01*
X365872Y209283D01*
X368547Y210392D01*
X370845Y212155D01*
X372608Y214452D01*
X373717Y217128D01*
X374095Y220000D01*
X373717Y222872D01*
X372608Y225548D01*
X370845Y227845D01*
X368547Y229608D01*
X365872Y230717D01*
X363000Y231095D01*
D02*
G37*
G36*
X437500Y229686D02*
X433793Y228949D01*
X430651Y226849D01*
X428551Y223707D01*
X427814Y220000D01*
X428551Y216293D01*
X430651Y213151D01*
X433793Y211051D01*
X437500Y210314D01*
X441207Y211051D01*
X444349Y213151D01*
X446449Y216293D01*
X447186Y220000D01*
X446449Y223707D01*
X444349Y226849D01*
X441207Y228949D01*
X437500Y229686D01*
D02*
G37*
G36*
X101389Y223185D02*
X98462Y222603D01*
X95982Y220946D01*
X94324Y218465D01*
X93742Y215539D01*
X94324Y212612D01*
X95982Y210131D01*
X98462Y208474D01*
X101389Y207892D01*
X104315Y208474D01*
X106796Y210131D01*
X108454Y212612D01*
X109036Y215539D01*
X108454Y218465D01*
X106796Y220946D01*
X104315Y222603D01*
X101389Y223185D01*
D02*
G37*
G36*
X-29300Y199121D02*
X-32955Y198640D01*
X-36360Y197229D01*
X-38700Y195434D01*
X-40700Y196229D01*
Y199000D01*
X-68700D01*
Y171000D01*
X-40700D01*
Y173771D01*
X-38700Y174566D01*
X-36360Y172771D01*
X-32955Y171360D01*
X-29300Y170879D01*
X-25645Y171360D01*
X-22240Y172771D01*
X-19315Y175015D01*
X-17071Y177940D01*
X-15660Y181345D01*
X-15179Y185000D01*
X-15660Y188655D01*
X-17071Y192060D01*
X-19315Y194985D01*
X-22240Y197229D01*
X-25645Y198640D01*
X-29300Y199121D01*
D02*
G37*
G36*
X-160751Y216278D02*
X-163677Y215696D01*
X-166158Y214039D01*
X-167816Y211558D01*
X-168398Y208631D01*
X-167816Y205705D01*
X-166158Y203224D01*
X-163677Y201567D01*
X-160751Y200984D01*
X-157825Y201567D01*
X-155344Y203224D01*
X-153686Y205705D01*
X-153104Y208631D01*
X-153686Y211558D01*
X-155344Y214039D01*
X-157825Y215696D01*
X-160751Y216278D01*
D02*
G37*
G36*
X-111000Y231773D02*
X-113926Y231191D01*
X-116407Y229533D01*
X-118065Y227052D01*
X-118647Y224126D01*
X-118065Y221199D01*
X-116407Y218719D01*
X-113926Y217061D01*
X-111000Y216479D01*
X-108074Y217061D01*
X-105593Y218719D01*
X-103935Y221199D01*
X-103353Y224126D01*
X-103935Y227052D01*
X-105593Y229533D01*
X-108074Y231191D01*
X-111000Y231773D01*
D02*
G37*
G36*
X189700Y234000D02*
X161700D01*
Y231229D01*
X159700Y230434D01*
X157360Y232229D01*
X154300Y233497D01*
Y220000D01*
X150300D01*
Y216000D01*
X136803D01*
X138071Y212940D01*
X140315Y210015D01*
X143240Y207771D01*
X144343Y207314D01*
X144565Y205057D01*
X143593Y204407D01*
X141935Y201926D01*
X141353Y199000D01*
X141935Y196074D01*
X143593Y193593D01*
X146074Y191935D01*
X149000Y191353D01*
X151926Y191935D01*
X154407Y193593D01*
X156065Y196074D01*
X156647Y199000D01*
X156065Y201926D01*
X154407Y204407D01*
X154342Y204450D01*
X154288Y204718D01*
X154652Y206649D01*
X157360Y207771D01*
X159700Y209566D01*
X161700Y208771D01*
Y206000D01*
X189700D01*
Y234000D01*
D02*
G37*
G36*
X281000Y252646D02*
X278073Y252064D01*
X275592Y250406D01*
X273935Y247926D01*
X273353Y244999D01*
X273935Y242073D01*
X275592Y239592D01*
X278073Y237934D01*
X281000Y237352D01*
X283926Y237934D01*
X286407Y239592D01*
X288064Y242073D01*
X288646Y244999D01*
X288064Y247926D01*
X286407Y250406D01*
X283926Y252064D01*
X281000Y252646D01*
D02*
G37*
G36*
X1450Y243647D02*
X-1476Y243065D01*
X-3957Y241407D01*
X-5615Y238926D01*
X-6197Y236000D01*
X-5615Y233074D01*
X-3957Y230593D01*
X-1476Y228935D01*
X1450Y228353D01*
X4376Y228935D01*
X6857Y230593D01*
X8515Y233074D01*
X9097Y236000D01*
X8515Y238926D01*
X6857Y241407D01*
X4376Y243065D01*
X1450Y243647D01*
D02*
G37*
G36*
X146300Y233497D02*
X143240Y232229D01*
X140315Y229985D01*
X138071Y227060D01*
X136803Y224000D01*
X146300D01*
Y233497D01*
D02*
G37*
G36*
X-240000Y254660D02*
X-270000D01*
Y224660D01*
X-240000D01*
Y254660D01*
D02*
G37*
G36*
X103500Y497647D02*
X100574Y497065D01*
X98093Y495407D01*
X96435Y492926D01*
X95853Y490000D01*
X96435Y487074D01*
X98093Y484593D01*
X100574Y482935D01*
X103500Y482353D01*
X106426Y482935D01*
X108907Y484593D01*
X110565Y487074D01*
X111147Y490000D01*
X110565Y492926D01*
X108907Y495407D01*
X106426Y497065D01*
X103500Y497647D01*
D02*
G37*
G36*
X495000D02*
X492074Y497065D01*
X489593Y495407D01*
X487935Y492926D01*
X487353Y490000D01*
X487935Y487074D01*
X489593Y484593D01*
X492074Y482935D01*
X495000Y482353D01*
X497926Y482935D01*
X500407Y484593D01*
X502065Y487074D01*
X502647Y490000D01*
X502065Y492926D01*
X500407Y495407D01*
X497926Y497065D01*
X495000Y497647D01*
D02*
G37*
G36*
X8000Y499647D02*
X5074Y499065D01*
X2593Y497407D01*
X935Y494926D01*
X353Y492000D01*
X935Y489074D01*
X2593Y486593D01*
X5074Y484935D01*
X8000Y484353D01*
X10926Y484935D01*
X13407Y486593D01*
X15065Y489074D01*
X15647Y492000D01*
X15065Y494926D01*
X13407Y497407D01*
X10926Y499065D01*
X8000Y499647D01*
D02*
G37*
G36*
X74000Y497647D02*
X71074Y497065D01*
X68593Y495407D01*
X66935Y492926D01*
X66353Y490000D01*
X66935Y487074D01*
X68593Y484593D01*
X71074Y482935D01*
X74000Y482353D01*
X76926Y482935D01*
X79407Y484593D01*
X81065Y487074D01*
X81647Y490000D01*
X81065Y492926D01*
X79407Y495407D01*
X76926Y497065D01*
X74000Y497647D01*
D02*
G37*
G36*
X66670Y322000D02*
X57000D01*
Y312330D01*
X60141Y313631D01*
X63099Y315901D01*
X65369Y318859D01*
X66670Y322000D01*
D02*
G37*
G36*
X49000Y339670D02*
X45859Y338369D01*
X42901Y336099D01*
X40631Y333141D01*
X39330Y330000D01*
X49000D01*
Y339670D01*
D02*
G37*
G36*
X57000D02*
Y330000D01*
X66670D01*
X65369Y333141D01*
X63099Y336099D01*
X60141Y338369D01*
X57000Y339670D01*
D02*
G37*
G36*
X341000Y322647D02*
X338074Y322065D01*
X335593Y320407D01*
X333935Y317926D01*
X333353Y315000D01*
X333935Y312074D01*
X335593Y309593D01*
X338074Y307935D01*
X341000Y307353D01*
X343926Y307935D01*
X346407Y309593D01*
X348065Y312074D01*
X348647Y315000D01*
X348065Y317926D01*
X346407Y320407D01*
X343926Y322065D01*
X341000Y322647D01*
D02*
G37*
G36*
X265000Y323647D02*
X262074Y323065D01*
X259593Y321407D01*
X257935Y318926D01*
X257353Y316000D01*
X257935Y313074D01*
X259593Y310593D01*
X262074Y308935D01*
X265000Y308353D01*
X267926Y308935D01*
X270407Y310593D01*
X272065Y313074D01*
X272647Y316000D01*
X272065Y318926D01*
X270407Y321407D01*
X267926Y323065D01*
X265000Y323647D01*
D02*
G37*
G36*
X49000Y322000D02*
X39330D01*
X40631Y318859D01*
X42901Y315901D01*
X45859Y313631D01*
X49000Y312330D01*
Y322000D01*
D02*
G37*
G36*
X133700Y461573D02*
X131396Y460619D01*
X128785Y458615D01*
X126781Y456004D01*
X125827Y453700D01*
X133700D01*
Y461573D01*
D02*
G37*
G36*
X366300Y462308D02*
X363037Y461878D01*
X359996Y460619D01*
X357385Y458615D01*
X355381Y456004D01*
X354682Y454317D01*
X352518D01*
X351819Y456004D01*
X349815Y458615D01*
X347204Y460619D01*
X344163Y461878D01*
X340900Y462308D01*
X337637Y461878D01*
X334596Y460619D01*
X331985Y458615D01*
X329981Y456004D01*
X329282Y454317D01*
X327118D01*
X326419Y456004D01*
X324415Y458615D01*
X321804Y460619D01*
X318763Y461878D01*
X315500Y462308D01*
X312237Y461878D01*
X309196Y460619D01*
X306585Y458615D01*
X304581Y456004D01*
X303882Y454317D01*
X301718D01*
X301019Y456004D01*
X299015Y458615D01*
X296404Y460619D01*
X293363Y461878D01*
X290100Y462308D01*
X286837Y461878D01*
X283796Y460619D01*
X281185Y458615D01*
X279181Y456004D01*
X278482Y454317D01*
X276318D01*
X275619Y456004D01*
X273615Y458615D01*
X271004Y460619D01*
X267963Y461878D01*
X264700Y462308D01*
X261437Y461878D01*
X258396Y460619D01*
X255785Y458615D01*
X253781Y456004D01*
X253082Y454317D01*
X250918D01*
X250219Y456004D01*
X248215Y458615D01*
X245604Y460619D01*
X242563Y461878D01*
X239300Y462308D01*
X236037Y461878D01*
X232996Y460619D01*
X230385Y458615D01*
X228381Y456004D01*
X227682Y454317D01*
X225518D01*
X224819Y456004D01*
X222815Y458615D01*
X220204Y460619D01*
X217163Y461878D01*
X213900Y462308D01*
X210637Y461878D01*
X207596Y460619D01*
X204985Y458615D01*
X202981Y456004D01*
X202282Y454317D01*
X200118D01*
X199419Y456004D01*
X197415Y458615D01*
X194804Y460619D01*
X191763Y461878D01*
X188500Y462308D01*
X185237Y461878D01*
X182196Y460619D01*
X179585Y458615D01*
X177581Y456004D01*
X176882Y454317D01*
X174718D01*
X174019Y456004D01*
X172015Y458615D01*
X169404Y460619D01*
X166363Y461878D01*
X163100Y462308D01*
X159837Y461878D01*
X156796Y460619D01*
X154185Y458615D01*
X152181Y456004D01*
X151482Y454317D01*
X149318D01*
X148619Y456004D01*
X146615Y458615D01*
X144004Y460619D01*
X141700Y461573D01*
Y449700D01*
X137700D01*
Y445700D01*
X125827D01*
X126781Y443396D01*
X128785Y440785D01*
X131372Y438800D01*
X131383Y438721D01*
X130953Y436800D01*
X125200D01*
Y428300D01*
X137700D01*
Y424300D01*
X141700D01*
Y411800D01*
X150200D01*
Y417553D01*
X152121Y417983D01*
X152200Y417972D01*
X154185Y415385D01*
X156796Y413381D01*
X159837Y412122D01*
X163100Y411692D01*
X166363Y412122D01*
X169404Y413381D01*
X172015Y415385D01*
X174019Y417996D01*
X174718Y419683D01*
X176882D01*
X177581Y417996D01*
X179585Y415385D01*
X182196Y413381D01*
X185237Y412122D01*
X188500Y411692D01*
X191763Y412122D01*
X194804Y413381D01*
X197415Y415385D01*
X199419Y417996D01*
X200118Y419683D01*
X202282D01*
X202981Y417996D01*
X204985Y415385D01*
X207596Y413381D01*
X210637Y412122D01*
X213900Y411692D01*
X217163Y412122D01*
X220204Y413381D01*
X222815Y415385D01*
X224819Y417996D01*
X225518Y419683D01*
X227682D01*
X228381Y417996D01*
X230385Y415385D01*
X232996Y413381D01*
X236037Y412122D01*
X239300Y411692D01*
X242563Y412122D01*
X245604Y413381D01*
X248215Y415385D01*
X250219Y417996D01*
X250918Y419683D01*
X253082D01*
X253781Y417996D01*
X255785Y415385D01*
X258396Y413381D01*
X261437Y412122D01*
X264700Y411692D01*
X267963Y412122D01*
X271004Y413381D01*
X273615Y415385D01*
X275619Y417996D01*
X276318Y419683D01*
X278482D01*
X279181Y417996D01*
X281185Y415385D01*
X283796Y413381D01*
X286837Y412122D01*
X290100Y411692D01*
X293363Y412122D01*
X296404Y413381D01*
X299015Y415385D01*
X301019Y417996D01*
X301718Y419683D01*
X303882D01*
X304581Y417996D01*
X306585Y415385D01*
X309196Y413381D01*
X312237Y412122D01*
X315500Y411692D01*
X318763Y412122D01*
X321804Y413381D01*
X324415Y415385D01*
X326419Y417996D01*
X327118Y419683D01*
X329282D01*
X329981Y417996D01*
X331985Y415385D01*
X334596Y413381D01*
X337637Y412122D01*
X340900Y411692D01*
X344163Y412122D01*
X347204Y413381D01*
X349815Y415385D01*
X351819Y417996D01*
X352518Y419683D01*
X354682D01*
X355381Y417996D01*
X357385Y415385D01*
X359996Y413381D01*
X363037Y412122D01*
X366300Y411692D01*
X369563Y412122D01*
X372604Y413381D01*
X375215Y415385D01*
X377219Y417996D01*
X378478Y421037D01*
X378908Y424300D01*
X378478Y427563D01*
X377219Y430604D01*
X375215Y433215D01*
X372604Y435219D01*
X370917Y435918D01*
Y438082D01*
X372604Y438781D01*
X375215Y440785D01*
X377219Y443396D01*
X378478Y446437D01*
X378908Y449700D01*
X378478Y452963D01*
X377219Y456004D01*
X375215Y458615D01*
X372604Y460619D01*
X369563Y461878D01*
X366300Y462308D01*
D02*
G37*
G36*
X26000Y488647D02*
X23074Y488065D01*
X20593Y486407D01*
X18935Y483926D01*
X18353Y481000D01*
X18935Y478074D01*
X20593Y475593D01*
X23074Y473935D01*
X26000Y473353D01*
X28926Y473935D01*
X31407Y475593D01*
X33065Y478074D01*
X33647Y481000D01*
X33065Y483926D01*
X31407Y486407D01*
X28926Y488065D01*
X26000Y488647D01*
D02*
G37*
G36*
X-4698Y375147D02*
X-7624Y374565D01*
X-10105Y372907D01*
X-11762Y370426D01*
X-12344Y367500D01*
X-11762Y364574D01*
X-10105Y362093D01*
X-7624Y360435D01*
X-4698Y359853D01*
X-1771Y360435D01*
X710Y362093D01*
X2367Y364574D01*
X2949Y367500D01*
X2367Y370426D01*
X710Y372907D01*
X-1771Y374565D01*
X-4698Y375147D01*
D02*
G37*
G36*
X55000Y409647D02*
X52074Y409065D01*
X49593Y407407D01*
X47935Y404926D01*
X47353Y402000D01*
X47935Y399074D01*
X49593Y396593D01*
X52074Y394935D01*
X55000Y394353D01*
X57926Y394935D01*
X60407Y396593D01*
X62065Y399074D01*
X62647Y402000D01*
X62065Y404926D01*
X60407Y407407D01*
X57926Y409065D01*
X55000Y409647D01*
D02*
G37*
G36*
X133700Y420300D02*
X125200D01*
Y411800D01*
X133700D01*
Y420300D01*
D02*
G37*
G36*
X165000Y2647D02*
X162074Y2065D01*
X159593Y407D01*
X157935Y-2074D01*
X157353Y-5000D01*
X157935Y-7926D01*
X159593Y-10407D01*
X162074Y-12065D01*
X165000Y-12647D01*
X167926Y-12065D01*
X170407Y-10407D01*
X172065Y-7926D01*
X172647Y-5000D01*
X172065Y-2074D01*
X170407Y407D01*
X167926Y2065D01*
X165000Y2647D01*
D02*
G37*
G36*
X148000Y-24353D02*
X145074Y-24935D01*
X142593Y-26593D01*
X140935Y-29074D01*
X140353Y-32000D01*
X140935Y-34927D01*
X142593Y-37407D01*
X145074Y-39065D01*
X148000Y-39647D01*
X150926Y-39065D01*
X153407Y-37407D01*
X155065Y-34927D01*
X155647Y-32000D01*
X155065Y-29074D01*
X153407Y-26593D01*
X150926Y-24935D01*
X148000Y-24353D01*
D02*
G37*
G36*
X248590Y-16943D02*
X245664Y-17525D01*
X243183Y-19183D01*
X241525Y-21664D01*
X240943Y-24590D01*
X241525Y-27516D01*
X243183Y-29997D01*
X245664Y-31655D01*
X248590Y-32237D01*
X251516Y-31655D01*
X253997Y-29997D01*
X255655Y-27516D01*
X256237Y-24590D01*
X255655Y-21664D01*
X253997Y-19183D01*
X251516Y-17525D01*
X248590Y-16943D01*
D02*
G37*
G36*
X180000Y-6353D02*
X177074Y-6935D01*
X174593Y-8593D01*
X172935Y-11074D01*
X172353Y-14000D01*
X172935Y-16926D01*
X174593Y-19407D01*
X177074Y-21065D01*
X180000Y-21647D01*
X182926Y-21065D01*
X185407Y-19407D01*
X187065Y-16926D01*
X187647Y-14000D01*
X187065Y-11074D01*
X185407Y-8593D01*
X182926Y-6935D01*
X180000Y-6353D01*
D02*
G37*
G36*
X384450Y85697D02*
X381524Y85115D01*
X379043Y83457D01*
X377385Y80976D01*
X376803Y78050D01*
X377385Y75124D01*
X379043Y72643D01*
Y70757D01*
X377385Y68276D01*
X376803Y65350D01*
X377385Y62424D01*
X379043Y59943D01*
Y58057D01*
X377385Y55576D01*
X376803Y52650D01*
X377385Y49724D01*
X379043Y47243D01*
Y45357D01*
X377385Y42876D01*
X376803Y39950D01*
X377385Y37024D01*
X379043Y34543D01*
X381524Y32885D01*
X384450Y32303D01*
X387376Y32885D01*
X389857Y34543D01*
X391515Y37024D01*
X392097Y39950D01*
X391515Y42876D01*
X389857Y45357D01*
Y47243D01*
X391515Y49724D01*
X392097Y52650D01*
X391515Y55576D01*
X389857Y58057D01*
Y59943D01*
X391515Y62424D01*
X392097Y65350D01*
X391515Y68276D01*
X389857Y70757D01*
Y72643D01*
X391515Y75124D01*
X392097Y78050D01*
X391515Y80976D01*
X389857Y83457D01*
X387376Y85115D01*
X384450Y85697D01*
D02*
G37*
G36*
X132000Y15647D02*
X129074Y15065D01*
X126593Y13407D01*
X124935Y10926D01*
X124353Y8000D01*
X124935Y5074D01*
X126593Y2593D01*
X129074Y935D01*
X132000Y353D01*
X134926Y935D01*
X137407Y2593D01*
X139065Y5074D01*
X139647Y8000D01*
X139065Y10926D01*
X137407Y13407D01*
X134926Y15065D01*
X132000Y15647D01*
D02*
G37*
G36*
X422000Y15647D02*
X419074Y15065D01*
X416593Y13407D01*
X414935Y10926D01*
X414353Y8000D01*
X414935Y5074D01*
X416593Y2593D01*
X419074Y935D01*
X422000Y353D01*
X424926Y935D01*
X427407Y2593D01*
X429065Y5074D01*
X429647Y8000D01*
X429065Y10926D01*
X427407Y13407D01*
X424926Y15065D01*
X422000Y15647D01*
D02*
G37*
G36*
X287500Y50147D02*
X284574Y49565D01*
X282093Y47907D01*
X280435Y45426D01*
X279853Y42500D01*
X280435Y39574D01*
X282093Y37093D01*
X284574Y35435D01*
X286897Y34973D01*
X288035Y33075D01*
X287935Y32926D01*
X287353Y30000D01*
X287935Y27074D01*
X289593Y24593D01*
X292074Y22935D01*
X295000Y22353D01*
X295814Y22515D01*
X297515Y20814D01*
X297353Y20000D01*
X297935Y17074D01*
X299593Y14593D01*
X302074Y12935D01*
X305000Y12353D01*
X307926Y12935D01*
X310407Y14593D01*
X312065Y17074D01*
X312647Y20000D01*
X312065Y22926D01*
X310407Y25407D01*
X307926Y27065D01*
X305000Y27647D01*
X304186Y27485D01*
X302485Y29186D01*
X302647Y30000D01*
X302065Y32926D01*
X300407Y35407D01*
X297926Y37065D01*
X295603Y37527D01*
X294465Y39425D01*
X294565Y39574D01*
X295147Y42500D01*
X294565Y45426D01*
X292907Y47907D01*
X290426Y49565D01*
X287500Y50147D01*
D02*
G37*
G36*
X160250Y-123397D02*
X157324Y-123979D01*
X154843Y-125636D01*
X153185Y-128117D01*
X152603Y-131044D01*
X153185Y-133970D01*
X154843Y-136451D01*
X157324Y-138108D01*
X160250Y-138691D01*
X163176Y-138108D01*
X165657Y-136451D01*
X167315Y-133970D01*
X167897Y-131044D01*
X167315Y-128117D01*
X165657Y-125636D01*
X163176Y-123979D01*
X160250Y-123397D01*
D02*
G37*
G36*
X204000Y-123353D02*
X201074Y-123935D01*
X198593Y-125593D01*
X196935Y-128074D01*
X196353Y-131000D01*
X196935Y-133926D01*
X198593Y-136407D01*
X201074Y-138065D01*
X204000Y-138647D01*
X206926Y-138065D01*
X209407Y-136407D01*
X211065Y-133926D01*
X211647Y-131000D01*
X211065Y-128074D01*
X209407Y-125593D01*
X206926Y-123935D01*
X204000Y-123353D01*
D02*
G37*
G36*
X32500Y-118218D02*
X28804Y-118705D01*
X25359Y-120131D01*
X22401Y-122401D01*
X20131Y-125359D01*
X18705Y-128804D01*
X18218Y-132500D01*
X18705Y-136196D01*
X20131Y-139641D01*
X22401Y-142599D01*
X25359Y-144869D01*
X28804Y-146295D01*
X32500Y-146782D01*
X36196Y-146295D01*
X39641Y-144869D01*
X42599Y-142599D01*
X44869Y-139641D01*
X46295Y-136196D01*
X46782Y-132500D01*
X46295Y-128804D01*
X44869Y-125359D01*
X42599Y-122401D01*
X39641Y-120131D01*
X36196Y-118705D01*
X32500Y-118218D01*
D02*
G37*
G36*
X448500Y-86688D02*
X445106Y-87135D01*
X441944Y-88445D01*
X439228Y-90528D01*
X437145Y-93244D01*
X436882Y-93877D01*
X434718D01*
X434455Y-93244D01*
X432372Y-90528D01*
X429656Y-88445D01*
X426494Y-87135D01*
X423100Y-86688D01*
X419706Y-87135D01*
X416544Y-88445D01*
X413828Y-90528D01*
X411744Y-93244D01*
X411482Y-93877D01*
X409318D01*
X409055Y-93244D01*
X406972Y-90528D01*
X404256Y-88445D01*
X401094Y-87135D01*
X397700Y-86688D01*
X394306Y-87135D01*
X391144Y-88445D01*
X388428Y-90528D01*
X386344Y-93244D01*
X386082Y-93877D01*
X383918D01*
X383655Y-93244D01*
X381572Y-90528D01*
X378856Y-88445D01*
X375694Y-87135D01*
X372300Y-86688D01*
X368906Y-87135D01*
X365744Y-88445D01*
X363028Y-90528D01*
X360945Y-93244D01*
X360682Y-93877D01*
X358518D01*
X358255Y-93244D01*
X356172Y-90528D01*
X353456Y-88445D01*
X350294Y-87135D01*
X346900Y-86688D01*
X343506Y-87135D01*
X340344Y-88445D01*
X337628Y-90528D01*
X335545Y-93244D01*
X335282Y-93877D01*
X333118D01*
X332855Y-93244D01*
X330772Y-90528D01*
X328056Y-88445D01*
X324894Y-87135D01*
X321500Y-86688D01*
X318106Y-87135D01*
X314944Y-88445D01*
X312228Y-90528D01*
X310145Y-93244D01*
X308835Y-96406D01*
X308388Y-99800D01*
X308835Y-103194D01*
X310145Y-106356D01*
X312228Y-109072D01*
X314155Y-110550D01*
X314294Y-112755D01*
X314191Y-113009D01*
X308500Y-118700D01*
Y-131700D01*
X315000Y-138200D01*
X328000D01*
X333691Y-132508D01*
X333945Y-132406D01*
X336150Y-132545D01*
X337628Y-134472D01*
X340344Y-136556D01*
X343506Y-137865D01*
X346900Y-138312D01*
X350294Y-137865D01*
X353456Y-136556D01*
X356172Y-134472D01*
X358255Y-131756D01*
X358518Y-131123D01*
X360682D01*
X360945Y-131756D01*
X363028Y-134472D01*
X365744Y-136556D01*
X368906Y-137865D01*
X372300Y-138312D01*
X375694Y-137865D01*
X378856Y-136556D01*
X381572Y-134472D01*
X383655Y-131756D01*
X383918Y-131123D01*
X386082D01*
X386344Y-131756D01*
X388428Y-134472D01*
X391144Y-136556D01*
X394306Y-137865D01*
X397700Y-138312D01*
X401094Y-137865D01*
X404256Y-136556D01*
X406972Y-134472D01*
X409055Y-131756D01*
X409318Y-131123D01*
X411482D01*
X411744Y-131756D01*
X413828Y-134472D01*
X416544Y-136556D01*
X419100Y-137614D01*
Y-125200D01*
X427100D01*
Y-137614D01*
X429656Y-136556D01*
X432372Y-134472D01*
X434455Y-131756D01*
X434718Y-131123D01*
X436882D01*
X437145Y-131756D01*
X439228Y-134472D01*
X441944Y-136556D01*
X445106Y-137865D01*
X448500Y-138312D01*
X451894Y-137865D01*
X455056Y-136556D01*
X457772Y-134472D01*
X459855Y-131756D01*
X461165Y-128594D01*
X461612Y-125200D01*
X461165Y-121806D01*
X459855Y-118644D01*
X457772Y-115928D01*
X455056Y-113845D01*
X454423Y-113582D01*
Y-111418D01*
X455056Y-111156D01*
X457772Y-109072D01*
X459855Y-106356D01*
X461165Y-103194D01*
X461612Y-99800D01*
X461165Y-96406D01*
X459855Y-93244D01*
X457772Y-90528D01*
X455056Y-88445D01*
X451894Y-87135D01*
X448500Y-86688D01*
D02*
G37*
G36*
X488050Y-71403D02*
X485124Y-71985D01*
X482643Y-73643D01*
X480985Y-76124D01*
X480403Y-79050D01*
X480985Y-81976D01*
X482643Y-84457D01*
X485124Y-86115D01*
X488050Y-86697D01*
X490976Y-86115D01*
X493457Y-84457D01*
X495115Y-81976D01*
X495697Y-79050D01*
X495115Y-76124D01*
X493457Y-73643D01*
X490976Y-71985D01*
X488050Y-71403D01*
D02*
G37*
G36*
X68000Y138647D02*
X65074Y138065D01*
X62593Y136407D01*
X60935Y133926D01*
X60353Y131000D01*
X60935Y128074D01*
X62593Y125593D01*
X65074Y123935D01*
X68000Y123353D01*
X70926Y123935D01*
X73407Y125593D01*
X75065Y128074D01*
X75647Y131000D01*
X75065Y133926D01*
X73407Y136407D01*
X70926Y138065D01*
X68000Y138647D01*
D02*
G37*
G36*
X-219000Y143147D02*
X-221926Y142565D01*
X-224407Y140907D01*
X-226065Y138426D01*
X-226647Y135500D01*
X-226065Y132574D01*
X-224407Y130093D01*
X-221926Y128435D01*
X-219000Y127853D01*
X-216074Y128435D01*
X-213593Y130093D01*
X-211935Y132574D01*
X-211353Y135500D01*
X-211935Y138426D01*
X-213593Y140907D01*
X-216074Y142565D01*
X-219000Y143147D01*
D02*
G37*
G36*
X-116000D02*
X-118926Y142565D01*
X-121407Y140907D01*
X-123065Y138426D01*
X-123647Y135500D01*
X-123065Y132574D01*
X-121407Y130093D01*
X-118926Y128435D01*
X-116000Y127853D01*
X-113074Y128435D01*
X-110593Y130093D01*
X-108935Y132574D01*
X-108353Y135500D01*
X-108935Y138426D01*
X-110593Y140907D01*
X-113074Y142565D01*
X-116000Y143147D01*
D02*
G37*
G36*
X163047Y119600D02*
X160120Y119018D01*
X157640Y117360D01*
X155982Y114880D01*
X155400Y111953D01*
X155982Y109027D01*
X157640Y106546D01*
X160120Y104888D01*
X163047Y104306D01*
X165973Y104888D01*
X168454Y106546D01*
X170112Y109027D01*
X170694Y111953D01*
X170112Y114880D01*
X168454Y117360D01*
X165973Y119018D01*
X163047Y119600D01*
D02*
G37*
G36*
X422000Y121647D02*
X419074Y121065D01*
X416593Y119407D01*
X414935Y116926D01*
X414353Y114000D01*
X414935Y111074D01*
X416593Y108593D01*
X419074Y106935D01*
X422000Y106353D01*
X424926Y106935D01*
X427407Y108593D01*
X429065Y111074D01*
X429647Y114000D01*
X429065Y116926D01*
X427407Y119407D01*
X424926Y121065D01*
X422000Y121647D01*
D02*
G37*
G36*
X95000Y125147D02*
X92074Y124565D01*
X89593Y122907D01*
X87935Y120426D01*
X87353Y117500D01*
X87935Y114574D01*
X89593Y112093D01*
X92074Y110435D01*
X95000Y109853D01*
X97926Y110435D01*
X100407Y112093D01*
X102065Y114574D01*
X102647Y117500D01*
X102065Y120426D01*
X100407Y122907D01*
X97926Y124565D01*
X95000Y125147D01*
D02*
G37*
G36*
X310000Y201676D02*
X306488Y200978D01*
X303511Y198989D01*
X301522Y196012D01*
X300824Y192500D01*
X301522Y188988D01*
X303511Y186011D01*
X306488Y184022D01*
X310000Y183324D01*
X313512Y184022D01*
X316489Y186011D01*
X318478Y188988D01*
X319176Y192500D01*
X318478Y196012D01*
X316489Y198989D01*
X313512Y200978D01*
X310000Y201676D01*
D02*
G37*
G36*
X-255000Y219790D02*
X-258916Y219274D01*
X-262565Y217763D01*
X-265698Y215358D01*
X-268102Y212225D01*
X-269614Y208576D01*
X-270129Y204660D01*
X-269614Y200744D01*
X-268102Y197096D01*
X-265698Y193962D01*
X-262565Y191558D01*
X-258916Y190046D01*
X-255000Y189531D01*
X-251084Y190046D01*
X-247435Y191558D01*
X-244302Y193962D01*
X-241897Y197096D01*
X-240386Y200744D01*
X-239870Y204660D01*
X-240386Y208576D01*
X-241897Y212225D01*
X-244302Y215358D01*
X-247435Y217763D01*
X-251084Y219274D01*
X-255000Y219790D01*
D02*
G37*
G36*
X-141220Y205647D02*
X-144146Y205065D01*
X-146627Y203407D01*
X-148285Y200926D01*
X-148867Y198000D01*
X-148285Y195074D01*
X-146627Y192593D01*
X-144146Y190935D01*
X-141220Y190353D01*
X-138294Y190935D01*
X-135813Y192593D01*
X-134155Y195074D01*
X-133573Y198000D01*
X-134155Y200926D01*
X-135813Y203407D01*
X-138294Y205065D01*
X-141220Y205647D01*
D02*
G37*
G36*
X40000Y152647D02*
X37074Y152065D01*
X34593Y150407D01*
X32935Y147926D01*
X32353Y145000D01*
X32935Y142074D01*
X34593Y139593D01*
X37074Y137935D01*
X40000Y137353D01*
X42926Y137935D01*
X45407Y139593D01*
X47065Y142074D01*
X47647Y145000D01*
X47065Y147926D01*
X45407Y150407D01*
X42926Y152065D01*
X40000Y152647D01*
D02*
G37*
G36*
X263000Y177647D02*
X260074Y177065D01*
X257593Y175407D01*
X255935Y172926D01*
X255353Y170000D01*
X255935Y167074D01*
X257593Y164593D01*
X260074Y162935D01*
X263000Y162353D01*
X265926Y162935D01*
X268407Y164593D01*
X270065Y167074D01*
X270647Y170000D01*
X270065Y172926D01*
X268407Y175407D01*
X265926Y177065D01*
X263000Y177647D01*
D02*
G37*
G36*
X175000Y178600D02*
X172074Y178018D01*
X169593Y176360D01*
X167935Y173880D01*
X167353Y170953D01*
X167935Y168027D01*
X169593Y165546D01*
X172074Y163888D01*
X175000Y163306D01*
X177926Y163888D01*
X180407Y165546D01*
X182065Y168027D01*
X182647Y170953D01*
X182065Y173880D01*
X180407Y176360D01*
X177926Y178018D01*
X175000Y178600D01*
D02*
G37*
G36*
X243590Y68057D02*
X240664Y67475D01*
X238183Y65817D01*
X236525Y63336D01*
X235943Y60410D01*
X236525Y57484D01*
X238183Y55003D01*
X240664Y53345D01*
X243590Y52763D01*
X246516Y53345D01*
X248997Y55003D01*
X250655Y57484D01*
X251237Y60410D01*
X250655Y63336D01*
X248997Y65817D01*
X246516Y67475D01*
X243590Y68057D01*
D02*
G37*
G36*
X156000Y73554D02*
X153074Y72972D01*
X150593Y71314D01*
X148935Y68833D01*
X148353Y65907D01*
X148935Y62980D01*
X150593Y60499D01*
X153074Y58842D01*
X156000Y58260D01*
X158926Y58842D01*
X161407Y60499D01*
X163065Y62980D01*
X163647Y65907D01*
X163065Y68833D01*
X161407Y71314D01*
X158926Y72972D01*
X156000Y73554D01*
D02*
G37*
G36*
X73000Y50647D02*
X70074Y50065D01*
X67593Y48407D01*
X65935Y45926D01*
X65353Y43000D01*
X65935Y40074D01*
X67593Y37593D01*
X70074Y35935D01*
X73000Y35353D01*
X75926Y35935D01*
X78407Y37593D01*
X80065Y40074D01*
X80647Y43000D01*
X80065Y45926D01*
X78407Y48407D01*
X75926Y50065D01*
X73000Y50647D01*
D02*
G37*
G36*
X305000Y117647D02*
X302074Y117065D01*
X299593Y115407D01*
X297935Y112926D01*
X297353Y110000D01*
X297935Y107074D01*
X299593Y104593D01*
Y102907D01*
X297935Y100426D01*
X297353Y97500D01*
X297935Y94574D01*
X299593Y92093D01*
Y90407D01*
X297935Y87926D01*
X297353Y85000D01*
X297935Y82074D01*
X299593Y79593D01*
X302074Y77935D01*
X305000Y77353D01*
X307926Y77935D01*
X310407Y79593D01*
X312065Y82074D01*
X312647Y85000D01*
X312065Y87926D01*
X310407Y90407D01*
Y92093D01*
X312065Y94574D01*
X312647Y97500D01*
X312065Y100426D01*
X310407Y102907D01*
Y104593D01*
X312065Y107074D01*
X312647Y110000D01*
X312065Y112926D01*
X310407Y115407D01*
X307926Y117065D01*
X305000Y117647D01*
D02*
G37*
G36*
X245000Y114647D02*
X242074Y114065D01*
X239593Y112407D01*
X237935Y109926D01*
X237353Y107000D01*
X237935Y104074D01*
X239593Y101593D01*
X242074Y99935D01*
X245000Y99353D01*
X247926Y99935D01*
X250407Y101593D01*
X252065Y104074D01*
X252647Y107000D01*
X252065Y109926D01*
X250407Y112407D01*
X247926Y114065D01*
X245000Y114647D01*
D02*
G37*
G36*
X198590Y116237D02*
X195664Y115655D01*
X193183Y113997D01*
X191525Y111516D01*
X190943Y108590D01*
X191525Y105664D01*
X193183Y103183D01*
X195664Y101525D01*
X198590Y100943D01*
X201516Y101525D01*
X203997Y103183D01*
X205655Y105664D01*
X206237Y108590D01*
X205655Y111516D01*
X203997Y113997D01*
X201516Y115655D01*
X198590Y116237D01*
D02*
G37*
G36*
X140000Y81647D02*
X137074Y81065D01*
X134593Y79407D01*
X132935Y76926D01*
X132353Y74000D01*
X132935Y71074D01*
X134593Y68593D01*
X137074Y66935D01*
X140000Y66353D01*
X142926Y66935D01*
X145407Y68593D01*
X147065Y71074D01*
X147647Y74000D01*
X147065Y76926D01*
X145407Y79407D01*
X142926Y81065D01*
X140000Y81647D01*
D02*
G37*
G36*
X196953Y84600D02*
X194027Y84018D01*
X191546Y82360D01*
X189888Y79880D01*
X189306Y76953D01*
X189888Y74027D01*
X191546Y71546D01*
X194027Y69889D01*
X196953Y69306D01*
X199880Y69889D01*
X202360Y71546D01*
X204018Y74027D01*
X204600Y76953D01*
X204018Y79880D01*
X202360Y82360D01*
X199880Y84018D01*
X196953Y84600D01*
D02*
G37*
G36*
X-80000Y6647D02*
X-82926Y6065D01*
X-85407Y4407D01*
X-87065Y1926D01*
X-87647Y-1000D01*
X-87065Y-3926D01*
X-85407Y-6407D01*
X-82926Y-8065D01*
X-80000Y-8647D01*
X-77074Y-8065D01*
X-74593Y-6407D01*
X-72935Y-3926D01*
X-72353Y-1000D01*
X-72935Y1926D01*
X-74593Y4407D01*
X-77074Y6065D01*
X-80000Y6647D01*
D02*
G37*
G36*
X-187000Y8647D02*
X-189926Y8065D01*
X-192407Y6407D01*
X-194065Y3926D01*
X-194647Y1000D01*
X-194065Y-1926D01*
X-192407Y-4407D01*
X-189926Y-6065D01*
X-187000Y-6647D01*
X-184074Y-6065D01*
X-181593Y-4407D01*
X-179935Y-1926D01*
X-179353Y1000D01*
X-179935Y3926D01*
X-181593Y6407D01*
X-184074Y8065D01*
X-187000Y8647D01*
D02*
G37*
G36*
X-183000Y36647D02*
X-185926Y36065D01*
X-188407Y34407D01*
X-190065Y31926D01*
X-190647Y29000D01*
X-190065Y26074D01*
X-188407Y23593D01*
X-185926Y21935D01*
X-183000Y21353D01*
X-180074Y21935D01*
X-177593Y23593D01*
X-175935Y26074D01*
X-175353Y29000D01*
X-175935Y31926D01*
X-177593Y34407D01*
X-180074Y36065D01*
X-183000Y36647D01*
D02*
G37*
G36*
X-106500Y44147D02*
X-109426Y43565D01*
X-111907Y41907D01*
X-113565Y39426D01*
X-114147Y36500D01*
X-113565Y33574D01*
X-111907Y31093D01*
X-109426Y29435D01*
X-106500Y28853D01*
X-103574Y29435D01*
X-101093Y31093D01*
X-99435Y33574D01*
X-98853Y36500D01*
X-99435Y39426D01*
X-101093Y41907D01*
X-103574Y43565D01*
X-106500Y44147D01*
D02*
G37*
G36*
X-96750Y-114314D02*
X-100457Y-115051D01*
X-103599Y-117151D01*
X-105699Y-120293D01*
X-106436Y-124000D01*
Y-134000D01*
X-105699Y-137707D01*
X-103599Y-140849D01*
X-100457Y-142949D01*
X-96750Y-143686D01*
X-93043Y-142949D01*
X-89901Y-140849D01*
X-87801Y-137707D01*
X-87064Y-134000D01*
Y-124000D01*
X-87801Y-120293D01*
X-89901Y-117151D01*
X-93043Y-115051D01*
X-96750Y-114314D01*
D02*
G37*
G36*
X-250000Y-108315D02*
X-255613Y-109053D01*
X-260843Y-111220D01*
X-265334Y-114666D01*
X-268780Y-119157D01*
X-270947Y-124387D01*
X-271686Y-130000D01*
X-270947Y-135613D01*
X-268780Y-140843D01*
X-265334Y-145334D01*
X-260843Y-148780D01*
X-255613Y-150947D01*
X-250000Y-151685D01*
X-244387Y-150947D01*
X-239157Y-148780D01*
X-234666Y-145334D01*
X-231220Y-140843D01*
X-229053Y-135613D01*
X-228314Y-130000D01*
X-229053Y-124387D01*
X-231220Y-119157D01*
X-234666Y-114666D01*
X-239157Y-111220D01*
X-244387Y-109053D01*
X-250000Y-108315D01*
D02*
G37*
G36*
X-141250Y-114314D02*
X-144957Y-115051D01*
X-148099Y-117151D01*
X-150199Y-120293D01*
X-150936Y-124000D01*
Y-134000D01*
X-150199Y-137707D01*
X-148099Y-140849D01*
X-144957Y-142949D01*
X-141250Y-143686D01*
X-137543Y-142949D01*
X-134401Y-140849D01*
X-132301Y-137707D01*
X-131564Y-134000D01*
Y-124000D01*
X-132301Y-120293D01*
X-134401Y-117151D01*
X-137543Y-115051D01*
X-141250Y-114314D01*
D02*
G37*
G36*
X-135000Y-54353D02*
X-137926Y-54935D01*
X-140407Y-56593D01*
X-142065Y-59074D01*
X-142647Y-62000D01*
X-142065Y-64926D01*
X-140407Y-67407D01*
X-137926Y-69065D01*
X-135000Y-69647D01*
X-132074Y-69065D01*
X-129593Y-67407D01*
X-127935Y-64926D01*
X-127353Y-62000D01*
X-127935Y-59074D01*
X-129593Y-56593D01*
X-132074Y-54935D01*
X-135000Y-54353D01*
D02*
G37*
G36*
X-200469Y-49353D02*
X-203395Y-49935D01*
X-205876Y-51593D01*
X-207534Y-54074D01*
X-208116Y-57000D01*
X-207534Y-59926D01*
X-205876Y-62407D01*
X-203395Y-64065D01*
X-200469Y-64647D01*
X-197543Y-64065D01*
X-195062Y-62407D01*
X-193404Y-59926D01*
X-192822Y-57000D01*
X-193404Y-54074D01*
X-195062Y-51593D01*
X-197543Y-49935D01*
X-200469Y-49353D01*
D02*
G37*
G36*
X-106500Y-41853D02*
X-109426Y-42435D01*
X-111907Y-44093D01*
X-113565Y-46574D01*
X-114147Y-49500D01*
X-113565Y-52426D01*
X-111907Y-54907D01*
X-109426Y-56565D01*
X-106500Y-57147D01*
X-103574Y-56565D01*
X-101093Y-54907D01*
X-99435Y-52426D01*
X-98853Y-49500D01*
X-99435Y-46574D01*
X-101093Y-44093D01*
X-103574Y-42435D01*
X-106500Y-41853D01*
D02*
G37*
G36*
X-91500Y-90353D02*
X-94426Y-90935D01*
X-96907Y-92593D01*
X-98565Y-95074D01*
X-99147Y-98000D01*
X-98565Y-100926D01*
X-96907Y-103407D01*
X-94426Y-105065D01*
X-91500Y-105647D01*
X-88574Y-105065D01*
X-86093Y-103407D01*
X-84435Y-100926D01*
X-83853Y-98000D01*
X-84435Y-95074D01*
X-86093Y-92593D01*
X-88574Y-90935D01*
X-91500Y-90353D01*
D02*
G37*
G36*
X-156000Y66647D02*
X-158926Y66065D01*
X-161407Y64407D01*
X-163065Y61926D01*
X-163647Y59000D01*
X-163065Y56074D01*
X-161407Y53593D01*
X-158926Y51935D01*
X-156000Y51353D01*
X-153074Y51935D01*
X-150593Y53593D01*
X-148935Y56074D01*
X-148353Y59000D01*
X-148935Y61926D01*
X-150593Y64407D01*
X-153074Y66065D01*
X-156000Y66647D01*
D02*
G37*
G36*
X-141469Y46147D02*
X-144395Y45565D01*
X-146876Y43907D01*
X-147766Y42575D01*
X-150172D01*
X-151062Y43907D01*
X-153543Y45565D01*
X-156469Y46147D01*
X-159395Y45565D01*
X-161876Y43907D01*
X-163534Y41426D01*
X-164116Y38500D01*
X-163534Y35574D01*
X-161876Y33093D01*
X-160544Y32203D01*
Y29797D01*
X-161876Y28907D01*
X-163534Y26426D01*
X-164116Y23500D01*
X-163534Y20574D01*
X-161876Y18093D01*
X-159395Y16435D01*
X-156469Y15853D01*
X-153543Y16435D01*
X-151062Y18093D01*
X-150172Y19425D01*
X-147766D01*
X-146876Y18093D01*
X-144395Y16435D01*
X-141469Y15853D01*
X-138543Y16435D01*
X-136062Y18093D01*
X-134404Y20574D01*
X-133822Y23500D01*
X-134404Y26426D01*
X-136062Y28907D01*
X-137394Y29797D01*
Y32203D01*
X-136062Y33093D01*
X-134404Y35574D01*
X-133822Y38500D01*
X-134404Y41426D01*
X-136062Y43907D01*
X-138543Y45565D01*
X-141469Y46147D01*
D02*
G37*
G36*
X-187000Y63647D02*
X-189926Y63065D01*
X-192407Y61407D01*
X-194065Y58926D01*
X-194647Y56000D01*
X-194065Y53074D01*
X-192407Y50593D01*
X-189926Y48935D01*
X-187000Y48353D01*
X-184074Y48935D01*
X-181593Y50593D01*
X-179935Y53074D01*
X-179353Y56000D01*
X-179935Y58926D01*
X-181593Y61407D01*
X-184074Y63065D01*
X-187000Y63647D01*
D02*
G37*
G36*
X-131919Y74147D02*
X-134845Y73565D01*
X-137326Y71907D01*
X-138984Y69426D01*
X-139566Y66500D01*
X-138984Y63574D01*
X-137326Y61093D01*
X-134845Y59435D01*
X-131919Y58853D01*
X-128993Y59435D01*
X-126512Y61093D01*
X-124854Y63574D01*
X-124272Y66500D01*
X-124854Y69426D01*
X-126512Y71907D01*
X-128993Y73565D01*
X-131919Y74147D01*
D02*
G37*
G36*
X357500Y1437500D02*
X317500D01*
Y1397500D01*
X357500D01*
Y1437500D01*
D02*
G37*
G36*
X281500Y1411500D02*
X274832D01*
X275271Y1410440D01*
X277515Y1407515D01*
X280440Y1405271D01*
X281500Y1404832D01*
Y1411500D01*
D02*
G37*
G36*
X300168D02*
X293500D01*
Y1404832D01*
X294560Y1405271D01*
X297485Y1407515D01*
X299729Y1410440D01*
X300168Y1411500D01*
D02*
G37*
G36*
X96090Y1242647D02*
X93163Y1242065D01*
X90683Y1240407D01*
X89025Y1237926D01*
X88443Y1235000D01*
X89025Y1232074D01*
X90683Y1229593D01*
X93163Y1227935D01*
X96090Y1227353D01*
X99016Y1227935D01*
X101497Y1229593D01*
X103155Y1232074D01*
X103737Y1235000D01*
X103155Y1237926D01*
X101497Y1240407D01*
X99016Y1242065D01*
X96090Y1242647D01*
D02*
G37*
G36*
X414500Y1261167D02*
X411184Y1260507D01*
X408372Y1258628D01*
X406493Y1255816D01*
X405834Y1252500D01*
X406493Y1249184D01*
X408372Y1246372D01*
X411184Y1244493D01*
X414500Y1243833D01*
X417817Y1244493D01*
X420628Y1246372D01*
X422507Y1249184D01*
X423167Y1252500D01*
X422507Y1255816D01*
X420628Y1258628D01*
X417817Y1260507D01*
X414500Y1261167D01*
D02*
G37*
G36*
X-135750Y1372147D02*
X-138676Y1371565D01*
X-141157Y1369907D01*
X-142815Y1367426D01*
X-143397Y1364500D01*
X-142815Y1361574D01*
X-141157Y1359093D01*
X-138676Y1357435D01*
X-135750Y1356853D01*
X-132824Y1357435D01*
X-130343Y1359093D01*
X-128685Y1361574D01*
X-128103Y1364500D01*
X-128685Y1367426D01*
X-130343Y1369907D01*
X-132824Y1371565D01*
X-135750Y1372147D01*
D02*
G37*
G36*
X424000Y1537147D02*
X411000D01*
X406562Y1536562D01*
X402427Y1534850D01*
X398876Y1532124D01*
X396151Y1528573D01*
X394438Y1524438D01*
X393853Y1520000D01*
X394438Y1515562D01*
X396151Y1511427D01*
X398876Y1507876D01*
X402427Y1505151D01*
X406562Y1503438D01*
X411000Y1502853D01*
X424000D01*
X428438Y1503438D01*
X432573Y1505151D01*
X436125Y1507876D01*
X438849Y1511427D01*
X440563Y1515562D01*
X441147Y1520000D01*
X440563Y1524438D01*
X438849Y1528573D01*
X436125Y1532124D01*
X432573Y1534850D01*
X428438Y1536562D01*
X424000Y1537147D01*
D02*
G37*
G36*
X604000Y1531095D02*
X591000D01*
X588128Y1530717D01*
X585453Y1529608D01*
X583155Y1527845D01*
X581391Y1525547D01*
X580283Y1522872D01*
X579905Y1520000D01*
X580283Y1517128D01*
X581391Y1514453D01*
X583155Y1512155D01*
X585453Y1510392D01*
X588128Y1509283D01*
X591000Y1508905D01*
X604000D01*
X606872Y1509283D01*
X609547Y1510392D01*
X611845Y1512155D01*
X613609Y1514453D01*
X614717Y1517128D01*
X615095Y1520000D01*
X614717Y1522872D01*
X613609Y1525547D01*
X611845Y1527845D01*
X609547Y1529608D01*
X606872Y1530717D01*
X604000Y1531095D01*
D02*
G37*
G36*
X63211Y1558782D02*
X59515Y1558295D01*
X56070Y1556869D01*
X53112Y1554599D01*
X50843Y1551641D01*
X49416Y1548196D01*
X48929Y1544500D01*
X49416Y1540803D01*
X50843Y1537359D01*
X53112Y1534401D01*
X56070Y1532131D01*
X59515Y1530704D01*
X63211Y1530218D01*
X66908Y1530704D01*
X70353Y1532131D01*
X73310Y1534401D01*
X75580Y1537359D01*
X77007Y1540803D01*
X77494Y1544500D01*
X77007Y1548196D01*
X75580Y1551641D01*
X73310Y1554599D01*
X70353Y1556869D01*
X66908Y1558295D01*
X63211Y1558782D01*
D02*
G37*
G36*
X281500Y1430168D02*
X280440Y1429729D01*
X277515Y1427485D01*
X275271Y1424560D01*
X274832Y1423500D01*
X281500D01*
Y1430168D01*
D02*
G37*
G36*
X293500Y1430168D02*
Y1423500D01*
X300168D01*
X299729Y1424560D01*
X297485Y1427485D01*
X294560Y1429729D01*
X293500Y1430168D01*
D02*
G37*
G36*
X493000Y1481282D02*
X489304Y1480795D01*
X485859Y1479369D01*
X482901Y1477099D01*
X480631Y1474141D01*
X479204Y1470697D01*
X478718Y1467000D01*
X479204Y1463304D01*
X480631Y1459859D01*
X482901Y1456901D01*
X485859Y1454631D01*
X489304Y1453204D01*
X493000Y1452718D01*
X496697Y1453204D01*
X500141Y1454631D01*
X503099Y1456901D01*
X505369Y1459859D01*
X506796Y1463304D01*
X507282Y1467000D01*
X506796Y1470697D01*
X505369Y1474141D01*
X503099Y1477099D01*
X500141Y1479369D01*
X496697Y1480795D01*
X493000Y1481282D01*
D02*
G37*
G36*
X250000Y1084667D02*
X246684Y1084007D01*
X243872Y1082128D01*
X241993Y1079316D01*
X241334Y1076000D01*
X241993Y1072683D01*
X243872Y1069872D01*
X246684Y1067993D01*
X250000Y1067334D01*
X253316Y1067993D01*
X256128Y1069872D01*
X258007Y1072683D01*
X258666Y1076000D01*
X258007Y1079316D01*
X256128Y1082128D01*
X253316Y1084007D01*
X250000Y1084667D01*
D02*
G37*
G36*
X96071Y1222576D02*
X93145Y1221994D01*
X90664Y1220336D01*
X89006Y1217855D01*
X88424Y1214929D01*
X89006Y1212003D01*
X90664Y1209522D01*
X93145Y1207864D01*
X96071Y1207282D01*
X98997Y1207864D01*
X101478Y1209522D01*
X103136Y1212003D01*
X103718Y1214929D01*
X103136Y1217855D01*
X101478Y1220336D01*
X98997Y1221994D01*
X96071Y1222576D01*
D02*
G37*
G36*
X414500Y1241167D02*
X411184Y1240507D01*
X408372Y1238628D01*
X406493Y1235816D01*
X405834Y1232500D01*
X406493Y1229184D01*
X408372Y1226372D01*
X411184Y1224493D01*
X414500Y1223833D01*
X417817Y1224493D01*
X420628Y1226372D01*
X422507Y1229184D01*
X423167Y1232500D01*
X422507Y1235816D01*
X420628Y1238628D01*
X417817Y1240507D01*
X414500Y1241167D01*
D02*
G37*
G36*
X330000Y1018667D02*
X326684Y1018007D01*
X323872Y1016128D01*
X321993Y1013316D01*
X321334Y1010000D01*
X321993Y1006684D01*
X323872Y1003872D01*
X326684Y1001993D01*
X330000Y1001333D01*
X333316Y1001993D01*
X336128Y1003872D01*
X338007Y1006684D01*
X338666Y1010000D01*
X338007Y1013316D01*
X336128Y1016128D01*
X333316Y1018007D01*
X330000Y1018667D01*
D02*
G37*
G36*
X288000Y1042176D02*
X284488Y1041478D01*
X281511Y1039489D01*
X279522Y1036512D01*
X278824Y1033000D01*
X279522Y1029488D01*
X281511Y1026511D01*
X284488Y1024522D01*
X288000Y1023824D01*
X291512Y1024522D01*
X294489Y1026511D01*
X296478Y1029488D01*
X297176Y1033000D01*
X296478Y1036512D01*
X294489Y1039489D01*
X291512Y1041478D01*
X288000Y1042176D01*
D02*
G37*
G36*
X449000Y1061176D02*
X445488Y1060478D01*
X442511Y1058489D01*
X440522Y1055512D01*
X439824Y1052000D01*
X440522Y1048488D01*
X442511Y1045511D01*
X445488Y1043522D01*
X449000Y1042824D01*
X452512Y1043522D01*
X455489Y1045511D01*
X457478Y1048488D01*
X458176Y1052000D01*
X457478Y1055512D01*
X455489Y1058489D01*
X452512Y1060478D01*
X449000Y1061176D01*
D02*
G37*
G36*
X246500Y1654000D02*
X229240D01*
X230220Y1650771D01*
X232448Y1646602D01*
X235447Y1642947D01*
X239102Y1639948D01*
X243271Y1637720D01*
X246500Y1636740D01*
Y1654000D01*
D02*
G37*
G36*
Y1683260D02*
X243271Y1682280D01*
X239102Y1680052D01*
X235447Y1677053D01*
X232448Y1673398D01*
X230220Y1669229D01*
X229240Y1666000D01*
X246500D01*
Y1683260D01*
D02*
G37*
G36*
X258500Y1683260D02*
Y1666000D01*
X275760D01*
X274780Y1669229D01*
X272552Y1673398D01*
X269553Y1677053D01*
X265898Y1680052D01*
X261729Y1682280D01*
X258500Y1683260D01*
D02*
G37*
G36*
X535760Y1654000D02*
X518500D01*
Y1636740D01*
X521729Y1637720D01*
X525898Y1639948D01*
X529553Y1642947D01*
X532552Y1646602D01*
X534780Y1650771D01*
X535760Y1654000D01*
D02*
G37*
G36*
X506500D02*
X489240D01*
X490220Y1650771D01*
X492448Y1646602D01*
X495447Y1642947D01*
X499102Y1639948D01*
X503271Y1637720D01*
X506500Y1636740D01*
Y1654000D01*
D02*
G37*
G36*
X15760D02*
X-1500D01*
Y1636740D01*
X1729Y1637720D01*
X5898Y1639948D01*
X9553Y1642947D01*
X12552Y1646602D01*
X14780Y1650771D01*
X15760Y1654000D01*
D02*
G37*
G36*
X-1500Y1683260D02*
Y1666000D01*
X15760D01*
X14780Y1669229D01*
X12552Y1673398D01*
X9553Y1677053D01*
X5898Y1680052D01*
X1729Y1682280D01*
X-1500Y1683260D01*
D02*
G37*
G36*
X-250000Y1801685D02*
X-255613Y1800947D01*
X-260843Y1798780D01*
X-265334Y1795334D01*
X-268780Y1790843D01*
X-270947Y1785613D01*
X-271686Y1780000D01*
X-270947Y1774387D01*
X-268780Y1769157D01*
X-265334Y1764666D01*
X-260843Y1761220D01*
X-255613Y1759053D01*
X-250000Y1758315D01*
X-244387Y1759053D01*
X-239157Y1761220D01*
X-234666Y1764666D01*
X-231220Y1769157D01*
X-229053Y1774387D01*
X-228314Y1780000D01*
X-229053Y1785613D01*
X-231220Y1790843D01*
X-234666Y1795334D01*
X-239157Y1798780D01*
X-244387Y1800947D01*
X-250000Y1801685D01*
D02*
G37*
G36*
X660000Y1801685D02*
X654387Y1800947D01*
X649157Y1798780D01*
X644666Y1795334D01*
X641220Y1790843D01*
X639053Y1785613D01*
X638315Y1780000D01*
X639053Y1774387D01*
X641220Y1769157D01*
X644666Y1764666D01*
X649157Y1761220D01*
X654387Y1759053D01*
X660000Y1758315D01*
X665613Y1759053D01*
X670843Y1761220D01*
X675334Y1764666D01*
X678780Y1769157D01*
X680947Y1774387D01*
X681685Y1780000D01*
X680947Y1785613D01*
X678780Y1790843D01*
X675334Y1795334D01*
X670843Y1798780D01*
X665613Y1800947D01*
X660000Y1801685D01*
D02*
G37*
G36*
X-13500Y1683260D02*
X-16729Y1682280D01*
X-20898Y1680052D01*
X-24553Y1677053D01*
X-27552Y1673398D01*
X-29780Y1669229D01*
X-30760Y1666000D01*
X-13500D01*
Y1683260D01*
D02*
G37*
G36*
X506500Y1683260D02*
X503271Y1682280D01*
X499102Y1680052D01*
X495447Y1677053D01*
X492448Y1673398D01*
X490220Y1669229D01*
X489240Y1666000D01*
X506500D01*
Y1683260D01*
D02*
G37*
G36*
X518500Y1683260D02*
Y1666000D01*
X535760D01*
X534780Y1669229D01*
X532552Y1673398D01*
X529553Y1677053D01*
X525898Y1680052D01*
X521729Y1682280D01*
X518500Y1683260D01*
D02*
G37*
G36*
X424000Y1582147D02*
X411000D01*
X406562Y1581562D01*
X402427Y1579850D01*
X398876Y1577125D01*
X396151Y1573573D01*
X394438Y1569438D01*
X393853Y1565000D01*
X394438Y1560562D01*
X396151Y1556427D01*
X398876Y1552876D01*
X402427Y1550151D01*
X406562Y1548438D01*
X411000Y1547853D01*
X424000D01*
X428438Y1548438D01*
X432573Y1550151D01*
X436125Y1552876D01*
X438849Y1556427D01*
X440563Y1560562D01*
X441147Y1565000D01*
X440563Y1569438D01*
X438849Y1573573D01*
X436125Y1577125D01*
X432573Y1579850D01*
X428438Y1581562D01*
X424000Y1582147D01*
D02*
G37*
G36*
X216500Y1557841D02*
X215359Y1557369D01*
X212401Y1555099D01*
X210131Y1552141D01*
X209659Y1551000D01*
X216500D01*
Y1557841D01*
D02*
G37*
G36*
X228500Y1557841D02*
Y1551000D01*
X235341D01*
X234869Y1552141D01*
X232599Y1555099D01*
X229641Y1557369D01*
X228500Y1557841D01*
D02*
G37*
G36*
X-110000Y1559282D02*
X-113696Y1558795D01*
X-117141Y1557369D01*
X-120099Y1555099D01*
X-122369Y1552141D01*
X-123795Y1548696D01*
X-124282Y1545000D01*
X-123795Y1541304D01*
X-122369Y1537859D01*
X-120099Y1534901D01*
X-117141Y1532631D01*
X-113696Y1531205D01*
X-110000Y1530718D01*
X-106304Y1531205D01*
X-102859Y1532631D01*
X-99901Y1534901D01*
X-97631Y1537859D01*
X-96205Y1541304D01*
X-95718Y1545000D01*
X-96205Y1548696D01*
X-97631Y1552141D01*
X-99901Y1555099D01*
X-102859Y1557369D01*
X-106304Y1558795D01*
X-110000Y1559282D01*
D02*
G37*
G36*
X235341Y1539000D02*
X228500D01*
Y1532159D01*
X229641Y1532631D01*
X232599Y1534901D01*
X234869Y1537859D01*
X235341Y1539000D01*
D02*
G37*
G36*
X216500D02*
X209659D01*
X210131Y1537859D01*
X212401Y1534901D01*
X215359Y1532631D01*
X216500Y1532159D01*
Y1539000D01*
D02*
G37*
G36*
X167500Y1684121D02*
X147500D01*
X143845Y1683640D01*
X140440Y1682229D01*
X137515Y1679985D01*
X135271Y1677060D01*
X133860Y1673655D01*
X133379Y1670000D01*
Y1650000D01*
X133860Y1646345D01*
X135271Y1642940D01*
X137515Y1640015D01*
X140440Y1637771D01*
X143845Y1636360D01*
X147500Y1635879D01*
X167500D01*
X171155Y1636360D01*
X174560Y1637771D01*
X177485Y1640015D01*
X179729Y1642940D01*
X181140Y1646345D01*
X181621Y1650000D01*
Y1670000D01*
X181140Y1673655D01*
X179729Y1677060D01*
X177485Y1679985D01*
X174560Y1682229D01*
X171155Y1683640D01*
X167500Y1684121D01*
D02*
G37*
G36*
X-13500Y1654000D02*
X-30760D01*
X-29780Y1650771D01*
X-27552Y1646602D01*
X-24553Y1642947D01*
X-20898Y1639948D01*
X-16729Y1637720D01*
X-13500Y1636740D01*
Y1654000D01*
D02*
G37*
G36*
X275760Y1654000D02*
X258500D01*
Y1636740D01*
X261729Y1637720D01*
X265898Y1639948D01*
X269553Y1642947D01*
X272552Y1646602D01*
X274780Y1650771D01*
X275760Y1654000D01*
D02*
G37*
G36*
X604000Y1576095D02*
X591000D01*
X588128Y1575717D01*
X585453Y1574608D01*
X583155Y1572845D01*
X581391Y1570547D01*
X580283Y1567872D01*
X579905Y1565000D01*
X580283Y1562128D01*
X581391Y1559453D01*
X583155Y1557155D01*
X585453Y1555392D01*
X588128Y1554283D01*
X591000Y1553905D01*
X604000D01*
X606872Y1554283D01*
X609547Y1555392D01*
X611845Y1557155D01*
X613609Y1559453D01*
X614717Y1562128D01*
X615095Y1565000D01*
X614717Y1567872D01*
X613609Y1570547D01*
X611845Y1572845D01*
X609547Y1574608D01*
X606872Y1575717D01*
X604000Y1576095D01*
D02*
G37*
G36*
X427500Y1690172D02*
X407500D01*
X402279Y1689485D01*
X397414Y1687470D01*
X393236Y1684264D01*
X390030Y1680086D01*
X388015Y1675221D01*
X387327Y1670000D01*
Y1650000D01*
X388015Y1644779D01*
X390030Y1639914D01*
X393236Y1635736D01*
X397414Y1632530D01*
X402279Y1630515D01*
X407500Y1629827D01*
X427500D01*
X432721Y1630515D01*
X437586Y1632530D01*
X441764Y1635736D01*
X444970Y1639914D01*
X446985Y1644779D01*
X447673Y1650000D01*
Y1670000D01*
X446985Y1675221D01*
X444970Y1680086D01*
X441764Y1684264D01*
X437586Y1687470D01*
X432721Y1689485D01*
X427500Y1690172D01*
D02*
G37*
G36*
X-92500Y1684121D02*
X-112500D01*
X-116155Y1683640D01*
X-119560Y1682229D01*
X-122485Y1679985D01*
X-124729Y1677060D01*
X-126140Y1673655D01*
X-126621Y1670000D01*
Y1650000D01*
X-126140Y1646345D01*
X-124729Y1642940D01*
X-122485Y1640015D01*
X-119560Y1637771D01*
X-116155Y1636360D01*
X-112500Y1635879D01*
X-92500D01*
X-88845Y1636360D01*
X-85440Y1637771D01*
X-82515Y1640015D01*
X-80271Y1642940D01*
X-78860Y1646345D01*
X-78379Y1650000D01*
Y1670000D01*
X-78860Y1673655D01*
X-80271Y1677060D01*
X-82515Y1679985D01*
X-85440Y1682229D01*
X-88845Y1683640D01*
X-92500Y1684121D01*
D02*
G37*
%LPD*%
D10*
X-85000Y296000D02*
D03*
X-99000D02*
D03*
X-113000D02*
D03*
Y309000D02*
D03*
Y322000D02*
D03*
X-99000Y309000D02*
D03*
Y322000D02*
D03*
X-85000D02*
D03*
Y309000D02*
D03*
X-91500Y-82000D02*
D03*
X-107500Y-69000D02*
D03*
X-91500D02*
D03*
D74*
X53000Y326000D02*
D03*
X222500Y1545000D02*
D03*
D76*
X287500Y1417500D02*
D03*
X150300Y220000D02*
D03*
D81*
X512500Y1660000D02*
D03*
X252500Y1660000D02*
D03*
X-7500Y1660000D02*
D03*
D85*
X137700Y449700D02*
D03*
D86*
Y424300D02*
D03*
D88*
X423100Y-125200D02*
D03*
D91*
X441100Y92900D02*
D03*
X671500Y1720524D02*
D03*
X684000Y1695524D02*
D03*
X671500Y1670524D02*
D03*
X684000Y1645524D02*
D03*
X671500Y1620524D02*
D03*
X646500Y1720524D02*
D03*
X659000Y1695524D02*
D03*
X646500Y1670524D02*
D03*
X659000Y1645524D02*
D03*
X646500Y1620524D02*
D03*
X621500Y1720524D02*
D03*
X634000Y1695524D02*
D03*
X621500Y1670524D02*
D03*
X634000Y1645524D02*
D03*
X621500Y1620524D02*
D03*
X596500Y1770524D02*
D03*
Y1720524D02*
D03*
Y1670524D02*
D03*
Y1620524D02*
D03*
X584000Y1795524D02*
D03*
X571500Y1770524D02*
D03*
X584000Y1745524D02*
D03*
X571500Y1720524D02*
D03*
X584000Y1695524D02*
D03*
X571500Y1670524D02*
D03*
X584000Y1645524D02*
D03*
X571500Y1620524D02*
D03*
X559000Y1795524D02*
D03*
X546500Y1770524D02*
D03*
X559000Y1745524D02*
D03*
X546500Y1720524D02*
D03*
X559000Y1695524D02*
D03*
X546500Y1670524D02*
D03*
X559000Y1645524D02*
D03*
X546500Y1620524D02*
D03*
X534000Y1795524D02*
D03*
X521500Y1770524D02*
D03*
X534000Y1745524D02*
D03*
X521500Y1720524D02*
D03*
X534000Y1695524D02*
D03*
X521500Y1620524D02*
D03*
X509000Y1795524D02*
D03*
X496500Y1770524D02*
D03*
X509000Y1745524D02*
D03*
X496500Y1720524D02*
D03*
X509000Y1695524D02*
D03*
X496500Y1620524D02*
D03*
X484000Y1795524D02*
D03*
X471500Y1770524D02*
D03*
X484000Y1745524D02*
D03*
X471500Y1720524D02*
D03*
X484000Y1695524D02*
D03*
X471500Y1670524D02*
D03*
X484000Y1645524D02*
D03*
X471500Y1620524D02*
D03*
X459000Y1795524D02*
D03*
X446500Y1770524D02*
D03*
X459000Y1745524D02*
D03*
X434000Y1795524D02*
D03*
X421500Y1770524D02*
D03*
X434000Y1745524D02*
D03*
X409000Y1795524D02*
D03*
X396500Y1770524D02*
D03*
X409000Y1745524D02*
D03*
X384000Y1795524D02*
D03*
X371500Y1770524D02*
D03*
X384000Y1745524D02*
D03*
X359000Y1795524D02*
D03*
Y1745524D02*
D03*
X334000Y1795524D02*
D03*
X321500Y1770524D02*
D03*
X334000Y1745524D02*
D03*
X309000Y1795524D02*
D03*
X296500Y1770524D02*
D03*
X309000Y1745524D02*
D03*
X296500Y1720524D02*
D03*
X309000Y1695524D02*
D03*
X296500Y1670524D02*
D03*
X309000Y1645524D02*
D03*
X296500Y1620524D02*
D03*
X309000Y1595524D02*
D03*
X296500Y1570524D02*
D03*
X309000Y1545524D02*
D03*
X296500Y1520524D02*
D03*
X309000Y1495524D02*
D03*
X296500Y1470524D02*
D03*
X309000Y1445524D02*
D03*
Y1395524D02*
D03*
X296500Y1370524D02*
D03*
X309000Y1345524D02*
D03*
X296500Y1220524D02*
D03*
X309000Y1195524D02*
D03*
X284000Y1795524D02*
D03*
X271500Y1770524D02*
D03*
X284000Y1745524D02*
D03*
X271500Y1720524D02*
D03*
X284000Y1695524D02*
D03*
Y1645524D02*
D03*
X271500Y1620524D02*
D03*
X284000Y1595524D02*
D03*
X271500Y1570524D02*
D03*
X284000Y1545524D02*
D03*
X271500Y1520524D02*
D03*
X284000Y1495524D02*
D03*
X271500Y1470524D02*
D03*
X284000Y1445524D02*
D03*
Y1395524D02*
D03*
X271500Y1370524D02*
D03*
X284000Y1345524D02*
D03*
X271500Y1320524D02*
D03*
Y1270524D02*
D03*
Y1220524D02*
D03*
X284000Y1195524D02*
D03*
X271500Y1170524D02*
D03*
X259000Y1795524D02*
D03*
X246500Y1770524D02*
D03*
X259000Y1745524D02*
D03*
X246500Y1720524D02*
D03*
X259000Y1695524D02*
D03*
X246500Y1620524D02*
D03*
X259000Y1595524D02*
D03*
X246500Y1570524D02*
D03*
X259000Y1545524D02*
D03*
X246500Y1520524D02*
D03*
X259000Y1495524D02*
D03*
X246500Y1470524D02*
D03*
X259000Y1445524D02*
D03*
X246500Y1420524D02*
D03*
X259000Y1395524D02*
D03*
X246500Y1370524D02*
D03*
X259000Y1345524D02*
D03*
X246500Y1320524D02*
D03*
X259000Y1295524D02*
D03*
X246500Y1270524D02*
D03*
Y1220524D02*
D03*
X259000Y1195524D02*
D03*
X246500Y1170524D02*
D03*
X259000Y1145524D02*
D03*
X234000Y1795524D02*
D03*
X221500Y1770524D02*
D03*
X234000Y1745524D02*
D03*
X221500Y1720524D02*
D03*
X234000Y1695524D02*
D03*
X221500Y1670524D02*
D03*
Y1620524D02*
D03*
X234000Y1595524D02*
D03*
X221500Y1570524D02*
D03*
X234000Y1495524D02*
D03*
X221500Y1470524D02*
D03*
X234000Y1445524D02*
D03*
X221500Y1420524D02*
D03*
X234000Y1395524D02*
D03*
X221500Y1370524D02*
D03*
X234000Y1345524D02*
D03*
X221500Y1320524D02*
D03*
X234000Y1295524D02*
D03*
X221500Y1270524D02*
D03*
Y1220524D02*
D03*
X234000Y1195524D02*
D03*
X221500Y1170524D02*
D03*
X234000Y1145524D02*
D03*
X209000Y1795524D02*
D03*
X196500Y1770524D02*
D03*
X209000Y1745524D02*
D03*
Y1695524D02*
D03*
Y1645524D02*
D03*
Y1595524D02*
D03*
X196500Y1570524D02*
D03*
X209000Y1495524D02*
D03*
X196500Y1470524D02*
D03*
X209000Y1445524D02*
D03*
Y1395524D02*
D03*
X196500Y1370524D02*
D03*
X209000Y1345524D02*
D03*
Y1295524D02*
D03*
X196500Y1270524D02*
D03*
X209000Y1195524D02*
D03*
Y1145524D02*
D03*
X184000Y1795524D02*
D03*
X171500Y1770524D02*
D03*
X184000Y1745524D02*
D03*
Y1595524D02*
D03*
X171500Y1570524D02*
D03*
X184000Y1545524D02*
D03*
X171500Y1470524D02*
D03*
X184000Y1445524D02*
D03*
X171500Y1370524D02*
D03*
X184000Y1345524D02*
D03*
Y1295524D02*
D03*
X159000Y1795524D02*
D03*
X146500Y1770524D02*
D03*
X159000Y1745524D02*
D03*
Y1545524D02*
D03*
Y1445524D02*
D03*
Y1345524D02*
D03*
Y1295524D02*
D03*
X134000Y1795524D02*
D03*
X121500Y1770524D02*
D03*
X134000Y1745524D02*
D03*
Y1545524D02*
D03*
Y1495524D02*
D03*
Y1445524D02*
D03*
Y1395524D02*
D03*
Y1345524D02*
D03*
Y1295524D02*
D03*
X109000Y1795524D02*
D03*
X96500Y1770524D02*
D03*
X109000Y1745524D02*
D03*
X84000Y1795524D02*
D03*
X71500Y1770524D02*
D03*
X84000Y1745524D02*
D03*
X59000Y1795524D02*
D03*
X46500Y1770524D02*
D03*
X59000Y1745524D02*
D03*
X34000Y1795524D02*
D03*
X21500Y1770524D02*
D03*
X34000Y1745524D02*
D03*
X21500Y1720524D02*
D03*
X34000Y1695524D02*
D03*
X21500Y1670524D02*
D03*
X34000Y1645524D02*
D03*
X21500Y1620524D02*
D03*
X9000Y1795524D02*
D03*
X-3500Y1770524D02*
D03*
X9000Y1745524D02*
D03*
X-3500Y1720524D02*
D03*
X9000Y1695524D02*
D03*
X-3500Y1620524D02*
D03*
X-16000Y1795524D02*
D03*
X-28500Y1770524D02*
D03*
X-16000Y1745524D02*
D03*
X-28500Y1720524D02*
D03*
X-16000Y1695524D02*
D03*
X-28500Y1620524D02*
D03*
X-41000Y1795524D02*
D03*
X-53500Y1770524D02*
D03*
X-41000Y1745524D02*
D03*
X-53500Y1720524D02*
D03*
X-41000Y1695524D02*
D03*
X-53500Y1670524D02*
D03*
X-41000Y1645524D02*
D03*
X-53500Y1620524D02*
D03*
X-103500Y1370524D02*
D03*
X-166000Y1795524D02*
D03*
Y1745524D02*
D03*
X-178500Y1720524D02*
D03*
X-166000Y1695524D02*
D03*
X-178500Y1670524D02*
D03*
X-166000Y1645524D02*
D03*
X-178500Y1620524D02*
D03*
X-166000Y1595524D02*
D03*
X-178500Y1570524D02*
D03*
X-166000Y1545524D02*
D03*
X-178500Y1520524D02*
D03*
X-166000Y1495524D02*
D03*
X-191000Y1795524D02*
D03*
X-203500Y1770524D02*
D03*
X-191000Y1745524D02*
D03*
X-203500Y1720524D02*
D03*
X-191000Y1695524D02*
D03*
X-203500Y1670524D02*
D03*
X-191000Y1645524D02*
D03*
X-203500Y1620524D02*
D03*
X-191000Y1595524D02*
D03*
X-203500Y1570524D02*
D03*
X-191000Y1545524D02*
D03*
X-203500Y1520524D02*
D03*
X-191000Y1495524D02*
D03*
X-216000Y1745524D02*
D03*
X-228500Y1720524D02*
D03*
X-216000Y1695524D02*
D03*
X-228500Y1670524D02*
D03*
X-216000Y1645524D02*
D03*
X-228500Y1620524D02*
D03*
X-216000Y1595524D02*
D03*
X-228500Y1570524D02*
D03*
X-216000Y1545524D02*
D03*
X-228500Y1520524D02*
D03*
X-216000Y1495524D02*
D03*
X-228500Y1470524D02*
D03*
X-216000Y1445524D02*
D03*
X-228500Y1420524D02*
D03*
X-216000Y1395524D02*
D03*
X-228500Y1370524D02*
D03*
X-216000Y1345524D02*
D03*
X-228500Y1320524D02*
D03*
X-253500Y1720524D02*
D03*
X-241000Y1695524D02*
D03*
X-253500Y1670524D02*
D03*
X-241000Y1645524D02*
D03*
X-253500Y1620524D02*
D03*
X-241000Y1595524D02*
D03*
X-253500Y1570524D02*
D03*
X-241000Y1545524D02*
D03*
X-253500Y1520524D02*
D03*
X-241000Y1495524D02*
D03*
X-253500Y1470524D02*
D03*
X-241000Y1445524D02*
D03*
X-253500Y1420524D02*
D03*
X-241000Y1395524D02*
D03*
X-253500Y1370524D02*
D03*
X-241000Y1345524D02*
D03*
X-253500Y1320524D02*
D03*
X-278500Y1720524D02*
D03*
X-266000Y1695524D02*
D03*
X-278500Y1670524D02*
D03*
X-266000Y1645524D02*
D03*
X-278500Y1620524D02*
D03*
X-266000Y1595524D02*
D03*
X-278500Y1570524D02*
D03*
X-266000Y1545524D02*
D03*
X-278500Y1520524D02*
D03*
X-266000Y1495524D02*
D03*
X-278500Y1470524D02*
D03*
X-266000Y1445524D02*
D03*
X-278500Y1420524D02*
D03*
X-266000Y1395524D02*
D03*
X-278500Y1370524D02*
D03*
X-266000Y1345524D02*
D03*
X-278500Y1320524D02*
D03*
X435000Y497500D02*
D03*
X248590Y21953D02*
D03*
X33000Y381000D02*
D03*
X79000Y-75000D02*
D03*
X263000Y132000D02*
D03*
X188000Y143000D02*
D03*
X-123000Y8000D02*
D03*
X132000Y342277D02*
D03*
X-170000Y152000D02*
D03*
X-4698Y290000D02*
D03*
X1450Y250000D02*
D03*
X115389Y259364D02*
D03*
X70427Y249500D02*
D03*
X75500Y551000D02*
D03*
X62593Y630000D02*
D03*
X98000Y739000D02*
D03*
X-109469Y1350469D02*
D03*
X241000Y734000D02*
D03*
X95500Y551000D02*
D03*
X339000Y675500D02*
D03*
X-30000Y623000D02*
D03*
X187000Y825000D02*
D03*
X201869Y279277D02*
D03*
X291000Y267000D02*
D03*
X-182969Y-57000D02*
D03*
X48000Y-32000D02*
D03*
X123000Y16000D02*
D03*
X39000Y161000D02*
D03*
X8000Y449000D02*
D03*
X250000Y1093000D02*
D03*
M02*
