G04 Layer_Physical_Order=3*
G04 Layer_Color=16440176*
%FSLAX44Y44*%
%MOMM*%
G71*
G01*
G75*
%ADD22C,1.0000*%
%ADD33R,1.2500X1.0000*%
%ADD65O,1.1000X2.1000*%
%ADD66O,1.2000X2.2000*%
%ADD68C,4.0000*%
%ADD70C,2.2000*%
%ADD74C,2.0000*%
%ADD75C,1.7000*%
%ADD78C,2.0320*%
%ADD79C,0.7000*%
G36*
X665000Y948000D02*
X665000D01*
X665000Y940000D01*
X665000Y-60000D01*
X662500Y-62500D01*
X527000Y-62500D01*
Y-26500D01*
X446000D01*
X446000Y-26500D01*
Y4500D01*
X403000D01*
X403000Y4500D01*
Y-62500D01*
X-90000Y-62500D01*
X-90000Y215000D01*
X-312500D01*
Y607500D01*
X540000D01*
Y940000D01*
X600000Y940000D01*
Y948000D01*
X624661Y948000D01*
X624792Y946000D01*
X624387Y945947D01*
X619157Y943780D01*
X614666Y940334D01*
X611220Y935843D01*
X609053Y930613D01*
X608315Y925000D01*
X609053Y919387D01*
X611220Y914157D01*
X614666Y909666D01*
X619157Y906220D01*
X624387Y904053D01*
X630000Y903315D01*
X635613Y904053D01*
X640843Y906220D01*
X645334Y909666D01*
X648780Y914157D01*
X650947Y919387D01*
X651685Y925000D01*
X650947Y930613D01*
X648780Y935843D01*
X645334Y940334D01*
X640843Y943780D01*
X635613Y945947D01*
X635208Y946000D01*
X635339Y948000D01*
X652750D01*
X600000Y948000D01*
X600000Y1182500D01*
X432500Y1182500D01*
X432500Y1065000D01*
X177065Y1065000D01*
Y1182500D01*
X20000Y1182500D01*
X20000Y1068000D01*
X7750D01*
Y1067500D01*
X-315000Y1067500D01*
X-315000Y1915000D01*
X665000Y1915000D01*
X665000Y948000D01*
D02*
G37*
G36*
X20000Y1062500D02*
X80000D01*
X202500Y940000D01*
X530000D01*
X530000Y617500D01*
X-315000Y617500D01*
Y1067500D01*
X20000D01*
Y1062500D01*
D02*
G37*
G36*
X-100000Y205000D02*
X-100000Y84348D01*
X-101426Y84065D01*
X-103907Y82407D01*
X-105565Y79926D01*
X-106147Y77000D01*
X-105565Y74074D01*
X-103907Y71593D01*
X-101426Y69935D01*
X-100000Y69651D01*
X-100000Y-62500D01*
X-312500Y-62500D01*
X-312500Y205000D01*
X-100000Y205000D01*
D02*
G37*
%LPC*%
G36*
X638000Y326473D02*
X635074Y325891D01*
X632593Y324233D01*
X630935Y321752D01*
X630353Y318826D01*
X630935Y315900D01*
X632593Y313419D01*
X635074Y311761D01*
X638000Y311179D01*
X640926Y311761D01*
X643407Y313419D01*
X645065Y315900D01*
X645647Y318826D01*
X645065Y321752D01*
X643407Y324233D01*
X640926Y325891D01*
X638000Y326473D01*
D02*
G37*
G36*
X416000Y322128D02*
X412940Y320860D01*
X410015Y318616D01*
X407771Y315692D01*
X406503Y312631D01*
X416000D01*
Y322128D01*
D02*
G37*
G36*
X-81800Y307121D02*
X-85455Y306640D01*
X-88861Y305229D01*
X-91200Y303434D01*
X-93200Y304229D01*
Y307000D01*
X-121200D01*
Y279000D01*
X-93200D01*
Y281770D01*
X-91200Y282566D01*
X-88861Y280771D01*
X-85455Y279360D01*
X-81800Y278879D01*
X-78145Y279360D01*
X-74740Y280771D01*
X-71815Y283015D01*
X-69571Y285940D01*
X-68160Y289345D01*
X-67679Y293000D01*
X-68160Y296655D01*
X-69571Y300060D01*
X-71815Y302985D01*
X-74740Y305229D01*
X-78145Y306640D01*
X-81800Y307121D01*
D02*
G37*
G36*
X-202000Y316278D02*
X-204926Y315696D01*
X-207407Y314039D01*
X-209065Y311558D01*
X-209647Y308631D01*
X-209065Y305705D01*
X-207407Y303224D01*
X-204926Y301567D01*
X-202000Y300984D01*
X-199074Y301567D01*
X-196593Y303224D01*
X-194935Y305705D01*
X-194353Y308631D01*
X-194935Y311558D01*
X-196593Y314039D01*
X-199074Y315696D01*
X-202000Y316278D01*
D02*
G37*
G36*
X593038Y316609D02*
X590112Y316026D01*
X587631Y314369D01*
X585974Y311888D01*
X585392Y308962D01*
X585974Y306035D01*
X587631Y303554D01*
X590112Y301897D01*
X593038Y301315D01*
X595965Y301897D01*
X598446Y303554D01*
X600103Y306035D01*
X600685Y308962D01*
X600103Y311888D01*
X598446Y314369D01*
X595965Y316026D01*
X593038Y316609D01*
D02*
G37*
G36*
X-270000Y354660D02*
X-300000D01*
Y324660D01*
X-270000D01*
Y354660D01*
D02*
G37*
G36*
X55000Y347647D02*
X52074Y347065D01*
X49593Y345407D01*
X47935Y342926D01*
X47353Y340000D01*
X47935Y337074D01*
X49593Y334593D01*
X52074Y332935D01*
X55000Y332353D01*
X57926Y332935D01*
X60407Y334593D01*
X62065Y337074D01*
X62647Y340000D01*
X62065Y342926D01*
X60407Y345407D01*
X57926Y347065D01*
X55000Y347647D01*
D02*
G37*
G36*
X443000Y338647D02*
X440074Y338065D01*
X437593Y336407D01*
X435935Y333926D01*
X435353Y331000D01*
X435935Y328074D01*
X437593Y325593D01*
X440074Y323935D01*
X443000Y323353D01*
X445926Y323935D01*
X448407Y325593D01*
X450065Y328074D01*
X450647Y331000D01*
X450065Y333926D01*
X448407Y336407D01*
X445926Y338065D01*
X443000Y338647D01*
D02*
G37*
G36*
X424000Y322128D02*
Y312631D01*
X433497D01*
X432229Y315692D01*
X429985Y318616D01*
X427060Y320860D01*
X424000Y322128D01*
D02*
G37*
G36*
X128000Y333647D02*
X125074Y333065D01*
X122593Y331407D01*
X120935Y328926D01*
X120353Y326000D01*
X120935Y323074D01*
X122593Y320593D01*
X125074Y318935D01*
X128000Y318353D01*
X130926Y318935D01*
X133407Y320593D01*
X135065Y323074D01*
X135647Y326000D01*
X135065Y328926D01*
X133407Y331407D01*
X130926Y333065D01*
X128000Y333647D01*
D02*
G37*
G36*
X554700Y292647D02*
X551774Y292065D01*
X549652Y290647D01*
X548350Y290506D01*
X547048Y290647D01*
X544926Y292065D01*
X542000Y292647D01*
X539074Y292065D01*
X536593Y290407D01*
X534935Y287926D01*
X534353Y285000D01*
X534935Y282074D01*
X536593Y279593D01*
X539074Y277935D01*
X542000Y277353D01*
X544926Y277935D01*
X547048Y279353D01*
X548350Y279494D01*
X549652Y279353D01*
X551774Y277935D01*
X554700Y277353D01*
X557626Y277935D01*
X560107Y279593D01*
X561765Y282074D01*
X562347Y285000D01*
X561765Y287926D01*
X560107Y290407D01*
X557626Y292065D01*
X554700Y292647D01*
D02*
G37*
G36*
X433497Y304631D02*
X420000D01*
X406503D01*
X407771Y301571D01*
X409566Y299231D01*
X408771Y297231D01*
X406000D01*
Y269231D01*
X428957D01*
X430598Y267231D01*
X430353Y266000D01*
X430935Y263074D01*
X432593Y260593D01*
X435074Y258935D01*
X438000Y258353D01*
X440926Y258935D01*
X443407Y260593D01*
X445065Y263074D01*
X445647Y266000D01*
X445065Y268926D01*
X443407Y271407D01*
X440926Y273065D01*
X438000Y273647D01*
X436000Y273249D01*
X434000Y274570D01*
Y297231D01*
X431230D01*
X430434Y299231D01*
X432229Y301571D01*
X433497Y304631D01*
D02*
G37*
G36*
X120000Y291647D02*
X117074Y291065D01*
X114593Y289407D01*
X112935Y286926D01*
X112353Y284000D01*
X112935Y281074D01*
X114593Y278593D01*
X117074Y276935D01*
X120000Y276353D01*
X122926Y276935D01*
X125407Y278593D01*
X127065Y281074D01*
X127647Y284000D01*
X127065Y286926D01*
X125407Y289407D01*
X122926Y291065D01*
X120000Y291647D01*
D02*
G37*
G36*
X-211000Y259647D02*
X-213926Y259065D01*
X-216407Y257407D01*
X-218065Y254926D01*
X-218647Y252000D01*
X-218065Y249074D01*
X-216407Y246593D01*
X-213926Y244935D01*
X-211000Y244353D01*
X-208074Y244935D01*
X-205593Y246593D01*
X-203935Y249074D01*
X-203353Y252000D01*
X-203935Y254926D01*
X-205593Y257407D01*
X-208074Y259065D01*
X-211000Y259647D01*
D02*
G37*
G36*
X441000Y249647D02*
X438074Y249065D01*
X435593Y247407D01*
X433935Y244926D01*
X433353Y242000D01*
X433935Y239074D01*
X435593Y236593D01*
X438074Y234935D01*
X441000Y234353D01*
X443926Y234935D01*
X446407Y236593D01*
X448065Y239074D01*
X448647Y242000D01*
X448065Y244926D01*
X446407Y247407D01*
X443926Y249065D01*
X441000Y249647D01*
D02*
G37*
G36*
X118590Y250647D02*
X115663Y250065D01*
X113183Y248407D01*
X111525Y245926D01*
X110943Y243000D01*
X111525Y240074D01*
X113183Y237593D01*
X115663Y235935D01*
X118590Y235353D01*
X121516Y235935D01*
X123997Y237593D01*
X125655Y240074D01*
X126237Y243000D01*
X125655Y245926D01*
X123997Y248407D01*
X121516Y250065D01*
X118590Y250647D01*
D02*
G37*
G36*
X-285000Y319790D02*
X-288916Y319274D01*
X-292565Y317763D01*
X-295698Y315358D01*
X-298102Y312225D01*
X-299614Y308576D01*
X-300129Y304660D01*
X-299614Y300744D01*
X-298102Y297096D01*
X-295698Y293962D01*
X-292565Y291558D01*
X-288916Y290046D01*
X-285000Y289531D01*
X-281084Y290046D01*
X-277435Y291558D01*
X-274302Y293962D01*
X-271897Y297096D01*
X-270386Y300744D01*
X-269870Y304660D01*
X-270386Y308576D01*
X-271897Y312225D01*
X-274302Y315358D01*
X-277435Y317763D01*
X-281084Y319274D01*
X-285000Y319790D01*
D02*
G37*
G36*
X-182469Y305647D02*
X-185395Y305065D01*
X-187876Y303407D01*
X-189534Y300926D01*
X-190116Y298000D01*
X-189534Y295074D01*
X-187876Y292593D01*
X-185395Y290935D01*
X-182469Y290353D01*
X-179543Y290935D01*
X-177062Y292593D01*
X-175404Y295074D01*
X-174822Y298000D01*
X-175404Y300926D01*
X-177062Y303407D01*
X-179543Y305065D01*
X-182469Y305647D01*
D02*
G37*
G36*
X90000Y303647D02*
X87074Y303065D01*
X84593Y301407D01*
X82935Y298926D01*
X82353Y296000D01*
X82935Y293074D01*
X84593Y290593D01*
X87074Y288935D01*
X90000Y288353D01*
X92926Y288935D01*
X95407Y290593D01*
X97065Y293074D01*
X97647Y296000D01*
X97065Y298926D01*
X95407Y301407D01*
X92926Y303065D01*
X90000Y303647D01*
D02*
G37*
G36*
X277000Y291647D02*
X274074Y291065D01*
X271593Y289407D01*
X269935Y286926D01*
X269353Y284000D01*
X269935Y281074D01*
X271593Y278593D01*
X274074Y276935D01*
X277000Y276353D01*
X279926Y276935D01*
X282407Y278593D01*
X284065Y281074D01*
X284647Y284000D01*
X284065Y286926D01*
X282407Y289407D01*
X279926Y291065D01*
X277000Y291647D01*
D02*
G37*
G36*
X55000Y297647D02*
X52074Y297065D01*
X49593Y295407D01*
X47935Y292926D01*
X47353Y290000D01*
X47935Y287074D01*
X49593Y284593D01*
X52074Y282935D01*
X55000Y282353D01*
X57926Y282935D01*
X60407Y284593D01*
X62065Y287074D01*
X62647Y290000D01*
X62065Y292926D01*
X60407Y295407D01*
X57926Y297065D01*
X55000Y297647D01*
D02*
G37*
G36*
X-270000Y429660D02*
X-300000D01*
Y399660D01*
X-270000D01*
Y429660D01*
D02*
G37*
G36*
X139580Y417647D02*
X136653Y417065D01*
X134173Y415407D01*
X132515Y412926D01*
X131933Y410000D01*
X132515Y407074D01*
X134173Y404593D01*
X136653Y402935D01*
X139580Y402353D01*
X142506Y402935D01*
X144987Y404593D01*
X146645Y407074D01*
X147227Y410000D01*
X146645Y412926D01*
X144987Y415407D01*
X142506Y417065D01*
X139580Y417647D01*
D02*
G37*
G36*
X185000Y400647D02*
X182074Y400065D01*
X179593Y398407D01*
X177935Y395926D01*
X177353Y393000D01*
X177935Y390074D01*
X179593Y387593D01*
X182074Y385935D01*
X185000Y385353D01*
X187926Y385935D01*
X190407Y387593D01*
X192065Y390074D01*
X192647Y393000D01*
X192065Y395926D01*
X190407Y398407D01*
X187926Y400065D01*
X185000Y400647D01*
D02*
G37*
G36*
X-289000Y394239D02*
X-292565Y392763D01*
X-295698Y390358D01*
X-298102Y387225D01*
X-299579Y383660D01*
X-289000D01*
Y394239D01*
D02*
G37*
G36*
X-281000Y394239D02*
Y383660D01*
X-270421D01*
X-271897Y387225D01*
X-274302Y390358D01*
X-277435Y392763D01*
X-281000Y394239D01*
D02*
G37*
G36*
X57000Y449924D02*
X54074Y449342D01*
X51593Y447685D01*
X49935Y445204D01*
X49353Y442277D01*
X49935Y439351D01*
X51593Y436870D01*
X54074Y435213D01*
X57000Y434631D01*
X59926Y435213D01*
X62407Y436870D01*
X64065Y439351D01*
X64647Y442277D01*
X64065Y445204D01*
X62407Y447685D01*
X59926Y449342D01*
X57000Y449924D01*
D02*
G37*
G36*
X516600Y477647D02*
X513674Y477065D01*
X511193Y475407D01*
X509535Y472926D01*
X508953Y470000D01*
X509535Y467074D01*
X511193Y464593D01*
X513674Y462935D01*
X516600Y462353D01*
X519526Y462935D01*
X522007Y464593D01*
X523665Y467074D01*
X524247Y470000D01*
X523665Y472926D01*
X522007Y475407D01*
X519526Y477065D01*
X516600Y477647D01*
D02*
G37*
G36*
X-115000Y431176D02*
X-118512Y430478D01*
X-121489Y428489D01*
X-122511D01*
X-125488Y430478D01*
X-129000Y431176D01*
X-132512Y430478D01*
X-135489Y428489D01*
X-136511D01*
X-139488Y430478D01*
X-143000Y431176D01*
X-146512Y430478D01*
X-149489Y428489D01*
X-151478Y425512D01*
X-152176Y422000D01*
X-151478Y418488D01*
X-149489Y415511D01*
Y415489D01*
X-151478Y412512D01*
X-152176Y409000D01*
X-151478Y405488D01*
X-149489Y402511D01*
Y402489D01*
X-151478Y399512D01*
X-152176Y396000D01*
X-151478Y392488D01*
X-149489Y389511D01*
X-146512Y387522D01*
X-143000Y386824D01*
X-139488Y387522D01*
X-136511Y389511D01*
X-135489D01*
X-132512Y387522D01*
X-129000Y386824D01*
X-125488Y387522D01*
X-122511Y389511D01*
X-121489D01*
X-118512Y387522D01*
X-115000Y386824D01*
X-111488Y387522D01*
X-108511Y389511D01*
X-106522Y392488D01*
X-105824Y396000D01*
X-106522Y399512D01*
X-108511Y402489D01*
Y402511D01*
X-106522Y405488D01*
X-105824Y409000D01*
X-106522Y412512D01*
X-108511Y415489D01*
Y415511D01*
X-106522Y418488D01*
X-105824Y422000D01*
X-106522Y425512D01*
X-108511Y428489D01*
X-111488Y430478D01*
X-115000Y431176D01*
D02*
G37*
G36*
X28000Y438282D02*
X24304Y437795D01*
X20859Y436369D01*
X17901Y434099D01*
X15631Y431141D01*
X14204Y427696D01*
X13718Y424000D01*
X14204Y420303D01*
X15631Y416859D01*
X17901Y413901D01*
X20859Y411631D01*
X24304Y410205D01*
X28000Y409718D01*
X31697Y410205D01*
X35141Y411631D01*
X38099Y413901D01*
X40369Y416859D01*
X41796Y420303D01*
X42282Y424000D01*
X41796Y427696D01*
X40369Y431141D01*
X38099Y434099D01*
X35141Y436369D01*
X31697Y437795D01*
X28000Y438282D01*
D02*
G37*
G36*
X255000Y435647D02*
X252074Y435065D01*
X249593Y433407D01*
X247935Y430926D01*
X247353Y428000D01*
X247935Y425074D01*
X249593Y422593D01*
X252074Y420935D01*
X255000Y420353D01*
X257926Y420935D01*
X260407Y422593D01*
X262065Y425074D01*
X262647Y428000D01*
X262065Y430926D01*
X260407Y433407D01*
X257926Y435065D01*
X255000Y435647D01*
D02*
G37*
G36*
X-34698Y397647D02*
X-37624Y397065D01*
X-40105Y395407D01*
X-41762Y392926D01*
X-42344Y390000D01*
X-41762Y387074D01*
X-40105Y384593D01*
X-37624Y382935D01*
X-34698Y382353D01*
X-31771Y382935D01*
X-29290Y384593D01*
X-27633Y387074D01*
X-27051Y390000D01*
X-27633Y392926D01*
X-29290Y395407D01*
X-31771Y397065D01*
X-34698Y397647D01*
D02*
G37*
G36*
X583000Y360147D02*
X580074Y359565D01*
X577593Y357907D01*
X575935Y355426D01*
X575353Y352500D01*
X575935Y349574D01*
X577593Y347093D01*
X580074Y345435D01*
X583000Y344853D01*
X585926Y345435D01*
X588407Y347093D01*
X590065Y349574D01*
X590647Y352500D01*
X590065Y355426D01*
X588407Y357907D01*
X585926Y359565D01*
X583000Y360147D01*
D02*
G37*
G36*
X-141000Y361647D02*
X-143926Y361065D01*
X-146407Y359407D01*
X-148065Y356926D01*
X-148647Y354000D01*
X-148065Y351074D01*
X-146407Y348593D01*
X-143926Y346935D01*
X-141000Y346353D01*
X-138074Y346935D01*
X-135593Y348593D01*
X-133935Y351074D01*
X-133353Y354000D01*
X-133935Y356926D01*
X-135593Y359407D01*
X-138074Y361065D01*
X-141000Y361647D01*
D02*
G37*
G36*
X-28550Y357647D02*
X-31476Y357065D01*
X-33957Y355407D01*
X-35615Y352926D01*
X-36197Y350000D01*
X-35615Y347074D01*
X-33957Y344593D01*
X-31476Y342935D01*
X-28550Y342353D01*
X-25624Y342935D01*
X-23143Y344593D01*
X-21485Y347074D01*
X-20903Y350000D01*
X-21485Y352926D01*
X-23143Y355407D01*
X-25624Y357065D01*
X-28550Y357647D01*
D02*
G37*
G36*
X102000D02*
X99074Y357065D01*
X96593Y355407D01*
X94935Y352926D01*
X94353Y350000D01*
X94935Y347074D01*
X96593Y344593D01*
X99074Y342935D01*
X102000Y342353D01*
X104926Y342935D01*
X105906Y343590D01*
X107754Y342825D01*
X107935Y341914D01*
X109593Y339433D01*
X112074Y337775D01*
X115000Y337193D01*
X117926Y337775D01*
X120407Y339433D01*
X122065Y341914D01*
X122647Y344840D01*
X122065Y347766D01*
X120407Y350247D01*
X117926Y351905D01*
X115000Y352487D01*
X112074Y351905D01*
X111094Y351250D01*
X109246Y352015D01*
X109065Y352926D01*
X107407Y355407D01*
X104926Y357065D01*
X102000Y357647D01*
D02*
G37*
G36*
X651000Y352647D02*
X648074Y352065D01*
X645593Y350407D01*
X643935Y347926D01*
X643353Y345000D01*
X643935Y342074D01*
X645593Y339593D01*
X648074Y337935D01*
X651000Y337353D01*
X653926Y337935D01*
X656407Y339593D01*
X658065Y342074D01*
X658647Y345000D01*
X658065Y347926D01*
X656407Y350407D01*
X653926Y352065D01*
X651000Y352647D01*
D02*
G37*
G36*
X198000Y367647D02*
X195074Y367065D01*
X192745Y365509D01*
X192128Y365268D01*
X190872D01*
X190255Y365509D01*
X187926Y367065D01*
X185000Y367647D01*
X182074Y367065D01*
X179593Y365407D01*
X177935Y362926D01*
X177353Y360000D01*
X177935Y357074D01*
X179593Y354593D01*
X182074Y352935D01*
X185000Y352353D01*
X187926Y352935D01*
X190255Y354491D01*
X190872Y354732D01*
X192128D01*
X192745Y354491D01*
X195074Y352935D01*
X198000Y352353D01*
X200926Y352935D01*
X203407Y354593D01*
X205065Y357074D01*
X205647Y360000D01*
X205065Y362926D01*
X203407Y365407D01*
X200926Y367065D01*
X198000Y367647D01*
D02*
G37*
G36*
X126869Y386924D02*
X123943Y386342D01*
X121462Y384685D01*
X119804Y382204D01*
X119222Y379277D01*
X119804Y376351D01*
X121462Y373870D01*
X123943Y372213D01*
X126869Y371631D01*
X129796Y372213D01*
X132276Y373870D01*
X133934Y376351D01*
X134516Y379277D01*
X133934Y382204D01*
X132276Y384685D01*
X129796Y386342D01*
X126869Y386924D01*
D02*
G37*
G36*
X-289000Y375660D02*
X-299579D01*
X-298102Y372095D01*
X-295698Y368962D01*
X-292565Y366558D01*
X-289000Y365081D01*
Y375660D01*
D02*
G37*
G36*
X216000Y374647D02*
X213074Y374065D01*
X210593Y372407D01*
X208935Y369926D01*
X208353Y367000D01*
X208935Y364074D01*
X210593Y361593D01*
X213074Y359935D01*
X216000Y359353D01*
X218926Y359935D01*
X221407Y361593D01*
X223065Y364074D01*
X223647Y367000D01*
X223065Y369926D01*
X221407Y372407D01*
X218926Y374065D01*
X216000Y374647D01*
D02*
G37*
G36*
X-270421Y375660D02*
X-281000D01*
Y365081D01*
X-277435Y366558D01*
X-274302Y368962D01*
X-271897Y372095D01*
X-270421Y375660D01*
D02*
G37*
G36*
X384000Y245647D02*
X381074Y245065D01*
X378593Y243407D01*
X376935Y240926D01*
X376353Y238000D01*
X376935Y235074D01*
X378593Y232593D01*
X381074Y230935D01*
X384000Y230353D01*
X386926Y230935D01*
X389407Y232593D01*
X391065Y235074D01*
X391647Y238000D01*
X391065Y240926D01*
X389407Y243407D01*
X386926Y245065D01*
X384000Y245647D01*
D02*
G37*
G36*
X541000Y65146D02*
X538074Y64564D01*
X535593Y62907D01*
X533935Y60426D01*
X533353Y57499D01*
X533935Y54573D01*
X535593Y52092D01*
X538074Y50435D01*
X541000Y49853D01*
X543926Y50435D01*
X546407Y52092D01*
X548065Y54573D01*
X548647Y57499D01*
X548065Y60426D01*
X546407Y62907D01*
X543926Y64564D01*
X541000Y65146D01*
D02*
G37*
G36*
X-27000Y75647D02*
X-29926Y75065D01*
X-32407Y73407D01*
X-34065Y70926D01*
X-34647Y68000D01*
X-34065Y65074D01*
X-32407Y62593D01*
X-29926Y60935D01*
X-27000Y60353D01*
X-24074Y60935D01*
X-21593Y62593D01*
X-19935Y65074D01*
X-19353Y68000D01*
X-19935Y70926D01*
X-21593Y73407D01*
X-24074Y75065D01*
X-27000Y75647D01*
D02*
G37*
G36*
X327500Y75147D02*
X324574Y74565D01*
X322093Y72907D01*
X320435Y70426D01*
X319853Y67500D01*
X320435Y64574D01*
X322093Y62093D01*
Y60575D01*
X321093Y59907D01*
X319435Y57426D01*
X318853Y54500D01*
X319435Y51574D01*
X321093Y49093D01*
X323574Y47435D01*
X326500Y46853D01*
X329426Y47435D01*
X331907Y49093D01*
X333565Y51574D01*
X334147Y54500D01*
X333565Y57426D01*
X331907Y59907D01*
Y61425D01*
X332907Y62093D01*
X334565Y64574D01*
X335147Y67500D01*
X334565Y70426D01*
X332907Y72907D01*
X330426Y74565D01*
X327500Y75147D01*
D02*
G37*
G36*
X631000Y54647D02*
X628074Y54065D01*
X625593Y52407D01*
X623935Y49926D01*
X623353Y47000D01*
X623935Y44074D01*
X625593Y41593D01*
X628074Y39935D01*
X631000Y39353D01*
X633926Y39935D01*
X636407Y41593D01*
X638065Y44074D01*
X638647Y47000D01*
X638065Y49926D01*
X636407Y52407D01*
X633926Y54065D01*
X631000Y54647D01*
D02*
G37*
G36*
X48000Y123647D02*
X45074Y123065D01*
X42593Y121407D01*
X40935Y118926D01*
X40353Y116000D01*
X40935Y113074D01*
X42593Y110593D01*
X45074Y108935D01*
X48000Y108353D01*
X50926Y108935D01*
X53407Y110593D01*
X55065Y113074D01*
X55647Y116000D01*
X55065Y118926D01*
X53407Y121407D01*
X50926Y123065D01*
X48000Y123647D01*
D02*
G37*
G36*
X69000Y119647D02*
X66074Y119065D01*
X63593Y117407D01*
X61935Y114926D01*
X61353Y112000D01*
X61935Y109074D01*
X63593Y106593D01*
X64559Y105947D01*
Y103947D01*
X63751Y103407D01*
X62094Y100926D01*
X61511Y98000D01*
X62094Y95074D01*
X63188Y93436D01*
X63587Y92000D01*
X63188Y90564D01*
X62094Y88926D01*
X61511Y86000D01*
X62094Y83074D01*
X63751Y80593D01*
X66232Y78935D01*
X69158Y78353D01*
X72085Y78935D01*
X74566Y80593D01*
X76223Y83074D01*
X76805Y86000D01*
X76223Y88926D01*
X75129Y90564D01*
X74730Y92000D01*
X75129Y93436D01*
X76223Y95074D01*
X76805Y98000D01*
X76223Y100926D01*
X74566Y103407D01*
X73599Y104053D01*
Y106053D01*
X74407Y106593D01*
X76065Y109074D01*
X76647Y112000D01*
X76065Y114926D01*
X74407Y117407D01*
X71926Y119065D01*
X69000Y119647D01*
D02*
G37*
G36*
X132000Y-34000D02*
X122330D01*
X123631Y-37141D01*
X125901Y-40099D01*
X128859Y-42369D01*
X132000Y-43670D01*
Y-34000D01*
D02*
G37*
G36*
X149670D02*
X140000D01*
Y-43670D01*
X143141Y-42369D01*
X146099Y-40099D01*
X148369Y-37141D01*
X149670Y-34000D01*
D02*
G37*
G36*
X630000Y-8314D02*
X624387Y-9053D01*
X619157Y-11220D01*
X614666Y-14666D01*
X611220Y-19157D01*
X609053Y-24387D01*
X608315Y-30000D01*
X609053Y-35613D01*
X611220Y-40843D01*
X614666Y-45334D01*
X619157Y-48780D01*
X624387Y-50947D01*
X630000Y-51686D01*
X635613Y-50947D01*
X640843Y-48780D01*
X645334Y-45334D01*
X648780Y-40843D01*
X650947Y-35613D01*
X651685Y-30000D01*
X650947Y-24387D01*
X648780Y-19157D01*
X645334Y-14666D01*
X640843Y-11220D01*
X635613Y-9053D01*
X630000Y-8314D01*
D02*
G37*
G36*
Y1901685D02*
X624387Y1900947D01*
X619157Y1898780D01*
X614666Y1895334D01*
X611220Y1890843D01*
X609053Y1885613D01*
X608315Y1880000D01*
X609053Y1874387D01*
X611220Y1869157D01*
X614666Y1864666D01*
X619157Y1861220D01*
X624387Y1859053D01*
X630000Y1858315D01*
X635613Y1859053D01*
X640843Y1861220D01*
X645334Y1864666D01*
X648780Y1869157D01*
X650947Y1874387D01*
X651685Y1880000D01*
X650947Y1885613D01*
X648780Y1890843D01*
X645334Y1895334D01*
X640843Y1898780D01*
X635613Y1900947D01*
X630000Y1901685D01*
D02*
G37*
G36*
X563000Y1647D02*
X560074Y1065D01*
X557593Y-593D01*
X555935Y-3074D01*
X555353Y-6000D01*
X555935Y-8926D01*
X557593Y-11407D01*
X560074Y-13065D01*
X563000Y-13647D01*
X565926Y-13065D01*
X568407Y-11407D01*
X570065Y-8926D01*
X570647Y-6000D01*
X570065Y-3074D01*
X568407Y-593D01*
X565926Y1065D01*
X563000Y1647D01*
D02*
G37*
G36*
X653000Y43147D02*
X650074Y42565D01*
X647593Y40907D01*
X645935Y38426D01*
X645353Y35500D01*
X645935Y32573D01*
X647593Y30092D01*
X650074Y28435D01*
X653000Y27853D01*
X655926Y28435D01*
X658407Y30092D01*
X660065Y32573D01*
X660647Y35500D01*
X660065Y38426D01*
X658407Y40907D01*
X655926Y42565D01*
X653000Y43147D01*
D02*
G37*
G36*
X364000Y-9353D02*
X361074Y-9935D01*
X358593Y-11593D01*
X356935Y-14074D01*
X356353Y-17000D01*
X356935Y-19926D01*
X358593Y-22407D01*
X361074Y-24065D01*
X364000Y-24647D01*
X366926Y-24065D01*
X369407Y-22407D01*
X371065Y-19926D01*
X371647Y-17000D01*
X371065Y-14074D01*
X369407Y-11593D01*
X366926Y-9935D01*
X364000Y-9353D01*
D02*
G37*
G36*
X132000Y-16330D02*
X128859Y-17631D01*
X125901Y-19901D01*
X123631Y-22859D01*
X122330Y-26000D01*
X132000D01*
Y-16330D01*
D02*
G37*
G36*
X140000D02*
Y-26000D01*
X149670D01*
X148369Y-22859D01*
X146099Y-19901D01*
X143141Y-17631D01*
X140000Y-16330D01*
D02*
G37*
G36*
X465000Y200647D02*
X462074Y200065D01*
X459593Y198407D01*
X457935Y195926D01*
X457353Y193000D01*
X457935Y190074D01*
X459593Y187593D01*
X462074Y185935D01*
X465000Y185353D01*
X467926Y185935D01*
X470407Y187593D01*
X472065Y190074D01*
X472647Y193000D01*
X472065Y195926D01*
X470407Y198407D01*
X467926Y200065D01*
X465000Y200647D01*
D02*
G37*
G36*
X280000Y212647D02*
X277074Y212065D01*
X274593Y210407D01*
X272935Y207926D01*
X272353Y205000D01*
X272935Y202074D01*
X274593Y199593D01*
X277074Y197935D01*
X280000Y197353D01*
X282926Y197935D01*
X285407Y199593D01*
X287065Y202074D01*
X287647Y205000D01*
X287065Y207926D01*
X285407Y210407D01*
X282926Y212065D01*
X280000Y212647D01*
D02*
G37*
G36*
X85000Y181647D02*
X82074Y181065D01*
X79593Y179407D01*
X77935Y176926D01*
X77353Y174000D01*
X77935Y171074D01*
X79593Y168593D01*
X82074Y166935D01*
X85000Y166353D01*
X87926Y166935D01*
X90407Y168593D01*
X92065Y171074D01*
X92647Y174000D01*
X92065Y176926D01*
X90407Y179407D01*
X87926Y181065D01*
X85000Y181647D01*
D02*
G37*
G36*
X317500Y177647D02*
X314574Y177065D01*
X312093Y175407D01*
X310435Y172926D01*
X309853Y170000D01*
X310435Y167074D01*
X312093Y164593D01*
X314574Y162935D01*
X317500Y162353D01*
X320426Y162935D01*
X322907Y164593D01*
X324565Y167074D01*
X325147Y170000D01*
X324565Y172926D01*
X322907Y175407D01*
X320426Y177065D01*
X317500Y177647D01*
D02*
G37*
G36*
X432000D02*
X429074Y177065D01*
X426593Y175407D01*
X424935Y172926D01*
X424353Y170000D01*
X424935Y167074D01*
X426593Y164593D01*
X429074Y162935D01*
X432000Y162353D01*
X434926Y162935D01*
X437407Y164593D01*
X439065Y167074D01*
X439647Y170000D01*
X439065Y172926D01*
X437407Y175407D01*
X434926Y177065D01*
X432000Y177647D01*
D02*
G37*
G36*
X100000Y239647D02*
X97074Y239065D01*
X94593Y237407D01*
X92935Y234926D01*
X92353Y232000D01*
X92935Y229074D01*
X94593Y226593D01*
X97074Y224935D01*
X100000Y224353D01*
X102926Y224935D01*
X105407Y226593D01*
X107065Y229074D01*
X107647Y232000D01*
X107065Y234926D01*
X105407Y237407D01*
X102926Y239065D01*
X100000Y239647D01*
D02*
G37*
G36*
X188000D02*
X185074Y239065D01*
X182593Y237407D01*
X180935Y234926D01*
X180353Y232000D01*
X180935Y229074D01*
X182593Y226593D01*
X185074Y224935D01*
X188000Y224353D01*
X190926Y224935D01*
X193407Y226593D01*
X195065Y229074D01*
X195647Y232000D01*
X195065Y234926D01*
X193407Y237407D01*
X190926Y239065D01*
X188000Y239647D01*
D02*
G37*
G36*
X78000Y238647D02*
X75074Y238065D01*
X72593Y236407D01*
X70935Y233926D01*
X70353Y231000D01*
X70935Y228074D01*
X72593Y225593D01*
X75074Y223935D01*
X78000Y223353D01*
X80926Y223935D01*
X83407Y225593D01*
X85065Y228074D01*
X85647Y231000D01*
X85065Y233926D01*
X83407Y236407D01*
X80926Y238065D01*
X78000Y238647D01*
D02*
G37*
G36*
X460000Y219647D02*
X457074Y219065D01*
X454593Y217407D01*
X452935Y214926D01*
X452353Y212000D01*
X452935Y209074D01*
X454593Y206593D01*
X457074Y204935D01*
X460000Y204353D01*
X462926Y204935D01*
X465407Y206593D01*
X467065Y209074D01*
X467647Y212000D01*
X467065Y214926D01*
X465407Y217407D01*
X462926Y219065D01*
X460000Y219647D01*
D02*
G37*
G36*
X529000Y226647D02*
X526074Y226065D01*
X523593Y224407D01*
X521935Y221926D01*
X521353Y219000D01*
X521935Y216074D01*
X523593Y213593D01*
X526074Y211935D01*
X529000Y211353D01*
X531926Y211935D01*
X534407Y213593D01*
X536065Y216074D01*
X536647Y219000D01*
X536065Y221926D01*
X534407Y224407D01*
X531926Y226065D01*
X529000Y226647D01*
D02*
G37*
G36*
X637500Y175147D02*
X634574Y174565D01*
X632093Y172907D01*
X630435Y170426D01*
X629853Y167500D01*
X630435Y164574D01*
X632093Y162093D01*
X634574Y160435D01*
X637500Y159853D01*
X640426Y160435D01*
X642907Y162093D01*
X644565Y164574D01*
X645147Y167500D01*
X644565Y170426D01*
X642907Y172907D01*
X640426Y174565D01*
X637500Y175147D01*
D02*
G37*
G36*
X287500Y179600D02*
X284574Y179018D01*
X282093Y177360D01*
X280435Y174880D01*
X279991Y172645D01*
X277074Y172065D01*
X274593Y170407D01*
X272935Y167926D01*
X272353Y165000D01*
X272935Y162074D01*
X274488Y159750D01*
X272935Y157426D01*
X272353Y154500D01*
X272935Y151574D01*
X274051Y149904D01*
X274429Y148477D01*
X274051Y147050D01*
X272935Y145380D01*
X272353Y142453D01*
X272935Y139527D01*
X274239Y137576D01*
X274459Y136227D01*
X274239Y134877D01*
X272935Y132926D01*
X272353Y130000D01*
X272935Y127074D01*
X274593Y124593D01*
X277074Y122935D01*
X280000Y122353D01*
X282926Y122935D01*
X285407Y124593D01*
X287065Y127074D01*
X287647Y130000D01*
X287065Y132926D01*
X285761Y134877D01*
X285541Y136227D01*
X285761Y137576D01*
X287065Y139527D01*
X287647Y142453D01*
X287065Y145380D01*
X285949Y147050D01*
X285571Y148477D01*
X285949Y149904D01*
X287065Y151574D01*
X287647Y154500D01*
X287065Y157426D01*
X285512Y159750D01*
X287065Y162074D01*
X287509Y164308D01*
X290426Y164888D01*
X292907Y166546D01*
X294565Y169027D01*
X295147Y171953D01*
X294565Y174880D01*
X292907Y177360D01*
X290426Y179018D01*
X287500Y179600D01*
D02*
G37*
G36*
X425000Y142146D02*
X422074Y141564D01*
X419593Y139907D01*
X417935Y137426D01*
X417353Y134500D01*
X417935Y131573D01*
X419593Y129092D01*
Y128907D01*
X417935Y126426D01*
X417353Y123499D01*
X417935Y120573D01*
X419593Y118092D01*
X422074Y116435D01*
X425000Y115852D01*
X427926Y116435D01*
X430407Y118092D01*
X432065Y120573D01*
X432647Y123499D01*
X432065Y126426D01*
X430407Y128907D01*
Y129092D01*
X432065Y131573D01*
X432647Y134500D01*
X432065Y137426D01*
X430407Y139907D01*
X427926Y141564D01*
X425000Y142146D01*
D02*
G37*
G36*
X637500Y127647D02*
X634574Y127065D01*
X632093Y125407D01*
X630435Y122926D01*
X629853Y120000D01*
X630435Y117074D01*
X632093Y114593D01*
X634574Y112935D01*
X637500Y112353D01*
X640426Y112935D01*
X642907Y114593D01*
X644565Y117074D01*
X645147Y120000D01*
X644565Y122926D01*
X642907Y125407D01*
X640426Y127065D01*
X637500Y127647D01*
D02*
G37*
G36*
X173590Y129600D02*
X170664Y129018D01*
X168183Y127360D01*
X166525Y124880D01*
X165943Y121953D01*
X166525Y119027D01*
X168183Y116546D01*
X170664Y114888D01*
X173590Y114306D01*
X176516Y114888D01*
X178997Y116546D01*
X180655Y119027D01*
X181237Y121953D01*
X180655Y124880D01*
X178997Y127360D01*
X176516Y129018D01*
X173590Y129600D01*
D02*
G37*
G36*
X29000Y159647D02*
X26074Y159065D01*
X23593Y157407D01*
X21935Y154926D01*
X21353Y152000D01*
X21935Y149074D01*
X23593Y146593D01*
X26074Y144935D01*
X29000Y144353D01*
X31926Y144935D01*
X34407Y146593D01*
X36065Y149074D01*
X36647Y152000D01*
X36065Y154926D01*
X34407Y157407D01*
X31926Y159065D01*
X29000Y159647D01*
D02*
G37*
G36*
X317500Y152647D02*
X314574Y152065D01*
X312093Y150407D01*
X310435Y147926D01*
X309853Y145000D01*
X310435Y142074D01*
X312093Y139593D01*
X314574Y137935D01*
X317500Y137353D01*
X320426Y137935D01*
X322907Y139593D01*
X324565Y142074D01*
X325147Y145000D01*
X324565Y147926D01*
X322907Y150407D01*
X320426Y152065D01*
X317500Y152647D01*
D02*
G37*
G36*
X637500D02*
X634574Y152065D01*
X632093Y150407D01*
X630435Y147926D01*
X629853Y145000D01*
X630435Y142074D01*
X632093Y139593D01*
X634574Y137935D01*
X637500Y137353D01*
X640426Y137935D01*
X642907Y139593D01*
X644565Y142074D01*
X645147Y145000D01*
X644565Y147926D01*
X642907Y150407D01*
X640426Y152065D01*
X637500Y152647D01*
D02*
G37*
G36*
X62790Y544104D02*
X59527Y543675D01*
X56486Y542415D01*
X53875Y540411D01*
X51871Y537800D01*
X50612Y534760D01*
X50182Y531496D01*
X50612Y528233D01*
X51871Y525192D01*
X53875Y522581D01*
X56462Y520596D01*
X56473Y520518D01*
X56043Y518596D01*
X50290D01*
Y493596D01*
X75290D01*
Y499350D01*
X77211Y499779D01*
X77290Y499768D01*
X79275Y497181D01*
X81886Y495178D01*
X84927Y493918D01*
X88190Y493489D01*
X91453Y493918D01*
X94494Y495178D01*
X97105Y497181D01*
X99109Y499793D01*
X99808Y501480D01*
X101972D01*
X102671Y499793D01*
X104675Y497181D01*
X107286Y495178D01*
X110327Y493918D01*
X113590Y493489D01*
X116853Y493918D01*
X119894Y495178D01*
X122505Y497181D01*
X124509Y499793D01*
X125208Y501480D01*
X127372D01*
X128071Y499793D01*
X130075Y497181D01*
X132686Y495178D01*
X135727Y493918D01*
X138990Y493489D01*
X142253Y493918D01*
X145294Y495178D01*
X147905Y497181D01*
X149909Y499793D01*
X150608Y501480D01*
X152772D01*
X153471Y499793D01*
X155475Y497181D01*
X158086Y495178D01*
X161127Y493918D01*
X164390Y493489D01*
X167653Y493918D01*
X170694Y495178D01*
X173305Y497181D01*
X175309Y499793D01*
X176007Y501480D01*
X178172D01*
X178871Y499793D01*
X180875Y497181D01*
X183486Y495178D01*
X186527Y493918D01*
X189790Y493489D01*
X193053Y493918D01*
X196094Y495178D01*
X198705Y497181D01*
X200709Y499793D01*
X201408Y501480D01*
X203572D01*
X204271Y499793D01*
X206275Y497181D01*
X208886Y495178D01*
X211927Y493918D01*
X215190Y493489D01*
X218453Y493918D01*
X221494Y495178D01*
X224105Y497181D01*
X226109Y499793D01*
X226807Y501480D01*
X228972D01*
X229671Y499793D01*
X231675Y497181D01*
X234286Y495178D01*
X237327Y493918D01*
X240590Y493489D01*
X243853Y493918D01*
X246894Y495178D01*
X249505Y497181D01*
X251509Y499793D01*
X252208Y501480D01*
X254372D01*
X255071Y499793D01*
X257075Y497181D01*
X259686Y495178D01*
X262727Y493918D01*
X265990Y493489D01*
X269253Y493918D01*
X272294Y495178D01*
X274905Y497181D01*
X276909Y499793D01*
X277607Y501480D01*
X279772D01*
X280471Y499793D01*
X282475Y497181D01*
X285086Y495178D01*
X288127Y493918D01*
X291390Y493489D01*
X294653Y493918D01*
X297694Y495178D01*
X300305Y497181D01*
X302309Y499793D01*
X303568Y502833D01*
X303998Y506096D01*
X303568Y509360D01*
X302309Y512400D01*
X300305Y515011D01*
X297694Y517015D01*
X296007Y517714D01*
Y519879D01*
X297694Y520578D01*
X300305Y522581D01*
X302309Y525192D01*
X303263Y527496D01*
X291390D01*
Y531496D01*
X287390D01*
Y543369D01*
X285086Y542415D01*
X282475Y540411D01*
X280471Y537800D01*
X279772Y536113D01*
X277607D01*
X276909Y537800D01*
X274905Y540411D01*
X272294Y542415D01*
X269990Y543369D01*
Y531496D01*
X261990D01*
Y543369D01*
X259686Y542415D01*
X257075Y540411D01*
X255071Y537800D01*
X254372Y536113D01*
X252208D01*
X251509Y537800D01*
X249505Y540411D01*
X246894Y542415D01*
X244590Y543369D01*
Y531496D01*
X236590D01*
Y543369D01*
X234286Y542415D01*
X231675Y540411D01*
X229671Y537800D01*
X228972Y536113D01*
X226807D01*
X226109Y537800D01*
X224105Y540411D01*
X221494Y542415D01*
X219190Y543369D01*
Y531496D01*
X211190D01*
Y543369D01*
X208886Y542415D01*
X206275Y540411D01*
X204271Y537800D01*
X203572Y536113D01*
X201408D01*
X200709Y537800D01*
X198705Y540411D01*
X196094Y542415D01*
X193790Y543369D01*
Y531496D01*
X185790D01*
Y543369D01*
X183486Y542415D01*
X180875Y540411D01*
X178871Y537800D01*
X178172Y536113D01*
X176007D01*
X175309Y537800D01*
X173305Y540411D01*
X170694Y542415D01*
X168390Y543369D01*
Y531496D01*
X160390D01*
Y543369D01*
X158086Y542415D01*
X155475Y540411D01*
X153471Y537800D01*
X152772Y536113D01*
X150608D01*
X149909Y537800D01*
X147905Y540411D01*
X145294Y542415D01*
X142990Y543369D01*
Y531496D01*
X134990D01*
Y543369D01*
X132686Y542415D01*
X130075Y540411D01*
X128071Y537800D01*
X127372Y536113D01*
X125208D01*
X124509Y537800D01*
X122505Y540411D01*
X119894Y542415D01*
X117590Y543369D01*
Y531496D01*
X109590D01*
Y543369D01*
X107286Y542415D01*
X104675Y540411D01*
X102671Y537800D01*
X101972Y536113D01*
X99808D01*
X99109Y537800D01*
X97105Y540411D01*
X94494Y542415D01*
X92190Y543369D01*
Y531496D01*
X84190D01*
Y543369D01*
X81886Y542415D01*
X79275Y540411D01*
X77271Y537800D01*
X76572Y536113D01*
X74408D01*
X73709Y537800D01*
X71705Y540411D01*
X69094Y542415D01*
X66053Y543675D01*
X62790Y544104D01*
D02*
G37*
G36*
X402500Y1138676D02*
X398988Y1137978D01*
X396011Y1135989D01*
X394022Y1133012D01*
X393324Y1129500D01*
X394022Y1125988D01*
X396011Y1123011D01*
X398988Y1121022D01*
X402500Y1120324D01*
X406012Y1121022D01*
X408989Y1123011D01*
X410978Y1125988D01*
X411676Y1129500D01*
X410978Y1133012D01*
X408989Y1135989D01*
X406012Y1137978D01*
X402500Y1138676D01*
D02*
G37*
G36*
X537000Y1346116D02*
X533476Y1345652D01*
X530192Y1344292D01*
X527372Y1342128D01*
X525208Y1339308D01*
X523847Y1336024D01*
X523383Y1332500D01*
X523847Y1328976D01*
X525208Y1325692D01*
X527372Y1322872D01*
Y1322128D01*
X525208Y1319308D01*
X523847Y1316024D01*
X523383Y1312500D01*
X523847Y1308976D01*
X525208Y1305692D01*
X527372Y1302872D01*
X530192Y1300708D01*
X533476Y1299348D01*
X537000Y1298884D01*
X540524Y1299348D01*
X543808Y1300708D01*
X546628Y1302872D01*
X548792Y1305692D01*
X550152Y1308976D01*
X550616Y1312500D01*
X550152Y1316024D01*
X548792Y1319308D01*
X546628Y1322128D01*
Y1322872D01*
X548792Y1325692D01*
X550152Y1328976D01*
X550616Y1332500D01*
X550152Y1336024D01*
X548792Y1339308D01*
X546628Y1342128D01*
X543808Y1344292D01*
X540524Y1345652D01*
X537000Y1346116D01*
D02*
G37*
G36*
X91071Y1322576D02*
X88145Y1321994D01*
X85664Y1320336D01*
X84006Y1317855D01*
X83424Y1314929D01*
X84006Y1312003D01*
X85664Y1309522D01*
X88145Y1307864D01*
X91071Y1307282D01*
X93997Y1307864D01*
X96478Y1309522D01*
X98136Y1312003D01*
X98718Y1314929D01*
X98136Y1317855D01*
X96478Y1320336D01*
X93997Y1321994D01*
X91071Y1322576D01*
D02*
G37*
G36*
X490750Y1240116D02*
X487226Y1239652D01*
X483942Y1238292D01*
X481122Y1236128D01*
X478958Y1233308D01*
X477597Y1230024D01*
X477133Y1226500D01*
X477597Y1222976D01*
X478958Y1219692D01*
X481122Y1216872D01*
X483942Y1214708D01*
X487226Y1213347D01*
X490750Y1212883D01*
X494274Y1213347D01*
X497558Y1214708D01*
X500378Y1216872D01*
X502542Y1219692D01*
X503902Y1222976D01*
X504366Y1226500D01*
X503902Y1230024D01*
X502542Y1233308D01*
X500378Y1236128D01*
X497558Y1238292D01*
X494274Y1239652D01*
X490750Y1240116D01*
D02*
G37*
G36*
X312500Y1186116D02*
X308976Y1185652D01*
X305692Y1184292D01*
X302872Y1182128D01*
X300708Y1179308D01*
X299347Y1176024D01*
X298883Y1172500D01*
X299347Y1168976D01*
X300708Y1165692D01*
X302872Y1162872D01*
X305692Y1160708D01*
X308976Y1159348D01*
X312500Y1158884D01*
X316024Y1159348D01*
X319308Y1160708D01*
X322128Y1162872D01*
X324292Y1165692D01*
X325653Y1168976D01*
X326116Y1172500D01*
X325653Y1176024D01*
X324292Y1179308D01*
X322128Y1182128D01*
X319308Y1184292D01*
X316024Y1185652D01*
X312500Y1186116D01*
D02*
G37*
G36*
X207500Y1183676D02*
X203988Y1182978D01*
X201011Y1180989D01*
X199022Y1178012D01*
X198324Y1174500D01*
X199022Y1170988D01*
X201011Y1168011D01*
X203988Y1166022D01*
X207500Y1165324D01*
X211012Y1166022D01*
X213988Y1168011D01*
X215978Y1170988D01*
X216676Y1174500D01*
X215978Y1178012D01*
X213988Y1180989D01*
X211012Y1182978D01*
X207500Y1183676D01*
D02*
G37*
G36*
X137500Y1784121D02*
X117500D01*
X113845Y1783640D01*
X110440Y1782229D01*
X107515Y1779985D01*
X105271Y1777060D01*
X103860Y1773655D01*
X103379Y1770000D01*
Y1750000D01*
X103860Y1746345D01*
X105271Y1742940D01*
X107515Y1740015D01*
X110440Y1737771D01*
X113845Y1736360D01*
X117500Y1735879D01*
X137500D01*
X141155Y1736360D01*
X144560Y1737771D01*
X147485Y1740015D01*
X149729Y1742940D01*
X151140Y1746345D01*
X151621Y1750000D01*
Y1770000D01*
X151140Y1773655D01*
X149729Y1777060D01*
X147485Y1779985D01*
X144560Y1782229D01*
X141155Y1783640D01*
X137500Y1784121D01*
D02*
G37*
G36*
X211500Y1639000D02*
X204659D01*
X205131Y1637859D01*
X207401Y1634901D01*
X210359Y1632631D01*
X211500Y1632159D01*
Y1639000D01*
D02*
G37*
G36*
X391500Y1682147D02*
X383500D01*
X379062Y1681562D01*
X374927Y1679850D01*
X371376Y1677125D01*
X368651Y1673573D01*
X366938Y1669438D01*
X366353Y1665000D01*
X366938Y1660562D01*
X368651Y1656427D01*
X371376Y1652876D01*
X374927Y1650151D01*
X379062Y1648438D01*
X383500Y1647853D01*
X391500D01*
X395938Y1648438D01*
X400073Y1650151D01*
X403625Y1652876D01*
X406349Y1656427D01*
X408063Y1660562D01*
X408647Y1665000D01*
X408063Y1669438D01*
X406349Y1673573D01*
X403625Y1677125D01*
X400073Y1679850D01*
X395938Y1681562D01*
X391500Y1682147D01*
D02*
G37*
G36*
X230341Y1639000D02*
X223500D01*
Y1632159D01*
X224641Y1632631D01*
X227599Y1634901D01*
X229869Y1637859D01*
X230341Y1639000D01*
D02*
G37*
G36*
X33211Y1658782D02*
X29515Y1658295D01*
X26070Y1656869D01*
X23112Y1654599D01*
X20843Y1651641D01*
X19416Y1648196D01*
X18929Y1644500D01*
X19416Y1640803D01*
X20843Y1637359D01*
X23112Y1634401D01*
X26070Y1632131D01*
X29515Y1630704D01*
X33211Y1630218D01*
X36908Y1630704D01*
X40353Y1632131D01*
X43310Y1634401D01*
X45580Y1637359D01*
X47007Y1640803D01*
X47494Y1644500D01*
X47007Y1648196D01*
X45580Y1651641D01*
X43310Y1654599D01*
X40353Y1656869D01*
X36908Y1658295D01*
X33211Y1658782D01*
D02*
G37*
G36*
X-140000Y1659282D02*
X-143696Y1658795D01*
X-147141Y1657369D01*
X-150099Y1655099D01*
X-152369Y1652141D01*
X-153795Y1648696D01*
X-154282Y1645000D01*
X-153795Y1641304D01*
X-152369Y1637859D01*
X-150099Y1634901D01*
X-147141Y1632631D01*
X-143696Y1631205D01*
X-140000Y1630718D01*
X-136304Y1631205D01*
X-132859Y1632631D01*
X-129901Y1634901D01*
X-127631Y1637859D01*
X-126205Y1641304D01*
X-125718Y1645000D01*
X-126205Y1648696D01*
X-127631Y1652141D01*
X-129901Y1655099D01*
X-132859Y1657369D01*
X-136304Y1658795D01*
X-140000Y1659282D01*
D02*
G37*
G36*
X397500Y1790172D02*
X377500D01*
X372279Y1789485D01*
X367414Y1787470D01*
X363236Y1784264D01*
X360030Y1780086D01*
X358015Y1775221D01*
X357327Y1770000D01*
Y1750000D01*
X358015Y1744779D01*
X360030Y1739914D01*
X363236Y1735736D01*
X367414Y1732530D01*
X372279Y1730515D01*
X377500Y1729827D01*
X397500D01*
X402721Y1730515D01*
X407586Y1732530D01*
X411764Y1735736D01*
X414970Y1739914D01*
X416985Y1744779D01*
X417673Y1750000D01*
Y1770000D01*
X416985Y1775221D01*
X414970Y1780086D01*
X411764Y1784264D01*
X407586Y1787470D01*
X402721Y1789485D01*
X397500Y1790172D01*
D02*
G37*
G36*
X-122500Y1784121D02*
X-142500D01*
X-146155Y1783640D01*
X-149560Y1782229D01*
X-152485Y1779985D01*
X-154729Y1777060D01*
X-156140Y1773655D01*
X-156621Y1770000D01*
Y1750000D01*
X-156140Y1746345D01*
X-154729Y1742940D01*
X-152485Y1740015D01*
X-149560Y1737771D01*
X-146155Y1736360D01*
X-142500Y1735879D01*
X-122500D01*
X-118845Y1736360D01*
X-115440Y1737771D01*
X-112515Y1740015D01*
X-110271Y1742940D01*
X-108860Y1746345D01*
X-108379Y1750000D01*
Y1770000D01*
X-108860Y1773655D01*
X-110271Y1777060D01*
X-112515Y1779985D01*
X-115440Y1782229D01*
X-118845Y1783640D01*
X-122500Y1784121D01*
D02*
G37*
G36*
X571500Y1676095D02*
X563500D01*
X560628Y1675717D01*
X557952Y1674608D01*
X555655Y1672845D01*
X553891Y1670547D01*
X552783Y1667872D01*
X552405Y1665000D01*
X552783Y1662128D01*
X553891Y1659453D01*
X555655Y1657155D01*
X557952Y1655392D01*
X560628Y1654283D01*
X563500Y1653905D01*
X571500D01*
X574372Y1654283D01*
X577048Y1655392D01*
X579345Y1657155D01*
X581109Y1659453D01*
X582217Y1662128D01*
X582595Y1665000D01*
X582217Y1667872D01*
X581109Y1670547D01*
X579345Y1672845D01*
X577048Y1674608D01*
X574372Y1675717D01*
X571500Y1676095D01*
D02*
G37*
G36*
X211500Y1657841D02*
X210359Y1657369D01*
X207401Y1655099D01*
X205131Y1652141D01*
X204659Y1651000D01*
X211500D01*
Y1657841D01*
D02*
G37*
G36*
X223500Y1657841D02*
Y1651000D01*
X230341D01*
X229869Y1652141D01*
X227599Y1655099D01*
X224641Y1657369D01*
X223500Y1657841D01*
D02*
G37*
G36*
X571500Y1631095D02*
X563500D01*
X560628Y1630717D01*
X557952Y1629608D01*
X555655Y1627845D01*
X553891Y1625547D01*
X552783Y1622872D01*
X552405Y1620000D01*
X552783Y1617128D01*
X553891Y1614453D01*
X555655Y1612155D01*
X557952Y1610392D01*
X560628Y1609283D01*
X563500Y1608905D01*
X571500D01*
X574372Y1609283D01*
X577048Y1610392D01*
X579345Y1612155D01*
X581109Y1614453D01*
X582217Y1617128D01*
X582595Y1620000D01*
X582217Y1622872D01*
X581109Y1625547D01*
X579345Y1627845D01*
X577048Y1629608D01*
X574372Y1630717D01*
X571500Y1631095D01*
D02*
G37*
G36*
X367500Y1497500D02*
X327500D01*
Y1457500D01*
X367500D01*
Y1497500D01*
D02*
G37*
G36*
X291500Y1471500D02*
X284832D01*
X285271Y1470440D01*
X287515Y1467515D01*
X290440Y1465271D01*
X291500Y1464832D01*
Y1471500D01*
D02*
G37*
G36*
X-165750Y1472147D02*
X-168676Y1471565D01*
X-171157Y1469907D01*
X-172815Y1467426D01*
X-173397Y1464500D01*
X-172815Y1461574D01*
X-171157Y1459093D01*
X-168676Y1457435D01*
X-165750Y1456853D01*
X-162824Y1457435D01*
X-160343Y1459093D01*
X-158685Y1461574D01*
X-158103Y1464500D01*
X-158685Y1467426D01*
X-160343Y1469907D01*
X-162824Y1471565D01*
X-165750Y1472147D01*
D02*
G37*
G36*
X91090Y1342647D02*
X88164Y1342065D01*
X85683Y1340407D01*
X84025Y1337926D01*
X83443Y1335000D01*
X84025Y1332074D01*
X85683Y1329593D01*
X88164Y1327935D01*
X91090Y1327353D01*
X94016Y1327935D01*
X96497Y1329593D01*
X98155Y1332074D01*
X98737Y1335000D01*
X98155Y1337926D01*
X96497Y1340407D01*
X94016Y1342065D01*
X91090Y1342647D01*
D02*
G37*
G36*
X485500Y1388616D02*
X481976Y1388152D01*
X478692Y1386792D01*
X475872Y1384628D01*
X473708Y1381808D01*
X472347Y1378524D01*
X471884Y1375000D01*
X472347Y1371476D01*
X473708Y1368192D01*
X475872Y1365372D01*
X478692Y1363208D01*
X481976Y1361848D01*
X485500Y1361384D01*
X489024Y1361848D01*
X492308Y1363208D01*
X495128Y1365372D01*
X497292Y1368192D01*
X498652Y1371476D01*
X499117Y1375000D01*
X498652Y1378524D01*
X497292Y1381808D01*
X495128Y1384628D01*
X492308Y1386792D01*
X489024Y1388152D01*
X485500Y1388616D01*
D02*
G37*
G36*
X463000Y1581282D02*
X459304Y1580795D01*
X455859Y1579369D01*
X452901Y1577099D01*
X450631Y1574141D01*
X449204Y1570697D01*
X448718Y1567000D01*
X449204Y1563304D01*
X450631Y1559859D01*
X452901Y1556901D01*
X455859Y1554631D01*
X459304Y1553204D01*
X463000Y1552718D01*
X466697Y1553204D01*
X470141Y1554631D01*
X473099Y1556901D01*
X475369Y1559859D01*
X476796Y1563304D01*
X477282Y1567000D01*
X476796Y1570697D01*
X475369Y1574141D01*
X473099Y1577099D01*
X470141Y1579369D01*
X466697Y1580795D01*
X463000Y1581282D01*
D02*
G37*
G36*
X391500Y1637147D02*
X383500D01*
X379062Y1636562D01*
X374927Y1634850D01*
X371376Y1632124D01*
X368651Y1628573D01*
X366938Y1624438D01*
X366353Y1620000D01*
X366938Y1615562D01*
X368651Y1611427D01*
X371376Y1607876D01*
X374927Y1605151D01*
X379062Y1603438D01*
X383500Y1602853D01*
X391500D01*
X395938Y1603438D01*
X400073Y1605151D01*
X403625Y1607876D01*
X406349Y1611427D01*
X408063Y1615562D01*
X408647Y1620000D01*
X408063Y1624438D01*
X406349Y1628573D01*
X403625Y1632124D01*
X400073Y1634850D01*
X395938Y1636562D01*
X391500Y1637147D01*
D02*
G37*
G36*
X303500Y1490168D02*
Y1483500D01*
X310168D01*
X309729Y1484560D01*
X307485Y1487485D01*
X304560Y1489729D01*
X303500Y1490168D01*
D02*
G37*
G36*
X310168Y1471500D02*
X303500D01*
Y1464832D01*
X304560Y1465271D01*
X307485Y1467515D01*
X309729Y1470440D01*
X310168Y1471500D01*
D02*
G37*
G36*
X291500Y1490168D02*
X290440Y1489729D01*
X287515Y1487485D01*
X285271Y1484560D01*
X284832Y1483500D01*
X291500D01*
Y1490168D01*
D02*
G37*
G36*
X635000Y748112D02*
X631606Y747665D01*
X628444Y746355D01*
X625728Y744272D01*
X623644Y741556D01*
X622334Y738394D01*
X621888Y735000D01*
X622334Y731606D01*
X623644Y728444D01*
X625728Y725728D01*
X628444Y723644D01*
X631606Y722335D01*
X635000Y721888D01*
X638394Y722335D01*
X641556Y723644D01*
X644271Y725728D01*
X646355Y728444D01*
X647665Y731606D01*
X648112Y735000D01*
X647665Y738394D01*
X646355Y741556D01*
X644271Y744272D01*
X641556Y746355D01*
X638394Y747665D01*
X635000Y748112D01*
D02*
G37*
G36*
X295390Y543369D02*
Y535496D01*
X303263D01*
X302309Y537800D01*
X300305Y540411D01*
X297694Y542415D01*
X295390Y543369D01*
D02*
G37*
G36*
X-280000Y1901685D02*
X-285613Y1900947D01*
X-290843Y1898780D01*
X-295334Y1895334D01*
X-298780Y1890843D01*
X-300947Y1885613D01*
X-301686Y1880000D01*
X-300947Y1874387D01*
X-298780Y1869157D01*
X-295334Y1864666D01*
X-290843Y1861220D01*
X-285613Y1859053D01*
X-280000Y1858315D01*
X-274387Y1859053D01*
X-269157Y1861220D01*
X-264666Y1864666D01*
X-261220Y1869157D01*
X-259053Y1874387D01*
X-258314Y1880000D01*
X-259053Y1885613D01*
X-261220Y1890843D01*
X-264666Y1895334D01*
X-269157Y1898780D01*
X-274387Y1900947D01*
X-280000Y1901685D01*
D02*
G37*
G36*
X650000Y715000D02*
X620000D01*
Y685000D01*
X650000D01*
Y715000D01*
D02*
G37*
G36*
X19999Y1046678D02*
X16488Y1045980D01*
X13511Y1043990D01*
X11522Y1041013D01*
X10823Y1037502D01*
X11522Y1033990D01*
X13511Y1031013D01*
X16488Y1029024D01*
X19999Y1028326D01*
X23511Y1029024D01*
X26488Y1031013D01*
X28477Y1033990D01*
X29176Y1037502D01*
X28477Y1041013D01*
X26488Y1043990D01*
X23511Y1045980D01*
X19999Y1046678D01*
D02*
G37*
G36*
X-40000Y1039676D02*
X-43512Y1038978D01*
X-46489Y1036989D01*
X-48478Y1034012D01*
X-49176Y1030500D01*
X-48478Y1026988D01*
X-46489Y1024011D01*
X-43512Y1022022D01*
X-40000Y1021324D01*
X-36488Y1022022D01*
X-33511Y1024011D01*
X-32870Y1024972D01*
X-30464D01*
X-29489Y1023511D01*
X-26512Y1021522D01*
X-23000Y1020824D01*
X-19488Y1021522D01*
X-16511Y1023511D01*
X-14522Y1026488D01*
X-13824Y1030000D01*
X-14522Y1033512D01*
X-16511Y1036489D01*
X-19488Y1038478D01*
X-23000Y1039176D01*
X-26512Y1038478D01*
X-29489Y1036489D01*
X-30130Y1035528D01*
X-32536D01*
X-33511Y1036989D01*
X-36488Y1038978D01*
X-40000Y1039676D01*
D02*
G37*
G36*
X-30000Y980147D02*
X-32926Y979565D01*
X-35407Y977907D01*
X-37065Y975426D01*
X-37647Y972500D01*
X-37065Y969574D01*
X-35407Y967093D01*
X-32926Y965435D01*
X-30000Y964853D01*
X-27074Y965435D01*
X-24593Y967093D01*
X-22935Y969574D01*
X-22353Y972500D01*
X-22935Y975426D01*
X-24593Y977907D01*
X-27074Y979565D01*
X-30000Y980147D01*
D02*
G37*
G36*
X-60000Y996116D02*
X-63524Y995652D01*
X-66808Y994292D01*
X-69628Y992128D01*
X-71792Y989308D01*
X-73152Y986024D01*
X-73616Y982500D01*
X-73152Y978976D01*
X-71792Y975692D01*
X-69628Y972872D01*
X-66808Y970708D01*
X-63524Y969348D01*
X-60000Y968884D01*
X-56476Y969348D01*
X-53192Y970708D01*
X-50372Y972872D01*
X-48671Y975088D01*
X-47501Y974855D01*
X-44574Y975437D01*
X-42093Y977095D01*
X-40436Y979576D01*
X-39854Y982502D01*
X-40436Y985428D01*
X-42093Y987909D01*
X-44574Y989567D01*
X-47501Y990149D01*
X-48674Y989915D01*
X-50372Y992128D01*
X-53192Y994292D01*
X-56476Y995652D01*
X-60000Y996116D01*
D02*
G37*
G36*
X-97500Y982176D02*
X-101012Y981478D01*
X-103989Y979489D01*
X-105978Y976512D01*
X-106676Y973000D01*
X-105978Y969488D01*
X-103989Y966511D01*
X-101012Y964522D01*
X-97500Y963824D01*
X-93988Y964522D01*
X-93061Y965142D01*
X-91261Y963939D01*
X-91647Y962000D01*
X-91065Y959074D01*
X-89407Y956593D01*
X-86926Y954935D01*
X-84000Y954353D01*
X-81074Y954935D01*
X-78593Y956593D01*
X-76935Y959074D01*
X-76353Y962000D01*
X-76935Y964926D01*
X-78593Y967407D01*
X-81074Y969065D01*
X-84000Y969647D01*
X-86926Y969065D01*
X-87209Y968876D01*
X-88889Y970159D01*
X-88324Y973000D01*
X-89022Y976512D01*
X-91011Y979489D01*
X-93988Y981478D01*
X-97500Y982176D01*
D02*
G37*
G36*
X-280000Y946685D02*
X-285613Y945947D01*
X-290843Y943780D01*
X-295334Y940334D01*
X-298780Y935843D01*
X-300947Y930613D01*
X-301686Y925000D01*
X-300947Y919387D01*
X-298780Y914157D01*
X-295334Y909666D01*
X-290843Y906220D01*
X-285613Y904053D01*
X-280000Y903315D01*
X-274387Y904053D01*
X-269157Y906220D01*
X-264666Y909666D01*
X-261220Y914157D01*
X-259053Y919387D01*
X-258314Y925000D01*
X-259053Y930613D01*
X-261220Y935843D01*
X-264666Y940334D01*
X-269157Y943780D01*
X-274387Y945947D01*
X-280000Y946685D01*
D02*
G37*
G36*
X157000Y932647D02*
X154074Y932065D01*
X151593Y930407D01*
X149935Y927926D01*
X149353Y925000D01*
X149935Y922074D01*
X151593Y919593D01*
Y919407D01*
X149935Y916926D01*
X149353Y914000D01*
X149935Y911074D01*
X151593Y908593D01*
X154074Y906935D01*
X157000Y906353D01*
X159926Y906935D01*
X162407Y908593D01*
X164065Y911074D01*
X164647Y914000D01*
X164065Y916926D01*
X162407Y919407D01*
Y919593D01*
X164065Y922074D01*
X164647Y925000D01*
X164065Y927926D01*
X162407Y930407D01*
X159926Y932065D01*
X157000Y932647D01*
D02*
G37*
G36*
X-111000Y910647D02*
X-113926Y910065D01*
X-116407Y908407D01*
X-118065Y905926D01*
X-118647Y903000D01*
X-118065Y900074D01*
X-116407Y897593D01*
X-113926Y895935D01*
X-111000Y895353D01*
X-108074Y895935D01*
X-105593Y897593D01*
X-103935Y900074D01*
X-103353Y903000D01*
X-103935Y905926D01*
X-105593Y908407D01*
X-108074Y910065D01*
X-111000Y910647D01*
D02*
G37*
G36*
X-166000Y893647D02*
X-168926Y893065D01*
X-171407Y891407D01*
X-173065Y888926D01*
X-173647Y886000D01*
X-173065Y883074D01*
X-171407Y880593D01*
X-168926Y878935D01*
X-166000Y878353D01*
X-163074Y878935D01*
X-160593Y880593D01*
X-158935Y883074D01*
X-158353Y886000D01*
X-158935Y888926D01*
X-160593Y891407D01*
X-163074Y893065D01*
X-166000Y893647D01*
D02*
G37*
G36*
X64000Y900647D02*
X61074Y900065D01*
X58593Y898407D01*
X56935Y895926D01*
X56353Y893000D01*
X56935Y890074D01*
X58593Y887593D01*
X61074Y885935D01*
X63667Y885419D01*
X63935Y884074D01*
X65593Y881593D01*
X68074Y879935D01*
X71000Y879353D01*
X73926Y879935D01*
X76407Y881593D01*
X78065Y884074D01*
X78647Y887000D01*
X78065Y889926D01*
X76407Y892407D01*
X73926Y894065D01*
X71333Y894581D01*
X71065Y895926D01*
X69407Y898407D01*
X66926Y900065D01*
X64000Y900647D01*
D02*
G37*
G36*
X-38000Y958147D02*
X-40926Y957565D01*
X-43407Y955907D01*
X-45065Y953426D01*
X-45647Y950500D01*
X-45065Y947574D01*
X-43407Y945093D01*
X-40926Y943435D01*
X-38000Y942853D01*
X-35074Y943435D01*
X-32593Y945093D01*
X-30935Y947574D01*
X-30353Y950500D01*
X-30935Y953426D01*
X-32593Y955907D01*
X-35074Y957565D01*
X-38000Y958147D01*
D02*
G37*
G36*
X157000Y955647D02*
X154074Y955065D01*
X151593Y953407D01*
X149935Y950926D01*
X149353Y948000D01*
X149935Y945074D01*
X151593Y942593D01*
X154074Y940935D01*
X157000Y940353D01*
X159926Y940935D01*
X162407Y942593D01*
X164065Y945074D01*
X164647Y948000D01*
X164065Y950926D01*
X162407Y953407D01*
X159926Y955065D01*
X157000Y955647D01*
D02*
G37*
G36*
X52500Y930647D02*
X49574Y930065D01*
X47093Y928407D01*
X45435Y925926D01*
X44853Y923000D01*
X45435Y920074D01*
X47093Y917593D01*
X49574Y915935D01*
X52500Y915353D01*
X55426Y915935D01*
X57907Y917593D01*
X59565Y920074D01*
X60147Y923000D01*
X59565Y925926D01*
X57907Y928407D01*
X55426Y930065D01*
X52500Y930647D01*
D02*
G37*
G36*
X-159000Y957617D02*
X-162524Y957152D01*
X-165808Y955792D01*
X-168628Y953628D01*
X-170792Y950808D01*
X-172153Y947524D01*
X-172617Y944000D01*
X-172153Y940476D01*
X-170792Y937192D01*
X-168628Y934372D01*
X-165808Y932208D01*
X-162524Y930847D01*
X-159000Y930384D01*
X-155476Y930847D01*
X-152192Y932208D01*
X-149372Y934372D01*
X-147208Y937192D01*
X-145848Y940476D01*
X-145384Y944000D01*
X-145848Y947524D01*
X-147208Y950808D01*
X-149372Y953628D01*
X-152192Y955792D01*
X-155476Y957152D01*
X-159000Y957617D01*
D02*
G37*
G36*
X-100000Y877647D02*
X-102926Y877065D01*
X-105407Y875407D01*
X-107065Y872926D01*
X-107647Y870000D01*
X-107065Y867074D01*
X-105407Y864593D01*
X-102926Y862935D01*
X-100363Y862425D01*
X-100647Y861000D01*
X-100065Y858074D01*
X-98407Y855593D01*
X-95926Y853935D01*
X-93000Y853353D01*
X-90074Y853935D01*
X-87593Y855593D01*
X-85935Y858074D01*
X-85353Y861000D01*
X-85935Y863926D01*
X-87593Y866407D01*
X-90074Y868065D01*
X-92637Y868575D01*
X-92353Y870000D01*
X-92935Y872926D01*
X-94593Y875407D01*
X-97074Y877065D01*
X-100000Y877647D01*
D02*
G37*
G36*
X-60000Y730647D02*
X-62926Y730065D01*
X-65407Y728407D01*
X-67065Y725926D01*
X-67647Y723000D01*
X-67065Y720074D01*
X-65407Y717593D01*
X-62926Y715935D01*
X-60000Y715353D01*
X-57074Y715935D01*
X-54593Y717593D01*
X-52935Y720074D01*
X-52353Y723000D01*
X-52935Y725926D01*
X-54593Y728407D01*
X-57074Y730065D01*
X-60000Y730647D01*
D02*
G37*
G36*
X222000Y735147D02*
X219074Y734565D01*
X216593Y732907D01*
X214935Y730426D01*
X214353Y727500D01*
X214935Y724574D01*
X216593Y722093D01*
X219074Y720435D01*
X222000Y719853D01*
X224926Y720435D01*
X227407Y722093D01*
X229065Y724574D01*
X229647Y727500D01*
X229065Y730426D01*
X227407Y732907D01*
X224926Y734565D01*
X222000Y735147D01*
D02*
G37*
G36*
X185000Y727647D02*
X182074Y727065D01*
X179593Y725407D01*
X177935Y722926D01*
X177353Y720000D01*
X177935Y717074D01*
X179593Y714593D01*
X182074Y712935D01*
X185000Y712353D01*
X187926Y712935D01*
X190407Y714593D01*
X192065Y717074D01*
X192647Y720000D01*
X192065Y722926D01*
X190407Y725407D01*
X187926Y727065D01*
X185000Y727647D01*
D02*
G37*
G36*
X-77500Y723647D02*
X-80426Y723065D01*
X-82907Y721407D01*
X-84565Y718926D01*
X-85147Y716000D01*
X-84565Y713074D01*
X-82907Y710593D01*
X-80426Y708935D01*
X-77500Y708353D01*
X-74574Y708935D01*
X-72093Y710593D01*
X-70435Y713074D01*
X-69853Y716000D01*
X-70435Y718926D01*
X-72093Y721407D01*
X-74574Y723065D01*
X-77500Y723647D01*
D02*
G37*
G36*
X68000D02*
X65074Y723065D01*
X62593Y721407D01*
X60935Y718926D01*
X60353Y716000D01*
X60935Y713074D01*
X62593Y710593D01*
X65074Y708935D01*
X68000Y708353D01*
X70926Y708935D01*
X73407Y710593D01*
X75065Y713074D01*
X75647Y716000D01*
X75065Y718926D01*
X73407Y721407D01*
X70926Y723065D01*
X68000Y723647D01*
D02*
G37*
G36*
X-180000Y742647D02*
X-182926Y742065D01*
X-185407Y740407D01*
X-187065Y737926D01*
X-187647Y735000D01*
X-187065Y732074D01*
X-185407Y729593D01*
X-182926Y727935D01*
X-180000Y727353D01*
X-177074Y727935D01*
X-174593Y729593D01*
X-172935Y732074D01*
X-172353Y735000D01*
X-172935Y737926D01*
X-174593Y740407D01*
X-177074Y742065D01*
X-180000Y742647D01*
D02*
G37*
G36*
X285000D02*
X282074Y742065D01*
X279593Y740407D01*
X277935Y737926D01*
X277353Y735000D01*
X277935Y732074D01*
X279593Y729593D01*
X282074Y727935D01*
X285000Y727353D01*
X287926Y727935D01*
X290407Y729593D01*
X292065Y732074D01*
X292647Y735000D01*
X292065Y737926D01*
X290407Y740407D01*
X287926Y742065D01*
X285000Y742647D01*
D02*
G37*
G36*
X32593Y737647D02*
X29667Y737065D01*
X27186Y735407D01*
X25529Y732926D01*
X24946Y730000D01*
X25529Y727074D01*
X27186Y724593D01*
X29667Y722935D01*
X32593Y722353D01*
X35520Y722935D01*
X38001Y724593D01*
X39658Y727074D01*
X40240Y730000D01*
X39658Y732926D01*
X38001Y735407D01*
X35520Y737065D01*
X32593Y737647D01*
D02*
G37*
G36*
X257000Y730147D02*
X254074Y729565D01*
X251593Y727907D01*
X249935Y725426D01*
X249353Y722500D01*
X249396Y722286D01*
X247733Y720578D01*
X247698Y720569D01*
X247511Y720686D01*
X247065Y722926D01*
X245407Y725407D01*
X242926Y727065D01*
X240000Y727647D01*
X237074Y727065D01*
X234593Y725407D01*
X232935Y722926D01*
X232353Y720000D01*
X232935Y717074D01*
X234593Y714593D01*
X237074Y712935D01*
X240000Y712353D01*
X240471Y710407D01*
X240935Y708074D01*
X242593Y705593D01*
X245074Y703935D01*
X248000Y703353D01*
X250926Y703935D01*
X253407Y705593D01*
X255065Y708074D01*
X255647Y711000D01*
X255215Y713169D01*
X256459Y714731D01*
X256755Y714902D01*
X257000Y714853D01*
X259926Y715435D01*
X262407Y717093D01*
X264065Y719574D01*
X264647Y722500D01*
X264065Y725426D01*
X262407Y727907D01*
X259926Y729565D01*
X257000Y730147D01*
D02*
G37*
G36*
X5500Y703147D02*
X2574Y702565D01*
X93Y700907D01*
X-1565Y698426D01*
X-2147Y695500D01*
X-1565Y692574D01*
X93Y690093D01*
X2574Y688435D01*
X5500Y687853D01*
X8426Y688435D01*
X10907Y690093D01*
X12565Y692574D01*
X13147Y695500D01*
X12565Y698426D01*
X10907Y700907D01*
X8426Y702565D01*
X5500Y703147D01*
D02*
G37*
G36*
X65500Y658647D02*
X62574Y658065D01*
X60093Y656407D01*
X58435Y653926D01*
X57853Y651000D01*
X58435Y648074D01*
X60093Y645593D01*
X62574Y643935D01*
X65500Y643353D01*
X68426Y643935D01*
X70907Y645593D01*
X72565Y648074D01*
X73147Y651000D01*
X72565Y653926D01*
X70907Y656407D01*
X68426Y658065D01*
X65500Y658647D01*
D02*
G37*
G36*
X433500Y653500D02*
X423830D01*
X425131Y650359D01*
X427401Y647401D01*
X430359Y645131D01*
X433500Y643830D01*
Y653500D01*
D02*
G37*
G36*
X45500Y658647D02*
X42574Y658065D01*
X40093Y656407D01*
X38435Y653926D01*
X37853Y651000D01*
X38435Y648074D01*
X40093Y645593D01*
X42574Y643935D01*
X45500Y643353D01*
X48426Y643935D01*
X50907Y645593D01*
X52565Y648074D01*
X53147Y651000D01*
X52565Y653926D01*
X50907Y656407D01*
X48426Y658065D01*
X45500Y658647D01*
D02*
G37*
G36*
X182000Y702647D02*
X179074Y702065D01*
X176593Y700407D01*
X174935Y697926D01*
X174353Y695000D01*
X174935Y692074D01*
X176593Y689593D01*
X179074Y687935D01*
X182000Y687353D01*
X184926Y687935D01*
X187407Y689593D01*
X189065Y692074D01*
X189647Y695000D01*
X189065Y697926D01*
X187407Y700407D01*
X184926Y702065D01*
X182000Y702647D01*
D02*
G37*
G36*
X441500Y671170D02*
Y661500D01*
X451170D01*
X449869Y664641D01*
X447599Y667599D01*
X444641Y669869D01*
X441500Y671170D01*
D02*
G37*
G36*
X451170Y653500D02*
X441500D01*
Y643830D01*
X444641Y645131D01*
X447599Y647401D01*
X449869Y650359D01*
X451170Y653500D01*
D02*
G37*
G36*
X433500Y671170D02*
X430359Y669869D01*
X427401Y667599D01*
X425131Y664641D01*
X423830Y661500D01*
X433500D01*
Y671170D01*
D02*
G37*
G36*
X-160000Y834647D02*
X-162926Y834065D01*
X-165407Y832407D01*
X-167065Y829926D01*
X-167647Y827000D01*
X-167065Y824074D01*
X-165407Y821593D01*
X-162926Y819935D01*
X-160000Y819353D01*
X-157074Y819935D01*
X-154593Y821593D01*
X-152935Y824074D01*
X-152353Y827000D01*
X-152935Y829926D01*
X-154593Y832407D01*
X-157074Y834065D01*
X-160000Y834647D01*
D02*
G37*
G36*
X211000Y841647D02*
X208074Y841065D01*
X205593Y839407D01*
X203935Y836926D01*
X203353Y834000D01*
X203935Y831074D01*
X205593Y828593D01*
X208074Y826935D01*
X211000Y826353D01*
X213926Y826935D01*
X216407Y828593D01*
X218065Y831074D01*
X218647Y834000D01*
X218065Y836926D01*
X216407Y839407D01*
X213926Y841065D01*
X211000Y841647D01*
D02*
G37*
G36*
X46000Y832647D02*
X43074Y832065D01*
X40593Y830407D01*
X38935Y827926D01*
X38353Y825000D01*
X38935Y822074D01*
X40593Y819593D01*
X43074Y817935D01*
X46000Y817353D01*
X48926Y817935D01*
X51407Y819593D01*
X53065Y822074D01*
X53647Y825000D01*
X53065Y827926D01*
X51407Y830407D01*
X48926Y832065D01*
X46000Y832647D01*
D02*
G37*
G36*
X65000Y825147D02*
X62074Y824565D01*
X59593Y822907D01*
X57935Y820426D01*
X57353Y817500D01*
X57935Y814574D01*
X59593Y812093D01*
X62074Y810435D01*
X65000Y809853D01*
X67926Y810435D01*
X70305Y812024D01*
X70593Y811593D01*
X73074Y809935D01*
X76000Y809353D01*
X78926Y809935D01*
X81407Y811593D01*
X83065Y814074D01*
X83647Y817000D01*
X83065Y819926D01*
X81407Y822407D01*
X78926Y824065D01*
X76000Y824647D01*
X73074Y824065D01*
X70695Y822476D01*
X70407Y822907D01*
X67926Y824565D01*
X65000Y825147D01*
D02*
G37*
G36*
X137500Y827647D02*
X134574Y827065D01*
X132093Y825407D01*
X130435Y822926D01*
X129853Y820000D01*
X130435Y817074D01*
X132093Y814593D01*
X134574Y812935D01*
X137500Y812353D01*
X140426Y812935D01*
X142907Y814593D01*
X144565Y817074D01*
X145147Y820000D01*
X144565Y822926D01*
X142907Y825407D01*
X140426Y827065D01*
X137500Y827647D01*
D02*
G37*
G36*
X170000Y875147D02*
X167074Y874565D01*
X164593Y872907D01*
X162935Y870426D01*
X162353Y867500D01*
X162935Y864574D01*
X164593Y862093D01*
X166845Y860588D01*
X166900Y859674D01*
X166634Y858506D01*
X164414Y858065D01*
X161933Y856407D01*
X160275Y853926D01*
X159693Y851000D01*
X160275Y848074D01*
X161933Y845593D01*
X164414Y843935D01*
X167340Y843353D01*
X170266Y843935D01*
X172747Y845593D01*
X174405Y848074D01*
X174987Y851000D01*
X174405Y853926D01*
X172747Y856407D01*
X170495Y857912D01*
X170440Y858826D01*
X170706Y859994D01*
X172926Y860435D01*
X175407Y862093D01*
X177065Y864574D01*
X177647Y867500D01*
X177065Y870426D01*
X175407Y872907D01*
X172926Y874565D01*
X170000Y875147D01*
D02*
G37*
G36*
X273000Y858647D02*
X270074Y858065D01*
X267593Y856407D01*
X265935Y853926D01*
X265353Y851000D01*
X265935Y848074D01*
X267593Y845593D01*
X270074Y843935D01*
X273000Y843353D01*
X275926Y843935D01*
X278407Y845593D01*
X280065Y848074D01*
X280647Y851000D01*
X280065Y853926D01*
X278407Y856407D01*
X275926Y858065D01*
X273000Y858647D01*
D02*
G37*
G36*
X-64000Y857647D02*
X-66926Y857065D01*
X-69407Y855407D01*
X-71065Y852926D01*
X-71647Y850000D01*
X-71065Y847074D01*
X-69407Y844593D01*
X-66926Y842935D01*
X-64000Y842353D01*
X-61074Y842935D01*
X-58593Y844593D01*
X-56935Y847074D01*
X-56353Y850000D01*
X-56935Y852926D01*
X-58593Y855407D01*
X-61074Y857065D01*
X-64000Y857647D01*
D02*
G37*
G36*
X111000Y841647D02*
X108074Y841065D01*
X105593Y839407D01*
X103935Y836926D01*
X103353Y834000D01*
X103935Y831074D01*
X104270Y830572D01*
X103067Y829223D01*
X102864Y829077D01*
X100000Y829647D01*
X97074Y829065D01*
X94593Y827407D01*
X92935Y824926D01*
X92353Y822000D01*
X92935Y819074D01*
X94593Y816593D01*
X97074Y814935D01*
X100000Y814353D01*
X102926Y814935D01*
X105407Y816593D01*
X107065Y819074D01*
X107647Y822000D01*
X107065Y824926D01*
X106730Y825428D01*
X107933Y826777D01*
X108136Y826923D01*
X111000Y826353D01*
X113926Y826935D01*
X116407Y828593D01*
X118065Y831074D01*
X118647Y834000D01*
X118065Y836926D01*
X116407Y839407D01*
X113926Y841065D01*
X111000Y841647D01*
D02*
G37*
G36*
X68000Y846647D02*
X65073Y846065D01*
X62593Y844407D01*
X60935Y841926D01*
X60353Y839000D01*
X60935Y836074D01*
X62593Y833593D01*
X65073Y831935D01*
X68000Y831353D01*
X70926Y831935D01*
X73407Y833593D01*
X75065Y836074D01*
X75647Y839000D01*
X75065Y841926D01*
X73407Y844407D01*
X70926Y846065D01*
X68000Y846647D01*
D02*
G37*
G36*
X-85000Y820647D02*
X-87926Y820065D01*
X-90407Y818407D01*
X-92065Y815926D01*
X-92647Y813000D01*
X-92065Y810074D01*
X-90407Y807593D01*
X-87926Y805935D01*
X-85000Y805353D01*
X-82074Y805935D01*
X-79593Y807593D01*
X-77935Y810074D01*
X-77353Y813000D01*
X-77935Y815926D01*
X-79593Y818407D01*
X-82074Y820065D01*
X-85000Y820647D01*
D02*
G37*
G36*
X137500Y802647D02*
X134574Y802065D01*
X132093Y800407D01*
X130435Y797926D01*
X129853Y795000D01*
X130435Y792074D01*
X132093Y789593D01*
Y787907D01*
X130603Y785678D01*
X130409Y785652D01*
X127125Y784292D01*
X124305Y782128D01*
X122141Y779308D01*
X120781Y776024D01*
X120317Y772500D01*
X120781Y768976D01*
X122141Y765692D01*
X124305Y762872D01*
X127125Y760708D01*
X130409Y759348D01*
X133933Y758884D01*
X137457Y759348D01*
X140741Y760708D01*
X143561Y762872D01*
X145725Y765692D01*
X147086Y768976D01*
X147550Y772500D01*
X147086Y776024D01*
X145725Y779308D01*
X144762Y780564D01*
X145147Y782500D01*
X144565Y785426D01*
X142907Y787907D01*
Y789593D01*
X144565Y792074D01*
X145147Y795000D01*
X144565Y797926D01*
X142907Y800407D01*
X140426Y802065D01*
X137500Y802647D01*
D02*
G37*
G36*
X309000Y783147D02*
X306074Y782565D01*
X303593Y780907D01*
X301935Y778426D01*
X301353Y775500D01*
X301935Y772574D01*
X303593Y770093D01*
X306074Y768435D01*
X309000Y767853D01*
X311926Y768435D01*
X314407Y770093D01*
X316065Y772574D01*
X316647Y775500D01*
X316065Y778426D01*
X314407Y780907D01*
X311926Y782565D01*
X309000Y783147D01*
D02*
G37*
G36*
X-147500Y773647D02*
X-150426Y773065D01*
X-152907Y771407D01*
X-154565Y768926D01*
X-155147Y766000D01*
X-154565Y763074D01*
X-152907Y760593D01*
X-150426Y758935D01*
X-147500Y758353D01*
X-144574Y758935D01*
X-142093Y760593D01*
X-140435Y763074D01*
X-139853Y766000D01*
X-140435Y768926D01*
X-142093Y771407D01*
X-144574Y773065D01*
X-147500Y773647D01*
D02*
G37*
G36*
X170000Y764647D02*
X167074Y764065D01*
X164593Y762407D01*
X162935Y759926D01*
X162353Y757000D01*
X162935Y754074D01*
X164593Y751593D01*
X167074Y749935D01*
X170000Y749353D01*
X172926Y749935D01*
X175407Y751593D01*
X177065Y754074D01*
X177647Y757000D01*
X177065Y759926D01*
X175407Y762407D01*
X172926Y764065D01*
X170000Y764647D01*
D02*
G37*
G36*
X-60000Y771647D02*
X-62926Y771065D01*
X-65407Y769407D01*
X-67065Y766926D01*
X-67647Y764000D01*
X-67065Y761074D01*
X-65407Y758593D01*
X-62926Y756935D01*
X-60000Y756353D01*
X-57074Y756935D01*
X-54593Y758593D01*
X-52935Y761074D01*
X-52353Y764000D01*
X-52935Y766926D01*
X-54593Y769407D01*
X-57074Y771065D01*
X-60000Y771647D01*
D02*
G37*
G36*
X-65000Y820647D02*
X-67926Y820065D01*
X-70407Y818407D01*
X-72065Y815926D01*
X-72647Y813000D01*
X-72065Y810074D01*
X-70407Y807593D01*
X-67926Y805935D01*
X-65000Y805353D01*
X-62074Y805935D01*
X-59593Y807593D01*
X-59142Y808267D01*
X-57836Y808145D01*
X-56965Y807925D01*
X-55407Y805593D01*
X-52926Y803935D01*
X-50000Y803353D01*
X-47074Y803935D01*
X-44593Y805593D01*
X-42935Y808074D01*
X-42353Y811000D01*
X-42935Y813926D01*
X-44593Y816407D01*
X-47074Y818065D01*
X-50000Y818647D01*
X-52926Y818065D01*
X-55407Y816407D01*
X-55858Y815733D01*
X-57164Y815855D01*
X-58035Y816075D01*
X-59593Y818407D01*
X-62074Y820065D01*
X-65000Y820647D01*
D02*
G37*
G36*
X-190000Y820647D02*
X-192926Y820065D01*
X-195407Y818407D01*
X-197065Y815926D01*
X-197647Y813000D01*
X-197065Y810074D01*
X-195407Y807593D01*
X-192926Y805935D01*
X-190000Y805353D01*
X-187074Y805935D01*
X-184593Y807593D01*
X-182935Y810074D01*
X-182353Y813000D01*
X-182935Y815926D01*
X-184593Y818407D01*
X-187074Y820065D01*
X-190000Y820647D01*
D02*
G37*
G36*
X265000Y817647D02*
X262074Y817065D01*
X259593Y815407D01*
X257935Y812926D01*
X257353Y810000D01*
X257935Y807074D01*
X259593Y804593D01*
X262074Y802935D01*
X265000Y802353D01*
X267926Y802935D01*
X270407Y804593D01*
X272065Y807074D01*
X272647Y810000D01*
X272065Y812926D01*
X270407Y815407D01*
X267926Y817065D01*
X265000Y817647D01*
D02*
G37*
G36*
X92000Y798647D02*
X89074Y798065D01*
X86593Y796407D01*
X84935Y793926D01*
X84353Y791000D01*
X84935Y788074D01*
X86593Y785593D01*
X89074Y783935D01*
X92000Y783353D01*
X94926Y783935D01*
X97407Y785593D01*
X99065Y788074D01*
X99647Y791000D01*
X99065Y793926D01*
X97407Y796407D01*
X94926Y798065D01*
X92000Y798647D01*
D02*
G37*
G36*
X-16000Y810147D02*
X-18926Y809565D01*
X-21407Y807907D01*
X-23065Y805426D01*
X-23647Y802500D01*
X-23065Y799574D01*
X-21407Y797093D01*
X-18926Y795435D01*
X-16000Y794853D01*
X-13074Y795435D01*
X-10593Y797093D01*
X-8935Y799574D01*
X-8353Y802500D01*
X-8935Y805426D01*
X-10593Y807907D01*
X-13074Y809565D01*
X-16000Y810147D01*
D02*
G37*
G36*
X-132500Y40176D02*
X-136012Y39478D01*
X-138989Y37489D01*
X-139500Y36723D01*
X-141500D01*
X-142011Y37489D01*
X-144988Y39478D01*
X-148500Y40176D01*
X-152012Y39478D01*
X-154989Y37489D01*
X-156978Y34512D01*
X-157676Y31000D01*
X-156978Y27488D01*
X-154989Y24511D01*
X-152012Y22522D01*
X-148500Y21824D01*
X-144988Y22522D01*
X-142538Y24159D01*
X-140597Y23992D01*
X-140080Y23803D01*
X-139798Y23277D01*
X-140978Y21512D01*
X-141676Y18000D01*
X-140978Y14488D01*
X-138989Y11511D01*
X-136012Y9522D01*
X-132500Y8824D01*
X-128988Y9522D01*
X-126011Y11511D01*
X-124022Y14488D01*
X-123324Y18000D01*
X-124022Y21512D01*
X-126011Y24489D01*
Y24511D01*
X-124022Y27488D01*
X-123324Y31000D01*
X-124022Y34512D01*
X-126011Y37489D01*
X-128988Y39478D01*
X-132500Y40176D01*
D02*
G37*
G36*
X-164000Y115647D02*
X-166926Y115065D01*
X-169407Y113407D01*
X-171065Y110926D01*
X-171647Y108000D01*
X-171065Y105074D01*
X-169407Y102593D01*
X-166926Y100935D01*
X-164000Y100353D01*
X-161074Y100935D01*
X-158593Y102593D01*
X-156935Y105074D01*
X-156353Y108000D01*
X-156935Y110926D01*
X-158593Y113407D01*
X-161074Y115065D01*
X-164000Y115647D01*
D02*
G37*
G36*
X-228000Y108647D02*
X-230926Y108065D01*
X-233407Y106407D01*
X-235065Y103926D01*
X-235647Y101000D01*
X-235065Y98074D01*
X-233407Y95593D01*
X-230926Y93935D01*
X-228000Y93353D01*
X-225074Y93935D01*
X-222593Y95593D01*
X-220935Y98074D01*
X-220353Y101000D01*
X-220935Y103926D01*
X-222593Y106407D01*
X-225074Y108065D01*
X-228000Y108647D01*
D02*
G37*
G36*
X-117000Y84647D02*
X-119926Y84065D01*
X-122407Y82407D01*
X-124065Y79926D01*
X-124647Y77000D01*
X-124065Y74074D01*
X-122407Y71593D01*
X-119926Y69935D01*
X-117000Y69353D01*
X-114074Y69935D01*
X-111593Y71593D01*
X-109935Y74074D01*
X-109353Y77000D01*
X-109935Y79926D01*
X-111593Y82407D01*
X-114074Y84065D01*
X-117000Y84647D01*
D02*
G37*
G36*
X-223969Y50647D02*
X-226895Y50065D01*
X-229376Y48407D01*
X-231034Y45926D01*
X-231616Y43000D01*
X-231034Y40074D01*
X-229376Y37593D01*
X-226895Y35935D01*
X-223969Y35353D01*
X-221043Y35935D01*
X-218562Y37593D01*
X-216904Y40074D01*
X-216322Y43000D01*
X-216904Y45926D01*
X-218562Y48407D01*
X-221043Y50065D01*
X-223969Y50647D01*
D02*
G37*
G36*
X-280000Y-8314D02*
X-285613Y-9053D01*
X-290843Y-11220D01*
X-295334Y-14666D01*
X-298780Y-19157D01*
X-300947Y-24387D01*
X-301686Y-30000D01*
X-300947Y-35613D01*
X-298780Y-40843D01*
X-295334Y-45334D01*
X-290843Y-48780D01*
X-285613Y-50947D01*
X-280000Y-51686D01*
X-274387Y-50947D01*
X-269157Y-48780D01*
X-264666Y-45334D01*
X-261220Y-40843D01*
X-259053Y-35613D01*
X-258314Y-30000D01*
X-259053Y-24387D01*
X-261220Y-19157D01*
X-264666Y-14666D01*
X-269157Y-11220D01*
X-274387Y-9053D01*
X-280000Y-8314D01*
D02*
G37*
G36*
X-224000Y136647D02*
X-226926Y136065D01*
X-229407Y134407D01*
X-231065Y131926D01*
X-231647Y129000D01*
X-231065Y126074D01*
X-229407Y123593D01*
X-226926Y121935D01*
X-224000Y121353D01*
X-221074Y121935D01*
X-218593Y123593D01*
X-216935Y126074D01*
X-216353Y129000D01*
X-216935Y131926D01*
X-218593Y134407D01*
X-221074Y136065D01*
X-224000Y136647D01*
D02*
G37*
G36*
X-228000Y163647D02*
X-230926Y163065D01*
X-233407Y161407D01*
X-235065Y158926D01*
X-235647Y156000D01*
X-235065Y153074D01*
X-233407Y150593D01*
X-230926Y148935D01*
X-228000Y148353D01*
X-225074Y148935D01*
X-222593Y150593D01*
X-220935Y153074D01*
X-220353Y156000D01*
X-220935Y158926D01*
X-222593Y161407D01*
X-225074Y163065D01*
X-228000Y163647D01*
D02*
G37*
G36*
X-197000Y166647D02*
X-199926Y166065D01*
X-202407Y164407D01*
X-204065Y161926D01*
X-204647Y159000D01*
X-204065Y156074D01*
X-202407Y153593D01*
X-199926Y151935D01*
X-197000Y151353D01*
X-194074Y151935D01*
X-191593Y153593D01*
X-189935Y156074D01*
X-189353Y159000D01*
X-189935Y161926D01*
X-191593Y164407D01*
X-194074Y166065D01*
X-197000Y166647D01*
D02*
G37*
%LPD*%
D22*
X-200469Y600000D02*
D03*
D33*
X14000Y1073000D02*
D03*
Y1063000D02*
D03*
X659000Y953000D02*
D03*
Y943000D02*
D03*
D65*
X-137750Y-29000D02*
D03*
X-182250D02*
D03*
D66*
X-118250Y-59000D02*
D03*
X-201750D02*
D03*
D68*
X-37500Y1760000D02*
D03*
X222500Y1760000D02*
D03*
X482500Y1760000D02*
D03*
D70*
X-285000Y379660D02*
D03*
D74*
X297500Y1477500D02*
D03*
X420000Y308631D02*
D03*
D75*
X138990Y531496D02*
D03*
X113590D02*
D03*
X88190D02*
D03*
X164390D02*
D03*
X189790D02*
D03*
X215190D02*
D03*
X240590D02*
D03*
X265990D02*
D03*
X291390D02*
D03*
D78*
X136000Y-30000D02*
D03*
X437500Y657500D02*
D03*
X217500Y1645000D02*
D03*
D79*
X641500Y1820524D02*
D03*
X654000Y1795524D02*
D03*
X641500Y1770524D02*
D03*
X654000Y1745524D02*
D03*
X641500Y1720524D02*
D03*
X616500Y1820524D02*
D03*
X629000Y1795524D02*
D03*
X616500Y1770524D02*
D03*
X629000Y1745524D02*
D03*
X616500Y1720524D02*
D03*
X591500Y1820524D02*
D03*
X604000Y1795524D02*
D03*
X591500Y1770524D02*
D03*
X604000Y1745524D02*
D03*
X591500Y1720524D02*
D03*
X566500Y1870524D02*
D03*
Y1820524D02*
D03*
Y1770524D02*
D03*
Y1720524D02*
D03*
X554000Y1895524D02*
D03*
X541500Y1870524D02*
D03*
X554000Y1845524D02*
D03*
X541500Y1820524D02*
D03*
X554000Y1795524D02*
D03*
X541500Y1770524D02*
D03*
X554000Y1745524D02*
D03*
X541500Y1720524D02*
D03*
X529000Y1895524D02*
D03*
X516500Y1870524D02*
D03*
X529000Y1845524D02*
D03*
X516500Y1820524D02*
D03*
X529000Y1795524D02*
D03*
X516500Y1770524D02*
D03*
X529000Y1745524D02*
D03*
X516500Y1720524D02*
D03*
X504000Y1895524D02*
D03*
X491500Y1870524D02*
D03*
X504000Y1845524D02*
D03*
X491500Y1820524D02*
D03*
X504000Y1795524D02*
D03*
X491500Y1720524D02*
D03*
X479000Y1895524D02*
D03*
X466500Y1870524D02*
D03*
X479000Y1845524D02*
D03*
X466500Y1820524D02*
D03*
X479000Y1795524D02*
D03*
X466500Y1720524D02*
D03*
X454000Y1895524D02*
D03*
X441500Y1870524D02*
D03*
X454000Y1845524D02*
D03*
X441500Y1820524D02*
D03*
X454000Y1795524D02*
D03*
X441500Y1770524D02*
D03*
X454000Y1745524D02*
D03*
X441500Y1720524D02*
D03*
X429000Y1895524D02*
D03*
X416500Y1870524D02*
D03*
X429000Y1845524D02*
D03*
X416500Y1370524D02*
D03*
Y1270524D02*
D03*
Y1220524D02*
D03*
X404000Y1895524D02*
D03*
X391500Y1870524D02*
D03*
X404000Y1845524D02*
D03*
X391500Y1370524D02*
D03*
X404000Y1345524D02*
D03*
Y1295524D02*
D03*
X391500Y1270524D02*
D03*
X404000Y1245524D02*
D03*
X391500Y1220524D02*
D03*
X379000Y1895524D02*
D03*
X366500Y1870524D02*
D03*
X379000Y1845524D02*
D03*
X366500Y1370524D02*
D03*
X379000Y1345524D02*
D03*
Y1295524D02*
D03*
X366500Y1270524D02*
D03*
X379000Y1245524D02*
D03*
X366500Y1220524D02*
D03*
X354000Y1895524D02*
D03*
X341500Y1870524D02*
D03*
X354000Y1845524D02*
D03*
X341500Y1370524D02*
D03*
X354000Y1345524D02*
D03*
Y1295524D02*
D03*
X341500Y1270524D02*
D03*
X354000Y1245524D02*
D03*
X341500Y1220524D02*
D03*
X329000Y1895524D02*
D03*
Y1845524D02*
D03*
X316500Y1370524D02*
D03*
X329000Y1345524D02*
D03*
Y1295524D02*
D03*
X316500Y1270524D02*
D03*
X329000Y1245524D02*
D03*
X304000Y1895524D02*
D03*
X291500Y1870524D02*
D03*
X304000Y1845524D02*
D03*
X291500Y1820524D02*
D03*
X304000Y1795524D02*
D03*
X291500Y1770524D02*
D03*
X304000Y1745524D02*
D03*
X291500Y1720524D02*
D03*
X304000Y1695524D02*
D03*
X291500Y1670524D02*
D03*
X304000Y1645524D02*
D03*
X291500Y1620524D02*
D03*
X304000Y1595524D02*
D03*
X291500Y1570524D02*
D03*
X304000Y1545524D02*
D03*
X291500Y1520524D02*
D03*
X304000Y1495524D02*
D03*
Y1445524D02*
D03*
X291500Y1420524D02*
D03*
X304000Y1395524D02*
D03*
X291500Y1370524D02*
D03*
X304000Y1345524D02*
D03*
Y1295524D02*
D03*
X291500Y1270524D02*
D03*
X304000Y1245524D02*
D03*
X279000Y1895524D02*
D03*
X266500Y1870524D02*
D03*
X279000Y1845524D02*
D03*
X266500Y1820524D02*
D03*
X279000Y1795524D02*
D03*
X266500Y1770524D02*
D03*
X279000Y1745524D02*
D03*
X266500Y1720524D02*
D03*
X279000Y1695524D02*
D03*
X266500Y1670524D02*
D03*
X279000Y1645524D02*
D03*
X266500Y1620524D02*
D03*
X279000Y1595524D02*
D03*
X266500Y1570524D02*
D03*
X279000Y1545524D02*
D03*
X266500Y1520524D02*
D03*
X279000Y1495524D02*
D03*
X266500Y1470524D02*
D03*
X279000Y1445524D02*
D03*
X266500Y1420524D02*
D03*
X279000Y1395524D02*
D03*
X266500Y1370524D02*
D03*
X279000Y1345524D02*
D03*
Y1295524D02*
D03*
X266500Y1270524D02*
D03*
X279000Y1245524D02*
D03*
X266500Y1220524D02*
D03*
X254000Y1895524D02*
D03*
X241500Y1870524D02*
D03*
X254000Y1845524D02*
D03*
X241500Y1820524D02*
D03*
X254000Y1795524D02*
D03*
Y1745524D02*
D03*
X241500Y1720524D02*
D03*
X254000Y1695524D02*
D03*
X241500Y1670524D02*
D03*
X254000Y1645524D02*
D03*
X241500Y1620524D02*
D03*
X254000Y1595524D02*
D03*
X241500Y1570524D02*
D03*
X254000Y1545524D02*
D03*
X241500Y1520524D02*
D03*
X254000Y1495524D02*
D03*
X241500Y1470524D02*
D03*
X254000Y1445524D02*
D03*
X241500Y1420524D02*
D03*
X254000Y1395524D02*
D03*
X241500Y1370524D02*
D03*
X254000Y1345524D02*
D03*
Y1295524D02*
D03*
X241500Y1270524D02*
D03*
X254000Y1245524D02*
D03*
X229000Y1895524D02*
D03*
X216500Y1870524D02*
D03*
X229000Y1845524D02*
D03*
X216500Y1820524D02*
D03*
X229000Y1795524D02*
D03*
X216500Y1720524D02*
D03*
X229000Y1695524D02*
D03*
X216500Y1670524D02*
D03*
X229000Y1595524D02*
D03*
X216500Y1570524D02*
D03*
X229000Y1545524D02*
D03*
X216500Y1520524D02*
D03*
X229000Y1495524D02*
D03*
X216500Y1470524D02*
D03*
X229000Y1445524D02*
D03*
X216500Y1420524D02*
D03*
X229000Y1395524D02*
D03*
X216500Y1370524D02*
D03*
X229000Y1345524D02*
D03*
Y1295524D02*
D03*
X216500Y1270524D02*
D03*
X229000Y1245524D02*
D03*
X204000Y1895524D02*
D03*
X191500Y1870524D02*
D03*
X204000Y1845524D02*
D03*
X191500Y1820524D02*
D03*
X204000Y1795524D02*
D03*
X191500Y1770524D02*
D03*
Y1720524D02*
D03*
X204000Y1695524D02*
D03*
X191500Y1670524D02*
D03*
X204000Y1595524D02*
D03*
X191500Y1570524D02*
D03*
X204000Y1545524D02*
D03*
Y1495524D02*
D03*
X191500Y1470524D02*
D03*
X204000Y1445524D02*
D03*
Y1395524D02*
D03*
X191500Y1370524D02*
D03*
X204000Y1345524D02*
D03*
Y1295524D02*
D03*
Y1245524D02*
D03*
X179000Y1895524D02*
D03*
X166500Y1870524D02*
D03*
X179000Y1845524D02*
D03*
Y1795524D02*
D03*
Y1745524D02*
D03*
Y1695524D02*
D03*
X166500Y1670524D02*
D03*
X179000Y1645524D02*
D03*
X166500Y1570524D02*
D03*
X179000Y1545524D02*
D03*
X166500Y1470524D02*
D03*
X179000Y1445524D02*
D03*
Y1395524D02*
D03*
X154000Y1895524D02*
D03*
X141500Y1870524D02*
D03*
X154000Y1845524D02*
D03*
Y1645524D02*
D03*
X141500Y1570524D02*
D03*
X154000Y1545524D02*
D03*
X141500Y1470524D02*
D03*
X154000Y1445524D02*
D03*
Y1395524D02*
D03*
X129000Y1895524D02*
D03*
X116500Y1870524D02*
D03*
X129000Y1845524D02*
D03*
X104000Y1895524D02*
D03*
X91500Y1870524D02*
D03*
X104000Y1845524D02*
D03*
X79000Y1895524D02*
D03*
X66500Y1870524D02*
D03*
X79000Y1845524D02*
D03*
X54000Y1895524D02*
D03*
X41500Y1870524D02*
D03*
X54000Y1845524D02*
D03*
X29000Y1895524D02*
D03*
X16500Y1870524D02*
D03*
X29000Y1845524D02*
D03*
X4000Y1895524D02*
D03*
X-8500Y1870524D02*
D03*
X4000Y1845524D02*
D03*
X-8500Y1820524D02*
D03*
X4000Y1795524D02*
D03*
X-8500Y1770524D02*
D03*
X4000Y1745524D02*
D03*
X-8500Y1720524D02*
D03*
X-21000Y1895524D02*
D03*
X-33500Y1870524D02*
D03*
X-21000Y1845524D02*
D03*
X-33500Y1820524D02*
D03*
X-21000Y1795524D02*
D03*
X-33500Y1720524D02*
D03*
X-46000Y1895524D02*
D03*
X-58500Y1870524D02*
D03*
X-46000Y1845524D02*
D03*
X-58500Y1820524D02*
D03*
X-46000Y1795524D02*
D03*
X-58500Y1720524D02*
D03*
X-71000Y1895524D02*
D03*
X-83500Y1870524D02*
D03*
X-71000Y1845524D02*
D03*
X-83500Y1820524D02*
D03*
X-71000Y1795524D02*
D03*
X-83500Y1770524D02*
D03*
X-71000Y1745524D02*
D03*
X-83500Y1720524D02*
D03*
X-133500Y1470524D02*
D03*
X-196000Y1895524D02*
D03*
Y1845524D02*
D03*
X-208500Y1820524D02*
D03*
X-196000Y1795524D02*
D03*
X-208500Y1770524D02*
D03*
X-196000Y1745524D02*
D03*
X-208500Y1720524D02*
D03*
X-196000Y1695524D02*
D03*
X-208500Y1670524D02*
D03*
X-196000Y1645524D02*
D03*
X-208500Y1620524D02*
D03*
X-196000Y1595524D02*
D03*
X-221000Y1895524D02*
D03*
X-233500Y1870524D02*
D03*
X-221000Y1845524D02*
D03*
X-233500Y1820524D02*
D03*
X-221000Y1795524D02*
D03*
X-233500Y1770524D02*
D03*
X-221000Y1745524D02*
D03*
X-233500Y1720524D02*
D03*
X-221000Y1695524D02*
D03*
X-233500Y1670524D02*
D03*
X-221000Y1645524D02*
D03*
X-233500Y1620524D02*
D03*
X-221000Y1595524D02*
D03*
X-246000Y1845524D02*
D03*
X-258500Y1820524D02*
D03*
X-246000Y1795524D02*
D03*
X-258500Y1770524D02*
D03*
X-246000Y1745524D02*
D03*
X-258500Y1720524D02*
D03*
X-246000Y1695524D02*
D03*
X-258500Y1670524D02*
D03*
X-246000Y1645524D02*
D03*
X-258500Y1620524D02*
D03*
X-246000Y1595524D02*
D03*
X-258500Y1570524D02*
D03*
X-246000Y1545524D02*
D03*
X-258500Y1520524D02*
D03*
X-246000Y1495524D02*
D03*
X-258500Y1470524D02*
D03*
X-246000Y1445524D02*
D03*
X-258500Y1420524D02*
D03*
X-283500Y1820524D02*
D03*
X-271000Y1795524D02*
D03*
X-283500Y1770524D02*
D03*
X-271000Y1745524D02*
D03*
X-283500Y1720524D02*
D03*
X-271000Y1695524D02*
D03*
X-283500Y1670524D02*
D03*
X-271000Y1645524D02*
D03*
X-283500Y1620524D02*
D03*
X-271000Y1595524D02*
D03*
X-283500Y1570524D02*
D03*
X-271000Y1545524D02*
D03*
X-283500Y1520524D02*
D03*
X-271000Y1495524D02*
D03*
X-283500Y1470524D02*
D03*
X-271000Y1445524D02*
D03*
X-283500Y1420524D02*
D03*
X-308500Y1820524D02*
D03*
X-296000Y1795524D02*
D03*
X-308500Y1770524D02*
D03*
X-296000Y1745524D02*
D03*
X-308500Y1720524D02*
D03*
X-296000Y1695524D02*
D03*
X-308500Y1670524D02*
D03*
X-296000Y1645524D02*
D03*
X-308500Y1620524D02*
D03*
X-296000Y1595524D02*
D03*
X-308500Y1570524D02*
D03*
X-296000Y1545524D02*
D03*
X-308500Y1520524D02*
D03*
X-296000Y1495524D02*
D03*
X-308500Y1470524D02*
D03*
X-296000Y1445524D02*
D03*
X-308500Y1420524D02*
D03*
X507500Y294069D02*
D03*
X-176000Y38000D02*
D03*
X139000Y354000D02*
D03*
X-197469Y123500D02*
D03*
X-189969Y131000D02*
D03*
X-182469Y123500D02*
D03*
Y138500D02*
D03*
X-197469D02*
D03*
X73000Y68000D02*
D03*
X-43021Y152890D02*
D03*
X-30000Y225400D02*
D03*
X64000Y233000D02*
D03*
X290000Y329676D02*
D03*
X308047Y298000D02*
D03*
X100000Y270953D02*
D03*
X57000Y108000D02*
D03*
X40000Y169000D02*
D03*
X-120000Y158000D02*
D03*
X-172919Y166500D02*
D03*
X-246469Y195500D02*
D03*
X-241469Y43000D02*
D03*
X-132500Y2000D02*
D03*
X-143500Y-56000D02*
D03*
X-153000D02*
D03*
X178000Y379277D02*
D03*
X10000Y383000D02*
D03*
X123590Y206000D02*
D03*
X22000Y255454D02*
D03*
X124000Y177000D02*
D03*
X132500Y754000D02*
D03*
X-65000Y825000D02*
D03*
X10000Y794500D02*
D03*
X-30000Y802500D02*
D03*
X-180000Y794547D02*
D03*
X-118000Y723547D02*
D03*
X-95000D02*
D03*
X211500Y782500D02*
D03*
Y800000D02*
D03*
Y817500D02*
D03*
X211000Y867500D02*
D03*
X309000Y792500D02*
D03*
X129000Y791000D02*
D03*
X-22500Y666000D02*
D03*
X309000Y810000D02*
D03*
X126000Y945500D02*
D03*
X0Y1030000D02*
D03*
X60000D02*
D03*
X40000D02*
D03*
X312500Y1192500D02*
D03*
X-139469Y1450469D02*
D03*
X316000Y748000D02*
D03*
X-14047Y730000D02*
D03*
X29590Y756000D02*
D03*
X91090Y977500D02*
D03*
X133933Y855000D02*
D03*
X-34698Y467500D02*
D03*
X358000Y185000D02*
D03*
X392500Y35500D02*
D03*
X542000Y14000D02*
D03*
X590000Y17000D02*
D03*
X625500Y83000D02*
D03*
X386000Y-48500D02*
D03*
Y-59500D02*
D03*
X543918Y-48500D02*
D03*
Y-59500D02*
D03*
X456000Y319000D02*
D03*
X567400Y470000D02*
D03*
X624000Y275000D02*
D03*
X167000Y207000D02*
D03*
X-28550Y336000D02*
D03*
X-141000Y324126D02*
D03*
X11590Y154500D02*
D03*
X-260000Y235500D02*
D03*
X-157000D02*
D03*
X-117000Y118500D02*
D03*
X-176000Y-56000D02*
D03*
X-166500D02*
D03*
X168590Y161953D02*
D03*
X-86000Y926000D02*
D03*
X333000Y632500D02*
D03*
X-2500Y918000D02*
D03*
Y908000D02*
D03*
Y898000D02*
D03*
Y888000D02*
D03*
Y878000D02*
D03*
X-12500Y888000D02*
D03*
Y898000D02*
D03*
Y908000D02*
D03*
Y918000D02*
D03*
X-22500Y858000D02*
D03*
Y848000D02*
D03*
Y838000D02*
D03*
Y868000D02*
D03*
Y878000D02*
D03*
Y888000D02*
D03*
Y898000D02*
D03*
Y908000D02*
D03*
Y918000D02*
D03*
X126000Y876161D02*
D03*
X-12500Y878000D02*
D03*
Y868000D02*
D03*
Y848000D02*
D03*
Y858000D02*
D03*
Y838000D02*
D03*
X-2500Y848000D02*
D03*
Y858000D02*
D03*
Y838000D02*
D03*
Y868000D02*
D03*
X267000Y695000D02*
D03*
X-214000Y346660D02*
D03*
X-170000Y858000D02*
D03*
X-167500Y932500D02*
D03*
X-123000Y99000D02*
D03*
X173590Y75410D02*
D03*
X188000Y270000D02*
D03*
X-147500Y50500D02*
D03*
X396000Y242000D02*
D03*
M02*
