G04 Layer_Physical_Order=4*
G04 Layer_Color=16711680*
%FSLAX44Y44*%
%MOMM*%
G71*
G01*
G75*
%ADD20R,0.8500X0.8500*%
%ADD22C,1.0000*%
%ADD29R,0.8500X0.8500*%
%ADD32R,1.0000X1.2500*%
%ADD47R,1.0000X0.7000*%
%ADD59C,0.5000*%
%ADD60C,0.3000*%
%ADD64C,1.0000*%
%ADD65O,1.1000X2.1000*%
%ADD66O,1.2000X2.2000*%
G04:AMPARAMS|DCode=67|XSize=4mm|YSize=4mm|CornerRadius=1mm|HoleSize=0mm|Usage=FLASHONLY|Rotation=180.000|XOffset=0mm|YOffset=0mm|HoleType=Round|Shape=RoundedRectangle|*
%AMROUNDEDRECTD67*
21,1,4.0000,2.0000,0,0,180.0*
21,1,2.0000,4.0000,0,0,180.0*
1,1,2.0000,-1.0000,1.0000*
1,1,2.0000,1.0000,1.0000*
1,1,2.0000,1.0000,-1.0000*
1,1,2.0000,-1.0000,-1.0000*
%
%ADD67ROUNDEDRECTD67*%
%ADD68C,4.0000*%
%ADD69R,2.2000X2.2000*%
%ADD70C,2.2000*%
%ADD71C,7.5000*%
%ADD72O,2.2000X1.4000*%
%ADD73R,2.0000X2.0000*%
%ADD74C,2.0000*%
%ADD75C,1.7000*%
%ADD76R,1.7000X1.7000*%
%ADD77R,2.0000X2.0000*%
%ADD78C,2.0320*%
%ADD79C,0.7000*%
G36*
X144002Y884789D02*
X143174Y882788D01*
X142151D01*
X139615Y882284D01*
X137465Y880847D01*
X124167Y867549D01*
X122250Y868461D01*
Y872000D01*
X114000D01*
Y880000D01*
X122250D01*
Y882750D01*
X122250Y884750D01*
X122250D01*
Y889000D01*
X114000D01*
Y893000D01*
X110000D01*
Y902406D01*
X109427Y903081D01*
X109621Y903750D01*
X120750D01*
Y905402D01*
X123388D01*
X144002Y884789D01*
D02*
G37*
G36*
X-81325Y1055652D02*
X-103989Y1032989D01*
X-105978Y1030012D01*
X-106676Y1026500D01*
X-106676Y1026499D01*
Y973000D01*
X-105978Y969488D01*
X-103989Y966511D01*
X-101012Y964522D01*
X-97500Y963824D01*
X-93988Y964522D01*
X-93061Y965142D01*
X-91261Y963939D01*
X-91647Y962000D01*
X-91065Y959074D01*
X-89407Y956593D01*
X-86926Y954935D01*
X-84000Y954353D01*
X-81074Y954935D01*
X-80419Y955373D01*
X-75250D01*
X-72952Y955830D01*
X-62936Y945814D01*
X-60786Y944377D01*
X-58250Y943873D01*
X-58250Y943873D01*
X-41581D01*
X-40926Y943435D01*
X-38000Y942853D01*
X-35074Y943435D01*
X-32593Y945093D01*
X-30935Y947574D01*
X-30353Y950500D01*
X-30935Y953426D01*
X-32593Y955907D01*
X-35074Y957565D01*
X-38000Y958147D01*
X-40926Y957565D01*
X-41581Y957127D01*
X-55505D01*
X-65156Y966779D01*
X-65070Y967878D01*
X-64468Y968451D01*
X-63084Y969289D01*
X-60000Y968884D01*
X-56476Y969348D01*
X-53192Y970708D01*
X-50372Y972872D01*
X-49936Y973439D01*
X-47941Y973570D01*
X-42185Y967814D01*
X-40035Y966377D01*
X-37499Y965873D01*
X-33581D01*
X-32926Y965435D01*
X-30000Y964853D01*
X-27074Y965435D01*
X-24593Y967093D01*
X-22935Y969574D01*
X-22353Y972500D01*
X-22935Y975426D01*
X-24593Y977907D01*
X-27074Y979565D01*
X-30000Y980147D01*
X-32926Y979565D01*
X-33581Y979127D01*
X-34753D01*
X-40282Y984656D01*
X-40436Y985428D01*
X-42093Y987909D01*
X-41476Y989902D01*
X147598D01*
X200000Y937500D01*
X296219D01*
X297631Y936084D01*
X297408Y866913D01*
X295559Y866151D01*
X270605Y891105D01*
X268951Y892210D01*
X267000Y892598D01*
X150612D01*
X130548Y912661D01*
X131145Y914817D01*
X131190Y914848D01*
X132965Y916035D01*
X157354Y940424D01*
X159926Y940935D01*
X162407Y942593D01*
X164065Y945074D01*
X164647Y948000D01*
X164065Y950926D01*
X162407Y953407D01*
X159926Y955065D01*
X157000Y955647D01*
X154074Y955065D01*
X151593Y953407D01*
X149935Y950926D01*
X149424Y948354D01*
X126677Y925608D01*
X122250D01*
Y936250D01*
X122250D01*
Y937250D01*
X122250D01*
Y941500D01*
X114000D01*
Y945500D01*
X110000D01*
Y953750D01*
X91750D01*
Y951108D01*
X86823D01*
X84965Y952965D01*
X83146Y954181D01*
X81000Y954608D01*
X60750D01*
Y957250D01*
X44250D01*
Y940750D01*
Y926750D01*
X44250D01*
X45201Y924750D01*
X44853Y923000D01*
X45435Y920074D01*
X47093Y917593D01*
X49574Y915935D01*
X52500Y915353D01*
X55426Y915935D01*
X57907Y917593D01*
X59565Y920074D01*
X60147Y923000D01*
X59799Y924750D01*
X60750Y926750D01*
X60750D01*
Y929392D01*
X74677D01*
X76614Y927456D01*
X75849Y925608D01*
X71500D01*
X69354Y925181D01*
X67535Y923965D01*
X51035Y907465D01*
X49819Y905646D01*
X49392Y903500D01*
Y868000D01*
X49819Y865854D01*
X51035Y864035D01*
X66652Y848418D01*
X65993Y846248D01*
X65073Y846065D01*
X62593Y844407D01*
X60935Y841926D01*
X60353Y839000D01*
X60935Y836074D01*
X62593Y833593D01*
X65073Y831935D01*
X68000Y831353D01*
X68117Y831376D01*
X69103Y829533D01*
X64646Y825077D01*
X62074Y824565D01*
X59593Y822907D01*
X59039Y822078D01*
X57049Y821882D01*
X53576Y825354D01*
X53065Y827926D01*
X51407Y830407D01*
X48926Y832065D01*
X46000Y832647D01*
X43074Y832065D01*
X40593Y830407D01*
X38935Y827926D01*
X38353Y825000D01*
X38935Y822074D01*
X40593Y819593D01*
X43074Y817935D01*
X45646Y817423D01*
X55614Y807456D01*
X54849Y805608D01*
X27322D01*
X18965Y813965D01*
X17145Y815181D01*
X14999Y815608D01*
X-35677D01*
X-58392Y838323D01*
Y844893D01*
X-56935Y847074D01*
X-56353Y850000D01*
X-56935Y852926D01*
X-58593Y855407D01*
X-61074Y857065D01*
X-64000Y857647D01*
X-66926Y857065D01*
X-69407Y855407D01*
X-71065Y852926D01*
X-71647Y850000D01*
X-71065Y847074D01*
X-69608Y844893D01*
Y836000D01*
X-69181Y833854D01*
X-67965Y832035D01*
X-54682Y818751D01*
X-54878Y816761D01*
X-55407Y816407D01*
X-55858Y815733D01*
X-57164Y815855D01*
X-58035Y816075D01*
X-59593Y818407D01*
X-62074Y820065D01*
X-65000Y820647D01*
X-67926Y820065D01*
X-70107Y818608D01*
X-79893D01*
X-82074Y820065D01*
X-85000Y820647D01*
X-87926Y820065D01*
X-90407Y818407D01*
X-92065Y815926D01*
X-92647Y813000D01*
X-92479Y812154D01*
X-93747Y810608D01*
X-152500D01*
X-154646Y810181D01*
X-156465Y808965D01*
X-173965Y791465D01*
X-175181Y789646D01*
X-175608Y787500D01*
Y757151D01*
X-177456Y756386D01*
X-186392Y765323D01*
Y790177D01*
X-156035Y820535D01*
X-155920Y820706D01*
X-154593Y821593D01*
X-152935Y824074D01*
X-152353Y827000D01*
X-152935Y829926D01*
X-153391Y830609D01*
X-152448Y832373D01*
X-122250D01*
Y829000D01*
X-105750D01*
Y830750D01*
Y847250D01*
X-105750D01*
X-105750Y847373D01*
X-104839Y849373D01*
X-98000D01*
X-95464Y849877D01*
X-93314Y851314D01*
X-90846Y853782D01*
X-90074Y853935D01*
X-87593Y855593D01*
X-85935Y858074D01*
X-85353Y861000D01*
X-85935Y863926D01*
X-87593Y866407D01*
X-90074Y868065D01*
X-92637Y868575D01*
X-92353Y870000D01*
X-92935Y872926D01*
X-94593Y875407D01*
X-97074Y877065D01*
X-100000Y877647D01*
X-102926Y877065D01*
X-103581Y876627D01*
X-105750D01*
Y878250D01*
X-122250D01*
Y876627D01*
X-124750D01*
Y878250D01*
X-155250D01*
Y876627D01*
X-164424D01*
X-164621Y878627D01*
X-163074Y878935D01*
X-160893Y880392D01*
X-133000D01*
X-130854Y880819D01*
X-129035Y882035D01*
X-119035Y892035D01*
X-117819Y893854D01*
X-117392Y896000D01*
X-115392Y896915D01*
X-113926Y895935D01*
X-111000Y895353D01*
X-108074Y895935D01*
X-105593Y897593D01*
X-103935Y900074D01*
X-103353Y903000D01*
X-103935Y905926D01*
X-105593Y908407D01*
X-108074Y910065D01*
X-110646Y910576D01*
X-112535Y912465D01*
X-114354Y913681D01*
X-114750Y913760D01*
Y916750D01*
X-114750D01*
Y917750D01*
X-114750D01*
Y934250D01*
X-114750D01*
Y935250D01*
X-114750D01*
Y939500D01*
X-123000D01*
Y943500D01*
X-127000D01*
Y951750D01*
X-131250D01*
Y950250D01*
X-143750D01*
Y947578D01*
X-145870D01*
X-147208Y950808D01*
X-149372Y953628D01*
X-152192Y955792D01*
X-153902Y956501D01*
Y988888D01*
X-85290Y1057500D01*
X-82090D01*
X-81325Y1055652D01*
D02*
G37*
G36*
X268713Y859015D02*
X268517Y857025D01*
X267893Y856608D01*
X172447D01*
X170900Y857641D01*
X170792Y858092D01*
X172044Y860260D01*
X172926Y860435D01*
X175407Y862093D01*
X177065Y864574D01*
X177647Y867500D01*
X177550Y867988D01*
X178819Y869534D01*
X258194D01*
X268713Y859015D01*
D02*
G37*
G36*
X605000Y1162500D02*
Y1104210D01*
X601848Y1101057D01*
X600000Y1101823D01*
Y1140507D01*
X600098Y1141000D01*
Y1162000D01*
X600000Y1162493D01*
Y1164672D01*
X602000Y1165500D01*
X605000Y1162500D01*
D02*
G37*
G36*
X135554Y1001946D02*
X134789Y1000098D01*
X-48814D01*
X-50765Y999710D01*
X-52418Y998605D01*
X-55694Y995329D01*
X-56476Y995652D01*
X-60000Y996116D01*
X-63524Y995652D01*
X-64210Y995368D01*
X-65873Y996480D01*
Y1022755D01*
X-50865Y1037763D01*
X-49022Y1036777D01*
X-49176Y1036000D01*
Y1030500D01*
X-48478Y1026988D01*
X-46489Y1024011D01*
X-43512Y1022022D01*
X-40000Y1021324D01*
X-36488Y1022022D01*
X-33511Y1024011D01*
X-32870Y1024972D01*
X-30464D01*
X-29489Y1023511D01*
X-26512Y1021522D01*
X-23000Y1020824D01*
X-19488Y1021522D01*
X-16511Y1023511D01*
X17477Y1057500D01*
X24407D01*
X25173Y1055652D01*
X13511Y1043990D01*
X11522Y1041013D01*
X10823Y1037502D01*
X11522Y1033990D01*
X13511Y1031013D01*
X16488Y1029024D01*
X19999Y1028326D01*
X23511Y1029024D01*
X26488Y1031013D01*
X52975Y1057500D01*
X80000D01*
X135554Y1001946D01*
D02*
G37*
G36*
X-170792Y937192D02*
X-168628Y934372D01*
X-165808Y932208D01*
X-162524Y930847D01*
X-159000Y930384D01*
X-155476Y930847D01*
X-152192Y932208D01*
X-149372Y934372D01*
X-147208Y937192D01*
X-146284Y939422D01*
X-143750D01*
Y936750D01*
X-141078D01*
Y932750D01*
X-143750D01*
Y919250D01*
X-132457D01*
X-131250Y917750D01*
Y917250D01*
X-132457Y915250D01*
X-143750D01*
Y913598D01*
X-161388D01*
X-173902Y926112D01*
Y939473D01*
X-171902Y939871D01*
X-170792Y937192D01*
D02*
G37*
G36*
X-41915Y806001D02*
X-40146Y804819D01*
X-38000Y804392D01*
X-24847D01*
X-23578Y802846D01*
X-23647Y802500D01*
X-23065Y799574D01*
X-21407Y797093D01*
X-18926Y795435D01*
X-16000Y794853D01*
X-13074Y795435D01*
X-10893Y796892D01*
X10677D01*
X17614Y789956D01*
X16849Y788108D01*
X-131000D01*
X-133146Y787681D01*
X-134965Y786465D01*
X-147854Y773577D01*
X-150426Y773065D01*
X-152907Y771407D01*
X-154565Y768926D01*
X-155147Y766000D01*
X-154565Y763074D01*
X-152907Y760593D01*
X-150426Y758935D01*
X-147500Y758353D01*
X-144574Y758935D01*
X-142093Y760593D01*
X-140435Y763074D01*
X-139923Y765646D01*
X-128677Y776892D01*
X119148D01*
X120632Y774892D01*
X120317Y772500D01*
X120781Y768976D01*
X122141Y765692D01*
X124305Y762872D01*
X127125Y760708D01*
X130409Y759348D01*
X133933Y758884D01*
X137457Y759348D01*
X139168Y760056D01*
X156616Y742608D01*
X155787Y740608D01*
X69823D01*
X42465Y767965D01*
X40646Y769181D01*
X38500Y769608D01*
X-54893D01*
X-57074Y771065D01*
X-60000Y771647D01*
X-62926Y771065D01*
X-65407Y769407D01*
X-67065Y766926D01*
X-67647Y764000D01*
X-67065Y761074D01*
X-65407Y758593D01*
X-62926Y756935D01*
X-60000Y756353D01*
X-57074Y756935D01*
X-54893Y758392D01*
X36177D01*
X59597Y734972D01*
X58777Y732964D01*
X57354Y732681D01*
X55535Y731465D01*
X51677Y727608D01*
X41341D01*
X40072Y729154D01*
X40240Y730000D01*
X39658Y732926D01*
X38001Y735407D01*
X35520Y737065D01*
X32593Y737647D01*
X29667Y737065D01*
X27186Y735407D01*
X25529Y732926D01*
X24946Y730000D01*
X25115Y729154D01*
X23846Y727608D01*
X-24677D01*
X-33035Y735965D01*
X-34854Y737181D01*
X-37000Y737608D01*
X-147177D01*
X-164392Y754823D01*
Y785177D01*
X-150177Y799392D01*
X-56000D01*
X-53854Y799819D01*
X-52035Y801035D01*
X-49646Y803423D01*
X-47074Y803935D01*
X-44593Y805593D01*
X-44239Y806122D01*
X-42441Y806299D01*
X-41915Y806001D01*
D02*
G37*
G36*
X589945Y935929D02*
X588884Y931512D01*
X588372Y925000D01*
X588884Y918488D01*
X590409Y912136D01*
X592909Y906101D01*
X596322Y900531D01*
X600564Y895564D01*
X605532Y891322D01*
X611101Y887909D01*
X617136Y885409D01*
X623488Y883884D01*
X630000Y883372D01*
X636512Y883884D01*
X642864Y885409D01*
X648899Y887909D01*
X654469Y891322D01*
X659436Y895564D01*
X663000Y899738D01*
X665000Y899000D01*
Y617500D01*
X-250000Y617500D01*
X-250000Y896225D01*
X-246322Y900531D01*
X-242909Y906101D01*
X-241608Y909242D01*
X-239608Y908845D01*
Y789000D01*
X-239181Y786854D01*
X-237965Y785035D01*
X-187577Y734646D01*
X-187065Y732074D01*
X-185407Y729593D01*
X-182926Y727935D01*
X-180000Y727353D01*
X-177074Y727935D01*
X-174593Y729593D01*
X-172935Y732074D01*
X-172752Y732993D01*
X-170582Y733652D01*
X-140465Y703535D01*
X-138646Y702319D01*
X-136500Y701892D01*
X-1654D01*
X-585Y699892D01*
X-1565Y698426D01*
X-2147Y695500D01*
X-1565Y692574D01*
X93Y690093D01*
X2574Y688435D01*
X5146Y687923D01*
X12035Y681035D01*
X13854Y679819D01*
X16000Y679392D01*
X246000D01*
X248146Y679819D01*
X249965Y681035D01*
X260965Y692035D01*
X262181Y693854D01*
X262608Y696000D01*
Y717393D01*
X264065Y719574D01*
X264647Y722500D01*
X264065Y725426D01*
X262751Y727392D01*
X263511Y729392D01*
X279893D01*
X282074Y727935D01*
X285000Y727353D01*
X287926Y727935D01*
X290407Y729593D01*
X292065Y732074D01*
X292647Y735000D01*
X292065Y737926D01*
X290407Y740407D01*
X287926Y742065D01*
X285000Y742647D01*
X282074Y742065D01*
X279893Y740608D01*
X235646D01*
X234817Y742608D01*
X251112Y758902D01*
X490000D01*
X491951Y759290D01*
X493605Y760395D01*
X573605Y840395D01*
X574710Y842049D01*
X575098Y844000D01*
Y937500D01*
X588707D01*
X589945Y935929D01*
D02*
G37*
G36*
X-67370Y724392D02*
X-67647Y723000D01*
X-68790Y721608D01*
X-72393D01*
X-74574Y723065D01*
X-77500Y723647D01*
X-80426Y723065D01*
X-82907Y721407D01*
X-84565Y718926D01*
X-85147Y716000D01*
X-84879Y714654D01*
X-86148Y713108D01*
X-134177D01*
X-145614Y724545D01*
X-144849Y726392D01*
X-68976D01*
X-67370Y724392D01*
D02*
G37*
G36*
X-191686Y865314D02*
X-189536Y863877D01*
X-187000Y863373D01*
X-155250D01*
Y861750D01*
X-124750D01*
Y863373D01*
X-122250D01*
Y847750D01*
X-122250D01*
X-122250Y847627D01*
X-123161Y845627D01*
X-190255D01*
X-218373Y873745D01*
Y889387D01*
X-216525Y890152D01*
X-191686Y865314D01*
D02*
G37*
G36*
X564902Y846112D02*
X487888Y769098D01*
X316148D01*
X315079Y771098D01*
X316065Y772574D01*
X316647Y775500D01*
X316065Y778426D01*
X314407Y780907D01*
X311926Y782565D01*
X309000Y783147D01*
X306074Y782565D01*
X303593Y780907D01*
X301935Y778426D01*
X301353Y775500D01*
X301935Y772574D01*
X302921Y771098D01*
X301852Y769098D01*
X249000D01*
X247049Y768710D01*
X245395Y767605D01*
X227888Y750098D01*
X176496D01*
X175745Y752098D01*
X177065Y754074D01*
X177647Y757000D01*
X177065Y759926D01*
X175407Y762407D01*
X172926Y764065D01*
X170354Y764576D01*
X161608Y773323D01*
Y793000D01*
X161181Y795146D01*
X159965Y796965D01*
X153886Y803044D01*
X154651Y804892D01*
X259393D01*
X259593Y804593D01*
X262074Y802935D01*
X265000Y802353D01*
X267926Y802935D01*
X270407Y804593D01*
X272065Y807074D01*
X272647Y810000D01*
X272065Y812926D01*
X270407Y815407D01*
X267926Y817065D01*
X265000Y817647D01*
X262074Y817065D01*
X260641Y816108D01*
X150752D01*
X149146Y817181D01*
X147000Y817608D01*
X146247D01*
X144979Y819154D01*
X145147Y820000D01*
X144565Y822926D01*
X143108Y825107D01*
Y832677D01*
X158410Y847979D01*
X160699Y847440D01*
X161933Y845593D01*
X164414Y843935D01*
X167340Y843353D01*
X170266Y843935D01*
X172447Y845392D01*
X267893D01*
X270074Y843935D01*
X273000Y843353D01*
X275926Y843935D01*
X278407Y845593D01*
X279025Y846517D01*
X281015Y846713D01*
X297290Y830438D01*
X297264Y822500D01*
X305228D01*
X311753Y815975D01*
X313903Y814538D01*
X316439Y814034D01*
X514161D01*
X516697Y814538D01*
X518847Y815975D01*
X525372Y822500D01*
X537500D01*
Y834627D01*
X550686Y847814D01*
X552123Y849964D01*
X552627Y852500D01*
Y937500D01*
X564902D01*
Y846112D01*
D02*
G37*
G36*
X161829Y868744D02*
X162103Y867534D01*
X133535Y838965D01*
X132319Y837146D01*
X131892Y835000D01*
Y825107D01*
X130435Y822926D01*
X129853Y820000D01*
X130021Y819154D01*
X128753Y817608D01*
X118367D01*
X117538Y819608D01*
X122555Y824625D01*
X123771Y826444D01*
X124198Y828590D01*
Y841910D01*
X123771Y844056D01*
X122555Y845875D01*
X118558Y849873D01*
X119386Y851873D01*
X124490D01*
X127026Y852377D01*
X129176Y853814D01*
X144896Y869534D01*
X161181D01*
X161829Y868744D01*
D02*
G37*
G36*
X604738Y1913000D02*
X600564Y1909436D01*
X596322Y1904469D01*
X592909Y1898899D01*
X590409Y1892864D01*
X588884Y1886512D01*
X588372Y1880000D01*
X588884Y1873488D01*
X590409Y1867136D01*
X592909Y1861101D01*
X596322Y1855531D01*
X600564Y1850564D01*
X605532Y1846322D01*
X611101Y1842909D01*
X617136Y1840409D01*
X623488Y1838884D01*
X630000Y1838372D01*
X636512Y1838884D01*
X642864Y1840409D01*
X648899Y1842909D01*
X654469Y1846322D01*
X659436Y1850564D01*
X663000Y1854738D01*
X665000Y1854000D01*
X665000Y951000D01*
X663000Y950262D01*
X659436Y954436D01*
X654469Y958678D01*
X648899Y962091D01*
X642864Y964591D01*
X636512Y966116D01*
X630000Y966628D01*
X629909Y966713D01*
X629967Y1114758D01*
X638605Y1123395D01*
X639710Y1125049D01*
X640098Y1127000D01*
Y1280000D01*
X639710Y1281951D01*
X638605Y1283605D01*
X543605Y1378605D01*
X541951Y1379710D01*
X540000Y1380098D01*
X498001D01*
X497292Y1381808D01*
X495128Y1384628D01*
X492308Y1386792D01*
X489024Y1388152D01*
X485500Y1388616D01*
X481976Y1388152D01*
X478692Y1386792D01*
X475872Y1384628D01*
X473708Y1381808D01*
X472347Y1378524D01*
X471884Y1375000D01*
X472347Y1371476D01*
X473708Y1368192D01*
X475872Y1365372D01*
X478692Y1363208D01*
X481976Y1361848D01*
X485500Y1361384D01*
X489024Y1361848D01*
X492308Y1363208D01*
X495128Y1365372D01*
X497292Y1368192D01*
X498001Y1369902D01*
X537888D01*
X629902Y1277888D01*
Y1197500D01*
X308976Y1197500D01*
X308976Y1185652D01*
X308976D01*
X305692Y1184292D01*
X302872Y1182128D01*
X301051Y1179755D01*
X298768Y1179209D01*
X251489Y1226489D01*
X248512Y1228478D01*
X245000Y1229176D01*
X191000D01*
X187488Y1228478D01*
X184511Y1226489D01*
X140523Y1182500D01*
X42323Y1182500D01*
X41557Y1184348D01*
X164612Y1307402D01*
X524499D01*
X525208Y1305692D01*
X527372Y1302872D01*
X530192Y1300708D01*
X533476Y1299348D01*
X537000Y1298884D01*
X540524Y1299348D01*
X543808Y1300708D01*
X546628Y1302872D01*
X548792Y1305692D01*
X550152Y1308976D01*
X550616Y1312500D01*
X550152Y1316024D01*
X548792Y1319308D01*
X546628Y1322128D01*
Y1322872D01*
X548792Y1325692D01*
X550152Y1328976D01*
X550616Y1332500D01*
X550152Y1336024D01*
X548792Y1339308D01*
X546628Y1342128D01*
X543808Y1344292D01*
X540524Y1345652D01*
X537000Y1346116D01*
X533476Y1345652D01*
X530192Y1344292D01*
X527372Y1342128D01*
X525208Y1339308D01*
X524499Y1337598D01*
X168358D01*
X166407Y1337210D01*
X164753Y1336105D01*
X-103852Y1067500D01*
X-263873Y1067500D01*
Y1206755D01*
X-162326Y1308302D01*
X87490D01*
X88145Y1307864D01*
X91071Y1307282D01*
X93997Y1307864D01*
X96478Y1309522D01*
X98136Y1312003D01*
X98718Y1314929D01*
X98136Y1317855D01*
X96478Y1320336D01*
X93997Y1321994D01*
X91071Y1322576D01*
X88145Y1321994D01*
X87490Y1321556D01*
X-160600D01*
X-161366Y1323404D01*
X-156397Y1328373D01*
X87509D01*
X88164Y1327935D01*
X91090Y1327353D01*
X94016Y1327935D01*
X96497Y1329593D01*
X98155Y1332074D01*
X98737Y1335000D01*
X98155Y1337926D01*
X96497Y1340407D01*
X94016Y1342065D01*
X91090Y1342647D01*
X88164Y1342065D01*
X87509Y1341627D01*
X-159142D01*
X-161678Y1341123D01*
X-163828Y1339686D01*
X-281757Y1221757D01*
X-281757Y1221757D01*
X-284686Y1218828D01*
X-284892Y1218520D01*
X-286892Y1219127D01*
Y1335427D01*
X-165396Y1456924D01*
X-162824Y1457435D01*
X-160343Y1459093D01*
X-158685Y1461574D01*
X-158103Y1464500D01*
X-158685Y1467426D01*
X-160343Y1469907D01*
X-162824Y1471565D01*
X-165750Y1472147D01*
X-168676Y1471565D01*
X-171157Y1469907D01*
X-172815Y1467426D01*
X-173326Y1464854D01*
X-296465Y1341715D01*
X-297681Y1339896D01*
X-298108Y1337750D01*
Y1067500D01*
X-315000D01*
X-315000Y1854000D01*
X-313000Y1854738D01*
X-309436Y1850564D01*
X-304468Y1846322D01*
X-298899Y1842909D01*
X-292864Y1840409D01*
X-286512Y1838884D01*
X-280000Y1838372D01*
X-273488Y1838884D01*
X-267136Y1840409D01*
X-261101Y1842909D01*
X-255532Y1846322D01*
X-250564Y1850564D01*
X-246322Y1855531D01*
X-242909Y1861101D01*
X-240409Y1867136D01*
X-238884Y1873488D01*
X-238372Y1880000D01*
X-238884Y1886512D01*
X-240409Y1892864D01*
X-242909Y1898899D01*
X-246322Y1904469D01*
X-250564Y1909436D01*
X-254738Y1913000D01*
X-254000Y1915000D01*
X604000Y1915000D01*
X604738Y1913000D01*
D02*
G37*
G36*
X665000Y-4000D02*
X663000Y-4738D01*
X659436Y-564D01*
X654469Y3678D01*
X648899Y7091D01*
X642864Y9591D01*
X636512Y11116D01*
X630000Y11628D01*
X623488Y11116D01*
X617136Y9591D01*
X611101Y7091D01*
X605532Y3678D01*
X600564Y-564D01*
X596322Y-5531D01*
X592909Y-11101D01*
X590409Y-17136D01*
X588884Y-23488D01*
X588372Y-30000D01*
X588884Y-36512D01*
X590409Y-42864D01*
X592909Y-48899D01*
X596322Y-54468D01*
X600564Y-59436D01*
X604738Y-63000D01*
X604000Y-65000D01*
X531078D01*
X531078Y-26500D01*
X530768Y-24939D01*
X529884Y-23616D01*
X528561Y-22732D01*
X527000Y-22422D01*
X450078Y-22422D01*
X450078Y4500D01*
X449768Y6061D01*
X448884Y7384D01*
X447561Y8268D01*
X446000Y8578D01*
X403000Y8579D01*
X401439Y8268D01*
X400116Y7384D01*
X399232Y6061D01*
X398922Y4500D01*
X398922Y-65000D01*
X-107233D01*
X-108054Y-64000D01*
Y-54000D01*
X-108830Y-50098D01*
X-111040Y-46790D01*
X-114348Y-44580D01*
X-118250Y-43804D01*
X-122152Y-44580D01*
X-125460Y-46790D01*
X-127670Y-50098D01*
X-128446Y-54000D01*
Y-64000D01*
X-129267Y-65000D01*
X-139750D01*
X-140503Y-63149D01*
X-140477Y-63000D01*
X-138093Y-61407D01*
X-136435Y-58926D01*
X-135853Y-56000D01*
X-136435Y-53074D01*
X-138093Y-50593D01*
X-140574Y-48935D01*
X-143500Y-48353D01*
X-146426Y-48935D01*
X-148250Y-50154D01*
X-150074Y-48935D01*
X-153000Y-48353D01*
X-155926Y-48935D01*
X-158407Y-50593D01*
X-158750Y-51106D01*
X-160750D01*
X-161093Y-50593D01*
X-163574Y-48935D01*
X-166500Y-48353D01*
X-169426Y-48935D01*
X-171250Y-50154D01*
X-173074Y-48935D01*
X-176000Y-48353D01*
X-178926Y-48935D01*
X-181407Y-50593D01*
X-183065Y-53074D01*
X-183647Y-56000D01*
X-183065Y-58926D01*
X-181407Y-61407D01*
X-179023Y-63000D01*
X-178997Y-63149D01*
X-179750Y-65000D01*
X-190733D01*
X-191554Y-64000D01*
Y-54000D01*
X-192330Y-50098D01*
X-194540Y-46790D01*
X-197848Y-44580D01*
X-201750Y-43804D01*
X-205652Y-44580D01*
X-208960Y-46790D01*
X-211170Y-50098D01*
X-211946Y-54000D01*
Y-64000D01*
X-212767Y-65000D01*
X-254000D01*
X-254738Y-63000D01*
X-250564Y-59436D01*
X-246322Y-54468D01*
X-242909Y-48899D01*
X-240409Y-42864D01*
X-238884Y-36512D01*
X-238372Y-30000D01*
X-238884Y-23488D01*
X-240409Y-17136D01*
X-242909Y-11101D01*
X-246322Y-5531D01*
X-250564Y-564D01*
X-255532Y3678D01*
X-261101Y7091D01*
X-267136Y9591D01*
X-273488Y11116D01*
X-280000Y11628D01*
X-286512Y11116D01*
X-292864Y9591D01*
X-298899Y7091D01*
X-304468Y3678D01*
X-309436Y-564D01*
X-313000Y-4738D01*
X-315000Y-4000D01*
Y607500D01*
X665000D01*
Y-4000D01*
D02*
G37*
%LPC*%
G36*
X122250Y901250D02*
X118000D01*
Y897000D01*
X122250D01*
Y901250D01*
D02*
G37*
G36*
X-105750Y821000D02*
X-110000D01*
Y816750D01*
X-105750D01*
Y821000D01*
D02*
G37*
G36*
X-118000D02*
X-122250D01*
Y816750D01*
X-118000D01*
Y821000D01*
D02*
G37*
G36*
X122250Y953750D02*
X118000D01*
Y949500D01*
X122250D01*
Y953750D01*
D02*
G37*
G36*
X-114750Y951750D02*
X-119000D01*
Y947500D01*
X-114750D01*
Y951750D01*
D02*
G37*
G36*
X157000Y932647D02*
X154074Y932065D01*
X151593Y930407D01*
X149935Y927926D01*
X149353Y925000D01*
X149935Y922074D01*
X151593Y919593D01*
Y919407D01*
X149935Y916926D01*
X149353Y914000D01*
X149935Y911074D01*
X151593Y908593D01*
X154074Y906935D01*
X157000Y906353D01*
X159926Y906935D01*
X162407Y908593D01*
X164065Y911074D01*
X164647Y914000D01*
X164065Y916926D01*
X162407Y919407D01*
Y919593D01*
X164065Y922074D01*
X164647Y925000D01*
X164065Y927926D01*
X162407Y930407D01*
X159926Y932065D01*
X157000Y932647D01*
D02*
G37*
G36*
X650000Y715000D02*
X620000D01*
Y685000D01*
X650000D01*
Y715000D01*
D02*
G37*
G36*
X441500Y671170D02*
Y661500D01*
X451170D01*
X449869Y664641D01*
X447599Y667599D01*
X444641Y669869D01*
X441500Y671170D01*
D02*
G37*
G36*
X433500Y671170D02*
X430359Y669869D01*
X427401Y667599D01*
X425131Y664641D01*
X423830Y661500D01*
X433500D01*
Y671170D01*
D02*
G37*
G36*
X649579Y731000D02*
X639000D01*
Y720421D01*
X642564Y721898D01*
X645698Y724302D01*
X648102Y727435D01*
X649579Y731000D01*
D02*
G37*
G36*
X639000Y749579D02*
Y739000D01*
X649579D01*
X648102Y742565D01*
X645698Y745698D01*
X642564Y748102D01*
X639000Y749579D01*
D02*
G37*
G36*
X631000Y749579D02*
X627435Y748102D01*
X624302Y745698D01*
X621897Y742565D01*
X620421Y739000D01*
X631000D01*
Y749579D01*
D02*
G37*
G36*
Y731000D02*
X620421D01*
X621897Y727435D01*
X624302Y724302D01*
X627435Y721898D01*
X631000Y720421D01*
Y731000D01*
D02*
G37*
G36*
X45500Y658647D02*
X42574Y658065D01*
X40093Y656407D01*
X38435Y653926D01*
X37853Y651000D01*
X38435Y648074D01*
X40093Y645593D01*
X42574Y643935D01*
X45500Y643353D01*
X48426Y643935D01*
X50907Y645593D01*
X52565Y648074D01*
X53147Y651000D01*
X52565Y653926D01*
X50907Y656407D01*
X48426Y658065D01*
X45500Y658647D01*
D02*
G37*
G36*
X451170Y653500D02*
X441500D01*
Y643830D01*
X444641Y645131D01*
X447599Y647401D01*
X449869Y650359D01*
X451170Y653500D01*
D02*
G37*
G36*
X433500D02*
X423830D01*
X425131Y650359D01*
X427401Y647401D01*
X430359Y645131D01*
X433500Y643830D01*
Y653500D01*
D02*
G37*
G36*
X65500Y658647D02*
X62574Y658065D01*
X60093Y656407D01*
X58435Y653926D01*
X57853Y651000D01*
X58435Y648074D01*
X60093Y645593D01*
X62574Y643935D01*
X65500Y643353D01*
X68426Y643935D01*
X70907Y645593D01*
X72565Y648074D01*
X73147Y651000D01*
X72565Y653926D01*
X70907Y656407D01*
X68426Y658065D01*
X65500Y658647D01*
D02*
G37*
G36*
X211000Y841647D02*
X208074Y841065D01*
X205593Y839407D01*
X203935Y836926D01*
X203353Y834000D01*
X203935Y831074D01*
X205593Y828593D01*
X208074Y826935D01*
X211000Y826353D01*
X213926Y826935D01*
X216407Y828593D01*
X218065Y831074D01*
X218647Y834000D01*
X218065Y836926D01*
X216407Y839407D01*
X213926Y841065D01*
X211000Y841647D01*
D02*
G37*
G36*
X367500Y1497500D02*
X327500D01*
Y1457500D01*
X367500D01*
Y1497500D01*
D02*
G37*
G36*
X599190Y1447516D02*
X597251Y1447165D01*
X595419Y1446443D01*
X593762Y1445378D01*
X592345Y1444009D01*
X591222Y1442391D01*
X590437Y1440584D01*
X590019Y1438659D01*
X590001Y1437675D01*
X589984Y1436690D01*
X590335Y1434751D01*
X591057Y1432919D01*
X592122Y1431262D01*
X593491Y1429845D01*
X595109Y1428722D01*
X596916Y1427937D01*
X598841Y1427519D01*
X599825Y1427502D01*
X600810Y1427484D01*
X602749Y1427835D01*
X604581Y1428557D01*
X606238Y1429622D01*
X607655Y1430991D01*
X608778Y1432609D01*
X609563Y1434416D01*
X609981Y1436341D01*
X609999Y1437325D01*
X610016Y1438310D01*
X609665Y1440249D01*
X608943Y1442081D01*
X607878Y1443738D01*
X606509Y1445155D01*
X604891Y1446278D01*
X603084Y1447063D01*
X601159Y1447481D01*
X600174Y1447498D01*
X599190Y1447516D01*
D02*
G37*
G36*
X490750Y1240116D02*
X487226Y1239652D01*
X483942Y1238292D01*
X481122Y1236128D01*
X478958Y1233308D01*
X477597Y1230024D01*
X477133Y1226500D01*
X477597Y1222976D01*
X478958Y1219692D01*
X481122Y1216872D01*
X483942Y1214708D01*
X487226Y1213347D01*
X490750Y1212883D01*
X494274Y1213347D01*
X497558Y1214708D01*
X500378Y1216872D01*
X502542Y1219692D01*
X503902Y1222976D01*
X504366Y1226500D01*
X503902Y1230024D01*
X502542Y1233308D01*
X500378Y1236128D01*
X497558Y1238292D01*
X494274Y1239652D01*
X490750Y1240116D01*
D02*
G37*
G36*
X291500Y1471500D02*
X284832D01*
X285271Y1470440D01*
X287515Y1467515D01*
X290440Y1465271D01*
X291500Y1464832D01*
Y1471500D01*
D02*
G37*
G36*
X303500Y1490168D02*
Y1483500D01*
X310168D01*
X309729Y1484560D01*
X307485Y1487485D01*
X304560Y1489729D01*
X303500Y1490168D01*
D02*
G37*
G36*
X291500Y1490168D02*
X290440Y1489729D01*
X287515Y1487485D01*
X285271Y1484560D01*
X284832Y1483500D01*
X291500D01*
Y1490168D01*
D02*
G37*
G36*
X310168Y1471500D02*
X303500D01*
Y1464832D01*
X304560Y1465271D01*
X307485Y1467515D01*
X309729Y1470440D01*
X310168Y1471500D01*
D02*
G37*
G36*
X223500Y1657841D02*
Y1651000D01*
X230341D01*
X229869Y1652141D01*
X227599Y1655099D01*
X224641Y1657369D01*
X223500Y1657841D01*
D02*
G37*
G36*
X211500Y1657841D02*
X210359Y1657369D01*
X207401Y1655099D01*
X205131Y1652141D01*
X204659Y1651000D01*
X211500D01*
Y1657841D01*
D02*
G37*
G36*
X391500Y1682147D02*
X383500D01*
X379062Y1681562D01*
X374927Y1679850D01*
X371376Y1677125D01*
X368651Y1673573D01*
X366938Y1669438D01*
X366353Y1665000D01*
X366938Y1660562D01*
X368651Y1656427D01*
X371376Y1652876D01*
X374927Y1650151D01*
X379062Y1648438D01*
X383500Y1647853D01*
X391500D01*
X395938Y1648438D01*
X400073Y1650151D01*
X403625Y1652876D01*
X406349Y1656427D01*
X408063Y1660562D01*
X408647Y1665000D01*
X408063Y1669438D01*
X406349Y1673573D01*
X403625Y1677125D01*
X400073Y1679850D01*
X395938Y1681562D01*
X391500Y1682147D01*
D02*
G37*
G36*
X571500Y1676095D02*
X563500D01*
X560628Y1675717D01*
X557952Y1674608D01*
X555655Y1672845D01*
X553891Y1670547D01*
X552783Y1667872D01*
X552405Y1665000D01*
X552783Y1662128D01*
X553891Y1659453D01*
X555655Y1657155D01*
X557952Y1655392D01*
X560628Y1654283D01*
X563500Y1653905D01*
X571500D01*
X574372Y1654283D01*
X577048Y1655392D01*
X579345Y1657155D01*
X581109Y1659453D01*
X582217Y1662128D01*
X582595Y1665000D01*
X582217Y1667872D01*
X581109Y1670547D01*
X579345Y1672845D01*
X577048Y1674608D01*
X574372Y1675717D01*
X571500Y1676095D01*
D02*
G37*
G36*
X137500Y1784121D02*
X117500D01*
X113845Y1783640D01*
X110440Y1782229D01*
X107515Y1779985D01*
X105271Y1777060D01*
X103860Y1773655D01*
X103379Y1770000D01*
Y1750000D01*
X103860Y1746345D01*
X105271Y1742940D01*
X107515Y1740015D01*
X110440Y1737771D01*
X113845Y1736360D01*
X117500Y1735879D01*
X137500D01*
X141155Y1736360D01*
X144560Y1737771D01*
X147485Y1740015D01*
X149729Y1742940D01*
X151140Y1746345D01*
X151621Y1750000D01*
Y1770000D01*
X151140Y1773655D01*
X149729Y1777060D01*
X147485Y1779985D01*
X144560Y1782229D01*
X141155Y1783640D01*
X137500Y1784121D01*
D02*
G37*
G36*
X-122500Y1784121D02*
X-142500D01*
X-146155Y1783640D01*
X-149560Y1782229D01*
X-152485Y1779985D01*
X-154729Y1777060D01*
X-156140Y1773655D01*
X-156621Y1770000D01*
Y1750000D01*
X-156140Y1746345D01*
X-154729Y1742940D01*
X-152485Y1740015D01*
X-149560Y1737771D01*
X-146155Y1736360D01*
X-142500Y1735879D01*
X-122500D01*
X-118845Y1736360D01*
X-115440Y1737771D01*
X-112515Y1740015D01*
X-110271Y1742940D01*
X-108860Y1746345D01*
X-108379Y1750000D01*
Y1770000D01*
X-108860Y1773655D01*
X-110271Y1777060D01*
X-112515Y1779985D01*
X-115440Y1782229D01*
X-118845Y1783640D01*
X-122500Y1784121D01*
D02*
G37*
G36*
X397500Y1790172D02*
X377500D01*
X372279Y1789485D01*
X367414Y1787470D01*
X363236Y1784264D01*
X360030Y1780086D01*
X358015Y1775221D01*
X357327Y1770000D01*
Y1750000D01*
X358015Y1744779D01*
X360030Y1739914D01*
X363236Y1735736D01*
X367414Y1732530D01*
X372279Y1730515D01*
X377500Y1729827D01*
X397500D01*
X402721Y1730515D01*
X407586Y1732530D01*
X411764Y1735736D01*
X414970Y1739914D01*
X416985Y1744779D01*
X417673Y1750000D01*
Y1770000D01*
X416985Y1775221D01*
X414970Y1780086D01*
X411764Y1784264D01*
X407586Y1787470D01*
X402721Y1789485D01*
X397500Y1790172D01*
D02*
G37*
G36*
X571500Y1631095D02*
X563500D01*
X560628Y1630717D01*
X557952Y1629608D01*
X555655Y1627845D01*
X553891Y1625547D01*
X552783Y1622872D01*
X552405Y1620000D01*
X552783Y1617128D01*
X553891Y1614453D01*
X555655Y1612155D01*
X557952Y1610392D01*
X560628Y1609283D01*
X563500Y1608905D01*
X571500D01*
X574372Y1609283D01*
X577048Y1610392D01*
X579345Y1612155D01*
X581109Y1614453D01*
X582217Y1617128D01*
X582595Y1620000D01*
X582217Y1622872D01*
X581109Y1625547D01*
X579345Y1627845D01*
X577048Y1629608D01*
X574372Y1630717D01*
X571500Y1631095D01*
D02*
G37*
G36*
X391500Y1637147D02*
X383500D01*
X379062Y1636562D01*
X374927Y1634850D01*
X371376Y1632124D01*
X368651Y1628573D01*
X366938Y1624438D01*
X366353Y1620000D01*
X366938Y1615562D01*
X368651Y1611427D01*
X371376Y1607876D01*
X374927Y1605151D01*
X379062Y1603438D01*
X383500Y1602853D01*
X391500D01*
X395938Y1603438D01*
X400073Y1605151D01*
X403625Y1607876D01*
X406349Y1611427D01*
X408063Y1615562D01*
X408647Y1620000D01*
X408063Y1624438D01*
X406349Y1628573D01*
X403625Y1632124D01*
X400073Y1634850D01*
X395938Y1636562D01*
X391500Y1637147D01*
D02*
G37*
G36*
X463000Y1581282D02*
X459304Y1580795D01*
X455859Y1579369D01*
X452901Y1577099D01*
X450631Y1574141D01*
X449204Y1570697D01*
X448718Y1567000D01*
X449204Y1563304D01*
X450631Y1559859D01*
X452901Y1556901D01*
X455859Y1554631D01*
X459304Y1553204D01*
X463000Y1552718D01*
X466697Y1553204D01*
X470141Y1554631D01*
X473099Y1556901D01*
X475369Y1559859D01*
X476796Y1563304D01*
X477282Y1567000D01*
X476796Y1570697D01*
X475369Y1574141D01*
X473099Y1577099D01*
X470141Y1579369D01*
X466697Y1580795D01*
X463000Y1581282D01*
D02*
G37*
G36*
X33211Y1658782D02*
X29515Y1658295D01*
X26070Y1656869D01*
X23112Y1654599D01*
X20843Y1651641D01*
X19416Y1648196D01*
X18929Y1644500D01*
X19416Y1640803D01*
X20843Y1637359D01*
X23112Y1634401D01*
X26070Y1632131D01*
X29515Y1630704D01*
X33211Y1630218D01*
X36908Y1630704D01*
X40353Y1632131D01*
X43310Y1634401D01*
X45580Y1637359D01*
X47007Y1640803D01*
X47494Y1644500D01*
X47007Y1648196D01*
X45580Y1651641D01*
X43310Y1654599D01*
X40353Y1656869D01*
X36908Y1658295D01*
X33211Y1658782D01*
D02*
G37*
G36*
X211500Y1639000D02*
X204659D01*
X205131Y1637859D01*
X207401Y1634901D01*
X210359Y1632631D01*
X211500Y1632159D01*
Y1639000D01*
D02*
G37*
G36*
X230341D02*
X223500D01*
Y1632159D01*
X224641Y1632631D01*
X227599Y1634901D01*
X229869Y1637859D01*
X230341Y1639000D01*
D02*
G37*
G36*
X-140000Y1659282D02*
X-143696Y1658795D01*
X-147141Y1657369D01*
X-150099Y1655099D01*
X-152369Y1652141D01*
X-153795Y1648696D01*
X-154282Y1645000D01*
X-153795Y1641304D01*
X-152369Y1637859D01*
X-150099Y1634901D01*
X-147141Y1632631D01*
X-143696Y1631205D01*
X-140000Y1630718D01*
X-136304Y1631205D01*
X-132859Y1632631D01*
X-129901Y1634901D01*
X-127631Y1637859D01*
X-126205Y1641304D01*
X-125718Y1645000D01*
X-126205Y1648696D01*
X-127631Y1652141D01*
X-129901Y1655099D01*
X-132859Y1657369D01*
X-136304Y1658795D01*
X-140000Y1659282D01*
D02*
G37*
G36*
X414000Y231000D02*
X409000D01*
Y227500D01*
X414000D01*
Y231000D01*
D02*
G37*
G36*
X196250Y254000D02*
X188000D01*
X179750D01*
Y249750D01*
Y235750D01*
X179750Y235750D01*
X180701Y233750D01*
X180353Y232000D01*
X180935Y229074D01*
X182593Y226593D01*
X185074Y224935D01*
X188000Y224353D01*
X190926Y224935D01*
X193407Y226593D01*
X195065Y229074D01*
X195647Y232000D01*
X195299Y233750D01*
X196250Y235750D01*
X196250D01*
Y249750D01*
Y254000D01*
D02*
G37*
G36*
X401000Y231000D02*
X396000D01*
Y227500D01*
X401000D01*
Y231000D01*
D02*
G37*
G36*
X108250Y254000D02*
X100000D01*
X91750D01*
Y249750D01*
Y235750D01*
X91750D01*
X92701Y233750D01*
X92353Y232000D01*
X92935Y229074D01*
X94593Y226593D01*
X97074Y224935D01*
X100000Y224353D01*
X102926Y224935D01*
X105407Y226593D01*
X107065Y229074D01*
X107647Y232000D01*
X107299Y233750D01*
X108250Y235750D01*
X108250D01*
Y249750D01*
Y254000D01*
D02*
G37*
G36*
X126840Y266953D02*
X118590D01*
X110340D01*
Y262703D01*
Y248703D01*
X111963D01*
Y246581D01*
X111525Y245926D01*
X110943Y243000D01*
X111525Y240074D01*
X113183Y237593D01*
X115663Y235935D01*
X118590Y235353D01*
X121516Y235935D01*
X123997Y237593D01*
X125655Y240074D01*
X126237Y243000D01*
X125655Y245926D01*
X125217Y246581D01*
Y248703D01*
X126840D01*
Y262703D01*
Y266953D01*
D02*
G37*
G36*
X411000Y238000D02*
X406750D01*
Y233750D01*
X411000D01*
Y238000D01*
D02*
G37*
G36*
X-246469Y203147D02*
X-249395Y202565D01*
X-251876Y200907D01*
X-253534Y198426D01*
X-254116Y195500D01*
X-253534Y192574D01*
X-251876Y190093D01*
X-249395Y188435D01*
X-246469Y187853D01*
X-243543Y188435D01*
X-241062Y190093D01*
X-239404Y192574D01*
X-238822Y195500D01*
X-239404Y198426D01*
X-241062Y200907D01*
X-243543Y202565D01*
X-246469Y203147D01*
D02*
G37*
G36*
X366250Y185234D02*
X362000D01*
Y180984D01*
X366250D01*
Y185234D01*
D02*
G37*
G36*
X-182250Y-14314D02*
X-185957Y-15051D01*
X-189099Y-17151D01*
X-191199Y-20293D01*
X-191936Y-24000D01*
Y-34000D01*
X-191199Y-37707D01*
X-189099Y-40849D01*
X-185957Y-42949D01*
X-182250Y-43686D01*
X-178543Y-42949D01*
X-175401Y-40849D01*
X-173301Y-37707D01*
X-172564Y-34000D01*
Y-24000D01*
X-173301Y-20293D01*
X-175401Y-17151D01*
X-178543Y-15051D01*
X-182250Y-14314D01*
D02*
G37*
G36*
X401000Y219500D02*
X396000D01*
Y216000D01*
X401000D01*
Y219500D01*
D02*
G37*
G36*
X384000Y245647D02*
X381074Y245065D01*
X378593Y243407D01*
X376935Y240926D01*
X376353Y238000D01*
X376935Y235074D01*
X377373Y234419D01*
Y223161D01*
X375750Y222250D01*
X375250D01*
Y222250D01*
X371000D01*
Y214000D01*
X367000D01*
Y210000D01*
X358750D01*
Y205750D01*
Y191750D01*
X375250D01*
Y191750D01*
X375750D01*
Y191750D01*
X392250D01*
Y194392D01*
X393000D01*
X395146Y194819D01*
X396965Y196035D01*
X397392Y196462D01*
X399392Y195700D01*
Y177484D01*
X396000D01*
Y162484D01*
X414000D01*
Y164377D01*
X426917D01*
X429074Y162935D01*
X432000Y162353D01*
X434926Y162935D01*
X437407Y164593D01*
X439065Y167074D01*
X439647Y170000D01*
X439065Y172926D01*
X437407Y175407D01*
X434926Y177065D01*
X432000Y177647D01*
X429074Y177065D01*
X426869Y175592D01*
X414000D01*
Y177484D01*
X410608D01*
Y197000D01*
X414000D01*
Y212000D01*
X396000D01*
Y209809D01*
X395354Y209681D01*
X394250Y208943D01*
X392250Y209868D01*
Y222250D01*
X390627D01*
Y234419D01*
X391065Y235074D01*
X391647Y238000D01*
X391065Y240926D01*
X389407Y243407D01*
X386926Y245065D01*
X384000Y245647D01*
D02*
G37*
G36*
X363000Y222250D02*
X358750D01*
Y218000D01*
X363000D01*
Y222250D01*
D02*
G37*
G36*
X414000Y219500D02*
X409000D01*
Y216000D01*
X414000D01*
Y219500D01*
D02*
G37*
G36*
X593038Y316609D02*
X590112Y316026D01*
X587631Y314369D01*
X585974Y311888D01*
X585392Y308962D01*
X585974Y306035D01*
X587631Y303554D01*
X590112Y301897D01*
X593038Y301315D01*
X595965Y301897D01*
X598446Y303554D01*
X600103Y306035D01*
X600685Y308962D01*
X600103Y311888D01*
X598446Y314369D01*
X595965Y316026D01*
X593038Y316609D01*
D02*
G37*
G36*
X277000Y291647D02*
X274074Y291065D01*
X271893Y289608D01*
X125107D01*
X122926Y291065D01*
X120000Y291647D01*
X117074Y291065D01*
X114593Y289407D01*
X112935Y286926D01*
X112353Y284000D01*
X112909Y281203D01*
X112900Y280768D01*
X112064Y279203D01*
X110340D01*
Y274953D01*
X118590D01*
X126840D01*
Y278392D01*
X271893D01*
X274074Y276935D01*
X277000Y276353D01*
X279926Y276935D01*
X282407Y278593D01*
X284065Y281074D01*
X284647Y284000D01*
X284065Y286926D01*
X282407Y289407D01*
X279926Y291065D01*
X277000Y291647D01*
D02*
G37*
G36*
X-285000Y319790D02*
X-288916Y319274D01*
X-292565Y317763D01*
X-295698Y315358D01*
X-298102Y312225D01*
X-299614Y308576D01*
X-300129Y304660D01*
X-299614Y300744D01*
X-298102Y297096D01*
X-295698Y293962D01*
X-292565Y291558D01*
X-288916Y290046D01*
X-285000Y289531D01*
X-281084Y290046D01*
X-277435Y291558D01*
X-274302Y293962D01*
X-271897Y297096D01*
X-270386Y300744D01*
X-269870Y304660D01*
X-270386Y308576D01*
X-271897Y312225D01*
X-274302Y315358D01*
X-277435Y317763D01*
X-281084Y319274D01*
X-285000Y319790D01*
D02*
G37*
G36*
X638000Y326473D02*
X635074Y325891D01*
X632593Y324233D01*
X630935Y321752D01*
X630353Y318826D01*
X630935Y315900D01*
X632593Y313419D01*
X635074Y311761D01*
X638000Y311179D01*
X640926Y311761D01*
X643407Y313419D01*
X645065Y315900D01*
X645647Y318826D01*
X645065Y321752D01*
X643407Y324233D01*
X640926Y325891D01*
X638000Y326473D01*
D02*
G37*
G36*
X-270000Y354660D02*
X-300000D01*
Y324660D01*
X-270000D01*
Y354660D01*
D02*
G37*
G36*
X424000Y322128D02*
Y312631D01*
X433497D01*
X432229Y315692D01*
X429985Y318616D01*
X427060Y320860D01*
X424000Y322128D01*
D02*
G37*
G36*
X416000Y322128D02*
X412940Y320860D01*
X410015Y318616D01*
X407771Y315692D01*
X406503Y312631D01*
X416000D01*
Y322128D01*
D02*
G37*
G36*
X184000Y266250D02*
X179750D01*
Y262000D01*
X184000D01*
Y266250D01*
D02*
G37*
G36*
X411000Y250250D02*
X406750D01*
Y246000D01*
X411000D01*
Y250250D01*
D02*
G37*
G36*
X-211000Y259647D02*
X-213926Y259065D01*
X-216407Y257407D01*
X-218065Y254926D01*
X-218647Y252000D01*
X-218065Y249074D01*
X-216407Y246593D01*
X-213926Y244935D01*
X-211000Y244353D01*
X-208074Y244935D01*
X-205593Y246593D01*
X-203935Y249074D01*
X-203353Y252000D01*
X-203935Y254926D01*
X-205593Y257407D01*
X-208074Y259065D01*
X-211000Y259647D01*
D02*
G37*
G36*
X96000Y266250D02*
X91750D01*
Y262000D01*
X96000D01*
Y266250D01*
D02*
G37*
G36*
X55000Y347647D02*
X52074Y347065D01*
X49593Y345407D01*
X47935Y342926D01*
X47353Y340000D01*
X47935Y337074D01*
X49392Y334893D01*
Y295107D01*
X47935Y292926D01*
X47353Y290000D01*
X47935Y287074D01*
X49593Y284593D01*
X52074Y282935D01*
X55000Y282353D01*
X57926Y282935D01*
X60407Y284593D01*
X62065Y287074D01*
X62647Y290000D01*
X62065Y292926D01*
X60608Y295107D01*
Y334893D01*
X62065Y337074D01*
X62647Y340000D01*
X62065Y342926D01*
X60407Y345407D01*
X57926Y347065D01*
X55000Y347647D01*
D02*
G37*
G36*
X196250Y266250D02*
X192000D01*
Y262000D01*
X196250D01*
Y266250D01*
D02*
G37*
G36*
X108250D02*
X104000D01*
Y262000D01*
X108250D01*
Y266250D01*
D02*
G37*
G36*
X-228000Y108647D02*
X-230926Y108065D01*
X-233407Y106407D01*
X-235065Y103926D01*
X-235647Y101000D01*
X-235065Y98074D01*
X-233407Y95593D01*
X-230926Y93935D01*
X-228000Y93353D01*
X-225074Y93935D01*
X-222593Y95593D01*
X-220935Y98074D01*
X-220353Y101000D01*
X-220935Y103926D01*
X-222593Y106407D01*
X-225074Y108065D01*
X-228000Y108647D01*
D02*
G37*
G36*
X-123000Y106647D02*
X-125926Y106065D01*
X-128407Y104407D01*
X-130065Y101926D01*
X-130647Y99000D01*
X-130065Y96074D01*
X-128407Y93593D01*
X-125926Y91935D01*
X-123000Y91353D01*
X-120074Y91935D01*
X-117593Y93593D01*
X-115935Y96074D01*
X-115353Y99000D01*
X-115935Y101926D01*
X-117593Y104407D01*
X-120074Y106065D01*
X-123000Y106647D01*
D02*
G37*
G36*
X181840Y90953D02*
X177590D01*
Y86703D01*
X181840D01*
Y90953D01*
D02*
G37*
G36*
X-176000Y45647D02*
X-178926Y45065D01*
X-181407Y43407D01*
X-183065Y40926D01*
X-183647Y38000D01*
X-183065Y35074D01*
X-181407Y32593D01*
X-178926Y30935D01*
X-176000Y30353D01*
X-173074Y30935D01*
X-170593Y32593D01*
X-168935Y35074D01*
X-168353Y38000D01*
X-168935Y40926D01*
X-170593Y43407D01*
X-173074Y45065D01*
X-176000Y45647D01*
D02*
G37*
G36*
X-810Y10016D02*
X-2749Y9665D01*
X-4581Y8943D01*
X-6238Y7878D01*
X-7655Y6509D01*
X-8778Y4891D01*
X-9563Y3084D01*
X-9981Y1159D01*
X-9998Y174D01*
X-10016Y-810D01*
X-9665Y-2749D01*
X-8943Y-4581D01*
X-7878Y-6238D01*
X-6509Y-7655D01*
X-4891Y-8778D01*
X-3084Y-9563D01*
X-1159Y-9981D01*
X-174Y-9998D01*
X810Y-10016D01*
X2749Y-9665D01*
X4581Y-8943D01*
X6238Y-7878D01*
X7655Y-6509D01*
X8778Y-4891D01*
X9563Y-3084D01*
X9981Y-1159D01*
X9998Y-175D01*
X10016Y810D01*
X9665Y2749D01*
X8943Y4581D01*
X7878Y6238D01*
X6509Y7655D01*
X4891Y8778D01*
X3084Y9563D01*
X1159Y9981D01*
X174Y9998D01*
X-810Y10016D01*
D02*
G37*
G36*
X-164000Y115647D02*
X-166926Y115065D01*
X-169407Y113407D01*
X-171065Y110926D01*
X-171647Y108000D01*
X-171065Y105074D01*
X-169407Y102593D01*
X-166926Y100935D01*
X-164000Y100353D01*
X-161074Y100935D01*
X-158593Y102593D01*
X-156935Y105074D01*
X-156353Y108000D01*
X-156935Y110926D01*
X-158593Y113407D01*
X-161074Y115065D01*
X-164000Y115647D01*
D02*
G37*
G36*
X173590Y129600D02*
X170664Y129018D01*
X168183Y127360D01*
X166525Y124880D01*
X165943Y121953D01*
X166490Y119203D01*
X166450Y118907D01*
X165386Y117203D01*
X165340D01*
Y100703D01*
Y98953D01*
X181840D01*
Y100703D01*
Y117203D01*
X181794D01*
X180730Y118907D01*
X180690Y119203D01*
X181237Y121953D01*
X180655Y124880D01*
X178997Y127360D01*
X176516Y129018D01*
X173590Y129600D01*
D02*
G37*
G36*
X-132500Y40176D02*
X-136012Y39478D01*
X-138989Y37489D01*
X-139500Y36723D01*
X-141500D01*
X-142011Y37489D01*
X-144988Y39478D01*
X-148500Y40176D01*
X-152012Y39478D01*
X-154989Y37489D01*
X-156978Y34512D01*
X-157676Y31000D01*
X-156978Y27488D01*
X-154989Y24511D01*
X-152012Y22522D01*
X-148500Y21824D01*
X-144988Y22522D01*
X-142538Y24159D01*
X-140597Y23992D01*
X-140080Y23803D01*
X-139798Y23277D01*
X-140978Y21512D01*
X-141676Y18000D01*
X-140978Y14488D01*
X-138989Y11511D01*
X-137177Y10301D01*
Y7895D01*
X-137907Y7407D01*
X-139565Y4926D01*
X-140147Y2000D01*
X-139565Y-926D01*
X-137907Y-3407D01*
X-135426Y-5065D01*
X-132500Y-5647D01*
X-129574Y-5065D01*
X-127093Y-3407D01*
X-125435Y-926D01*
X-124853Y2000D01*
X-125435Y4926D01*
X-127093Y7407D01*
X-127823Y7895D01*
Y10301D01*
X-126011Y11511D01*
X-124022Y14488D01*
X-123324Y18000D01*
X-124022Y21512D01*
X-126011Y24489D01*
Y24511D01*
X-124022Y27488D01*
X-123324Y31000D01*
X-124022Y34512D01*
X-126011Y37489D01*
X-128988Y39478D01*
X-132500Y40176D01*
D02*
G37*
G36*
X-223969Y50647D02*
X-226895Y50065D01*
X-229376Y48407D01*
X-231034Y45926D01*
X-231616Y43000D01*
X-231034Y40074D01*
X-229376Y37593D01*
X-226895Y35935D01*
X-223969Y35353D01*
X-221043Y35935D01*
X-218562Y37593D01*
X-216904Y40074D01*
X-216322Y43000D01*
X-216904Y45926D01*
X-218562Y48407D01*
X-221043Y50065D01*
X-223969Y50647D01*
D02*
G37*
G36*
X-241469D02*
X-244395Y50065D01*
X-246876Y48407D01*
X-248534Y45926D01*
X-249116Y43000D01*
X-248534Y40074D01*
X-246876Y37593D01*
X-244395Y35935D01*
X-241469Y35353D01*
X-238543Y35935D01*
X-236062Y37593D01*
X-234404Y40074D01*
X-233822Y43000D01*
X-234404Y45926D01*
X-236062Y48407D01*
X-238543Y50065D01*
X-241469Y50647D01*
D02*
G37*
G36*
X-147500Y58147D02*
X-150426Y57565D01*
X-152907Y55907D01*
X-154565Y53426D01*
X-155147Y50500D01*
X-154565Y47574D01*
X-152907Y45093D01*
X-150426Y43435D01*
X-147500Y42853D01*
X-144574Y43435D01*
X-142093Y45093D01*
X-140435Y47574D01*
X-139853Y50500D01*
X-140435Y53426D01*
X-142093Y55907D01*
X-144574Y57565D01*
X-147500Y58147D01*
D02*
G37*
G36*
X169590Y90953D02*
X165340D01*
Y86703D01*
X169590D01*
Y90953D01*
D02*
G37*
G36*
X-98500Y84647D02*
X-101426Y84065D01*
X-102081Y83627D01*
X-113419D01*
X-114074Y84065D01*
X-117000Y84647D01*
X-119926Y84065D01*
X-122407Y82407D01*
X-124065Y79926D01*
X-124647Y77000D01*
X-124065Y74074D01*
X-122407Y71593D01*
X-119926Y69935D01*
X-117000Y69353D01*
X-114074Y69935D01*
X-113419Y70373D01*
X-102081D01*
X-101426Y69935D01*
X-98500Y69353D01*
X-95574Y69935D01*
X-93093Y71593D01*
X-91435Y74074D01*
X-90853Y77000D01*
X-91435Y79926D01*
X-93093Y82407D01*
X-95574Y84065D01*
X-98500Y84647D01*
D02*
G37*
G36*
X-27000Y75647D02*
X-29926Y75065D01*
X-32407Y73407D01*
X-34065Y70926D01*
X-34647Y68000D01*
X-34065Y65074D01*
X-32407Y62593D01*
X-29926Y60935D01*
X-27000Y60353D01*
X-24074Y60935D01*
X-21593Y62593D01*
X-19935Y65074D01*
X-19353Y68000D01*
X-19935Y70926D01*
X-21593Y73407D01*
X-24074Y75065D01*
X-27000Y75647D01*
D02*
G37*
G36*
X-228000Y163647D02*
X-230926Y163065D01*
X-233407Y161407D01*
X-235065Y158926D01*
X-235647Y156000D01*
X-235065Y153074D01*
X-233407Y150593D01*
X-230926Y148935D01*
X-228000Y148353D01*
X-225074Y148935D01*
X-222593Y150593D01*
X-220935Y153074D01*
X-220353Y156000D01*
X-220935Y158926D01*
X-222593Y161407D01*
X-225074Y163065D01*
X-228000Y163647D01*
D02*
G37*
G36*
X132000Y-34000D02*
X122330D01*
X123631Y-37141D01*
X125901Y-40099D01*
X128859Y-42369D01*
X132000Y-43670D01*
Y-34000D01*
D02*
G37*
G36*
X149670D02*
X140000D01*
Y-43670D01*
X143141Y-42369D01*
X146099Y-40099D01*
X148369Y-37141D01*
X149670Y-34000D01*
D02*
G37*
G36*
X-120000Y165647D02*
X-122926Y165065D01*
X-125407Y163407D01*
X-127065Y160926D01*
X-127647Y158000D01*
X-127065Y155074D01*
X-125407Y152593D01*
X-122926Y150935D01*
X-120000Y150353D01*
X-117074Y150935D01*
X-114593Y152593D01*
X-112935Y155074D01*
X-112353Y158000D01*
X-112935Y160926D01*
X-114593Y163407D01*
X-117074Y165065D01*
X-120000Y165647D01*
D02*
G37*
G36*
X50000Y165000D02*
X45750D01*
Y160750D01*
X50000D01*
Y165000D01*
D02*
G37*
G36*
X-172919Y174147D02*
X-175845Y173565D01*
X-178326Y171907D01*
X-179984Y169426D01*
X-180566Y166500D01*
X-179984Y163574D01*
X-178326Y161093D01*
X-175845Y159435D01*
X-172919Y158853D01*
X-169993Y159435D01*
X-167512Y161093D01*
X-165854Y163574D01*
X-165272Y166500D01*
X-165854Y169426D01*
X-167512Y171907D01*
X-169993Y173565D01*
X-172919Y174147D01*
D02*
G37*
G36*
X-137750Y-14314D02*
X-141457Y-15051D01*
X-144599Y-17151D01*
X-146699Y-20293D01*
X-147436Y-24000D01*
Y-34000D01*
X-146699Y-37707D01*
X-144599Y-40849D01*
X-141457Y-42949D01*
X-137750Y-43686D01*
X-134043Y-42949D01*
X-130901Y-40849D01*
X-128801Y-37707D01*
X-128064Y-34000D01*
Y-24000D01*
X-128801Y-20293D01*
X-130901Y-17151D01*
X-134043Y-15051D01*
X-137750Y-14314D01*
D02*
G37*
G36*
X563000Y1647D02*
X560074Y1065D01*
X557593Y-593D01*
X555935Y-3074D01*
X555353Y-6000D01*
X555935Y-8926D01*
X557593Y-11407D01*
X560074Y-13065D01*
X563000Y-13647D01*
X565926Y-13065D01*
X568407Y-11407D01*
X570065Y-8926D01*
X570647Y-6000D01*
X570065Y-3074D01*
X568407Y-593D01*
X565926Y1065D01*
X563000Y1647D01*
D02*
G37*
G36*
X-197000Y166647D02*
X-199926Y166065D01*
X-202407Y164407D01*
X-204065Y161926D01*
X-204647Y159000D01*
X-204196Y156734D01*
X-224354Y136576D01*
X-226926Y136065D01*
X-229407Y134407D01*
X-231065Y131926D01*
X-231647Y129000D01*
X-231065Y126074D01*
X-229407Y123593D01*
X-226926Y121935D01*
X-224000Y121353D01*
X-221074Y121935D01*
X-218593Y123593D01*
X-216935Y126074D01*
X-216423Y128646D01*
X-207058Y138012D01*
X-204888Y137353D01*
X-204534Y135574D01*
X-202876Y133093D01*
X-201544Y132203D01*
Y129797D01*
X-202876Y128907D01*
X-204534Y126426D01*
X-205116Y123500D01*
X-204534Y120574D01*
X-202876Y118093D01*
X-200395Y116435D01*
X-197469Y115853D01*
X-194543Y116435D01*
X-192062Y118093D01*
X-191172Y119425D01*
X-188766D01*
X-187876Y118093D01*
X-185395Y116435D01*
X-182469Y115853D01*
X-179543Y116435D01*
X-177062Y118093D01*
X-175404Y120574D01*
X-174822Y123500D01*
X-175404Y126426D01*
X-177062Y128907D01*
X-178394Y129797D01*
Y132203D01*
X-177062Y133093D01*
X-175404Y135574D01*
X-174822Y138500D01*
X-175404Y141426D01*
X-177062Y143907D01*
X-179543Y145565D01*
X-182469Y146147D01*
X-185395Y145565D01*
X-187876Y143907D01*
X-188766Y142575D01*
X-191172D01*
X-192062Y143907D01*
X-194543Y145565D01*
X-196322Y145919D01*
X-196980Y148089D01*
X-193035Y152035D01*
X-192317Y153109D01*
X-191593Y153593D01*
X-189935Y156074D01*
X-189353Y159000D01*
X-189935Y161926D01*
X-191593Y164407D01*
X-194074Y166065D01*
X-197000Y166647D01*
D02*
G37*
G36*
X-117000Y126147D02*
X-119926Y125565D01*
X-122407Y123907D01*
X-124065Y121426D01*
X-124647Y118500D01*
X-124065Y115574D01*
X-122407Y113093D01*
X-119926Y111435D01*
X-117000Y110853D01*
X-114074Y111435D01*
X-111593Y113093D01*
X-109935Y115574D01*
X-109353Y118500D01*
X-109935Y121426D01*
X-111593Y123907D01*
X-114074Y125565D01*
X-117000Y126147D01*
D02*
G37*
G36*
X364000Y-9353D02*
X361074Y-9935D01*
X358593Y-11593D01*
X356935Y-14074D01*
X356353Y-17000D01*
X356935Y-19926D01*
X358593Y-22407D01*
X361074Y-24065D01*
X364000Y-24647D01*
X366926Y-24065D01*
X369407Y-22407D01*
X371065Y-19926D01*
X371647Y-17000D01*
X371065Y-14074D01*
X369407Y-11593D01*
X366926Y-9935D01*
X364000Y-9353D01*
D02*
G37*
G36*
X433497Y304631D02*
X420000D01*
X406503D01*
X407771Y301571D01*
X409566Y299231D01*
X408771Y297231D01*
X406000D01*
Y269231D01*
X416838D01*
X433972Y252098D01*
X433206Y250250D01*
X419000D01*
Y242000D01*
Y233750D01*
X422373D01*
Y221500D01*
X420000D01*
Y206500D01*
X438000D01*
Y221500D01*
X435627D01*
Y232626D01*
X437250Y233750D01*
X439250Y234701D01*
X441000Y234353D01*
X443926Y234935D01*
X445392Y235915D01*
X447392Y234846D01*
Y205000D01*
X447819Y202854D01*
X449035Y201035D01*
X457424Y192646D01*
X457935Y190074D01*
X459593Y187593D01*
X462074Y185935D01*
X465000Y185353D01*
X467926Y185935D01*
X470407Y187593D01*
X472065Y190074D01*
X472647Y193000D01*
X472065Y195926D01*
X470407Y198407D01*
X467926Y200065D01*
X465354Y200576D01*
X462887Y203043D01*
X463464Y205295D01*
X465107Y206392D01*
X522000D01*
X524146Y206819D01*
X525965Y208035D01*
X529354Y211423D01*
X531926Y211935D01*
X534407Y213593D01*
X536392Y212964D01*
Y162323D01*
X514177Y140107D01*
X430107D01*
X427926Y141564D01*
X425000Y142146D01*
X422074Y141564D01*
X419593Y139907D01*
X417935Y137426D01*
X417353Y134500D01*
X417935Y131573D01*
X419593Y129092D01*
Y128907D01*
X417935Y126426D01*
X417353Y123499D01*
X417935Y120573D01*
X419593Y118092D01*
X422074Y116435D01*
X425000Y115852D01*
X427926Y116435D01*
X430107Y117892D01*
X523499D01*
X525645Y118319D01*
X527465Y119534D01*
X558665Y150735D01*
X559881Y152554D01*
X560308Y154700D01*
Y279893D01*
X561765Y282074D01*
X562347Y285000D01*
X561765Y287926D01*
X560107Y290407D01*
X557626Y292065D01*
X554700Y292647D01*
X551774Y292065D01*
X549652Y290647D01*
X548350Y290506D01*
X547048Y290647D01*
X544926Y292065D01*
X542000Y292647D01*
X539074Y292065D01*
X536593Y290407D01*
X534935Y287926D01*
X534353Y285000D01*
X534935Y282074D01*
X536392Y279893D01*
Y225036D01*
X534407Y224407D01*
X531926Y226065D01*
X529000Y226647D01*
X526074Y226065D01*
X523593Y224407D01*
X521935Y221926D01*
X521423Y219354D01*
X519677Y217608D01*
X465107D01*
X462926Y219065D01*
X460000Y219647D01*
X458608Y220790D01*
Y241000D01*
X458181Y243146D01*
X456965Y244965D01*
X443222Y258709D01*
X443407Y260593D01*
X445065Y263074D01*
X445647Y266000D01*
X445065Y268926D01*
X443407Y271407D01*
X440926Y273065D01*
X438000Y273647D01*
X436000Y273249D01*
X434000Y274570D01*
Y297231D01*
X431230D01*
X430434Y299231D01*
X432229Y301571D01*
X433497Y304631D01*
D02*
G37*
G36*
X132000Y-16330D02*
X128859Y-17631D01*
X125901Y-19901D01*
X123631Y-22859D01*
X122330Y-26000D01*
X132000D01*
Y-16330D01*
D02*
G37*
G36*
X140000D02*
Y-26000D01*
X149670D01*
X148369Y-22859D01*
X146099Y-19901D01*
X143141Y-17631D01*
X140000Y-16330D01*
D02*
G37*
G36*
X146840Y336000D02*
X138590D01*
X130340D01*
Y335221D01*
X128643Y333519D01*
X128000Y333647D01*
X125074Y333065D01*
X122593Y331407D01*
X120935Y328926D01*
X120353Y326000D01*
X120935Y323074D01*
X122593Y320593D01*
X125074Y318935D01*
X128000Y318353D01*
X129292Y318610D01*
X130340Y317750D01*
Y317750D01*
X146840D01*
Y331750D01*
Y336000D01*
D02*
G37*
G36*
X-270000Y429660D02*
X-300000D01*
Y399660D01*
X-270000D01*
Y429660D01*
D02*
G37*
G36*
X-281000Y394239D02*
Y383660D01*
X-270421D01*
X-271897Y387225D01*
X-274302Y390358D01*
X-277435Y392763D01*
X-281000Y394239D01*
D02*
G37*
G36*
X-289000Y394239D02*
X-292565Y392763D01*
X-295698Y390358D01*
X-298102Y387225D01*
X-299579Y383660D01*
X-289000D01*
Y394239D01*
D02*
G37*
G36*
X28000Y438282D02*
X24304Y437795D01*
X20859Y436369D01*
X17901Y434099D01*
X15631Y431141D01*
X14204Y427696D01*
X13718Y424000D01*
X14204Y420303D01*
X15631Y416859D01*
X17901Y413901D01*
X20859Y411631D01*
X24304Y410205D01*
X28000Y409718D01*
X31697Y410205D01*
X35141Y411631D01*
X38099Y413901D01*
X40369Y416859D01*
X41796Y420303D01*
X42282Y424000D01*
X41796Y427696D01*
X40369Y431141D01*
X38099Y434099D01*
X35141Y436369D01*
X31697Y437795D01*
X28000Y438282D01*
D02*
G37*
G36*
X57000Y449924D02*
X54074Y449342D01*
X51593Y447685D01*
X49935Y445204D01*
X49353Y442277D01*
X49935Y439351D01*
X51593Y436870D01*
X54074Y435213D01*
X57000Y434631D01*
X59926Y435213D01*
X62407Y436870D01*
X64065Y439351D01*
X64647Y442277D01*
X64065Y445204D01*
X62407Y447685D01*
X59926Y449342D01*
X57000Y449924D01*
D02*
G37*
G36*
X-115000Y431176D02*
X-118512Y430478D01*
X-121489Y428489D01*
X-122511D01*
X-125488Y430478D01*
X-129000Y431176D01*
X-132512Y430478D01*
X-135489Y428489D01*
X-136511D01*
X-139488Y430478D01*
X-143000Y431176D01*
X-146512Y430478D01*
X-149489Y428489D01*
X-151478Y425512D01*
X-152176Y422000D01*
X-151478Y418488D01*
X-149489Y415511D01*
Y415489D01*
X-151478Y412512D01*
X-152176Y409000D01*
X-151478Y405488D01*
X-149489Y402511D01*
Y402489D01*
X-151478Y399512D01*
X-152176Y396000D01*
X-151478Y392488D01*
X-149489Y389511D01*
X-146512Y387522D01*
X-143000Y386824D01*
X-139488Y387522D01*
X-136511Y389511D01*
X-135489D01*
X-132512Y387522D01*
X-129000Y386824D01*
X-125488Y387522D01*
X-122511Y389511D01*
X-121489D01*
X-118512Y387522D01*
X-115000Y386824D01*
X-111488Y387522D01*
X-108511Y389511D01*
X-106522Y392488D01*
X-105824Y396000D01*
X-106522Y399512D01*
X-108511Y402489D01*
Y402511D01*
X-106522Y405488D01*
X-105824Y409000D01*
X-106522Y412512D01*
X-108511Y415489D01*
Y415511D01*
X-106522Y418488D01*
X-105824Y422000D01*
X-106522Y425512D01*
X-108511Y428489D01*
X-111488Y430478D01*
X-115000Y431176D01*
D02*
G37*
G36*
X255000Y435647D02*
X252074Y435065D01*
X249893Y433608D01*
X135000D01*
X132854Y433181D01*
X131035Y431965D01*
X74035Y374965D01*
X72819Y373146D01*
X72392Y371000D01*
Y236107D01*
X70935Y233926D01*
X70353Y231000D01*
X70472Y230403D01*
X25035Y184965D01*
X23819Y183146D01*
X23392Y181000D01*
Y157107D01*
X21935Y154926D01*
X21353Y152000D01*
X21935Y149074D01*
X23593Y146593D01*
X26074Y144935D01*
X29000Y144353D01*
X31926Y144935D01*
X34407Y146593D01*
X36065Y149074D01*
X36647Y152000D01*
X36065Y154926D01*
X34608Y157107D01*
Y178677D01*
X43902Y187972D01*
X45750Y187206D01*
Y177750D01*
X45750D01*
X45750Y177250D01*
X45750D01*
Y173000D01*
X54000D01*
Y169000D01*
X58000D01*
Y160750D01*
X61373D01*
Y158250D01*
X59000D01*
Y139780D01*
X57690Y138912D01*
X57000Y139475D01*
Y158250D01*
X39000D01*
Y137750D01*
X39000D01*
X39750Y136250D01*
Y119750D01*
X39750Y119750D01*
X40701Y117750D01*
X40353Y116000D01*
X40935Y113074D01*
X42593Y110593D01*
X45074Y108935D01*
X48000Y108353D01*
X50926Y108935D01*
X53407Y110593D01*
X55065Y113074D01*
X55647Y116000D01*
X55299Y117750D01*
X56712Y119715D01*
X56785Y119750D01*
X63499D01*
X64106Y117750D01*
X63593Y117407D01*
X61935Y114926D01*
X61353Y112000D01*
X61935Y109074D01*
X63593Y106593D01*
X63421Y104302D01*
X62700Y103608D01*
X40323D01*
X-141462Y285392D01*
X-140633Y287392D01*
X-121200D01*
Y279000D01*
X-93200D01*
Y281770D01*
X-91200Y282566D01*
X-88861Y280771D01*
X-85455Y279360D01*
X-81800Y278879D01*
X-78145Y279360D01*
X-74740Y280771D01*
X-71815Y283015D01*
X-69571Y285940D01*
X-68160Y289345D01*
X-67679Y293000D01*
X-68160Y296655D01*
X-69571Y300060D01*
X-71815Y302985D01*
X-74740Y305229D01*
X-78145Y306640D01*
X-81800Y307121D01*
X-85455Y306640D01*
X-88861Y305229D01*
X-91200Y303434D01*
X-93200Y304229D01*
Y307000D01*
X-121200D01*
Y298608D01*
X-140677D01*
X-184392Y342323D01*
Y346750D01*
X-181000D01*
Y367250D01*
X-199000D01*
Y346750D01*
X-195608D01*
Y340000D01*
X-195181Y337854D01*
X-193965Y336035D01*
X-174170Y316239D01*
X-174998Y314239D01*
X-196893D01*
X-199074Y315696D01*
X-202000Y316278D01*
X-204926Y315696D01*
X-207407Y314039D01*
X-209065Y311558D01*
X-209647Y308631D01*
X-209065Y305705D01*
X-207407Y303224D01*
X-204926Y301567D01*
X-202000Y300984D01*
X-199074Y301567D01*
X-196893Y303024D01*
X-190254D01*
X-189311Y301260D01*
X-189534Y300926D01*
X-190116Y298000D01*
X-189534Y295074D01*
X-187876Y292593D01*
X-185395Y290935D01*
X-182469Y290353D01*
X-179543Y290935D01*
X-177362Y292392D01*
X-175323D01*
X35035Y82035D01*
X36854Y80819D01*
X39000Y80392D01*
X64051D01*
X66232Y78935D01*
X69158Y78353D01*
X72085Y78935D01*
X74566Y80593D01*
X76223Y83074D01*
X76805Y86000D01*
X76223Y88926D01*
X75129Y90564D01*
X74730Y92000D01*
X75129Y93436D01*
X75800Y94441D01*
X78089Y94981D01*
X134035Y39035D01*
X135854Y37819D01*
X138000Y37392D01*
X627000D01*
X629146Y37819D01*
X630965Y39035D01*
X631354Y39423D01*
X633926Y39935D01*
X636407Y41593D01*
X636561Y41822D01*
X638551Y42018D01*
X645424Y35146D01*
X645935Y32573D01*
X647593Y30092D01*
X650074Y28435D01*
X653000Y27853D01*
X655926Y28435D01*
X658407Y30092D01*
X660065Y32573D01*
X660647Y35500D01*
X660065Y38426D01*
X658407Y40907D01*
X655926Y42565D01*
X653354Y43076D01*
X637965Y58465D01*
X636146Y59681D01*
X634000Y60108D01*
X586280D01*
X586083Y62108D01*
X587146Y62319D01*
X588965Y63535D01*
X637854Y112423D01*
X640426Y112935D01*
X642907Y114593D01*
X644565Y117074D01*
X645147Y120000D01*
X644565Y122926D01*
X642907Y125407D01*
X640426Y127065D01*
X637500Y127647D01*
X634574Y127065D01*
X632093Y125407D01*
X630435Y122926D01*
X629924Y120354D01*
X582677Y73108D01*
X576151D01*
X575386Y74956D01*
X637854Y137423D01*
X640426Y137935D01*
X642907Y139593D01*
X644565Y142074D01*
X645147Y145000D01*
X644565Y147926D01*
X642907Y150407D01*
X640426Y152065D01*
X637500Y152647D01*
X634574Y152065D01*
X632093Y150407D01*
X630435Y147926D01*
X629924Y145354D01*
X566177Y81608D01*
X561933D01*
X561326Y83608D01*
X561965Y84035D01*
X637854Y159923D01*
X640426Y160435D01*
X642907Y162093D01*
X644565Y164574D01*
X645147Y167500D01*
X644565Y170426D01*
X642907Y172907D01*
X640426Y174565D01*
X637500Y175147D01*
X634574Y174565D01*
X632093Y172907D01*
X630435Y170426D01*
X629924Y167854D01*
X555677Y93608D01*
X362823D01*
X320387Y136043D01*
X320964Y138295D01*
X322907Y139593D01*
X324565Y142074D01*
X325147Y145000D01*
X324565Y147926D01*
X323108Y150107D01*
Y164893D01*
X324565Y167074D01*
X325147Y170000D01*
X324565Y172926D01*
X323927Y173881D01*
X324996Y175881D01*
X332250D01*
Y168734D01*
Y154734D01*
X348750D01*
Y154734D01*
X349750Y154734D01*
Y154734D01*
X366250D01*
X366250Y154734D01*
X368250Y155225D01*
X370000Y154876D01*
X372000D01*
Y152984D01*
X390000D01*
Y167984D01*
X372000D01*
X372000Y167984D01*
Y167984D01*
X370000Y167929D01*
X369646Y168165D01*
X367500Y168592D01*
X366250D01*
Y172984D01*
X358000D01*
Y176984D01*
X354000D01*
Y185234D01*
X349750D01*
Y185234D01*
X348750Y185234D01*
Y185234D01*
X340181D01*
X339961Y185454D01*
X338142Y186669D01*
X335996Y187096D01*
X297035D01*
X294889Y186669D01*
X293070Y185454D01*
X287608Y179992D01*
X285906Y180547D01*
X285608Y180792D01*
Y199893D01*
X287065Y202074D01*
X287647Y205000D01*
X287065Y207926D01*
X285407Y210407D01*
X282926Y212065D01*
X280000Y212647D01*
X278608Y213790D01*
Y225131D01*
X378870Y325392D01*
X437893D01*
X440074Y323935D01*
X443000Y323353D01*
X445926Y323935D01*
X448407Y325593D01*
X450065Y328074D01*
X450647Y331000D01*
X450065Y333926D01*
X448407Y336407D01*
X446933Y337392D01*
X447540Y339392D01*
X645893D01*
X648074Y337935D01*
X651000Y337353D01*
X653926Y337935D01*
X656407Y339593D01*
X658065Y342074D01*
X658647Y345000D01*
X658065Y347926D01*
X656407Y350407D01*
X653926Y352065D01*
X651000Y352647D01*
X648074Y352065D01*
X645893Y350608D01*
X591847D01*
X590578Y352154D01*
X590647Y352500D01*
X590065Y355426D01*
X588407Y357907D01*
X585926Y359565D01*
X583000Y360147D01*
X580074Y359565D01*
X577893Y358108D01*
X219517D01*
X219198Y359096D01*
X219185Y360108D01*
X221407Y361593D01*
X223065Y364074D01*
X223647Y367000D01*
X223065Y369926D01*
X221407Y372407D01*
X218926Y374065D01*
X216000Y374647D01*
X213074Y374065D01*
X210593Y372407D01*
X208935Y369926D01*
X208353Y367000D01*
X208935Y364074D01*
X210593Y361593D01*
X212815Y360108D01*
X212802Y359096D01*
X212483Y358108D01*
X206847D01*
X205578Y359654D01*
X205647Y360000D01*
X205065Y362926D01*
X203608Y365107D01*
Y398000D01*
X203181Y400146D01*
X201965Y401965D01*
X189965Y413965D01*
X188146Y415181D01*
X186000Y415608D01*
X144687D01*
X142506Y417065D01*
X139580Y417647D01*
X136653Y417065D01*
X134173Y415407D01*
X132515Y412926D01*
X131933Y410000D01*
X132515Y407074D01*
X134173Y404593D01*
X136653Y402935D01*
X139580Y402353D01*
X142506Y402935D01*
X144687Y404392D01*
X183677D01*
X185478Y402591D01*
X185239Y401618D01*
X184661Y400580D01*
X182074Y400065D01*
X179593Y398407D01*
X177935Y395926D01*
X177353Y393000D01*
X177935Y390074D01*
X179392Y387893D01*
Y365107D01*
X177935Y362926D01*
X177353Y360000D01*
X175888Y358624D01*
X174362Y358568D01*
X158965Y373965D01*
X157146Y375181D01*
X155000Y375608D01*
X135660D01*
X134184Y377608D01*
X134516Y379277D01*
X133934Y382204D01*
X132276Y384685D01*
X129796Y386342D01*
X126869Y386924D01*
X123943Y386342D01*
X121462Y384685D01*
X119804Y382204D01*
X119222Y379277D01*
X119640Y377178D01*
X119854Y375181D01*
X118035Y373965D01*
X101646Y357576D01*
X99074Y357065D01*
X96593Y355407D01*
X94935Y352926D01*
X94353Y350000D01*
X94935Y347074D01*
X96593Y344593D01*
X99074Y342935D01*
X102000Y342353D01*
X104926Y342935D01*
X105906Y343590D01*
X107754Y342825D01*
X107935Y341914D01*
X109593Y339433D01*
X112074Y337775D01*
X115000Y337193D01*
X117926Y337775D01*
X120407Y339433D01*
X122065Y341914D01*
X122577Y344486D01*
X133483Y355392D01*
X149677D01*
X164035Y341035D01*
X165854Y339819D01*
X168000Y339392D01*
X437169D01*
X438045Y337392D01*
X437321Y336608D01*
X376547D01*
X374401Y336181D01*
X372581Y334965D01*
X269035Y231419D01*
X267819Y229599D01*
X267392Y227453D01*
Y162101D01*
X267819Y159955D01*
X269035Y158135D01*
X272406Y154764D01*
X272353Y154500D01*
X272935Y151574D01*
X274051Y149904D01*
X274429Y148477D01*
X274051Y147050D01*
X272935Y145380D01*
X272353Y142453D01*
X272935Y139527D01*
X274239Y137576D01*
X274459Y136227D01*
X274239Y134877D01*
X272935Y132926D01*
X272353Y130000D01*
X272935Y127074D01*
X274593Y124593D01*
X277074Y122935D01*
X279646Y122423D01*
X325518Y76551D01*
X324938Y74637D01*
X324574Y74565D01*
X322093Y72907D01*
X320435Y70426D01*
X319853Y67500D01*
X320435Y64574D01*
X322093Y62093D01*
Y60575D01*
X321093Y59907D01*
X319435Y57426D01*
X318853Y54500D01*
X319435Y51574D01*
X320080Y50608D01*
X319011Y48608D01*
X140323D01*
X76576Y112354D01*
X76065Y114926D01*
X74407Y117407D01*
X71958Y119044D01*
X71926Y119065D01*
X70250Y120108D01*
X70250Y121438D01*
Y124000D01*
X62000D01*
Y132000D01*
X70250D01*
Y135750D01*
X70250Y136250D01*
X71457Y137750D01*
X77000D01*
Y158250D01*
X74627D01*
Y160750D01*
X76250D01*
Y170074D01*
X78250Y170602D01*
X79593Y168593D01*
X82074Y166935D01*
X85000Y166353D01*
X87926Y166935D01*
X90407Y168593D01*
X92065Y171074D01*
X92647Y174000D01*
X92065Y176926D01*
X91627Y177581D01*
Y179453D01*
X91123Y181989D01*
X89686Y184139D01*
X83139Y190686D01*
X80990Y192123D01*
X78453Y192627D01*
X76250D01*
Y194250D01*
X52794D01*
X52028Y196098D01*
X79602Y223672D01*
X80926Y223935D01*
X83407Y225593D01*
X85065Y228074D01*
X85647Y231000D01*
X85065Y233926D01*
X83608Y236107D01*
Y288846D01*
X85608Y289915D01*
X87074Y288935D01*
X90000Y288353D01*
X92926Y288935D01*
X95407Y290593D01*
X97065Y293074D01*
X97647Y296000D01*
X97065Y298926D01*
X95407Y301407D01*
X92926Y303065D01*
X90000Y303647D01*
X87074Y303065D01*
X85608Y302085D01*
X83608Y303154D01*
Y368677D01*
X137323Y422392D01*
X249893D01*
X252074Y420935D01*
X255000Y420353D01*
X257926Y420935D01*
X260407Y422593D01*
X262065Y425074D01*
X262647Y428000D01*
X262065Y430926D01*
X260407Y433407D01*
X257926Y435065D01*
X255000Y435647D01*
D02*
G37*
G36*
X146840Y348250D02*
X142590D01*
Y344000D01*
X146840D01*
Y348250D01*
D02*
G37*
G36*
X134590D02*
X130340D01*
Y344000D01*
X134590D01*
Y348250D01*
D02*
G37*
G36*
X-28550Y357647D02*
X-31476Y357065D01*
X-33957Y355407D01*
X-35615Y352926D01*
X-36197Y350000D01*
X-35615Y347074D01*
X-33957Y344593D01*
X-31476Y342935D01*
X-28550Y342353D01*
X-25624Y342935D01*
X-23143Y344593D01*
X-21485Y347074D01*
X-20903Y350000D01*
X-21485Y352926D01*
X-23143Y355407D01*
X-25624Y357065D01*
X-28550Y357647D01*
D02*
G37*
G36*
X-161000Y367250D02*
X-179000D01*
Y346750D01*
X-161000D01*
Y350892D01*
X-147944D01*
X-146407Y348593D01*
X-143926Y346935D01*
X-141000Y346353D01*
X-138074Y346935D01*
X-135593Y348593D01*
X-133935Y351074D01*
X-133353Y354000D01*
X-133935Y356926D01*
X-135593Y359407D01*
X-138074Y361065D01*
X-141000Y361647D01*
X-141234Y361600D01*
X-141354Y361681D01*
X-143500Y362108D01*
X-161000D01*
Y367250D01*
D02*
G37*
G36*
X-34698Y397647D02*
X-37624Y397065D01*
X-40105Y395407D01*
X-41762Y392926D01*
X-42344Y390000D01*
X-41762Y387074D01*
X-40105Y384593D01*
X-37624Y382935D01*
X-34698Y382353D01*
X-31771Y382935D01*
X-29290Y384593D01*
X-27633Y387074D01*
X-27051Y390000D01*
X-27633Y392926D01*
X-29290Y395407D01*
X-31771Y397065D01*
X-34698Y397647D01*
D02*
G37*
G36*
X-289000Y375660D02*
X-299579D01*
X-298102Y372095D01*
X-295698Y368962D01*
X-292565Y366558D01*
X-289000Y365081D01*
Y375660D01*
D02*
G37*
G36*
X-270421D02*
X-281000D01*
Y365081D01*
X-277435Y366558D01*
X-274302Y368962D01*
X-271897Y372095D01*
X-270421Y375660D01*
D02*
G37*
G36*
X295390Y543369D02*
Y535496D01*
X303263D01*
X302309Y537800D01*
X300305Y540411D01*
X297694Y542415D01*
X295390Y543369D01*
D02*
G37*
G36*
X62790Y544104D02*
X59527Y543675D01*
X56486Y542415D01*
X53875Y540411D01*
X51871Y537800D01*
X50612Y534760D01*
X50182Y531496D01*
X50612Y528233D01*
X51871Y525192D01*
X53875Y522581D01*
X56462Y520596D01*
X56473Y520518D01*
X56043Y518596D01*
X50290D01*
Y493596D01*
X75290D01*
Y499350D01*
X77211Y499779D01*
X77290Y499768D01*
X79275Y497181D01*
X81886Y495178D01*
X84927Y493918D01*
X88190Y493489D01*
X91453Y493918D01*
X94494Y495178D01*
X97105Y497181D01*
X99109Y499793D01*
X99808Y501480D01*
X101972D01*
X102671Y499793D01*
X104675Y497181D01*
X107286Y495178D01*
X110327Y493918D01*
X113590Y493489D01*
X116853Y493918D01*
X119894Y495178D01*
X122505Y497181D01*
X124509Y499793D01*
X125208Y501480D01*
X127372D01*
X128071Y499793D01*
X130075Y497181D01*
X132686Y495178D01*
X135727Y493918D01*
X138990Y493489D01*
X142253Y493918D01*
X145294Y495178D01*
X147905Y497181D01*
X149909Y499793D01*
X150608Y501480D01*
X152772D01*
X153471Y499793D01*
X155475Y497181D01*
X158086Y495178D01*
X161127Y493918D01*
X164390Y493489D01*
X167653Y493918D01*
X170694Y495178D01*
X173305Y497181D01*
X175309Y499793D01*
X176007Y501480D01*
X178172D01*
X178871Y499793D01*
X180875Y497181D01*
X183486Y495178D01*
X186527Y493918D01*
X189790Y493489D01*
X193053Y493918D01*
X196094Y495178D01*
X198705Y497181D01*
X200709Y499793D01*
X201408Y501480D01*
X203572D01*
X204271Y499793D01*
X206275Y497181D01*
X208886Y495178D01*
X211927Y493918D01*
X215190Y493489D01*
X218453Y493918D01*
X221494Y495178D01*
X224105Y497181D01*
X226109Y499793D01*
X226807Y501480D01*
X228972D01*
X229671Y499793D01*
X231675Y497181D01*
X234286Y495178D01*
X237327Y493918D01*
X240590Y493489D01*
X243853Y493918D01*
X246894Y495178D01*
X249505Y497181D01*
X251509Y499793D01*
X252208Y501480D01*
X254372D01*
X255071Y499793D01*
X257075Y497181D01*
X259686Y495178D01*
X262727Y493918D01*
X265990Y493489D01*
X269253Y493918D01*
X272294Y495178D01*
X274905Y497181D01*
X276909Y499793D01*
X277607Y501480D01*
X279772D01*
X280471Y499793D01*
X282475Y497181D01*
X285086Y495178D01*
X288127Y493918D01*
X291390Y493489D01*
X294653Y493918D01*
X297694Y495178D01*
X300305Y497181D01*
X302309Y499793D01*
X303568Y502833D01*
X303998Y506096D01*
X303568Y509360D01*
X302309Y512400D01*
X300305Y515011D01*
X297694Y517015D01*
X296007Y517714D01*
Y519879D01*
X297694Y520578D01*
X300305Y522581D01*
X302309Y525192D01*
X303263Y527496D01*
X291390D01*
Y531496D01*
X287390D01*
Y543369D01*
X285086Y542415D01*
X282475Y540411D01*
X280471Y537800D01*
X279772Y536113D01*
X277607D01*
X276909Y537800D01*
X274905Y540411D01*
X272294Y542415D01*
X269990Y543369D01*
Y531496D01*
X261990D01*
Y543369D01*
X259686Y542415D01*
X257075Y540411D01*
X255071Y537800D01*
X254372Y536113D01*
X252208D01*
X251509Y537800D01*
X249505Y540411D01*
X246894Y542415D01*
X244590Y543369D01*
Y531496D01*
X236590D01*
Y543369D01*
X234286Y542415D01*
X231675Y540411D01*
X229671Y537800D01*
X228972Y536113D01*
X226807D01*
X226109Y537800D01*
X224105Y540411D01*
X221494Y542415D01*
X219190Y543369D01*
Y531496D01*
X211190D01*
Y543369D01*
X208886Y542415D01*
X206275Y540411D01*
X204271Y537800D01*
X203572Y536113D01*
X201408D01*
X200709Y537800D01*
X198705Y540411D01*
X196094Y542415D01*
X193790Y543369D01*
Y531496D01*
X185790D01*
Y543369D01*
X183486Y542415D01*
X180875Y540411D01*
X178871Y537800D01*
X178172Y536113D01*
X176007D01*
X175309Y537800D01*
X173305Y540411D01*
X170694Y542415D01*
X168390Y543369D01*
Y531496D01*
X160390D01*
Y543369D01*
X158086Y542415D01*
X155475Y540411D01*
X153471Y537800D01*
X152772Y536113D01*
X150608D01*
X149909Y537800D01*
X147905Y540411D01*
X145294Y542415D01*
X142990Y543369D01*
Y531496D01*
X134990D01*
Y543369D01*
X132686Y542415D01*
X130075Y540411D01*
X128071Y537800D01*
X127372Y536113D01*
X125208D01*
X124509Y537800D01*
X122505Y540411D01*
X119894Y542415D01*
X117590Y543369D01*
Y531496D01*
X109590D01*
Y543369D01*
X107286Y542415D01*
X104675Y540411D01*
X102671Y537800D01*
X101972Y536113D01*
X99808D01*
X99109Y537800D01*
X97105Y540411D01*
X94494Y542415D01*
X92190Y543369D01*
Y531496D01*
X84190D01*
Y543369D01*
X81886Y542415D01*
X79275Y540411D01*
X77271Y537800D01*
X76572Y536113D01*
X74408D01*
X73709Y537800D01*
X71705Y540411D01*
X69094Y542415D01*
X66053Y543675D01*
X62790Y544104D01*
D02*
G37*
G36*
X516600Y477647D02*
X513674Y477065D01*
X511193Y475407D01*
X509535Y472926D01*
X508953Y470000D01*
X509535Y467074D01*
X511193Y464593D01*
X513674Y462935D01*
X516600Y462353D01*
X519526Y462935D01*
X522007Y464593D01*
X523665Y467074D01*
X524247Y470000D01*
X523665Y472926D01*
X522007Y475407D01*
X519526Y477065D01*
X516600Y477647D01*
D02*
G37*
%LPD*%
D20*
X114000Y945500D02*
D03*
X100000D02*
D03*
X114000Y928000D02*
D03*
X100000D02*
D03*
X100000Y893000D02*
D03*
X114000D02*
D03*
X100000Y910500D02*
D03*
X114000D02*
D03*
X100000Y858500D02*
D03*
X114000D02*
D03*
X100000Y876000D02*
D03*
X114000D02*
D03*
X415000Y242000D02*
D03*
X429000D02*
D03*
X-123000Y943500D02*
D03*
X-137000D02*
D03*
Y926000D02*
D03*
X-123000D02*
D03*
Y908500D02*
D03*
X-137000D02*
D03*
X-133000Y870000D02*
D03*
X-147000D02*
D03*
X54000Y186000D02*
D03*
X68000D02*
D03*
X54000Y169000D02*
D03*
X68000D02*
D03*
X62000Y128000D02*
D03*
X48000D02*
D03*
D22*
X600000Y1437500D02*
D03*
X0Y0D02*
D03*
X-97500Y973000D02*
D03*
X-200469Y600000D02*
D03*
X-132500Y31000D02*
D03*
X-148500D02*
D03*
X-132500Y18000D02*
D03*
X90590Y1157500D02*
D03*
X207500Y1174500D02*
D03*
X402500Y1129500D02*
D03*
X576000Y1157500D02*
D03*
X-40000Y1030500D02*
D03*
X19999Y1037502D02*
D03*
X-115000Y409000D02*
D03*
Y422000D02*
D03*
X-129000D02*
D03*
Y409000D02*
D03*
X-143000Y422000D02*
D03*
Y409000D02*
D03*
Y396000D02*
D03*
X-129000D02*
D03*
X-115000D02*
D03*
X-23000Y1030000D02*
D03*
D29*
X52500Y935000D02*
D03*
Y949000D02*
D03*
X82000Y879000D02*
D03*
Y893000D02*
D03*
X-114000Y856000D02*
D03*
Y870000D02*
D03*
X-114000Y825000D02*
D03*
Y839000D02*
D03*
X138590Y326000D02*
D03*
Y340000D02*
D03*
X188000Y244000D02*
D03*
Y258000D02*
D03*
X118590Y270953D02*
D03*
Y256953D02*
D03*
X100000Y244000D02*
D03*
Y258000D02*
D03*
X173590Y94953D02*
D03*
Y108953D02*
D03*
X340500Y162984D02*
D03*
Y176984D02*
D03*
X358000Y162984D02*
D03*
Y176984D02*
D03*
X384000Y214000D02*
D03*
Y200000D02*
D03*
X367000Y214000D02*
D03*
Y200000D02*
D03*
D32*
X-170000Y357000D02*
D03*
X-190000D02*
D03*
X48000Y148000D02*
D03*
X68000D02*
D03*
D47*
X381000Y160484D02*
D03*
Y179484D02*
D03*
X405000Y169984D02*
D03*
X405000Y204500D02*
D03*
Y223500D02*
D03*
X429000Y214000D02*
D03*
D59*
X-179000Y985142D02*
X168358Y1332500D01*
X-179000Y924000D02*
Y985142D01*
X168358Y1332500D02*
X537000D01*
X611000Y1137000D02*
Y1177000D01*
X546000Y1072000D02*
X611000Y1137000D01*
X546000Y852500D02*
Y1072000D01*
X45000Y1143000D02*
X72000D01*
X-72500Y1025500D02*
X45000Y1143000D01*
X-72500Y964750D02*
Y1025500D01*
Y964750D02*
X-58250Y950500D01*
X-75250Y962000D02*
X-72500Y964750D01*
X-84000Y962000D02*
X-75250D01*
X-37499Y972500D02*
X-30000D01*
X-47501Y982502D02*
X-37499Y972500D01*
X-163500Y908500D02*
X-137000D01*
X-179000Y924000D02*
X-163500Y908500D01*
X-97500Y970590D02*
Y973000D01*
X-190000Y839000D02*
X-114000D01*
X-193000D02*
X-190000D01*
Y813000D02*
Y839000D01*
X138590Y340000D02*
X139000Y340410D01*
Y354000D01*
X100000Y270953D02*
X118590D01*
X100000Y258000D02*
Y270953D01*
X118590Y243000D02*
Y256953D01*
X48000Y128000D02*
Y148000D01*
X54000Y169000D02*
Y186000D01*
X85000Y174000D02*
Y179453D01*
X78453Y186000D02*
X85000Y179453D01*
X68000Y169000D02*
Y186000D01*
Y148000D02*
Y169000D01*
X68000Y186000D02*
X78453D01*
X68000D02*
X68000Y186000D01*
X48000Y116000D02*
Y128000D01*
X57000Y108000D02*
X61000Y112000D01*
Y127000D01*
X62000Y128000D01*
X40000Y169000D02*
X54000D01*
X-117000Y77000D02*
X-98500D01*
X-60000Y982500D02*
Y983814D01*
X485500Y1375000D02*
X540000D01*
X230000Y745000D02*
X249000Y764000D01*
X161433Y745000D02*
X230000D01*
X133933Y772500D02*
X161433Y745000D01*
X-159000Y991000D02*
X162500Y1312500D01*
X114000Y876000D02*
Y893000D01*
X-277071Y1217071D02*
Y1217071D01*
X-280000Y1214142D02*
X-277071Y1217071D01*
Y1217071D02*
X-159142Y1335000D01*
X91090D01*
X162500Y1312500D02*
X537000D01*
X358000Y176984D02*
Y185000D01*
X358000Y185000D02*
X358000Y185000D01*
Y176984D02*
X368500D01*
X371000Y179484D01*
X381000D01*
X352000Y191000D02*
X358000Y185000D01*
X352000Y191000D02*
Y208000D01*
X358000Y214000D01*
X367000D01*
X384000D02*
Y238000D01*
X173590Y108953D02*
Y121953D01*
X-48814Y995000D02*
X362500D01*
X477500Y1110000D01*
X-60000Y983814D02*
X-48814Y995000D01*
X-159000Y944000D02*
Y991000D01*
X-123000Y943500D02*
X-103500D01*
X-86000Y926000D01*
X267000Y887500D02*
X321500Y833000D01*
X114000Y910500D02*
X125500D01*
X148500Y887500D01*
X267000D01*
X114000Y858500D02*
X124490D01*
X142151Y876161D01*
X260939D01*
X-114000Y839000D02*
X-114000Y839000D01*
X-114000Y839000D02*
Y856000D01*
X-133000Y870000D02*
X-114000D01*
Y856000D02*
X-98000D01*
X114000Y876000D02*
X125839D01*
X126000Y876161D01*
X-165071Y1314929D02*
X91071D01*
X-270500Y1209500D02*
X-165071Y1314929D01*
X-187000Y870000D02*
X-147000D01*
X-270500Y1021000D02*
Y1209500D01*
X-280000Y1017000D02*
Y1214142D01*
Y1017000D02*
X-225000Y962000D01*
X-216000Y899000D02*
X-187000Y870000D01*
X-216000Y899000D02*
Y966500D01*
X-270500Y1021000D02*
X-216000Y966500D01*
X-114000Y870000D02*
X-100000D01*
X-100000Y870000D01*
X-225000Y871000D02*
X-193000Y839000D01*
X-225000Y871000D02*
Y962000D01*
X-98000Y856000D02*
X-93000Y861000D01*
X-58250Y950500D02*
X-38000D01*
X534000Y858000D02*
Y1080000D01*
X509000Y833000D02*
X534000Y858000D01*
X540000Y1375000D02*
X635000Y1280000D01*
X312500Y1192500D02*
X595500D01*
X611000Y1177000D01*
X534000Y1080000D02*
X595000Y1141000D01*
X312500Y1172500D02*
X584500D01*
X595000Y1162000D01*
Y1141000D02*
Y1162000D01*
X635000Y1127000D02*
Y1280000D01*
X570000Y1062000D02*
X635000Y1127000D01*
X249000Y764000D02*
X490000D01*
X570000Y844000D01*
Y1062000D01*
X321500Y833000D02*
X509000D01*
X260939Y876161D02*
X316439Y820661D01*
X173590Y75410D02*
Y94953D01*
X188000Y232000D02*
Y244000D01*
Y258000D02*
Y270000D01*
X429000Y214000D02*
Y242000D01*
X405000Y223500D02*
Y242000D01*
X396000D02*
X405000D01*
X415000D01*
X429000D02*
X441000D01*
X316439Y820661D02*
X514161D01*
X546000Y852500D01*
D60*
X335996Y181488D02*
X340500Y176984D01*
X297035Y181488D02*
X335996D01*
X287500Y171953D02*
X297035Y181488D01*
X71500Y920000D02*
X129000D01*
X55000Y903500D02*
X71500Y920000D01*
X129000D02*
X157000Y948000D01*
X137500Y820000D02*
Y835000D01*
X170000Y867500D01*
X93000Y876000D02*
X100000D01*
X90000Y879000D02*
X93000Y876000D01*
X82000Y879000D02*
X90000D01*
X148500Y810500D02*
X264500D01*
X147000Y812000D02*
X148500Y810500D01*
X81000Y812000D02*
X147000D01*
X76000Y817000D02*
X81000Y812000D01*
X264500Y810500D02*
X265000Y810000D01*
X143000Y806000D02*
X156000Y793000D01*
X65000Y806000D02*
X143000D01*
X46000Y825000D02*
X65000Y806000D01*
X6500Y707500D02*
X19000Y695000D01*
X-136500Y707500D02*
X6500D01*
X-192000Y763000D02*
X-136500Y707500D01*
X185000Y720000D02*
X240000D01*
X155000Y370000D02*
X172500Y352500D01*
X122000Y370000D02*
X155000D01*
X102000Y350000D02*
X122000Y370000D01*
X39000Y86000D02*
X69158D01*
X-173000Y298000D02*
X39000Y86000D01*
X-182469Y298000D02*
X-173000D01*
X172500Y352500D02*
X583000D01*
X-123000Y896000D02*
Y908500D01*
X-166000Y886000D02*
X-133000D01*
X-123000Y896000D01*
X-160000Y824500D02*
Y827000D01*
X-191500Y793000D02*
X-160000Y824500D01*
X152000Y361000D02*
X168000Y345000D01*
X131160Y361000D02*
X152000D01*
X115000Y344840D02*
X131160Y361000D01*
X52500Y923000D02*
Y935000D01*
X-137000Y926000D02*
Y943500D01*
X120000Y284000D02*
X277000D01*
X100000Y232000D02*
Y244000D01*
X78000Y230000D02*
Y231000D01*
X29000Y181000D02*
X78000Y230000D01*
X29000Y152000D02*
Y181000D01*
X55000Y290000D02*
Y340000D01*
X128000Y326000D02*
X138590D01*
X138000Y43000D02*
X627000D01*
X69000Y112000D02*
X138000Y43000D01*
X78000Y231000D02*
Y371000D01*
X139580Y410000D02*
X186000D01*
X198000Y398000D01*
Y360000D02*
Y398000D01*
X185000Y360000D02*
Y393000D01*
X55000Y868000D02*
X75500Y847500D01*
X55000Y868000D02*
Y903500D01*
X-131000Y782500D02*
X137500D01*
X-147500Y766000D02*
X-131000Y782500D01*
X113000Y847500D02*
X118590Y841910D01*
X112000Y822000D02*
X118590Y828590D01*
X-292500Y1337750D02*
X-165750Y1464500D01*
X81000Y894000D02*
X82000Y893000D01*
X65000Y894000D02*
X81000D01*
X64000Y893000D02*
X65000Y894000D01*
X73000Y879000D02*
X82000D01*
X71000Y881000D02*
X73000Y879000D01*
X71000Y881000D02*
Y887000D01*
X100000Y858500D02*
Y876000D01*
X-64000Y836000D02*
Y850000D01*
X-77500Y716000D02*
X68000D01*
X84500Y945500D02*
X100000D01*
X81000Y949000D02*
X84500Y945500D01*
X52500Y949000D02*
X81000D01*
X84000Y928000D02*
X100000D01*
X77000Y935000D02*
X84000Y928000D01*
X52500Y935000D02*
X77000D01*
X82000Y893000D02*
X82000Y893000D01*
X100000D01*
X100000D01*
X100000D02*
Y910500D01*
X114000Y945500D02*
X126000D01*
X114000Y928000D02*
Y945500D01*
X-37000Y732000D02*
X-27000Y722000D01*
X-149500Y732000D02*
X-37000D01*
X-170000Y752500D02*
X-149500Y732000D01*
X-170000Y752500D02*
Y787500D01*
X-152500Y805000D01*
X100000Y822000D02*
X112000D01*
X75500Y847500D02*
X113000D01*
X118590Y828590D02*
Y841910D01*
X81500Y834000D02*
X111000D01*
X65000Y817500D02*
X81500Y834000D01*
X-16000Y802500D02*
X13000D01*
X24500Y791000D01*
X92000D01*
X14999Y810000D02*
X24999Y800000D01*
X132500D01*
X137500Y795000D01*
X-60000Y764000D02*
X38500D01*
X67500Y735000D01*
X285000D01*
X-27000Y722000D02*
X54000D01*
X59500Y727500D01*
X222000D01*
X-85000Y813000D02*
X-65000D01*
X-64000Y836000D02*
X-38000Y810000D01*
X14999D01*
X-65000Y813000D02*
X-65000Y813000D01*
X-152500Y805000D02*
X-56000D01*
X-50000Y811000D01*
X317500Y145000D02*
Y170000D01*
X405000Y169984D02*
X431984D01*
X432000Y170000D01*
X340500Y162984D02*
X358000D01*
X358000Y162984D01*
X367500D01*
X370000Y160484D01*
X381000D01*
X405000Y169984D02*
Y204500D01*
X367000Y200000D02*
X384000D01*
X393000D01*
X397500Y204500D01*
X405000D01*
X280000Y165000D02*
Y205000D01*
Y154500D02*
Y155100D01*
X273000Y162101D02*
X280000Y155100D01*
X273000Y162101D02*
Y227453D01*
X376547Y331000D01*
X443000D01*
X453000Y205000D02*
X465000Y193000D01*
X280000Y142453D02*
X306047D01*
X327500Y67500D02*
X585000D01*
X627000Y43000D02*
X631000Y47000D01*
X634000Y54500D02*
X653000Y35500D01*
X326500Y54500D02*
X530000D01*
X535500Y49000D01*
X547000D01*
X552500Y54500D01*
X634000D01*
X460000Y212000D02*
X522000D01*
X529000Y219000D01*
X585000Y67500D02*
X637500Y120000D01*
X280000Y130000D02*
X334000Y76000D01*
X568500D01*
X637500Y145000D01*
X306047Y142453D02*
X360500Y88000D01*
X558000D01*
X637500Y167500D01*
X425000Y134500D02*
X516499D01*
X542000Y160000D01*
Y285000D01*
X168000Y345000D02*
X651000D01*
X652000D01*
X-202000Y308631D02*
X-172631D01*
X-190000Y340000D02*
Y357000D01*
Y340000D02*
X-143000Y293000D01*
X-107200D01*
X78000Y371000D02*
X135000Y428000D01*
X255000D01*
X-172631Y308631D02*
X38000Y98000D01*
X69158D01*
X-123000Y908500D02*
X-116500D01*
X-111000Y903000D01*
X-123000Y908500D02*
Y926000D01*
X-158500Y943500D02*
X-137000D01*
X-159000Y944000D02*
X-158500Y943500D01*
X156000Y771000D02*
X170000Y757000D01*
X156000Y771000D02*
Y793000D01*
X167340Y851000D02*
X273000D01*
X73000Y711000D02*
X248000D01*
X5500Y695500D02*
X16000Y685000D01*
X246000D01*
X19000Y695000D02*
X182000D01*
X425000Y123499D02*
X523499D01*
X554700Y154700D01*
Y285000D01*
X68000Y716000D02*
X73000Y711000D01*
X-114000Y825000D02*
X-65000D01*
X-65000Y825000D01*
X246000Y685000D02*
X257000Y696000D01*
Y722500D01*
X-169500Y356500D02*
X-143500D01*
X-141000Y354000D01*
X-292500Y1015000D02*
X-234000Y956500D01*
Y789000D02*
Y956500D01*
X-292500Y1015000D02*
Y1337750D01*
X-234000Y789000D02*
X-180000Y735000D01*
X-192000Y793000D02*
X-191500D01*
X-192000Y763000D02*
Y793000D01*
X-197000Y156000D02*
Y159000D01*
X-224000Y129000D02*
X-197000Y156000D01*
X420000Y274000D02*
Y283231D01*
Y274000D02*
X453000Y241000D01*
Y205000D02*
Y241000D01*
D64*
X97000Y1126000D02*
X191000Y1220000D01*
X50000Y1126000D02*
X97000D01*
X-40000Y1036000D02*
X50000Y1126000D01*
X191000Y1220000D02*
X245000D01*
X197500Y1197500D02*
X238090D01*
X107500Y1107500D02*
X197500Y1197500D01*
X54500Y1107500D02*
X107500D01*
X120500Y1087500D02*
X207500Y1174500D01*
X69998Y1087500D02*
X120500D01*
X-97500Y973000D02*
Y1026500D01*
X-97500Y1026500D02*
X-97500Y1026500D01*
X306090Y1129500D02*
X402500D01*
X19999Y1037502D02*
X69998Y1087500D01*
X238090Y1197500D02*
X306090Y1129500D01*
X307500Y1157500D02*
X576000D01*
X245000Y1220000D02*
X307500Y1157500D01*
X33500D02*
X90590D01*
X-97500Y1026500D02*
X33500Y1157500D01*
X-40000Y1030500D02*
Y1036000D01*
X-23000Y1030000D02*
X54500Y1107500D01*
D65*
X-137750Y-29000D02*
D03*
X-182250D02*
D03*
D66*
X-118250Y-59000D02*
D03*
X-201750D02*
D03*
D67*
X-132500Y1760000D02*
D03*
X127500Y1760000D02*
D03*
X387500Y1760000D02*
D03*
D68*
X-37500D02*
D03*
X222500Y1760000D02*
D03*
X482500Y1760000D02*
D03*
D69*
X-285000Y414660D02*
D03*
Y339660D02*
D03*
X635000Y700000D02*
D03*
D70*
X-285000Y379660D02*
D03*
Y304660D02*
D03*
X635000Y735000D02*
D03*
D71*
X-280000Y1880000D02*
D03*
X630000Y1880000D02*
D03*
X-280000Y-30000D02*
D03*
X630000Y-30000D02*
D03*
X-280000Y925000D02*
D03*
X630000D02*
D03*
D72*
X387500Y1620000D02*
D03*
Y1665000D02*
D03*
X567500Y1620000D02*
D03*
Y1665000D02*
D03*
D73*
X347500Y1477500D02*
D03*
X-107200Y293000D02*
D03*
D74*
X297500Y1477500D02*
D03*
X-81800Y293000D02*
D03*
X420000Y308631D02*
D03*
D75*
X138990Y531496D02*
D03*
Y506096D02*
D03*
X113590Y531496D02*
D03*
Y506096D02*
D03*
X88190Y531496D02*
D03*
Y506096D02*
D03*
X62790Y531496D02*
D03*
X164390Y506096D02*
D03*
Y531496D02*
D03*
X189790Y506096D02*
D03*
Y531496D02*
D03*
X215190Y506096D02*
D03*
Y531496D02*
D03*
X240590Y506096D02*
D03*
Y531496D02*
D03*
X265990D02*
D03*
Y506096D02*
D03*
X291390D02*
D03*
Y531496D02*
D03*
D76*
X62790Y506096D02*
D03*
D77*
X420000Y283231D02*
D03*
D78*
X33211Y1644500D02*
D03*
X463000Y1567000D02*
D03*
X-140000Y1645000D02*
D03*
X28000Y424000D02*
D03*
X136000Y-30000D02*
D03*
X437500Y657500D02*
D03*
X217500Y1645000D02*
D03*
D79*
X641500Y1820524D02*
D03*
X654000Y1795524D02*
D03*
X641500Y1770524D02*
D03*
X654000Y1745524D02*
D03*
X641500Y1720524D02*
D03*
X616500Y1820524D02*
D03*
X629000Y1795524D02*
D03*
X616500Y1770524D02*
D03*
X629000Y1745524D02*
D03*
X616500Y1720524D02*
D03*
X591500Y1820524D02*
D03*
X604000Y1795524D02*
D03*
X591500Y1770524D02*
D03*
X604000Y1745524D02*
D03*
X591500Y1720524D02*
D03*
X566500Y1870524D02*
D03*
Y1820524D02*
D03*
Y1770524D02*
D03*
Y1720524D02*
D03*
X554000Y1895524D02*
D03*
X541500Y1870524D02*
D03*
X554000Y1845524D02*
D03*
X541500Y1820524D02*
D03*
X554000Y1795524D02*
D03*
X541500Y1770524D02*
D03*
X554000Y1745524D02*
D03*
X541500Y1720524D02*
D03*
X529000Y1895524D02*
D03*
X516500Y1870524D02*
D03*
X529000Y1845524D02*
D03*
X516500Y1820524D02*
D03*
X529000Y1795524D02*
D03*
X516500Y1770524D02*
D03*
X529000Y1745524D02*
D03*
X516500Y1720524D02*
D03*
X504000Y1895524D02*
D03*
X491500Y1870524D02*
D03*
X504000Y1845524D02*
D03*
X491500Y1820524D02*
D03*
X504000Y1795524D02*
D03*
X491500Y1720524D02*
D03*
X479000Y1895524D02*
D03*
X466500Y1870524D02*
D03*
X479000Y1845524D02*
D03*
X466500Y1820524D02*
D03*
X479000Y1795524D02*
D03*
X466500Y1720524D02*
D03*
X454000Y1895524D02*
D03*
X441500Y1870524D02*
D03*
X454000Y1845524D02*
D03*
X441500Y1820524D02*
D03*
X454000Y1795524D02*
D03*
X441500Y1770524D02*
D03*
X454000Y1745524D02*
D03*
X441500Y1720524D02*
D03*
X429000Y1895524D02*
D03*
X416500Y1870524D02*
D03*
X429000Y1845524D02*
D03*
X416500Y1370524D02*
D03*
Y1270524D02*
D03*
Y1220524D02*
D03*
X404000Y1895524D02*
D03*
X391500Y1870524D02*
D03*
X404000Y1845524D02*
D03*
X391500Y1370524D02*
D03*
X404000Y1345524D02*
D03*
Y1295524D02*
D03*
X391500Y1270524D02*
D03*
X404000Y1245524D02*
D03*
X391500Y1220524D02*
D03*
X379000Y1895524D02*
D03*
X366500Y1870524D02*
D03*
X379000Y1845524D02*
D03*
X366500Y1370524D02*
D03*
X379000Y1345524D02*
D03*
Y1295524D02*
D03*
X366500Y1270524D02*
D03*
X379000Y1245524D02*
D03*
X366500Y1220524D02*
D03*
X354000Y1895524D02*
D03*
X341500Y1870524D02*
D03*
X354000Y1845524D02*
D03*
X341500Y1370524D02*
D03*
X354000Y1345524D02*
D03*
Y1295524D02*
D03*
X341500Y1270524D02*
D03*
X354000Y1245524D02*
D03*
X341500Y1220524D02*
D03*
X329000Y1895524D02*
D03*
Y1845524D02*
D03*
X316500Y1370524D02*
D03*
X329000Y1345524D02*
D03*
Y1295524D02*
D03*
X316500Y1270524D02*
D03*
X329000Y1245524D02*
D03*
X304000Y1895524D02*
D03*
X291500Y1870524D02*
D03*
X304000Y1845524D02*
D03*
X291500Y1820524D02*
D03*
X304000Y1795524D02*
D03*
X291500Y1770524D02*
D03*
X304000Y1745524D02*
D03*
X291500Y1720524D02*
D03*
X304000Y1695524D02*
D03*
X291500Y1670524D02*
D03*
X304000Y1645524D02*
D03*
X291500Y1620524D02*
D03*
X304000Y1595524D02*
D03*
X291500Y1570524D02*
D03*
X304000Y1545524D02*
D03*
X291500Y1520524D02*
D03*
X304000Y1495524D02*
D03*
Y1445524D02*
D03*
X291500Y1420524D02*
D03*
X304000Y1395524D02*
D03*
X291500Y1370524D02*
D03*
X304000Y1345524D02*
D03*
Y1295524D02*
D03*
X291500Y1270524D02*
D03*
X304000Y1245524D02*
D03*
X279000Y1895524D02*
D03*
X266500Y1870524D02*
D03*
X279000Y1845524D02*
D03*
X266500Y1820524D02*
D03*
X279000Y1795524D02*
D03*
X266500Y1770524D02*
D03*
X279000Y1745524D02*
D03*
X266500Y1720524D02*
D03*
X279000Y1695524D02*
D03*
X266500Y1670524D02*
D03*
X279000Y1645524D02*
D03*
X266500Y1620524D02*
D03*
X279000Y1595524D02*
D03*
X266500Y1570524D02*
D03*
X279000Y1545524D02*
D03*
X266500Y1520524D02*
D03*
X279000Y1495524D02*
D03*
X266500Y1470524D02*
D03*
X279000Y1445524D02*
D03*
X266500Y1420524D02*
D03*
X279000Y1395524D02*
D03*
X266500Y1370524D02*
D03*
X279000Y1345524D02*
D03*
Y1295524D02*
D03*
X266500Y1270524D02*
D03*
X279000Y1245524D02*
D03*
X266500Y1220524D02*
D03*
X254000Y1895524D02*
D03*
X241500Y1870524D02*
D03*
X254000Y1845524D02*
D03*
X241500Y1820524D02*
D03*
X254000Y1795524D02*
D03*
Y1745524D02*
D03*
X241500Y1720524D02*
D03*
X254000Y1695524D02*
D03*
X241500Y1670524D02*
D03*
X254000Y1645524D02*
D03*
X241500Y1620524D02*
D03*
X254000Y1595524D02*
D03*
X241500Y1570524D02*
D03*
X254000Y1545524D02*
D03*
X241500Y1520524D02*
D03*
X254000Y1495524D02*
D03*
X241500Y1470524D02*
D03*
X254000Y1445524D02*
D03*
X241500Y1420524D02*
D03*
X254000Y1395524D02*
D03*
X241500Y1370524D02*
D03*
X254000Y1345524D02*
D03*
Y1295524D02*
D03*
X241500Y1270524D02*
D03*
X254000Y1245524D02*
D03*
X229000Y1895524D02*
D03*
X216500Y1870524D02*
D03*
X229000Y1845524D02*
D03*
X216500Y1820524D02*
D03*
X229000Y1795524D02*
D03*
X216500Y1720524D02*
D03*
X229000Y1695524D02*
D03*
X216500Y1670524D02*
D03*
X229000Y1595524D02*
D03*
X216500Y1570524D02*
D03*
X229000Y1545524D02*
D03*
X216500Y1520524D02*
D03*
X229000Y1495524D02*
D03*
X216500Y1470524D02*
D03*
X229000Y1445524D02*
D03*
X216500Y1420524D02*
D03*
X229000Y1395524D02*
D03*
X216500Y1370524D02*
D03*
X229000Y1345524D02*
D03*
Y1295524D02*
D03*
X216500Y1270524D02*
D03*
X229000Y1245524D02*
D03*
X204000Y1895524D02*
D03*
X191500Y1870524D02*
D03*
X204000Y1845524D02*
D03*
X191500Y1820524D02*
D03*
X204000Y1795524D02*
D03*
X191500Y1770524D02*
D03*
Y1720524D02*
D03*
X204000Y1695524D02*
D03*
X191500Y1670524D02*
D03*
X204000Y1595524D02*
D03*
X191500Y1570524D02*
D03*
X204000Y1545524D02*
D03*
Y1495524D02*
D03*
X191500Y1470524D02*
D03*
X204000Y1445524D02*
D03*
Y1395524D02*
D03*
X191500Y1370524D02*
D03*
X204000Y1345524D02*
D03*
Y1295524D02*
D03*
Y1245524D02*
D03*
X179000Y1895524D02*
D03*
X166500Y1870524D02*
D03*
X179000Y1845524D02*
D03*
Y1795524D02*
D03*
Y1745524D02*
D03*
Y1695524D02*
D03*
X166500Y1670524D02*
D03*
X179000Y1645524D02*
D03*
X166500Y1570524D02*
D03*
X179000Y1545524D02*
D03*
X166500Y1470524D02*
D03*
X179000Y1445524D02*
D03*
Y1395524D02*
D03*
X154000Y1895524D02*
D03*
X141500Y1870524D02*
D03*
X154000Y1845524D02*
D03*
Y1645524D02*
D03*
X141500Y1570524D02*
D03*
X154000Y1545524D02*
D03*
X141500Y1470524D02*
D03*
X154000Y1445524D02*
D03*
Y1395524D02*
D03*
X129000Y1895524D02*
D03*
X116500Y1870524D02*
D03*
X129000Y1845524D02*
D03*
X104000Y1895524D02*
D03*
X91500Y1870524D02*
D03*
X104000Y1845524D02*
D03*
X79000Y1895524D02*
D03*
X66500Y1870524D02*
D03*
X79000Y1845524D02*
D03*
X54000Y1895524D02*
D03*
X41500Y1870524D02*
D03*
X54000Y1845524D02*
D03*
X29000Y1895524D02*
D03*
X16500Y1870524D02*
D03*
X29000Y1845524D02*
D03*
X4000Y1895524D02*
D03*
X-8500Y1870524D02*
D03*
X4000Y1845524D02*
D03*
X-8500Y1820524D02*
D03*
X4000Y1795524D02*
D03*
X-8500Y1770524D02*
D03*
X4000Y1745524D02*
D03*
X-8500Y1720524D02*
D03*
X-21000Y1895524D02*
D03*
X-33500Y1870524D02*
D03*
X-21000Y1845524D02*
D03*
X-33500Y1820524D02*
D03*
X-21000Y1795524D02*
D03*
X-33500Y1720524D02*
D03*
X-46000Y1895524D02*
D03*
X-58500Y1870524D02*
D03*
X-46000Y1845524D02*
D03*
X-58500Y1820524D02*
D03*
X-46000Y1795524D02*
D03*
X-58500Y1720524D02*
D03*
X-71000Y1895524D02*
D03*
X-83500Y1870524D02*
D03*
X-71000Y1845524D02*
D03*
X-83500Y1820524D02*
D03*
X-71000Y1795524D02*
D03*
X-83500Y1770524D02*
D03*
X-71000Y1745524D02*
D03*
X-83500Y1720524D02*
D03*
X-133500Y1470524D02*
D03*
X-196000Y1895524D02*
D03*
Y1845524D02*
D03*
X-208500Y1820524D02*
D03*
X-196000Y1795524D02*
D03*
X-208500Y1770524D02*
D03*
X-196000Y1745524D02*
D03*
X-208500Y1720524D02*
D03*
X-196000Y1695524D02*
D03*
X-208500Y1670524D02*
D03*
X-196000Y1645524D02*
D03*
X-208500Y1620524D02*
D03*
X-196000Y1595524D02*
D03*
X-221000Y1895524D02*
D03*
X-233500Y1870524D02*
D03*
X-221000Y1845524D02*
D03*
X-233500Y1820524D02*
D03*
X-221000Y1795524D02*
D03*
X-233500Y1770524D02*
D03*
X-221000Y1745524D02*
D03*
X-233500Y1720524D02*
D03*
X-221000Y1695524D02*
D03*
X-233500Y1670524D02*
D03*
X-221000Y1645524D02*
D03*
X-233500Y1620524D02*
D03*
X-221000Y1595524D02*
D03*
X-246000Y1845524D02*
D03*
X-258500Y1820524D02*
D03*
X-246000Y1795524D02*
D03*
X-258500Y1770524D02*
D03*
X-246000Y1745524D02*
D03*
X-258500Y1720524D02*
D03*
X-246000Y1695524D02*
D03*
X-258500Y1670524D02*
D03*
X-246000Y1645524D02*
D03*
X-258500Y1620524D02*
D03*
X-246000Y1595524D02*
D03*
X-258500Y1570524D02*
D03*
X-246000Y1545524D02*
D03*
X-258500Y1520524D02*
D03*
X-246000Y1495524D02*
D03*
X-258500Y1470524D02*
D03*
X-246000Y1445524D02*
D03*
X-258500Y1420524D02*
D03*
X-283500Y1820524D02*
D03*
X-271000Y1795524D02*
D03*
X-283500Y1770524D02*
D03*
X-271000Y1745524D02*
D03*
X-283500Y1720524D02*
D03*
X-271000Y1695524D02*
D03*
X-283500Y1670524D02*
D03*
X-271000Y1645524D02*
D03*
X-283500Y1620524D02*
D03*
X-271000Y1595524D02*
D03*
X-283500Y1570524D02*
D03*
X-271000Y1545524D02*
D03*
X-283500Y1520524D02*
D03*
X-271000Y1495524D02*
D03*
X-283500Y1470524D02*
D03*
X-271000Y1445524D02*
D03*
X-283500Y1420524D02*
D03*
X-308500Y1820524D02*
D03*
X-296000Y1795524D02*
D03*
X-308500Y1770524D02*
D03*
X-296000Y1745524D02*
D03*
X-308500Y1720524D02*
D03*
X-296000Y1695524D02*
D03*
X-308500Y1670524D02*
D03*
X-296000Y1645524D02*
D03*
X-308500Y1620524D02*
D03*
X-296000Y1595524D02*
D03*
X-308500Y1570524D02*
D03*
X-296000Y1545524D02*
D03*
X-308500Y1520524D02*
D03*
X-296000Y1495524D02*
D03*
X-308500Y1470524D02*
D03*
X-296000Y1445524D02*
D03*
X-308500Y1420524D02*
D03*
X72000Y1143000D02*
D03*
X137500Y820000D02*
D03*
X507500Y294069D02*
D03*
X-176000Y38000D02*
D03*
X-84000Y962000D02*
D03*
X-190000Y813000D02*
D03*
X-160000Y827000D02*
D03*
X139000Y354000D02*
D03*
X-197469Y123500D02*
D03*
X-189969Y131000D02*
D03*
X-182469Y123500D02*
D03*
Y138500D02*
D03*
X-197469D02*
D03*
X139580Y410000D02*
D03*
X73000Y68000D02*
D03*
X-27000Y68000D02*
D03*
X90000Y296000D02*
D03*
X-43021Y152890D02*
D03*
X-30000Y225400D02*
D03*
X64000Y233000D02*
D03*
X290000Y329676D02*
D03*
X308047Y298000D02*
D03*
X277000Y284000D02*
D03*
X120000D02*
D03*
X100000Y270953D02*
D03*
Y232000D02*
D03*
X118590Y243000D02*
D03*
X85000Y174000D02*
D03*
X48000Y116000D02*
D03*
X57000Y108000D02*
D03*
X40000Y169000D02*
D03*
X55000Y340000D02*
D03*
Y290000D02*
D03*
X-98500Y77000D02*
D03*
X-117000D02*
D03*
X-228000Y101000D02*
D03*
X-120000Y158000D02*
D03*
X-172919Y166500D02*
D03*
X-246469Y195500D02*
D03*
X-223969Y43000D02*
D03*
X-241469D02*
D03*
X-228000Y156000D02*
D03*
X-132500Y2000D02*
D03*
X-143500Y-56000D02*
D03*
X-153000D02*
D03*
X102000Y350000D02*
D03*
X128000Y326000D02*
D03*
X216000Y367000D02*
D03*
X178000Y379277D02*
D03*
X126869D02*
D03*
X10000Y383000D02*
D03*
X123590Y206000D02*
D03*
X22000Y255454D02*
D03*
X29000Y152000D02*
D03*
X69000Y112000D02*
D03*
X78000Y231000D02*
D03*
X124000Y177000D02*
D03*
X198000Y360000D02*
D03*
X185000Y393000D02*
D03*
Y360000D02*
D03*
X137500Y782500D02*
D03*
X-147500Y766000D02*
D03*
X185000Y720000D02*
D03*
X157000Y925000D02*
D03*
Y914000D02*
D03*
X-60000Y982500D02*
D03*
X-180000Y735000D02*
D03*
X-165750Y1464500D02*
D03*
X-111000Y903000D02*
D03*
X133933Y772500D02*
D03*
X132500Y754000D02*
D03*
X477500Y1110000D02*
D03*
X-65000Y825000D02*
D03*
X52500Y923000D02*
D03*
X64000Y893000D02*
D03*
X71000Y887000D02*
D03*
X92000Y791000D02*
D03*
X46000Y825000D02*
D03*
X265000Y810000D02*
D03*
X10000Y794500D02*
D03*
X-16000Y802500D02*
D03*
X-30000D02*
D03*
X173590Y121953D02*
D03*
X-64000Y850000D02*
D03*
X-180000Y794547D02*
D03*
X-118000Y723547D02*
D03*
X-95000D02*
D03*
X-77500Y716000D02*
D03*
X68000D02*
D03*
X-60000Y723000D02*
D03*
X211500Y782500D02*
D03*
Y800000D02*
D03*
Y817500D02*
D03*
X211000Y867500D02*
D03*
X309000Y792500D02*
D03*
Y775500D02*
D03*
X-60000Y764000D02*
D03*
X129000Y791000D02*
D03*
X5500Y695500D02*
D03*
X65500Y651000D02*
D03*
X-22500Y666000D02*
D03*
X309000Y810000D02*
D03*
X126000Y945500D02*
D03*
X490750Y1226500D02*
D03*
X485500Y1375000D02*
D03*
X0Y1030000D02*
D03*
X60000D02*
D03*
X40000D02*
D03*
X157000Y948000D02*
D03*
X211000Y834000D02*
D03*
X91090Y1335000D02*
D03*
X312500Y1172500D02*
D03*
Y1192500D02*
D03*
X537000Y1332500D02*
D03*
Y1312500D02*
D03*
X-139469Y1450469D02*
D03*
X285000Y735000D02*
D03*
X316000Y748000D02*
D03*
X222000Y727500D02*
D03*
X170000Y867500D02*
D03*
X68000Y839000D02*
D03*
X100000Y822000D02*
D03*
X111000Y834000D02*
D03*
X65000Y817500D02*
D03*
X76000Y817000D02*
D03*
X137500Y795000D02*
D03*
X32593Y730000D02*
D03*
X-14047D02*
D03*
X29590Y756000D02*
D03*
X-85000Y813000D02*
D03*
X-50000Y811000D02*
D03*
X-65000Y813000D02*
D03*
X91090Y977500D02*
D03*
X133933Y855000D02*
D03*
X-34698Y467500D02*
D03*
X317500Y170000D02*
D03*
Y145000D02*
D03*
X432000Y170000D02*
D03*
X358000Y185000D02*
D03*
X460000Y212000D02*
D03*
X529000Y219000D02*
D03*
X280000Y165000D02*
D03*
Y205000D02*
D03*
Y154500D02*
D03*
X287500Y171953D02*
D03*
X443000Y331000D02*
D03*
X438000Y266000D02*
D03*
X465000Y193000D02*
D03*
X280000Y142453D02*
D03*
X637500Y167500D02*
D03*
X280000Y130000D02*
D03*
X637500Y145000D02*
D03*
Y120000D02*
D03*
X392500Y35500D02*
D03*
X327500Y67500D02*
D03*
X326500Y54500D02*
D03*
X653000Y35500D02*
D03*
X631000Y47000D02*
D03*
X364000Y-17000D02*
D03*
X542000Y14000D02*
D03*
X590000Y17000D02*
D03*
X541000Y57499D02*
D03*
X625500Y83000D02*
D03*
X386000Y-48500D02*
D03*
Y-59500D02*
D03*
X543918Y-48500D02*
D03*
Y-59500D02*
D03*
X384000Y238000D02*
D03*
X425000Y134500D02*
D03*
Y123499D02*
D03*
X456000Y319000D02*
D03*
X516600Y470000D02*
D03*
X567400D02*
D03*
X45500Y651000D02*
D03*
X542000Y285000D02*
D03*
X554700D02*
D03*
X593038Y308962D02*
D03*
X624000Y275000D02*
D03*
X651000Y345000D02*
D03*
X638000Y318826D02*
D03*
X583000Y352500D02*
D03*
X115000Y344840D02*
D03*
X167000Y207000D02*
D03*
X-28550Y336000D02*
D03*
Y350000D02*
D03*
X-141000Y324126D02*
D03*
X-34698Y390000D02*
D03*
X11590Y154500D02*
D03*
X69158Y98000D02*
D03*
Y86000D02*
D03*
X-182469Y298000D02*
D03*
X-202000Y308631D02*
D03*
X-260000Y235500D02*
D03*
X-157000D02*
D03*
X-211000Y252000D02*
D03*
X-197000Y159000D02*
D03*
X-117000Y118500D02*
D03*
X-176000Y-56000D02*
D03*
X-166500D02*
D03*
X168590Y161953D02*
D03*
X188000Y232000D02*
D03*
X57000Y442277D02*
D03*
X255000Y428000D02*
D03*
X563000Y-6000D02*
D03*
X-47501Y982502D02*
D03*
X-159000Y944000D02*
D03*
X-86000Y926000D02*
D03*
X170000Y757000D02*
D03*
X333000Y632500D02*
D03*
X167340Y851000D02*
D03*
X240000Y720000D02*
D03*
X273000Y851000D02*
D03*
X257000Y722500D02*
D03*
X248000Y711000D02*
D03*
X182000Y695000D02*
D03*
X-2500Y918000D02*
D03*
Y908000D02*
D03*
Y898000D02*
D03*
Y888000D02*
D03*
Y878000D02*
D03*
X-12500Y888000D02*
D03*
Y898000D02*
D03*
Y908000D02*
D03*
Y918000D02*
D03*
X-22500Y858000D02*
D03*
Y848000D02*
D03*
Y838000D02*
D03*
Y868000D02*
D03*
Y878000D02*
D03*
Y888000D02*
D03*
Y898000D02*
D03*
Y908000D02*
D03*
Y918000D02*
D03*
X126000Y876161D02*
D03*
X-12500Y878000D02*
D03*
Y868000D02*
D03*
Y848000D02*
D03*
Y858000D02*
D03*
Y838000D02*
D03*
X-2500Y848000D02*
D03*
Y858000D02*
D03*
Y838000D02*
D03*
Y868000D02*
D03*
X267000Y695000D02*
D03*
X-214000Y346660D02*
D03*
X-141000Y354000D02*
D03*
X91071Y1314929D02*
D03*
X-100000Y870000D02*
D03*
X-166000Y886000D02*
D03*
X-93000Y861000D02*
D03*
X-170000Y858000D02*
D03*
X-167500Y932500D02*
D03*
X-38000Y950500D02*
D03*
X-30000Y972500D02*
D03*
X-123000Y99000D02*
D03*
X-164000Y108000D02*
D03*
X173590Y75410D02*
D03*
X188000Y270000D02*
D03*
X-224000Y129000D02*
D03*
X-147500Y50500D02*
D03*
X396000Y242000D02*
D03*
X441000D02*
D03*
M02*
