G04 Layer_Color=8388736*
%FSLAX44Y44*%
%MOMM*%
G71*
G01*
G75*
%ADD12C,1.0000*%
%ADD71C,2.2000*%
%ADD72R,2.2000X2.2000*%
%ADD77C,0.7000*%
%ADD83R,1.9000X2.7000*%
%ADD84R,1.0500X1.0500*%
%ADD85C,1.2000*%
%ADD86R,1.0500X1.0500*%
%ADD87R,1.7000X0.9000*%
%ADD88R,0.9000X1.7000*%
%ADD89R,0.9000X1.2000*%
%ADD90O,0.5000X1.6000*%
%ADD91O,1.6000X0.5000*%
%ADD92R,1.4500X1.8000*%
%ADD93R,1.2000X1.4500*%
%ADD94R,0.7500X1.2000*%
%ADD95R,2.7000X2.7000*%
%ADD96R,0.8000X0.4800*%
%ADD97R,0.4800X0.8000*%
%ADD98R,1.6000X2.3000*%
%ADD99R,1.2000X1.8000*%
%ADD100R,2.7000X1.9000*%
%ADD101R,2.8000X1.3000*%
%ADD102R,2.2000X3.4000*%
%ADD103R,0.9600X2.6000*%
G04:AMPARAMS|DCode=104|XSize=1.75mm|YSize=0.8mm|CornerRadius=0.4mm|HoleSize=0mm|Usage=FLASHONLY|Rotation=180.000|XOffset=0mm|YOffset=0mm|HoleType=Round|Shape=RoundedRectangle|*
%AMROUNDEDRECTD104*
21,1,1.7500,0.0000,0,0,180.0*
21,1,0.9500,0.8000,0,0,180.0*
1,1,0.8000,-0.4750,0.0000*
1,1,0.8000,0.4750,0.0000*
1,1,0.8000,0.4750,0.0000*
1,1,0.8000,-0.4750,0.0000*
%
%ADD104ROUNDEDRECTD104*%
%ADD105R,1.2000X0.9000*%
%ADD106R,2.3000X1.6000*%
%ADD107R,1.3000X2.8000*%
%ADD108R,1.2000X1.7000*%
%ADD109R,5.2000X5.2000*%
%ADD110R,1.2000X0.9500*%
%ADD111R,1.2000X0.8000*%
%ADD112R,3.4000X2.0000*%
%ADD113R,0.9500X1.2000*%
%ADD114R,0.8000X1.2000*%
%ADD115R,1.7000X3.5500*%
%ADD116R,4.4000X2.3000*%
G04:AMPARAMS|DCode=117|XSize=1.75mm|YSize=0.8mm|CornerRadius=0.4mm|HoleSize=0mm|Usage=FLASHONLY|Rotation=90.000|XOffset=0mm|YOffset=0mm|HoleType=Round|Shape=RoundedRectangle|*
%AMROUNDEDRECTD117*
21,1,1.7500,0.0000,0,0,90.0*
21,1,0.9500,0.8000,0,0,90.0*
1,1,0.8000,0.0000,0.4750*
1,1,0.8000,0.0000,-0.4750*
1,1,0.8000,0.0000,-0.4750*
1,1,0.8000,0.0000,0.4750*
%
%ADD117ROUNDEDRECTD117*%
%ADD118R,1.4500X1.2000*%
%ADD119R,0.9000X0.4500*%
%ADD120R,2.0000X0.4500*%
%ADD121R,0.4500X0.9000*%
%ADD122R,1.7000X0.4500*%
%ADD123R,3.3500X9.5800*%
%ADD124R,0.7000X4.0300*%
%ADD125C,2.0000*%
%ADD126R,1.5500X1.8500*%
%ADD127R,0.5000X1.0000*%
%ADD128R,0.5032X1.0032*%
%ADD129R,0.6064X1.5462*%
%ADD130R,2.0034X2.1050*%
%ADD131R,0.7000X0.6000*%
%ADD132C,2.2320*%
%ADD133C,7.7000*%
%ADD134C,1.9000*%
%ADD135R,1.9000X1.9000*%
%ADD136R,2.2000X2.2000*%
%ADD137O,2.4000X1.6000*%
%ADD138C,2.4000*%
%ADD139R,2.4000X2.4000*%
%ADD140O,1.2500X1.4500*%
%ADD141O,1.2000X2.1000*%
%ADD142C,4.2000*%
G04:AMPARAMS|DCode=143|XSize=4.2mm|YSize=4.2mm|CornerRadius=1.1mm|HoleSize=0mm|Usage=FLASHONLY|Rotation=180.000|XOffset=0mm|YOffset=0mm|HoleType=Round|Shape=RoundedRectangle|*
%AMROUNDEDRECTD143*
21,1,4.2000,2.0000,0,0,180.0*
21,1,2.0000,4.2000,0,0,180.0*
1,1,2.2000,-1.0000,1.0000*
1,1,2.2000,1.0000,1.0000*
1,1,2.2000,1.0000,-1.0000*
1,1,2.2000,-1.0000,-1.0000*
%
%ADD143ROUNDEDRECTD143*%
%ADD144C,0.9000*%
G36*
X573500Y1543750D02*
X578500D01*
Y1538750D01*
X573500D01*
Y1536500D01*
X526500D01*
Y1538750D01*
X521500D01*
Y1543750D01*
X526500D01*
Y1576250D01*
X573500D01*
Y1543750D01*
D02*
G37*
G36*
X-83750Y1576000D02*
X-51250D01*
Y1529000D01*
X-83750D01*
Y1524000D01*
X-88750D01*
Y1529000D01*
X-91000D01*
Y1576000D01*
X-88750D01*
Y1581000D01*
X-83750D01*
Y1576000D01*
D02*
G37*
G36*
X580000Y1196250D02*
X585000D01*
Y1191250D01*
X580000D01*
Y1189000D01*
X533000D01*
Y1191250D01*
X528000D01*
Y1196250D01*
X533000D01*
Y1228750D01*
X580000D01*
Y1196250D01*
D02*
G37*
G36*
X94590D02*
X99590D01*
Y1191250D01*
X94590D01*
Y1189000D01*
X47590D01*
Y1191250D01*
X42590D01*
Y1196250D01*
X47590D01*
Y1228750D01*
X94590D01*
Y1196250D01*
D02*
G37*
G36*
X173750Y1178500D02*
X176000D01*
Y1131500D01*
X173750D01*
Y1126500D01*
X168750D01*
Y1131500D01*
X136250D01*
Y1178500D01*
X168750D01*
Y1183500D01*
X173750D01*
Y1178500D01*
D02*
G37*
G36*
X441250Y1172500D02*
X473750D01*
Y1125500D01*
X441250D01*
Y1120500D01*
X436250D01*
Y1125500D01*
X434000D01*
Y1172500D01*
X436250D01*
Y1177500D01*
X441250D01*
Y1172500D01*
D02*
G37*
G36*
X-118246Y-49498D02*
X-118244Y-49498D01*
X-118182Y-49502D01*
X-118118Y-49507D01*
X-118116Y-49507D01*
X-118113Y-49507D01*
X-118054Y-49519D01*
X-117990Y-49532D01*
X-117987Y-49533D01*
X-117985Y-49533D01*
X-117929Y-49553D01*
X-117865Y-49574D01*
X-117863Y-49575D01*
X-117861Y-49576D01*
X-117805Y-49604D01*
X-117748Y-49632D01*
X-117746Y-49634D01*
X-117743Y-49635D01*
X-117692Y-49670D01*
X-117639Y-49705D01*
X-117637Y-49707D01*
X-117635Y-49708D01*
X-117589Y-49749D01*
X-117540Y-49791D01*
X-117539Y-49793D01*
X-117537Y-49795D01*
X-117497Y-49841D01*
X-117454Y-49890D01*
X-117452Y-49892D01*
X-117451Y-49894D01*
X-117417Y-49946D01*
X-117381Y-49999D01*
X-117380Y-50001D01*
X-117379Y-50003D01*
X-117351Y-50060D01*
X-117323Y-50117D01*
X-117322Y-50119D01*
X-117321Y-50121D01*
X-117302Y-50179D01*
X-117281Y-50241D01*
X-117280Y-50243D01*
X-117280Y-50246D01*
X-117268Y-50305D01*
X-117255Y-50369D01*
X-117255Y-50372D01*
X-117255Y-50374D01*
X-117251Y-50436D01*
X-117247Y-50500D01*
X-117247Y-50503D01*
X-117247Y-50505D01*
X-117251Y-50567D01*
X-117255Y-50631D01*
X-117256Y-50633D01*
X-117256Y-50636D01*
X-117268Y-50695D01*
X-117281Y-50759D01*
X-117282Y-50762D01*
X-117282Y-50764D01*
X-117302Y-50820D01*
X-117323Y-50883D01*
X-117324Y-50886D01*
X-117325Y-50888D01*
X-117353Y-50944D01*
X-117381Y-51001D01*
X-117382Y-51003D01*
X-117384Y-51006D01*
X-117419Y-51057D01*
X-117454Y-51110D01*
X-117456Y-51112D01*
X-117457Y-51114D01*
X-117499Y-51161D01*
X-117540Y-51209D01*
X-117542Y-51210D01*
X-117544Y-51212D01*
X-120277Y-53917D01*
X-120249Y-66084D01*
X-117541Y-68791D01*
X-117540Y-68791D01*
X-117540Y-68791D01*
X-117487Y-68852D01*
X-117454Y-68890D01*
X-117454Y-68890D01*
X-117454Y-68890D01*
X-117425Y-68933D01*
X-117381Y-68999D01*
X-117381Y-68999D01*
D01*
X-117376Y-69008D01*
X-117323Y-69116D01*
X-117323Y-69116D01*
X-117323Y-69117D01*
X-117297Y-69194D01*
X-117281Y-69240D01*
X-117281Y-69241D01*
X-117281Y-69241D01*
X-117272Y-69284D01*
X-117255Y-69369D01*
X-117247Y-69500D01*
Y-69500D01*
Y-69500D01*
X-117251Y-69560D01*
X-117255Y-69631D01*
X-117255Y-69631D01*
Y-69631D01*
X-117281Y-69759D01*
X-117313Y-69855D01*
X-117323Y-69883D01*
X-117323Y-69883D01*
X-117323Y-69883D01*
X-117350Y-69938D01*
X-117381Y-70001D01*
X-117381Y-70001D01*
X-117381Y-70001D01*
X-117454Y-70110D01*
X-117512Y-70176D01*
X-117540Y-70209D01*
X-117540Y-70209D01*
X-117540Y-70209D01*
X-117601Y-70262D01*
X-117639Y-70295D01*
X-117639Y-70295D01*
X-117639Y-70295D01*
X-117682Y-70324D01*
X-117748Y-70368D01*
X-117748Y-70368D01*
D01*
X-117758Y-70373D01*
X-117865Y-70426D01*
X-117865Y-70426D01*
X-117865Y-70426D01*
X-117943Y-70452D01*
X-117989Y-70468D01*
X-117990Y-70468D01*
X-117990Y-70468D01*
X-118033Y-70477D01*
X-118118Y-70494D01*
X-118249Y-70502D01*
X-118249D01*
X-118249D01*
X-133997D01*
X-134048Y-70499D01*
X-134128Y-70494D01*
X-134128Y-70494D01*
X-134128D01*
X-134152Y-70489D01*
X-134256Y-70468D01*
X-134256Y-70468D01*
D01*
X-134381Y-70426D01*
X-134456Y-70389D01*
X-134498Y-70368D01*
X-134498Y-70368D01*
X-134498Y-70368D01*
X-134535Y-70343D01*
X-134607Y-70295D01*
X-134607Y-70295D01*
X-134607Y-70295D01*
X-134650Y-70257D01*
X-134705Y-70209D01*
X-134705Y-70209D01*
X-134706Y-70209D01*
X-134754Y-70153D01*
X-134792Y-70110D01*
X-134792Y-70110D01*
X-134792Y-70110D01*
X-134840Y-70038D01*
X-134865Y-70001D01*
X-134865Y-70001D01*
X-134865Y-70001D01*
X-134886Y-69959D01*
X-134923Y-69884D01*
X-134965Y-69759D01*
D01*
X-134965Y-69759D01*
X-134986Y-69656D01*
X-134991Y-69631D01*
Y-69631D01*
X-134991Y-69631D01*
X-134996Y-69552D01*
X-134999Y-69500D01*
X-135002Y-50500D01*
Y-50500D01*
Y-50500D01*
X-134999Y-50449D01*
X-134994Y-50369D01*
X-134993Y-50369D01*
Y-50369D01*
X-134989Y-50345D01*
X-134968Y-50241D01*
X-134968Y-50241D01*
D01*
X-134926Y-50117D01*
X-134889Y-50041D01*
X-134868Y-49999D01*
X-134868Y-49999D01*
X-134868Y-49999D01*
X-134843Y-49962D01*
X-134795Y-49890D01*
X-134795Y-49890D01*
X-134795Y-49890D01*
X-134757Y-49847D01*
X-134709Y-49791D01*
X-134709Y-49791D01*
X-134709Y-49791D01*
X-134654Y-49743D01*
X-134610Y-49705D01*
X-134610Y-49705D01*
X-134610Y-49705D01*
X-134538Y-49657D01*
X-134501Y-49632D01*
X-134501Y-49632D01*
X-134501Y-49632D01*
X-134459Y-49612D01*
X-134384Y-49574D01*
X-134260Y-49532D01*
D01*
X-134259Y-49532D01*
X-134156Y-49511D01*
X-134131Y-49507D01*
X-134131D01*
X-134131Y-49507D01*
X-134052Y-49501D01*
X-134000Y-49498D01*
X-134000D01*
X-134000D01*
X-118249D01*
X-118246Y-49498D01*
D02*
G37*
G36*
X-185948Y-49501D02*
X-185869Y-49507D01*
X-185869Y-49507D01*
X-185869D01*
X-185844Y-49511D01*
X-185741Y-49532D01*
X-185741Y-49532D01*
D01*
X-185616Y-49574D01*
X-185541Y-49612D01*
X-185499Y-49632D01*
X-185499Y-49632D01*
X-185499Y-49632D01*
X-185462Y-49657D01*
X-185390Y-49705D01*
X-185390Y-49705D01*
X-185390Y-49705D01*
X-185347Y-49743D01*
X-185291Y-49791D01*
X-185291Y-49791D01*
X-185291Y-49791D01*
X-185243Y-49847D01*
X-185205Y-49890D01*
X-185205Y-49890D01*
X-185205Y-49890D01*
X-185157Y-49962D01*
X-185132Y-49999D01*
X-185132Y-49999D01*
X-185132Y-49999D01*
X-185111Y-50041D01*
X-185074Y-50117D01*
X-185032Y-50241D01*
D01*
X-185032Y-50241D01*
X-185011Y-50345D01*
X-185006Y-50369D01*
Y-50369D01*
X-185006Y-50369D01*
X-185001Y-50449D01*
X-184998Y-50500D01*
Y-50500D01*
Y-50500D01*
X-185001Y-69500D01*
X-185004Y-69552D01*
X-185009Y-69631D01*
X-185009Y-69631D01*
Y-69631D01*
X-185014Y-69656D01*
X-185035Y-69759D01*
X-185035Y-69759D01*
D01*
X-185077Y-69884D01*
X-185114Y-69959D01*
X-185135Y-70001D01*
X-185135Y-70001D01*
X-185135Y-70001D01*
X-185160Y-70038D01*
X-185208Y-70110D01*
X-185208Y-70110D01*
X-185208Y-70110D01*
X-185246Y-70153D01*
X-185294Y-70209D01*
X-185294Y-70209D01*
X-185294Y-70209D01*
X-185350Y-70257D01*
X-185393Y-70295D01*
X-185393Y-70295D01*
X-185393Y-70295D01*
X-185465Y-70343D01*
X-185502Y-70368D01*
X-185502Y-70368D01*
X-185502Y-70368D01*
X-185544Y-70389D01*
X-185620Y-70426D01*
X-185744Y-70468D01*
D01*
X-185744Y-70468D01*
X-185848Y-70489D01*
X-185872Y-70494D01*
X-185872D01*
X-185872Y-70494D01*
X-185952Y-70499D01*
X-186003Y-70502D01*
X-201751D01*
X-201751D01*
X-201751D01*
X-201882Y-70494D01*
X-201967Y-70477D01*
X-202010Y-70468D01*
X-202010Y-70468D01*
X-202010Y-70468D01*
X-202057Y-70452D01*
X-202134Y-70426D01*
X-202135Y-70426D01*
X-202135Y-70426D01*
X-202243Y-70373D01*
X-202252Y-70368D01*
D01*
X-202252Y-70368D01*
X-202318Y-70324D01*
X-202361Y-70295D01*
X-202361Y-70295D01*
X-202361Y-70295D01*
X-202399Y-70262D01*
X-202460Y-70209D01*
X-202460Y-70209D01*
X-202460Y-70209D01*
X-202488Y-70176D01*
X-202546Y-70110D01*
X-202619Y-70001D01*
X-202619Y-70001D01*
X-202619Y-70001D01*
X-202650Y-69938D01*
X-202677Y-69883D01*
X-202677Y-69883D01*
X-202677Y-69883D01*
X-202686Y-69855D01*
X-202719Y-69759D01*
X-202745Y-69631D01*
Y-69631D01*
X-202745Y-69631D01*
X-202749Y-69560D01*
X-202753Y-69500D01*
Y-69500D01*
Y-69500D01*
X-202745Y-69369D01*
X-202728Y-69284D01*
X-202719Y-69241D01*
X-202719Y-69241D01*
X-202719Y-69240D01*
X-202703Y-69194D01*
X-202677Y-69117D01*
X-202677Y-69116D01*
X-202677Y-69116D01*
X-202624Y-69008D01*
X-202619Y-68999D01*
D01*
X-202619Y-68999D01*
X-202575Y-68933D01*
X-202546Y-68890D01*
X-202546Y-68890D01*
X-202546Y-68890D01*
X-202513Y-68852D01*
X-202460Y-68791D01*
X-202460Y-68791D01*
X-202460Y-68791D01*
X-199751Y-66084D01*
X-199723Y-53917D01*
X-202456Y-51212D01*
X-202458Y-51210D01*
X-202460Y-51209D01*
X-202501Y-51161D01*
X-202543Y-51114D01*
X-202544Y-51112D01*
X-202546Y-51110D01*
X-202581Y-51057D01*
X-202616Y-51006D01*
X-202617Y-51003D01*
X-202619Y-51001D01*
X-202647Y-50944D01*
X-202675Y-50888D01*
X-202676Y-50886D01*
X-202677Y-50883D01*
X-202698Y-50820D01*
X-202718Y-50764D01*
X-202718Y-50762D01*
X-202719Y-50759D01*
X-202732Y-50695D01*
X-202744Y-50636D01*
X-202744Y-50633D01*
X-202745Y-50631D01*
X-202749Y-50567D01*
X-202753Y-50505D01*
X-202753Y-50503D01*
X-202753Y-50500D01*
X-202749Y-50436D01*
X-202745Y-50374D01*
X-202745Y-50372D01*
X-202745Y-50369D01*
X-202732Y-50305D01*
X-202720Y-50246D01*
X-202719Y-50243D01*
X-202719Y-50241D01*
X-202698Y-50179D01*
X-202679Y-50121D01*
X-202678Y-50119D01*
X-202677Y-50117D01*
X-202649Y-50060D01*
X-202621Y-50003D01*
X-202620Y-50001D01*
X-202619Y-49999D01*
X-202583Y-49946D01*
X-202549Y-49894D01*
X-202548Y-49892D01*
X-202546Y-49890D01*
X-202503Y-49841D01*
X-202463Y-49795D01*
X-202461Y-49793D01*
X-202460Y-49791D01*
X-202411Y-49749D01*
X-202365Y-49708D01*
X-202363Y-49707D01*
X-202361Y-49705D01*
X-202308Y-49670D01*
X-202257Y-49635D01*
X-202254Y-49634D01*
X-202252Y-49632D01*
X-202195Y-49604D01*
X-202139Y-49576D01*
X-202137Y-49575D01*
X-202134Y-49574D01*
X-202071Y-49553D01*
X-202015Y-49533D01*
X-202013Y-49533D01*
X-202010Y-49532D01*
X-201946Y-49519D01*
X-201887Y-49507D01*
X-201884Y-49507D01*
X-201882Y-49507D01*
X-201818Y-49502D01*
X-201756Y-49498D01*
X-201754Y-49498D01*
X-201751Y-49498D01*
X-186000D01*
X-186000D01*
X-186000D01*
X-185948Y-49501D01*
D02*
G37*
D12*
X-23000Y1030000D02*
D03*
X-115000Y396000D02*
D03*
X-129000D02*
D03*
X-143000D02*
D03*
Y409000D02*
D03*
Y422000D02*
D03*
X-129000Y409000D02*
D03*
Y422000D02*
D03*
X-115000D02*
D03*
Y409000D02*
D03*
X19999Y1037502D02*
D03*
X-40000Y1030500D02*
D03*
X576000Y1157500D02*
D03*
X402500Y1129500D02*
D03*
X207500Y1174500D02*
D03*
X90590Y1157500D02*
D03*
X-132500Y18000D02*
D03*
X-148500Y31000D02*
D03*
X-132500D02*
D03*
X-200469Y600000D02*
D03*
X-97500Y973000D02*
D03*
D71*
X420000Y308631D02*
D03*
X-81800Y293000D02*
D03*
X297500Y1477500D02*
D03*
D72*
X420000Y283231D02*
D03*
D77*
X441000Y242000D02*
D03*
X396000D02*
D03*
X-147500Y50500D02*
D03*
X-224000Y129000D02*
D03*
X188000Y270000D02*
D03*
X173590Y75410D02*
D03*
X-164000Y108000D02*
D03*
X-123000Y99000D02*
D03*
X-30000Y972500D02*
D03*
X-38000Y950500D02*
D03*
X-167500Y932500D02*
D03*
X-170000Y858000D02*
D03*
X-93000Y861000D02*
D03*
X-166000Y886000D02*
D03*
X-100000Y870000D02*
D03*
X91071Y1314929D02*
D03*
X-141000Y354000D02*
D03*
X-214000Y346660D02*
D03*
X267000Y695000D02*
D03*
X-2500Y868000D02*
D03*
Y838000D02*
D03*
Y858000D02*
D03*
Y848000D02*
D03*
X-12500Y838000D02*
D03*
Y858000D02*
D03*
Y848000D02*
D03*
Y868000D02*
D03*
Y878000D02*
D03*
X126000Y876161D02*
D03*
X-22500Y918000D02*
D03*
Y908000D02*
D03*
Y898000D02*
D03*
Y888000D02*
D03*
Y878000D02*
D03*
Y868000D02*
D03*
Y838000D02*
D03*
Y848000D02*
D03*
Y858000D02*
D03*
X-12500Y918000D02*
D03*
Y908000D02*
D03*
Y898000D02*
D03*
Y888000D02*
D03*
X-2500Y878000D02*
D03*
Y888000D02*
D03*
Y898000D02*
D03*
Y908000D02*
D03*
Y918000D02*
D03*
X182000Y695000D02*
D03*
X248000Y711000D02*
D03*
X257000Y722500D02*
D03*
X273000Y851000D02*
D03*
X240000Y720000D02*
D03*
X167340Y851000D02*
D03*
X333000Y632500D02*
D03*
X170000Y757000D02*
D03*
X-86000Y926000D02*
D03*
X-159000Y944000D02*
D03*
X-47501Y982502D02*
D03*
X563000Y-6000D02*
D03*
X255000Y428000D02*
D03*
X57000Y442277D02*
D03*
X188000Y232000D02*
D03*
X168590Y161953D02*
D03*
X-166500Y-56000D02*
D03*
X-176000D02*
D03*
X-117000Y118500D02*
D03*
X-197000Y159000D02*
D03*
X-211000Y252000D02*
D03*
X-157000Y235500D02*
D03*
X-260000D02*
D03*
X-202000Y308631D02*
D03*
X-182469Y298000D02*
D03*
X69158Y86000D02*
D03*
Y98000D02*
D03*
X11590Y154500D02*
D03*
X-34698Y390000D02*
D03*
X-141000Y324126D02*
D03*
X-28550Y350000D02*
D03*
Y336000D02*
D03*
X167000Y207000D02*
D03*
X115000Y344840D02*
D03*
X583000Y352500D02*
D03*
X638000Y318826D02*
D03*
X651000Y345000D02*
D03*
X624000Y275000D02*
D03*
X593038Y308962D02*
D03*
X554700Y285000D02*
D03*
X542000D02*
D03*
X45500Y651000D02*
D03*
X567400Y470000D02*
D03*
X516600D02*
D03*
X456000Y319000D02*
D03*
X425000Y123499D02*
D03*
Y134500D02*
D03*
X384000Y238000D02*
D03*
X543918Y-59500D02*
D03*
Y-48500D02*
D03*
X386000Y-59500D02*
D03*
Y-48500D02*
D03*
X625500Y83000D02*
D03*
X541000Y57499D02*
D03*
X590000Y17000D02*
D03*
X542000Y14000D02*
D03*
X364000Y-17000D02*
D03*
X631000Y47000D02*
D03*
X653000Y35500D02*
D03*
X326500Y54500D02*
D03*
X327500Y67500D02*
D03*
X392500Y35500D02*
D03*
X637500Y120000D02*
D03*
Y145000D02*
D03*
X280000Y130000D02*
D03*
X637500Y167500D02*
D03*
X280000Y142453D02*
D03*
X465000Y193000D02*
D03*
X438000Y266000D02*
D03*
X443000Y331000D02*
D03*
X287500Y171953D02*
D03*
X280000Y154500D02*
D03*
Y205000D02*
D03*
Y165000D02*
D03*
X529000Y219000D02*
D03*
X460000Y212000D02*
D03*
X358000Y185000D02*
D03*
X432000Y170000D02*
D03*
X317500Y145000D02*
D03*
Y170000D02*
D03*
X-34698Y467500D02*
D03*
X133933Y855000D02*
D03*
X91090Y977500D02*
D03*
X-65000Y813000D02*
D03*
X-50000Y811000D02*
D03*
X-85000Y813000D02*
D03*
X29590Y756000D02*
D03*
X-14047Y730000D02*
D03*
X32593D02*
D03*
X137500Y795000D02*
D03*
X76000Y817000D02*
D03*
X65000Y817500D02*
D03*
X111000Y834000D02*
D03*
X100000Y822000D02*
D03*
X68000Y839000D02*
D03*
X170000Y867500D02*
D03*
X222000Y727500D02*
D03*
X316000Y748000D02*
D03*
X285000Y735000D02*
D03*
X-139469Y1450469D02*
D03*
X537000Y1312500D02*
D03*
Y1332500D02*
D03*
X312500Y1192500D02*
D03*
Y1172500D02*
D03*
X91090Y1335000D02*
D03*
X211000Y834000D02*
D03*
X157000Y948000D02*
D03*
X40000Y1030000D02*
D03*
X60000D02*
D03*
X0D02*
D03*
X485500Y1375000D02*
D03*
X490750Y1226500D02*
D03*
X126000Y945500D02*
D03*
X309000Y810000D02*
D03*
X-22500Y666000D02*
D03*
X65500Y651000D02*
D03*
X5500Y695500D02*
D03*
X129000Y791000D02*
D03*
X-60000Y764000D02*
D03*
X309000Y775500D02*
D03*
Y792500D02*
D03*
X211000Y867500D02*
D03*
X211500Y817500D02*
D03*
Y800000D02*
D03*
Y782500D02*
D03*
X-60000Y723000D02*
D03*
X68000Y716000D02*
D03*
X-77500D02*
D03*
X-95000Y723547D02*
D03*
X-118000D02*
D03*
X-180000Y794547D02*
D03*
X-64000Y850000D02*
D03*
X173590Y121953D02*
D03*
X-30000Y802500D02*
D03*
X-16000D02*
D03*
X10000Y794500D02*
D03*
X265000Y810000D02*
D03*
X46000Y825000D02*
D03*
X92000Y791000D02*
D03*
X71000Y887000D02*
D03*
X64000Y893000D02*
D03*
X52500Y923000D02*
D03*
X-65000Y825000D02*
D03*
X477500Y1110000D02*
D03*
X132500Y754000D02*
D03*
X133933Y772500D02*
D03*
X-111000Y903000D02*
D03*
X-165750Y1464500D02*
D03*
X-180000Y735000D02*
D03*
X-60000Y982500D02*
D03*
X157000Y914000D02*
D03*
Y925000D02*
D03*
X185000Y720000D02*
D03*
X-147500Y766000D02*
D03*
X137500Y782500D02*
D03*
X185000Y360000D02*
D03*
Y393000D02*
D03*
X198000Y360000D02*
D03*
X124000Y177000D02*
D03*
X78000Y231000D02*
D03*
X69000Y112000D02*
D03*
X29000Y152000D02*
D03*
X22000Y255454D02*
D03*
X123590Y206000D02*
D03*
X10000Y383000D02*
D03*
X126869Y379277D02*
D03*
X178000D02*
D03*
X216000Y367000D02*
D03*
X128000Y326000D02*
D03*
X102000Y350000D02*
D03*
X-153000Y-56000D02*
D03*
X-143500D02*
D03*
X-132500Y2000D02*
D03*
X-228000Y156000D02*
D03*
X-241469Y43000D02*
D03*
X-223969D02*
D03*
X-246469Y195500D02*
D03*
X-172919Y166500D02*
D03*
X-120000Y158000D02*
D03*
X-228000Y101000D02*
D03*
X-117000Y77000D02*
D03*
X-98500D02*
D03*
X55000Y290000D02*
D03*
Y340000D02*
D03*
X40000Y169000D02*
D03*
X57000Y108000D02*
D03*
X48000Y116000D02*
D03*
X85000Y174000D02*
D03*
X118590Y243000D02*
D03*
X100000Y232000D02*
D03*
Y270953D02*
D03*
X120000Y284000D02*
D03*
X277000D02*
D03*
X308047Y298000D02*
D03*
X290000Y329676D02*
D03*
X64000Y233000D02*
D03*
X-30000Y225400D02*
D03*
X-43021Y152890D02*
D03*
X90000Y296000D02*
D03*
X-27000Y68000D02*
D03*
X73000Y68000D02*
D03*
X139580Y410000D02*
D03*
X-197469Y138500D02*
D03*
X-182469D02*
D03*
Y123500D02*
D03*
X-189969Y131000D02*
D03*
X-197469Y123500D02*
D03*
X139000Y354000D02*
D03*
X-160000Y827000D02*
D03*
X-84000Y962000D02*
D03*
X-176000Y38000D02*
D03*
X507500Y294069D02*
D03*
X137500Y820000D02*
D03*
X72000Y1143000D02*
D03*
D83*
X105000Y1680000D02*
D03*
X145000D02*
D03*
X-163700Y1546000D02*
D03*
X-203700D02*
D03*
D84*
X336000Y-17000D02*
D03*
X350000D02*
D03*
X350000Y499D02*
D03*
X336001D02*
D03*
X333000Y91000D02*
D03*
X347000D02*
D03*
X333000Y123499D02*
D03*
X347000D02*
D03*
X333000Y142500D02*
D03*
X347000D02*
D03*
X636470Y35500D02*
D03*
X622470D02*
D03*
X631000Y69000D02*
D03*
X617000D02*
D03*
X619500Y120000D02*
D03*
X605500D02*
D03*
X619500Y145000D02*
D03*
X605500D02*
D03*
X619500Y167500D02*
D03*
X605500D02*
D03*
X609611Y287453D02*
D03*
X623611D02*
D03*
X465000Y266000D02*
D03*
X451000D02*
D03*
X460500Y330931D02*
D03*
X474500D02*
D03*
X78090Y245953D02*
D03*
X64090D02*
D03*
X8000Y242000D02*
D03*
X22000D02*
D03*
X-43000Y207900D02*
D03*
X-57000D02*
D03*
X-43000Y225400D02*
D03*
X-57000D02*
D03*
X-43000Y182900D02*
D03*
X-57000D02*
D03*
X-43021Y165890D02*
D03*
X-57021D02*
D03*
X36047Y91090D02*
D03*
X50047D02*
D03*
X-135000Y158000D02*
D03*
X-149000D02*
D03*
X-243969Y235500D02*
D03*
X-229969D02*
D03*
X-95000Y409000D02*
D03*
X-81000D02*
D03*
X-80500Y445000D02*
D03*
X-94500D02*
D03*
X-220000Y575000D02*
D03*
X-234000D02*
D03*
Y595000D02*
D03*
X-220000D02*
D03*
X244500Y695000D02*
D03*
X230500D02*
D03*
X209500D02*
D03*
X195500D02*
D03*
X103000Y772590D02*
D03*
X117000D02*
D03*
X117000Y791000D02*
D03*
X103000D02*
D03*
X150000Y782500D02*
D03*
X164000D02*
D03*
Y800000D02*
D03*
X150000D02*
D03*
X185000Y834000D02*
D03*
X199000D02*
D03*
X198500Y851000D02*
D03*
X184500D02*
D03*
X185000Y867500D02*
D03*
X199000D02*
D03*
X199590Y887500D02*
D03*
X185590D02*
D03*
X-8500Y678000D02*
D03*
X-22500D02*
D03*
X-8500Y695500D02*
D03*
X-22500D02*
D03*
X19000Y740000D02*
D03*
X5000D02*
D03*
Y756000D02*
D03*
X19000D02*
D03*
X-159500Y905250D02*
D03*
X-145500D02*
D03*
X-70000Y950500D02*
D03*
X-84000D02*
D03*
X-70000Y973000D02*
D03*
X-84000D02*
D03*
X462000Y1375000D02*
D03*
X448000D02*
D03*
X-137000Y99000D02*
D03*
X-151000D02*
D03*
X-242969Y119000D02*
D03*
X-256969D02*
D03*
X-257000Y138500D02*
D03*
X-243000D02*
D03*
Y101000D02*
D03*
X-257000D02*
D03*
X-243000Y156000D02*
D03*
X-257000D02*
D03*
X25590Y166953D02*
D03*
X11590D02*
D03*
X563000Y25000D02*
D03*
X577000D02*
D03*
X563000Y7500D02*
D03*
X577000D02*
D03*
X184500Y737500D02*
D03*
X170500D02*
D03*
X77000Y964500D02*
D03*
X91000D02*
D03*
X77000Y947000D02*
D03*
X91000D02*
D03*
X91000Y931000D02*
D03*
X77000D02*
D03*
X283000Y775500D02*
D03*
X297000D02*
D03*
X283000Y810000D02*
D03*
X297000D02*
D03*
Y792500D02*
D03*
X283000D02*
D03*
X185500Y782500D02*
D03*
X199500D02*
D03*
X185500Y800000D02*
D03*
X199500D02*
D03*
Y817500D02*
D03*
X185500D02*
D03*
X51000Y187000D02*
D03*
X65000D02*
D03*
X96590Y860000D02*
D03*
X110590D02*
D03*
D85*
X343970Y32000D02*
D03*
X553970Y112500D02*
D03*
X487000Y184969D02*
D03*
X91500Y22000D02*
D03*
X109000D02*
D03*
X126500D02*
D03*
X144000D02*
D03*
X179000D02*
D03*
X-109500Y18000D02*
D03*
X-14324Y348000D02*
D03*
Y325000D02*
D03*
X148000Y343334D02*
D03*
X283000Y756000D02*
D03*
X-155649Y336878D02*
D03*
X-155149Y357052D02*
D03*
X22500Y677000D02*
D03*
X90000Y677500D02*
D03*
X45500Y630000D02*
D03*
X-115000Y686092D02*
D03*
X-137000D02*
D03*
X-178000Y905000D02*
D03*
Y886000D02*
D03*
X-188000Y964000D02*
D03*
Y984000D02*
D03*
Y1004000D02*
D03*
Y1024500D02*
D03*
X150000Y753000D02*
D03*
Y719000D02*
D03*
X-0Y979500D02*
D03*
X-261000Y181500D02*
D03*
X-109000Y-8000D02*
D03*
X-149000Y181500D02*
D03*
X-224000Y278000D02*
D03*
X-162000D02*
D03*
X36000Y113137D02*
D03*
X161500Y22000D02*
D03*
X553970Y90499D02*
D03*
Y68499D02*
D03*
X102000Y1000000D02*
D03*
X453999Y185000D02*
D03*
X431969Y185000D02*
D03*
X-127500Y790000D02*
D03*
X343970Y50000D02*
D03*
Y68000D02*
D03*
X369970Y90000D02*
D03*
Y107000D02*
D03*
Y123499D02*
D03*
Y142547D02*
D03*
D86*
X650962Y228000D02*
D03*
Y214000D02*
D03*
X583000Y228000D02*
D03*
Y214000D02*
D03*
X651000Y319000D02*
D03*
Y333000D02*
D03*
X512670Y218953D02*
D03*
Y204953D02*
D03*
X495000Y219000D02*
D03*
Y205000D02*
D03*
X476000Y218953D02*
D03*
Y204953D02*
D03*
X495000Y294000D02*
D03*
Y308000D02*
D03*
X290000Y270000D02*
D03*
Y284000D02*
D03*
X290000Y301676D02*
D03*
Y315676D02*
D03*
X78000Y270000D02*
D03*
Y284000D02*
D03*
X-231469Y195500D02*
D03*
Y181500D02*
D03*
X-202000Y277500D02*
D03*
Y263500D02*
D03*
X-44000Y350000D02*
D03*
Y336000D02*
D03*
X164980Y379277D02*
D03*
Y393277D02*
D03*
X139580Y393277D02*
D03*
Y379277D02*
D03*
X114158Y393277D02*
D03*
Y379277D02*
D03*
X215780Y393277D02*
D03*
Y379277D02*
D03*
X164980Y428277D02*
D03*
Y442277D02*
D03*
X139580Y428277D02*
D03*
Y442277D02*
D03*
X114180Y428277D02*
D03*
Y442277D02*
D03*
X88780Y428277D02*
D03*
Y442277D02*
D03*
X69158Y428277D02*
D03*
Y442277D02*
D03*
X-34698Y405500D02*
D03*
Y419500D02*
D03*
Y452000D02*
D03*
Y438000D02*
D03*
X65500Y663000D02*
D03*
Y677000D02*
D03*
X45500Y663000D02*
D03*
Y677000D02*
D03*
X316000Y735000D02*
D03*
Y721000D02*
D03*
X299000Y735000D02*
D03*
Y721000D02*
D03*
X103000Y754000D02*
D03*
Y740000D02*
D03*
X85500D02*
D03*
Y754000D02*
D03*
X68000Y740000D02*
D03*
Y754000D02*
D03*
X-60000Y749000D02*
D03*
Y735000D02*
D03*
X-77500Y749000D02*
D03*
Y735000D02*
D03*
X-95000Y749000D02*
D03*
Y735000D02*
D03*
X-147500Y794500D02*
D03*
Y780500D02*
D03*
X-127500Y827000D02*
D03*
Y813000D02*
D03*
X-147500Y827000D02*
D03*
Y813000D02*
D03*
X-172000D02*
D03*
Y827000D02*
D03*
X80000Y1014000D02*
D03*
Y1000000D02*
D03*
X60000Y1014000D02*
D03*
Y1000000D02*
D03*
X40000Y1014000D02*
D03*
Y1000000D02*
D03*
X20000D02*
D03*
Y1014000D02*
D03*
X0D02*
D03*
Y1000000D02*
D03*
X-23000D02*
D03*
Y1014000D02*
D03*
X-40000Y1000500D02*
D03*
Y1014500D02*
D03*
X-60000Y1000500D02*
D03*
Y1014500D02*
D03*
X-99000Y1026500D02*
D03*
Y1012500D02*
D03*
X-147500Y63000D02*
D03*
Y77000D02*
D03*
X-187469Y72000D02*
D03*
Y58000D02*
D03*
X-204969Y72000D02*
D03*
Y58000D02*
D03*
X-148500Y2000D02*
D03*
Y16000D02*
D03*
X-130000Y77000D02*
D03*
Y63000D02*
D03*
X-223969Y58000D02*
D03*
Y72000D02*
D03*
X-182250Y278000D02*
D03*
Y264000D02*
D03*
X-241469Y72000D02*
D03*
Y58000D02*
D03*
X308047Y284000D02*
D03*
Y270000D02*
D03*
X583000Y319000D02*
D03*
Y333000D02*
D03*
X596000Y69000D02*
D03*
Y83000D02*
D03*
X-240000Y507000D02*
D03*
Y493000D02*
D03*
X-152500Y1493000D02*
D03*
Y1507000D02*
D03*
Y1450500D02*
D03*
Y1464500D02*
D03*
X-174000Y1436000D02*
D03*
Y1450000D02*
D03*
X120500Y740000D02*
D03*
Y754000D02*
D03*
X-168000Y781000D02*
D03*
Y795000D02*
D03*
X655000Y69000D02*
D03*
Y83000D02*
D03*
X215780Y428277D02*
D03*
Y442277D02*
D03*
X241658Y428277D02*
D03*
Y442277D02*
D03*
D87*
X522499Y13499D02*
D03*
X407499Y35499D02*
D03*
X522499Y68499D02*
D03*
Y57499D02*
D03*
Y134500D02*
D03*
Y123499D02*
D03*
Y46500D02*
D03*
Y90499D02*
D03*
Y24499D02*
D03*
X407499Y46500D02*
D03*
X522499Y35499D02*
D03*
Y101500D02*
D03*
Y79500D02*
D03*
X407499Y112500D02*
D03*
Y68499D02*
D03*
Y57499D02*
D03*
X522499Y112500D02*
D03*
X407499Y101500D02*
D03*
Y90499D02*
D03*
Y79500D02*
D03*
Y123499D02*
D03*
Y134500D02*
D03*
Y-48500D02*
D03*
Y-59500D02*
D03*
X522419Y-48500D02*
D03*
Y-59500D02*
D03*
D88*
X431999Y150000D02*
D03*
X442999D02*
D03*
X486999D02*
D03*
X453999D02*
D03*
X464999D02*
D03*
X475999D02*
D03*
X497999D02*
D03*
D89*
X474500Y307931D02*
D03*
X455500D02*
D03*
X465000Y283931D02*
D03*
X-127500Y759000D02*
D03*
X-118000Y735000D02*
D03*
X-137000D02*
D03*
D90*
X118590Y226453D02*
D03*
X123590D02*
D03*
X128590D02*
D03*
X133590D02*
D03*
X138590D02*
D03*
X143590D02*
D03*
X148590D02*
D03*
X153590D02*
D03*
X158590D02*
D03*
X163590D02*
D03*
X168590D02*
D03*
X173590D02*
D03*
Y142453D02*
D03*
X168590D02*
D03*
X163590D02*
D03*
X158590D02*
D03*
X153590D02*
D03*
X148590D02*
D03*
X143590D02*
D03*
X138590D02*
D03*
X133590D02*
D03*
X128590D02*
D03*
X123590D02*
D03*
X118590D02*
D03*
D91*
X188090Y211953D02*
D03*
Y206953D02*
D03*
Y201953D02*
D03*
Y196953D02*
D03*
Y191953D02*
D03*
Y186953D02*
D03*
Y181953D02*
D03*
Y176953D02*
D03*
Y171953D02*
D03*
Y166953D02*
D03*
Y161953D02*
D03*
Y156953D02*
D03*
X104090D02*
D03*
Y161953D02*
D03*
Y166953D02*
D03*
Y171953D02*
D03*
Y176953D02*
D03*
Y181953D02*
D03*
Y186953D02*
D03*
Y191953D02*
D03*
Y196953D02*
D03*
Y201953D02*
D03*
Y206953D02*
D03*
Y211953D02*
D03*
D92*
X7590Y222953D02*
D03*
Y185953D02*
D03*
X29590D02*
D03*
Y222953D02*
D03*
D93*
X36000Y68000D02*
D03*
X56000D02*
D03*
X-170000Y577500D02*
D03*
X-190000D02*
D03*
X-1000Y721000D02*
D03*
X19000D02*
D03*
X-131000Y118500D02*
D03*
X-151000D02*
D03*
X10000Y68000D02*
D03*
X-10000D02*
D03*
D94*
X-166500Y26250D02*
D03*
X-176000D02*
D03*
X-185500D02*
D03*
Y5750D02*
D03*
X-176000D02*
D03*
X-166500D02*
D03*
X-190969Y555250D02*
D03*
X-200469D02*
D03*
X-209969D02*
D03*
Y534750D02*
D03*
X-200469D02*
D03*
X-190969D02*
D03*
D95*
X-189969Y131000D02*
D03*
D96*
X-208469Y118500D02*
D03*
Y123500D02*
D03*
Y128500D02*
D03*
Y133500D02*
D03*
Y138500D02*
D03*
Y143500D02*
D03*
X-171469D02*
D03*
Y138500D02*
D03*
Y133500D02*
D03*
Y128500D02*
D03*
Y123500D02*
D03*
Y118500D02*
D03*
D97*
X-202469Y149500D02*
D03*
X-197469D02*
D03*
X-192469D02*
D03*
X-187469D02*
D03*
X-182469D02*
D03*
X-177469D02*
D03*
Y112500D02*
D03*
X-182469D02*
D03*
X-187469D02*
D03*
X-192469D02*
D03*
X-197469D02*
D03*
X-202469D02*
D03*
D98*
X10000Y270000D02*
D03*
X55000D02*
D03*
X10000Y360000D02*
D03*
X55000D02*
D03*
X329500Y270000D02*
D03*
X374500D02*
D03*
X329500Y360000D02*
D03*
X374500D02*
D03*
D99*
X-110000Y467500D02*
D03*
X-80000D02*
D03*
X444984Y1082500D02*
D03*
X414984D02*
D03*
X356484Y1082500D02*
D03*
X386484D02*
D03*
X255000Y1082500D02*
D03*
X225000D02*
D03*
X167500D02*
D03*
X197500D02*
D03*
D100*
X-175969Y512500D02*
D03*
Y472500D02*
D03*
X-203700Y1447500D02*
D03*
Y1487500D02*
D03*
X-285000Y542500D02*
D03*
Y582500D02*
D03*
Y512500D02*
D03*
Y472500D02*
D03*
D101*
X-212198Y510000D02*
D03*
Y475000D02*
D03*
X-65198Y1475000D02*
D03*
Y1440000D02*
D03*
D102*
X-70698Y534750D02*
D03*
X-148698D02*
D03*
D103*
X516600Y497500D02*
D03*
Y536500D02*
D03*
X529300Y497500D02*
D03*
Y536500D02*
D03*
X542000Y497500D02*
D03*
Y536500D02*
D03*
X554700Y497500D02*
D03*
Y536500D02*
D03*
X567400Y497500D02*
D03*
Y536500D02*
D03*
D104*
X-123500Y324126D02*
D03*
Y336826D02*
D03*
Y349526D02*
D03*
Y362226D02*
D03*
X-69500D02*
D03*
Y349526D02*
D03*
Y336826D02*
D03*
Y324126D02*
D03*
D105*
X-175000Y337160D02*
D03*
Y356160D02*
D03*
X-199000Y346660D02*
D03*
D106*
X210000Y663500D02*
D03*
Y618500D02*
D03*
X300000Y663500D02*
D03*
Y618500D02*
D03*
D107*
X-147500Y858000D02*
D03*
X-182500D02*
D03*
X-180000Y932500D02*
D03*
X-145000D02*
D03*
X155000Y1220750D02*
D03*
X190000D02*
D03*
X155000Y1263000D02*
D03*
X190000D02*
D03*
X155000Y1303000D02*
D03*
X190000D02*
D03*
X155000Y1343000D02*
D03*
X190000D02*
D03*
D108*
X-121500Y999250D02*
D03*
Y1026750D02*
D03*
X-149000Y999250D02*
D03*
Y1026750D02*
D03*
D109*
X462500Y999000D02*
D03*
X372500D02*
D03*
X417500Y829000D02*
D03*
D110*
X191500Y1161500D02*
D03*
Y1135500D02*
D03*
Y1148500D02*
D03*
Y1174500D02*
D03*
X418500Y1142500D02*
D03*
Y1168500D02*
D03*
Y1155500D02*
D03*
Y1129500D02*
D03*
X-106500Y1546000D02*
D03*
Y1572000D02*
D03*
Y1559000D02*
D03*
Y1533000D02*
D03*
D111*
X133500Y1174500D02*
D03*
Y1161500D02*
D03*
Y1148500D02*
D03*
Y1135500D02*
D03*
X476500Y1129500D02*
D03*
Y1142500D02*
D03*
Y1155500D02*
D03*
Y1168500D02*
D03*
X-48500Y1533000D02*
D03*
Y1546000D02*
D03*
Y1559000D02*
D03*
Y1572000D02*
D03*
D112*
X312500Y1209750D02*
D03*
Y1153250D02*
D03*
X537000Y1294250D02*
D03*
Y1350750D02*
D03*
X91071Y1294250D02*
D03*
Y1350750D02*
D03*
D113*
X563000Y1173500D02*
D03*
X537000D02*
D03*
X550000D02*
D03*
X576000D02*
D03*
X556500Y1521000D02*
D03*
X530500D02*
D03*
X543500D02*
D03*
X569500D02*
D03*
X77590Y1173500D02*
D03*
X51590D02*
D03*
X64590D02*
D03*
X90590D02*
D03*
D114*
X576000Y1231500D02*
D03*
X563000D02*
D03*
X550000D02*
D03*
X537000D02*
D03*
X569500Y1579000D02*
D03*
X556500D02*
D03*
X543500D02*
D03*
X530500D02*
D03*
X626111Y308962D02*
D03*
X607111D02*
D03*
Y332962D02*
D03*
X616611D02*
D03*
X626111D02*
D03*
X90590Y1231500D02*
D03*
X77590D02*
D03*
X64590D02*
D03*
X51590D02*
D03*
D115*
X474750Y1226500D02*
D03*
X436250D02*
D03*
X474750Y1265750D02*
D03*
X436250D02*
D03*
X474750Y1305750D02*
D03*
X436250D02*
D03*
X474750Y1345750D02*
D03*
X436250D02*
D03*
D116*
X165090Y1419500D02*
D03*
X91090D02*
D03*
X165090Y1514500D02*
D03*
X91090D02*
D03*
X165090Y1609000D02*
D03*
X91090D02*
D03*
D117*
X-211019Y235500D02*
D03*
X-198319D02*
D03*
X-185619D02*
D03*
X-172919D02*
D03*
Y181500D02*
D03*
X-185619D02*
D03*
X-198319D02*
D03*
X-211019D02*
D03*
D118*
X-167469Y57500D02*
D03*
Y77500D02*
D03*
D119*
X21500Y830000D02*
D03*
Y885000D02*
D03*
Y890000D02*
D03*
Y895000D02*
D03*
Y900000D02*
D03*
Y905000D02*
D03*
Y910000D02*
D03*
Y915000D02*
D03*
Y920000D02*
D03*
Y925000D02*
D03*
X-46500D02*
D03*
Y915000D02*
D03*
Y910000D02*
D03*
Y905000D02*
D03*
Y900000D02*
D03*
Y890000D02*
D03*
Y885000D02*
D03*
Y830000D02*
D03*
D120*
X16000Y835000D02*
D03*
Y840000D02*
D03*
Y845000D02*
D03*
Y850000D02*
D03*
Y855000D02*
D03*
Y860000D02*
D03*
Y865000D02*
D03*
Y870000D02*
D03*
Y875000D02*
D03*
Y880000D02*
D03*
X-41000Y850000D02*
D03*
Y845000D02*
D03*
Y840000D02*
D03*
Y835000D02*
D03*
D121*
X15000Y931500D02*
D03*
X10000D02*
D03*
X5000D02*
D03*
X0D02*
D03*
X-5000D02*
D03*
X-15000D02*
D03*
X-20000D02*
D03*
X-25000D02*
D03*
X-35000D02*
D03*
X-40000D02*
D03*
Y823500D02*
D03*
X-35000D02*
D03*
X-30000D02*
D03*
X-25000D02*
D03*
X-20000D02*
D03*
X-15000D02*
D03*
X-10000D02*
D03*
X-5000D02*
D03*
X0D02*
D03*
X5000D02*
D03*
X10000D02*
D03*
X15000D02*
D03*
D122*
X-42500Y880000D02*
D03*
Y870000D02*
D03*
Y865000D02*
D03*
Y860000D02*
D03*
D123*
X-12500Y877500D02*
D03*
D124*
X5500Y905250D02*
D03*
D125*
X0Y0D02*
D03*
X600000Y1437500D02*
D03*
D126*
X-110000Y1455000D02*
D03*
D127*
X-105000Y1440046D02*
D03*
X-110000D02*
D03*
X-115000D02*
D03*
Y1469954D02*
D03*
X-110000D02*
D03*
D128*
X-105000D02*
D03*
D129*
X-173000Y-33270D02*
D03*
X-166500D02*
D03*
X-160000D02*
D03*
X-153500D02*
D03*
X-147000D02*
D03*
D130*
X-171500Y-60000D02*
D03*
X-148500D02*
D03*
D131*
X-115500Y1493000D02*
D03*
X-102500D02*
D03*
D132*
X217500Y1645000D02*
D03*
X437500Y657500D02*
D03*
X136000Y-30000D02*
D03*
X28000Y424000D02*
D03*
X-140000Y1645000D02*
D03*
X463000Y1567000D02*
D03*
X33211Y1644500D02*
D03*
D133*
X630000Y925000D02*
D03*
X-280000D02*
D03*
X630000Y-30000D02*
D03*
X-280000Y-30000D02*
D03*
X630000Y1880000D02*
D03*
X-280000Y1880000D02*
D03*
D134*
X291390Y531496D02*
D03*
Y506096D02*
D03*
X265990D02*
D03*
Y531496D02*
D03*
X240590D02*
D03*
Y506096D02*
D03*
X215190Y531496D02*
D03*
Y506096D02*
D03*
X189790Y531496D02*
D03*
Y506096D02*
D03*
X164390Y531496D02*
D03*
Y506096D02*
D03*
X62790Y531496D02*
D03*
X88190Y506096D02*
D03*
Y531496D02*
D03*
X113590Y506096D02*
D03*
Y531496D02*
D03*
X138990Y506096D02*
D03*
Y531496D02*
D03*
D135*
X62790Y506096D02*
D03*
D136*
X-107200Y293000D02*
D03*
X347500Y1477500D02*
D03*
D137*
X567500Y1665000D02*
D03*
Y1620000D02*
D03*
X387500Y1665000D02*
D03*
Y1620000D02*
D03*
D138*
X635000Y735000D02*
D03*
X-285000Y304660D02*
D03*
Y379660D02*
D03*
D139*
X635000Y700000D02*
D03*
X-285000Y339660D02*
D03*
Y414660D02*
D03*
D140*
X-182250Y-30000D02*
D03*
X-137750D02*
D03*
D141*
X-118250Y-60000D02*
D03*
X-201750D02*
D03*
D142*
X482500Y1760000D02*
D03*
X222500Y1760000D02*
D03*
X-37500Y1760000D02*
D03*
D143*
X387500D02*
D03*
X127500Y1760000D02*
D03*
X-132500Y1760000D02*
D03*
D144*
X-190000Y813000D02*
D03*
M02*
