G04 Layer_Color=16711935*
%FSLAX44Y44*%
%MOMM*%
G71*
G01*
G75*
%ADD12C,1.0000*%
%ADD71C,2.2000*%
%ADD72R,2.2000X2.2000*%
%ADD77C,0.7000*%
%ADD84R,1.0500X1.0500*%
%ADD86R,1.0500X1.0500*%
%ADD93R,1.2000X1.4500*%
%ADD105R,1.2000X0.9000*%
%ADD125C,2.0000*%
%ADD132C,2.2320*%
%ADD133C,7.7000*%
%ADD134C,1.9000*%
%ADD135R,1.9000X1.9000*%
%ADD136R,2.2000X2.2000*%
%ADD137O,2.4000X1.6000*%
%ADD138C,2.4000*%
%ADD139R,2.4000X2.4000*%
%ADD140O,1.2500X1.4500*%
%ADD141O,1.2000X2.1000*%
%ADD142C,4.2000*%
G04:AMPARAMS|DCode=143|XSize=4.2mm|YSize=4.2mm|CornerRadius=1.1mm|HoleSize=0mm|Usage=FLASHONLY|Rotation=180.000|XOffset=0mm|YOffset=0mm|HoleType=Round|Shape=RoundedRectangle|*
%AMROUNDEDRECTD143*
21,1,4.2000,2.0000,0,0,180.0*
21,1,2.0000,4.2000,0,0,180.0*
1,1,2.2000,-1.0000,1.0000*
1,1,2.2000,1.0000,1.0000*
1,1,2.2000,1.0000,-1.0000*
1,1,2.2000,-1.0000,-1.0000*
%
%ADD143ROUNDEDRECTD143*%
%ADD144C,0.9000*%
D12*
X-23000Y1030000D02*
D03*
X-115000Y396000D02*
D03*
X-129000D02*
D03*
X-143000D02*
D03*
Y409000D02*
D03*
Y422000D02*
D03*
X-129000Y409000D02*
D03*
Y422000D02*
D03*
X-115000D02*
D03*
Y409000D02*
D03*
X19999Y1037502D02*
D03*
X-40000Y1030500D02*
D03*
X576000Y1157500D02*
D03*
X402500Y1129500D02*
D03*
X207500Y1174500D02*
D03*
X90590Y1157500D02*
D03*
X-132500Y18000D02*
D03*
X-148500Y31000D02*
D03*
X-132500D02*
D03*
X-200469Y600000D02*
D03*
X-97500Y973000D02*
D03*
D71*
X420000Y308631D02*
D03*
X-81800Y293000D02*
D03*
X297500Y1477500D02*
D03*
D72*
X420000Y283231D02*
D03*
D77*
X441000Y242000D02*
D03*
X396000D02*
D03*
X-147500Y50500D02*
D03*
X-224000Y129000D02*
D03*
X188000Y270000D02*
D03*
X173590Y75410D02*
D03*
X-164000Y108000D02*
D03*
X-123000Y99000D02*
D03*
X-30000Y972500D02*
D03*
X-38000Y950500D02*
D03*
X-167500Y932500D02*
D03*
X-170000Y858000D02*
D03*
X-93000Y861000D02*
D03*
X-166000Y886000D02*
D03*
X-100000Y870000D02*
D03*
X91071Y1314929D02*
D03*
X-141000Y354000D02*
D03*
X-214000Y346660D02*
D03*
X267000Y695000D02*
D03*
X-2500Y868000D02*
D03*
Y838000D02*
D03*
Y858000D02*
D03*
Y848000D02*
D03*
X-12500Y838000D02*
D03*
Y858000D02*
D03*
Y848000D02*
D03*
Y868000D02*
D03*
Y878000D02*
D03*
X126000Y876161D02*
D03*
X-22500Y918000D02*
D03*
Y908000D02*
D03*
Y898000D02*
D03*
Y888000D02*
D03*
Y878000D02*
D03*
Y868000D02*
D03*
Y838000D02*
D03*
Y848000D02*
D03*
Y858000D02*
D03*
X-12500Y918000D02*
D03*
Y908000D02*
D03*
Y898000D02*
D03*
Y888000D02*
D03*
X-2500Y878000D02*
D03*
Y888000D02*
D03*
Y898000D02*
D03*
Y908000D02*
D03*
Y918000D02*
D03*
X182000Y695000D02*
D03*
X248000Y711000D02*
D03*
X257000Y722500D02*
D03*
X273000Y851000D02*
D03*
X240000Y720000D02*
D03*
X167340Y851000D02*
D03*
X333000Y632500D02*
D03*
X170000Y757000D02*
D03*
X-86000Y926000D02*
D03*
X-159000Y944000D02*
D03*
X-47501Y982502D02*
D03*
X563000Y-6000D02*
D03*
X255000Y428000D02*
D03*
X57000Y442277D02*
D03*
X188000Y232000D02*
D03*
X168590Y161953D02*
D03*
X-166500Y-56000D02*
D03*
X-176000D02*
D03*
X-117000Y118500D02*
D03*
X-197000Y159000D02*
D03*
X-211000Y252000D02*
D03*
X-157000Y235500D02*
D03*
X-260000D02*
D03*
X-202000Y308631D02*
D03*
X-182469Y298000D02*
D03*
X69158Y86000D02*
D03*
Y98000D02*
D03*
X11590Y154500D02*
D03*
X-34698Y390000D02*
D03*
X-141000Y324126D02*
D03*
X-28550Y350000D02*
D03*
Y336000D02*
D03*
X167000Y207000D02*
D03*
X115000Y344840D02*
D03*
X583000Y352500D02*
D03*
X638000Y318826D02*
D03*
X651000Y345000D02*
D03*
X624000Y275000D02*
D03*
X593038Y308962D02*
D03*
X554700Y285000D02*
D03*
X542000D02*
D03*
X45500Y651000D02*
D03*
X567400Y470000D02*
D03*
X516600D02*
D03*
X456000Y319000D02*
D03*
X425000Y123499D02*
D03*
Y134500D02*
D03*
X384000Y238000D02*
D03*
X543918Y-59500D02*
D03*
Y-48500D02*
D03*
X386000Y-59500D02*
D03*
Y-48500D02*
D03*
X625500Y83000D02*
D03*
X541000Y57499D02*
D03*
X590000Y17000D02*
D03*
X542000Y14000D02*
D03*
X364000Y-17000D02*
D03*
X631000Y47000D02*
D03*
X653000Y35500D02*
D03*
X326500Y54500D02*
D03*
X327500Y67500D02*
D03*
X392500Y35500D02*
D03*
X637500Y120000D02*
D03*
Y145000D02*
D03*
X280000Y130000D02*
D03*
X637500Y167500D02*
D03*
X280000Y142453D02*
D03*
X465000Y193000D02*
D03*
X438000Y266000D02*
D03*
X443000Y331000D02*
D03*
X287500Y171953D02*
D03*
X280000Y154500D02*
D03*
Y205000D02*
D03*
Y165000D02*
D03*
X529000Y219000D02*
D03*
X460000Y212000D02*
D03*
X358000Y185000D02*
D03*
X432000Y170000D02*
D03*
X317500Y145000D02*
D03*
Y170000D02*
D03*
X-34698Y467500D02*
D03*
X133933Y855000D02*
D03*
X91090Y977500D02*
D03*
X-65000Y813000D02*
D03*
X-50000Y811000D02*
D03*
X-85000Y813000D02*
D03*
X29590Y756000D02*
D03*
X-14047Y730000D02*
D03*
X32593D02*
D03*
X137500Y795000D02*
D03*
X76000Y817000D02*
D03*
X65000Y817500D02*
D03*
X111000Y834000D02*
D03*
X100000Y822000D02*
D03*
X68000Y839000D02*
D03*
X170000Y867500D02*
D03*
X222000Y727500D02*
D03*
X316000Y748000D02*
D03*
X285000Y735000D02*
D03*
X-139469Y1450469D02*
D03*
X537000Y1312500D02*
D03*
Y1332500D02*
D03*
X312500Y1192500D02*
D03*
Y1172500D02*
D03*
X91090Y1335000D02*
D03*
X211000Y834000D02*
D03*
X157000Y948000D02*
D03*
X40000Y1030000D02*
D03*
X60000D02*
D03*
X0D02*
D03*
X485500Y1375000D02*
D03*
X490750Y1226500D02*
D03*
X126000Y945500D02*
D03*
X309000Y810000D02*
D03*
X-22500Y666000D02*
D03*
X65500Y651000D02*
D03*
X5500Y695500D02*
D03*
X129000Y791000D02*
D03*
X-60000Y764000D02*
D03*
X309000Y775500D02*
D03*
Y792500D02*
D03*
X211000Y867500D02*
D03*
X211500Y817500D02*
D03*
Y800000D02*
D03*
Y782500D02*
D03*
X-60000Y723000D02*
D03*
X68000Y716000D02*
D03*
X-77500D02*
D03*
X-95000Y723547D02*
D03*
X-118000D02*
D03*
X-180000Y794547D02*
D03*
X-64000Y850000D02*
D03*
X173590Y121953D02*
D03*
X-30000Y802500D02*
D03*
X-16000D02*
D03*
X10000Y794500D02*
D03*
X265000Y810000D02*
D03*
X46000Y825000D02*
D03*
X92000Y791000D02*
D03*
X71000Y887000D02*
D03*
X64000Y893000D02*
D03*
X52500Y923000D02*
D03*
X-65000Y825000D02*
D03*
X477500Y1110000D02*
D03*
X132500Y754000D02*
D03*
X133933Y772500D02*
D03*
X-111000Y903000D02*
D03*
X-165750Y1464500D02*
D03*
X-180000Y735000D02*
D03*
X-60000Y982500D02*
D03*
X157000Y914000D02*
D03*
Y925000D02*
D03*
X185000Y720000D02*
D03*
X-147500Y766000D02*
D03*
X137500Y782500D02*
D03*
X185000Y360000D02*
D03*
Y393000D02*
D03*
X198000Y360000D02*
D03*
X124000Y177000D02*
D03*
X78000Y231000D02*
D03*
X69000Y112000D02*
D03*
X29000Y152000D02*
D03*
X22000Y255454D02*
D03*
X123590Y206000D02*
D03*
X10000Y383000D02*
D03*
X126869Y379277D02*
D03*
X178000D02*
D03*
X216000Y367000D02*
D03*
X128000Y326000D02*
D03*
X102000Y350000D02*
D03*
X-153000Y-56000D02*
D03*
X-143500D02*
D03*
X-132500Y2000D02*
D03*
X-228000Y156000D02*
D03*
X-241469Y43000D02*
D03*
X-223969D02*
D03*
X-246469Y195500D02*
D03*
X-172919Y166500D02*
D03*
X-120000Y158000D02*
D03*
X-228000Y101000D02*
D03*
X-117000Y77000D02*
D03*
X-98500D02*
D03*
X55000Y290000D02*
D03*
Y340000D02*
D03*
X40000Y169000D02*
D03*
X57000Y108000D02*
D03*
X48000Y116000D02*
D03*
X85000Y174000D02*
D03*
X118590Y243000D02*
D03*
X100000Y232000D02*
D03*
Y270953D02*
D03*
X120000Y284000D02*
D03*
X277000D02*
D03*
X308047Y298000D02*
D03*
X290000Y329676D02*
D03*
X64000Y233000D02*
D03*
X-30000Y225400D02*
D03*
X-43021Y152890D02*
D03*
X90000Y296000D02*
D03*
X-27000Y68000D02*
D03*
X73000Y68000D02*
D03*
X139580Y410000D02*
D03*
X-197469Y138500D02*
D03*
X-182469D02*
D03*
Y123500D02*
D03*
X-189969Y131000D02*
D03*
X-197469Y123500D02*
D03*
X139000Y354000D02*
D03*
X-160000Y827000D02*
D03*
X-84000Y962000D02*
D03*
X-176000Y38000D02*
D03*
X507500Y294069D02*
D03*
X137500Y820000D02*
D03*
X72000Y1143000D02*
D03*
D84*
X48000Y128000D02*
D03*
X62000D02*
D03*
X68000Y169000D02*
D03*
X54000D02*
D03*
X68000Y186000D02*
D03*
X54000D02*
D03*
X-147000Y870000D02*
D03*
X-133000D02*
D03*
X-137000Y908500D02*
D03*
X-123000D02*
D03*
Y926000D02*
D03*
X-137000D02*
D03*
Y943500D02*
D03*
X-123000D02*
D03*
X429000Y242000D02*
D03*
X415000D02*
D03*
X114000Y876000D02*
D03*
X100000D02*
D03*
X114000Y858500D02*
D03*
X100000D02*
D03*
X114000Y910500D02*
D03*
X100000D02*
D03*
X114000Y893000D02*
D03*
X100000D02*
D03*
X100000Y928000D02*
D03*
X114000D02*
D03*
X100000Y945500D02*
D03*
X114000D02*
D03*
D86*
X367000Y200000D02*
D03*
Y214000D02*
D03*
X384000Y200000D02*
D03*
Y214000D02*
D03*
X358000Y176984D02*
D03*
Y162984D02*
D03*
X340500Y176984D02*
D03*
Y162984D02*
D03*
X173590Y108953D02*
D03*
Y94953D02*
D03*
X100000Y258000D02*
D03*
Y244000D02*
D03*
X118590Y256953D02*
D03*
Y270953D02*
D03*
X188000Y258000D02*
D03*
Y244000D02*
D03*
X138590Y340000D02*
D03*
Y326000D02*
D03*
X-114000Y839000D02*
D03*
Y825000D02*
D03*
X-114000Y870000D02*
D03*
Y856000D02*
D03*
X82000Y893000D02*
D03*
Y879000D02*
D03*
X52500Y949000D02*
D03*
Y935000D02*
D03*
D93*
X68000Y148000D02*
D03*
X48000D02*
D03*
X-190000Y357000D02*
D03*
X-170000D02*
D03*
D105*
X429000Y214000D02*
D03*
X405000Y223500D02*
D03*
Y204500D02*
D03*
X405000Y169984D02*
D03*
X381000Y179484D02*
D03*
Y160484D02*
D03*
D125*
X0Y0D02*
D03*
X600000Y1437500D02*
D03*
D132*
X217500Y1645000D02*
D03*
X437500Y657500D02*
D03*
X136000Y-30000D02*
D03*
X28000Y424000D02*
D03*
X-140000Y1645000D02*
D03*
X463000Y1567000D02*
D03*
X33211Y1644500D02*
D03*
D133*
X630000Y925000D02*
D03*
X-280000D02*
D03*
X630000Y-30000D02*
D03*
X-280000Y-30000D02*
D03*
X630000Y1880000D02*
D03*
X-280000Y1880000D02*
D03*
D134*
X291390Y531496D02*
D03*
Y506096D02*
D03*
X265990D02*
D03*
Y531496D02*
D03*
X240590D02*
D03*
Y506096D02*
D03*
X215190Y531496D02*
D03*
Y506096D02*
D03*
X189790Y531496D02*
D03*
Y506096D02*
D03*
X164390Y531496D02*
D03*
Y506096D02*
D03*
X62790Y531496D02*
D03*
X88190Y506096D02*
D03*
Y531496D02*
D03*
X113590Y506096D02*
D03*
Y531496D02*
D03*
X138990Y506096D02*
D03*
Y531496D02*
D03*
D135*
X62790Y506096D02*
D03*
D136*
X-107200Y293000D02*
D03*
X347500Y1477500D02*
D03*
D137*
X567500Y1665000D02*
D03*
Y1620000D02*
D03*
X387500Y1665000D02*
D03*
Y1620000D02*
D03*
D138*
X635000Y735000D02*
D03*
X-285000Y304660D02*
D03*
Y379660D02*
D03*
D139*
X635000Y700000D02*
D03*
X-285000Y339660D02*
D03*
Y414660D02*
D03*
D140*
X-182250Y-30000D02*
D03*
X-137750D02*
D03*
D141*
X-118250Y-60000D02*
D03*
X-201750D02*
D03*
D142*
X482500Y1760000D02*
D03*
X222500Y1760000D02*
D03*
X-37500Y1760000D02*
D03*
D143*
X387500D02*
D03*
X127500Y1760000D02*
D03*
X-132500Y1760000D02*
D03*
D144*
X-190000Y813000D02*
D03*
X-308500Y1420524D02*
D03*
X-296000Y1445524D02*
D03*
X-308500Y1470524D02*
D03*
X-296000Y1495524D02*
D03*
X-308500Y1520524D02*
D03*
X-296000Y1545524D02*
D03*
X-308500Y1570524D02*
D03*
X-296000Y1595524D02*
D03*
X-308500Y1620524D02*
D03*
X-296000Y1645524D02*
D03*
X-308500Y1670524D02*
D03*
X-296000Y1695524D02*
D03*
X-308500Y1720524D02*
D03*
X-296000Y1745524D02*
D03*
X-308500Y1770524D02*
D03*
X-296000Y1795524D02*
D03*
X-308500Y1820524D02*
D03*
X-283500Y1420524D02*
D03*
X-271000Y1445524D02*
D03*
X-283500Y1470524D02*
D03*
X-271000Y1495524D02*
D03*
X-283500Y1520524D02*
D03*
X-271000Y1545524D02*
D03*
X-283500Y1570524D02*
D03*
X-271000Y1595524D02*
D03*
X-283500Y1620524D02*
D03*
X-271000Y1645524D02*
D03*
X-283500Y1670524D02*
D03*
X-271000Y1695524D02*
D03*
X-283500Y1720524D02*
D03*
X-271000Y1745524D02*
D03*
X-283500Y1770524D02*
D03*
X-271000Y1795524D02*
D03*
X-283500Y1820524D02*
D03*
X-258500Y1420524D02*
D03*
X-246000Y1445524D02*
D03*
X-258500Y1470524D02*
D03*
X-246000Y1495524D02*
D03*
X-258500Y1520524D02*
D03*
X-246000Y1545524D02*
D03*
X-258500Y1570524D02*
D03*
X-246000Y1595524D02*
D03*
X-258500Y1620524D02*
D03*
X-246000Y1645524D02*
D03*
X-258500Y1670524D02*
D03*
X-246000Y1695524D02*
D03*
X-258500Y1720524D02*
D03*
X-246000Y1745524D02*
D03*
X-258500Y1770524D02*
D03*
X-246000Y1795524D02*
D03*
X-258500Y1820524D02*
D03*
X-246000Y1845524D02*
D03*
X-221000Y1595524D02*
D03*
X-233500Y1620524D02*
D03*
X-221000Y1645524D02*
D03*
X-233500Y1670524D02*
D03*
X-221000Y1695524D02*
D03*
X-233500Y1720524D02*
D03*
X-221000Y1745524D02*
D03*
X-233500Y1770524D02*
D03*
X-221000Y1795524D02*
D03*
X-233500Y1820524D02*
D03*
X-221000Y1845524D02*
D03*
X-233500Y1870524D02*
D03*
X-221000Y1895524D02*
D03*
X-196000Y1595524D02*
D03*
X-208500Y1620524D02*
D03*
X-196000Y1645524D02*
D03*
X-208500Y1670524D02*
D03*
X-196000Y1695524D02*
D03*
X-208500Y1720524D02*
D03*
X-196000Y1745524D02*
D03*
X-208500Y1770524D02*
D03*
X-196000Y1795524D02*
D03*
X-208500Y1820524D02*
D03*
X-196000Y1845524D02*
D03*
Y1895524D02*
D03*
X-133500Y1470524D02*
D03*
X-83500Y1720524D02*
D03*
X-71000Y1745524D02*
D03*
X-83500Y1770524D02*
D03*
X-71000Y1795524D02*
D03*
X-83500Y1820524D02*
D03*
X-71000Y1845524D02*
D03*
X-83500Y1870524D02*
D03*
X-71000Y1895524D02*
D03*
X-58500Y1720524D02*
D03*
X-46000Y1795524D02*
D03*
X-58500Y1820524D02*
D03*
X-46000Y1845524D02*
D03*
X-58500Y1870524D02*
D03*
X-46000Y1895524D02*
D03*
X-33500Y1720524D02*
D03*
X-21000Y1795524D02*
D03*
X-33500Y1820524D02*
D03*
X-21000Y1845524D02*
D03*
X-33500Y1870524D02*
D03*
X-21000Y1895524D02*
D03*
X-8500Y1720524D02*
D03*
X4000Y1745524D02*
D03*
X-8500Y1770524D02*
D03*
X4000Y1795524D02*
D03*
X-8500Y1820524D02*
D03*
X4000Y1845524D02*
D03*
X-8500Y1870524D02*
D03*
X4000Y1895524D02*
D03*
X29000Y1845524D02*
D03*
X16500Y1870524D02*
D03*
X29000Y1895524D02*
D03*
X54000Y1845524D02*
D03*
X41500Y1870524D02*
D03*
X54000Y1895524D02*
D03*
X79000Y1845524D02*
D03*
X66500Y1870524D02*
D03*
X79000Y1895524D02*
D03*
X104000Y1845524D02*
D03*
X91500Y1870524D02*
D03*
X104000Y1895524D02*
D03*
X129000Y1845524D02*
D03*
X116500Y1870524D02*
D03*
X129000Y1895524D02*
D03*
X154000Y1395524D02*
D03*
Y1445524D02*
D03*
X141500Y1470524D02*
D03*
X154000Y1545524D02*
D03*
X141500Y1570524D02*
D03*
X154000Y1645524D02*
D03*
Y1845524D02*
D03*
X141500Y1870524D02*
D03*
X154000Y1895524D02*
D03*
X179000Y1395524D02*
D03*
Y1445524D02*
D03*
X166500Y1470524D02*
D03*
X179000Y1545524D02*
D03*
X166500Y1570524D02*
D03*
X179000Y1645524D02*
D03*
X166500Y1670524D02*
D03*
X179000Y1695524D02*
D03*
Y1745524D02*
D03*
Y1795524D02*
D03*
Y1845524D02*
D03*
X166500Y1870524D02*
D03*
X179000Y1895524D02*
D03*
X204000Y1245524D02*
D03*
Y1295524D02*
D03*
Y1345524D02*
D03*
X191500Y1370524D02*
D03*
X204000Y1395524D02*
D03*
Y1445524D02*
D03*
X191500Y1470524D02*
D03*
X204000Y1495524D02*
D03*
Y1545524D02*
D03*
X191500Y1570524D02*
D03*
X204000Y1595524D02*
D03*
X191500Y1670524D02*
D03*
X204000Y1695524D02*
D03*
X191500Y1720524D02*
D03*
Y1770524D02*
D03*
X204000Y1795524D02*
D03*
X191500Y1820524D02*
D03*
X204000Y1845524D02*
D03*
X191500Y1870524D02*
D03*
X204000Y1895524D02*
D03*
X229000Y1245524D02*
D03*
X216500Y1270524D02*
D03*
X229000Y1295524D02*
D03*
Y1345524D02*
D03*
X216500Y1370524D02*
D03*
X229000Y1395524D02*
D03*
X216500Y1420524D02*
D03*
X229000Y1445524D02*
D03*
X216500Y1470524D02*
D03*
X229000Y1495524D02*
D03*
X216500Y1520524D02*
D03*
X229000Y1545524D02*
D03*
X216500Y1570524D02*
D03*
X229000Y1595524D02*
D03*
X216500Y1670524D02*
D03*
X229000Y1695524D02*
D03*
X216500Y1720524D02*
D03*
X229000Y1795524D02*
D03*
X216500Y1820524D02*
D03*
X229000Y1845524D02*
D03*
X216500Y1870524D02*
D03*
X229000Y1895524D02*
D03*
X254000Y1245524D02*
D03*
X241500Y1270524D02*
D03*
X254000Y1295524D02*
D03*
Y1345524D02*
D03*
X241500Y1370524D02*
D03*
X254000Y1395524D02*
D03*
X241500Y1420524D02*
D03*
X254000Y1445524D02*
D03*
X241500Y1470524D02*
D03*
X254000Y1495524D02*
D03*
X241500Y1520524D02*
D03*
X254000Y1545524D02*
D03*
X241500Y1570524D02*
D03*
X254000Y1595524D02*
D03*
X241500Y1620524D02*
D03*
X254000Y1645524D02*
D03*
X241500Y1670524D02*
D03*
X254000Y1695524D02*
D03*
X241500Y1720524D02*
D03*
X254000Y1745524D02*
D03*
Y1795524D02*
D03*
X241500Y1820524D02*
D03*
X254000Y1845524D02*
D03*
X241500Y1870524D02*
D03*
X254000Y1895524D02*
D03*
X266500Y1220524D02*
D03*
X279000Y1245524D02*
D03*
X266500Y1270524D02*
D03*
X279000Y1295524D02*
D03*
Y1345524D02*
D03*
X266500Y1370524D02*
D03*
X279000Y1395524D02*
D03*
X266500Y1420524D02*
D03*
X279000Y1445524D02*
D03*
X266500Y1470524D02*
D03*
X279000Y1495524D02*
D03*
X266500Y1520524D02*
D03*
X279000Y1545524D02*
D03*
X266500Y1570524D02*
D03*
X279000Y1595524D02*
D03*
X266500Y1620524D02*
D03*
X279000Y1645524D02*
D03*
X266500Y1670524D02*
D03*
X279000Y1695524D02*
D03*
X266500Y1720524D02*
D03*
X279000Y1745524D02*
D03*
X266500Y1770524D02*
D03*
X279000Y1795524D02*
D03*
X266500Y1820524D02*
D03*
X279000Y1845524D02*
D03*
X266500Y1870524D02*
D03*
X279000Y1895524D02*
D03*
X304000Y1245524D02*
D03*
X291500Y1270524D02*
D03*
X304000Y1295524D02*
D03*
Y1345524D02*
D03*
X291500Y1370524D02*
D03*
X304000Y1395524D02*
D03*
X291500Y1420524D02*
D03*
X304000Y1445524D02*
D03*
Y1495524D02*
D03*
X291500Y1520524D02*
D03*
X304000Y1545524D02*
D03*
X291500Y1570524D02*
D03*
X304000Y1595524D02*
D03*
X291500Y1620524D02*
D03*
X304000Y1645524D02*
D03*
X291500Y1670524D02*
D03*
X304000Y1695524D02*
D03*
X291500Y1720524D02*
D03*
X304000Y1745524D02*
D03*
X291500Y1770524D02*
D03*
X304000Y1795524D02*
D03*
X291500Y1820524D02*
D03*
X304000Y1845524D02*
D03*
X291500Y1870524D02*
D03*
X304000Y1895524D02*
D03*
X329000Y1245524D02*
D03*
X316500Y1270524D02*
D03*
X329000Y1295524D02*
D03*
Y1345524D02*
D03*
X316500Y1370524D02*
D03*
X329000Y1845524D02*
D03*
Y1895524D02*
D03*
X341500Y1220524D02*
D03*
X354000Y1245524D02*
D03*
X341500Y1270524D02*
D03*
X354000Y1295524D02*
D03*
Y1345524D02*
D03*
X341500Y1370524D02*
D03*
X354000Y1845524D02*
D03*
X341500Y1870524D02*
D03*
X354000Y1895524D02*
D03*
X366500Y1220524D02*
D03*
X379000Y1245524D02*
D03*
X366500Y1270524D02*
D03*
X379000Y1295524D02*
D03*
Y1345524D02*
D03*
X366500Y1370524D02*
D03*
X379000Y1845524D02*
D03*
X366500Y1870524D02*
D03*
X379000Y1895524D02*
D03*
X391500Y1220524D02*
D03*
X404000Y1245524D02*
D03*
X391500Y1270524D02*
D03*
X404000Y1295524D02*
D03*
Y1345524D02*
D03*
X391500Y1370524D02*
D03*
X404000Y1845524D02*
D03*
X391500Y1870524D02*
D03*
X404000Y1895524D02*
D03*
X416500Y1220524D02*
D03*
Y1270524D02*
D03*
Y1370524D02*
D03*
X429000Y1845524D02*
D03*
X416500Y1870524D02*
D03*
X429000Y1895524D02*
D03*
X441500Y1720524D02*
D03*
X454000Y1745524D02*
D03*
X441500Y1770524D02*
D03*
X454000Y1795524D02*
D03*
X441500Y1820524D02*
D03*
X454000Y1845524D02*
D03*
X441500Y1870524D02*
D03*
X454000Y1895524D02*
D03*
X466500Y1720524D02*
D03*
X479000Y1795524D02*
D03*
X466500Y1820524D02*
D03*
X479000Y1845524D02*
D03*
X466500Y1870524D02*
D03*
X479000Y1895524D02*
D03*
X491500Y1720524D02*
D03*
X504000Y1795524D02*
D03*
X491500Y1820524D02*
D03*
X504000Y1845524D02*
D03*
X491500Y1870524D02*
D03*
X504000Y1895524D02*
D03*
X516500Y1720524D02*
D03*
X529000Y1745524D02*
D03*
X516500Y1770524D02*
D03*
X529000Y1795524D02*
D03*
X516500Y1820524D02*
D03*
X529000Y1845524D02*
D03*
X516500Y1870524D02*
D03*
X529000Y1895524D02*
D03*
X541500Y1720524D02*
D03*
X554000Y1745524D02*
D03*
X541500Y1770524D02*
D03*
X554000Y1795524D02*
D03*
X541500Y1820524D02*
D03*
X554000Y1845524D02*
D03*
X541500Y1870524D02*
D03*
X554000Y1895524D02*
D03*
X566500Y1720524D02*
D03*
Y1770524D02*
D03*
Y1820524D02*
D03*
Y1870524D02*
D03*
X591500Y1720524D02*
D03*
X604000Y1745524D02*
D03*
X591500Y1770524D02*
D03*
X604000Y1795524D02*
D03*
X591500Y1820524D02*
D03*
X616500Y1720524D02*
D03*
X629000Y1745524D02*
D03*
X616500Y1770524D02*
D03*
X629000Y1795524D02*
D03*
X616500Y1820524D02*
D03*
X641500Y1720524D02*
D03*
X654000Y1745524D02*
D03*
X641500Y1770524D02*
D03*
X654000Y1795524D02*
D03*
X641500Y1820524D02*
D03*
M02*
