M48
;Layer_Color=9474304
;FILE_FORMAT=4:4
METRIC,LZ
;TYPE=PLATED
T1F00S00C0.3000
T2F00S00C0.5000
T5F00S00C0.9000
T6F00S00C1.0000
T7F00S00C1.1000
T8F00S00C1.2000
T9F00S00C1.8000
T10F00S00C3.5000
;TYPE=NON_PLATED
T11F00S00C1.1000
T12F00S00C1.4000
%
T01
X0048805Y-0007905
X0053Y-000795
Y-00068
Y-00056
X005425
Y-00068
Y-000795
X0057995Y-0007905
X00531Y00033
X00422Y00008
X004411Y000929
X0038445Y0007805
Y0006535
Y0005265
Y0003995
X00295Y0003
X002875Y000425
X00305Y0002
X0024859Y00021953
X0024359Y0006041
X00196953Y00076953
X00156Y00065907
X0014Y00074
X00132Y00008
X00123Y00016
X00165Y-00005
X0018Y-00014
X00148Y-00032
X00048Y-00032
X00079Y-00075
X00073Y00043
X0024859Y-0002459
X00204Y-00131
X0016025Y-00131044
X00305Y00085
Y000975
X-00079Y00058
X-00074Y000185
X-0008Y-00001
X-00076Y-00023
X-000575
X-001065Y-000495
X-00135Y-00062
X-00182969Y-00057
X-00200469
X-00187Y00001
X-00183Y00029
X-00187Y00056
X-00156Y00059
X-00156469Y000385
X-00141469
Y000235
X-00148969Y00031
X-00156469Y000235
X-00123Y00008
X-001065Y000365
X-00131919Y000665
X-00205469Y000955
X-000915Y-00098
X-001025Y-00156
X-00112
X-001255
X-00135
X-00116Y001355
X-0017Y00152
X-00219Y001355
X-00160751Y00208631
X-0014122Y00198
X-00111Y00224126
Y00254
X-00184Y0024666
X0000145Y0025
Y00236
X-00004698Y0029
Y003675
X00008Y00449
Y00492
X00026Y00481
X00074Y0049
X001035
X00055Y00402
X00033Y00381
X00132Y00342277
X00094Y0029
X00115389Y00259364
X00070427Y002495
X00101389Y00215539
X00149Y00199
X00175Y00170953
X00188Y00143
X0019859Y0010859
X00163047Y00111953
X00095Y001175
X00068Y00131
X0004Y00145
X00039Y00161
X00263Y0017
Y00132
X00245Y00107
X00305Y0011
X00281Y00244999
X00291Y00267
X0026Y0026
X00249
X00253Y00279277
X0026Y00293
X00265Y00316
X0021458Y0031
X00202Y00293
X00201869Y00279277
X00316658Y00293
X00341Y00315
X00435Y004975
X00495Y0049
X00675Y003
X00422Y00114
X0033Y005
X00297Y00595
X00278Y00611
X0027Y0062
X00287Y006225
X00252Y006275
X00215Y0062
X00212Y00595
X002Y00657
X001625Y00654
X00163933Y006725
X001675Y006825
Y00695
X00159Y00691
X00122Y00691
X0013Y00722
X00141Y00734
X001675Y0072
X00163933Y00755
X00156Y00776161
X002Y007675
X0019734Y00751
X00241Y007675
Y007875
Y00734
X002415Y007175
Y007
Y006825
X00295Y0071
X00339Y0071
Y006925
Y006755
X00346Y00648
X00315Y00635
X00303Y00751
X00187Y00814
Y00825
Y00848
X00166Y00855
X0012109Y008775
X000825Y00823
X00094Y00793
X00101Y00787
X00098Y00739
X00095Y007175
X00106Y00717
X00076Y00725
X000275Y00738
X000175
Y00748
X000275
Y00758
X000175
Y00768
X000275
Y00778
X000175
Y00788
X000275
Y00798
X000175
Y00808
X000275
Y00818
X000175
X00014Y007025
X0004Y006945
X0005959Y00656
X00062593Y0063
X00015953
X000355Y005955
X00098Y00616
X000955Y00551
X000755
X000075Y00566
X-0003Y00623
X-000475Y00616
X-00065Y00623547
X-00088
X-001175Y00666
X-0015Y00694547
X-0016Y00713
X-0013Y00727
X-0014Y00758
X-00136Y00786
X-001375Y008325
X-00129Y00844
X-00081Y00803
X-0007Y0077
X-00063Y00761
X-00034Y0075
X-00035Y00725
Y00713
X-0002Y00711
X0Y007025
X000075Y00738
Y00748
Y00758
Y00768
Y00778
Y00788
Y00798
Y00808
Y00818
X-00008Y008505
X-0Y008725
X-00017501Y00882502
X-0003Y008825
X-00035Y00855
X-000435Y00826
X-00055Y00713
X-0003Y00664
X-0015Y00635
X0003Y0093
X0007
X0009
X00077Y01043
X00096071Y01214929
X0009609Y01235
X001965Y01270524
X002215
X002465
X002715
Y01220524
X002965
X00309Y01195524
X00284
X00259
X00234
X00209
X002215Y01220524
X002465
Y01170524
X002715
X00259Y01145524
X00234
X00209
X002215Y01170524
X0025Y01093
Y01076
X0033Y0101
X004145Y012325
Y012525
X004715Y01620524
X004965
X005215
X005465
X005715
X005965
X006215
X006465
X006715
X00684Y01645524
X00659
X00634
X006465Y01670524
X006715
X006215
X005965
X005715
X005465
X00559Y01645524
X00584
X00484
X004715Y01670524
X002965
X00309Y01645524
X00284
X002965Y01620524
X002715
X002465
X002215
X00234Y01595524
X00259
X00284
X00309
X002965Y01570524
X002715
X002465
X002215
X001965
X001715
X00184Y01595524
X00209
Y01645524
X002215Y01670524
X00259Y01545524
X00284
X00309
X002965Y01520524
X002715
X002465
X00259Y01495524
X00284
X00309
X002965Y01470524
X002715
X002465
X002215
X001965
X001715
X00184Y01445524
X00209
X00234
X00259
X00284
X00309
Y01395524
X00284
X00259
X00234
X00209
X002215Y01420524
X002465
Y01370524
X002715
X002965
X00309Y01345524
X00284
X00259
X00234
X00209
X00184
X00159
X00134
Y01395524
Y01445524
X00159
X00134Y01495524
Y01545524
X00159
X00184
X00209Y01495524
X00234
X002215Y01370524
X001965
X001715
X00184Y01295524
X00209
X00234
X00259
X002715Y01320524
X002465
X002215
X00159Y01295524
X00134
X000215Y01620524
X00034Y01645524
X000215Y01670524
X-000035Y01620524
X-000285
X-000535
X-00041Y01645524
X-000535Y01670524
X-001785
X-002035
X-002285
X-002535
X-002785
X-00266Y01645524
X-00241
X-00216
X-00191
X-00166
X-001785Y01620524
X-002035
X-002285
X-002535
X-002785
X-00266Y01595524
X-00241
X-00216
X-00191
X-00166
X-001785Y01570524
X-002035
X-002285
X-002535
X-002785
X-00266Y01545524
X-00241
X-00216
X-00191
X-00166
X-001785Y01520524
X-002035
X-002285
X-002535
X-002785
X-00266Y01495524
X-00241
X-00216
X-00191
X-00166
X-002285Y01470524
X-002535
X-002785
X-00266Y01445524
X-00241
X-00216
X-002285Y01420524
X-002535
X-002785
X-00266Y01395524
X-00241
X-00216
X-002285Y01370524
X-002535
X-002785
X-00266Y01345524
X-00241
X-00216
X-002285Y01320524
X-002535
X-002785
X-0013575Y013645
X-001035Y01370524
X-00109469Y01350469
X-00166Y01695524
X-00191
X-00216
X-00241
X-00266
X-002535Y01720524
X-002285
X-002035
X-001785
X-00166Y01745524
X-00191
X-00216
X-002035Y01770524
X-00191Y01795524
X-00166
X-00041
X-00016
X00009
X-000035Y01770524
X-000285
X-000535
X-00041Y01745524
X-00016
X00009
X-000035Y01720524
X-000285
X-000535
X-00041Y01695524
X-00016
X00009
X-002785Y01720524
X000215
X00034Y01745524
X00059
X00084
X00109
X00134
X00159
X00184
X00209
X00234
X00259
X00284
X00309
X00334
X00359
X00384
X003965Y01770524
X003715
X00384Y01795524
X00359
X00334
X00309
X00284
X00259
X00234
X00209
X00184
X00159
X00134
X00109
X00084
X00059
X00034
X000465Y01770524
X000715
X000965
X001215
X001465
X001715
X001965
X002215
X002465
X002715
X002965
X003215
X002965Y01720524
X002715
X002465
X002215
X00234Y01695524
X00259
X00284
X00309
X00209
X00034
X000215Y01770524
X004215
X004465
X004715
X004965
X005215
X005465
X005715
X005965
X00584Y01795524
X00559
X00534
X00509
X00484
X00459
X00434
X00409
Y01745524
X00434
X00459
X00484
X00509
X00534
X00559
X00584
X005965Y01720524
X006215
X006465
X006715
X00684Y01695524
X00659
X00634
X00584
X00559
X00534
X00509
X00484
X004965Y01720524
X005215
X005465
X005715
X004715
T02
X00615Y-00043
Y-00028
Y-00013
X-000915Y-00069
Y-00082
X-001075Y-00069
X-00113Y00296
Y00309
Y00322
X-00099
Y00309
Y00296
X-00085
Y00309
Y00322
X0031Y001925
X004845Y00257
X005675Y0034
Y00355
X006005Y00361
Y00375
X-0017Y00499531
X-000675Y00873
X-0001Y009305
X00007Y0093
X00049999Y00937502
X00089Y01058
X00206Y010745
X00288Y01033
X00449Y01052
T05
X002875Y014175
X003375
T06
X000325Y-001325
X00053Y00326
X001377Y004243
Y004497
X001631
Y004243
X001885
Y004497
X002139
X002393
X002647
X002901
X003155
X003409
X003663
Y004243
X003409
X003155
X002901
X002647
X002393
X002139
X00431Y00558
X00493Y01467
X002225Y01545
X00063211Y015445
X-0011Y01545
T07
X004231Y-001252
Y-000998
X004485
Y-001252
X003977
X003723
X003469
Y-000998
X003215
Y-001252
X003723Y-000998
X003977
X-000293Y00185
X-000547
X001503Y0022
X001757
X-002196Y0056
X-00245
X-002704
T08
X00665Y0007
X-00255Y0020466
Y0023966
Y0027966
Y0031466
X00665Y00105
X00665Y006
Y00635
T09
X004175Y0166
X005125
X002525Y0166
X001575
X-000075Y0166
X-001025
T10
X0066Y-0013
X-0025Y-0013
X0066Y00825
X-0025
X-0025Y0178
X0066Y0178
T11
X004375Y0022
T12
X00363Y0022
M30
