M48
;Layer_Color=9474304
;FILE_FORMAT=4:4
METRIC,LZ
;TYPE=PLATED
T1F00S00C0.3000
T2F00S00C0.5000
T6F00S00C0.9000
T7F00S00C1.0000
T8F00S00C1.1000
T9F00S00C1.2000
T10F00S00C1.8000
T11F00S00C3.5000
%
T01
X00386Y-000595
Y-000485
X003925Y000355
X00425Y00123499
Y001345
X00432Y0017
X00465Y00193
X006375Y001675
Y00145
Y0012
X006255Y00083
X00631Y00047
X00653Y000355
X0059Y00017
X00563Y-00006
X00542Y00014
X00541Y00057499
X00543918Y-000485
Y-000595
X00364Y-00017
X003265Y000545
X003275Y000675
X003175Y00145
Y0017
X002875Y00171953
X0028Y00165
Y001545
Y00142453
Y0013
X0017359Y00121953
X0016859Y00161953
X00124Y00177
X00085Y00174
X0004Y00169
X00029Y00152
X0001159Y001545
X00048Y00116
X00057Y00108
X00069Y00112
X00069158Y00098
Y00086
X00073Y00068
X0017359Y0007541
X00358Y00185
X-00043021Y0015289
X-0012Y00158
X-00117Y001185
X-00123Y00099
X-00117Y00077
X-000985
X-001475Y000505
X-00176Y00038
X-00223969Y00043
X-00241469
X-00228Y00101
X-00224Y00129
X-00228Y00156
X-00197Y00159
X-00197469Y001385
X-00182469
Y001235
X-00189969Y00131
X-00197469Y001235
X-00164Y00108
X-00172919Y001665
X-00246469Y001955
X-001325Y00002
X-001435Y-00056
X-00153
X-001665
X-00176
X-00027Y00068
X-0003Y002254
X-0002855Y00336
Y0035
X-00034698Y0039
Y004675
X-00141Y00354
Y00324126
X-00182469Y00298
X-00202Y00308631
X-00214Y0034666
X-00211Y00252
X-0026Y002355
X-00157
X00022Y00255454
X00064Y00233
X00078Y00231
X001Y00232
X0011859Y00243
X0012359Y00206
X00167Y00207
X00188Y00232
Y0027
X0012Y00284
X001Y00270953
X0009Y00296
X00055Y0029
Y0034
X00102Y0035
X00115Y0034484
X00128Y00326
X00139Y00354
X00126869Y00379277
X0013958Y0041
X00185Y00393
X00178Y00379277
X00185Y0036
X00198
X00216Y00367
X00255Y00428
X0029Y00329676
X00308047Y00298
X00277Y00284
X0028Y00205
X0001Y00383
X00057Y00442277
X005166Y0047
X005674
X00583Y003525
X00593038Y00308962
X00638Y00318826
X00651Y00345
X00624Y00275
X005547Y00285
X00542
X005075Y00294069
X00456Y00319
X00443Y00331
X00438Y00266
X00441Y00242
X00396
X00384Y00238
X0046Y00212
X00529Y00219
X00333Y006325
X00267Y00695
X00248Y00711
X0024Y0072
X00257Y007225
X00222Y007275
X00185Y0072
X00182Y00695
X0017Y00757
X001325Y00754
X00133933Y007725
X001375Y007825
Y00795
X00129Y00791
X00092Y00791
X001Y00822
X00111Y00834
X001375Y0082
X00133933Y00855
X00126Y00876161
X0017Y008675
X0016734Y00851
X00211Y008675
Y00834
X002115Y008175
Y008
Y007825
X00265Y0081
X00309Y0081
Y007925
Y007755
X00316Y00748
X00285Y00735
X00273Y00851
X00157Y00914
Y00925
Y00948
X00126Y009455
X0009109Y009775
X000525Y00923
X00064Y00893
X00071Y00887
X00068Y00839
X00065Y008175
X00076Y00817
X00046Y00825
X-000025Y00838
X-000125
Y00848
X-000025
Y00858
X-000125
Y00868
X-000025
Y00878
X-000125
Y00888
X-000025
Y00898
X-000125
Y00908
X-000025
Y00918
X-000125
X-00016Y008025
X0001Y007945
X0002959Y00756
X00032593Y0073
X-00014047
X000055Y006955
X00068Y00716
X000655Y00651
X000455
X-000225Y00666
X-0006Y00723
X-000775Y00716
X-00095Y00723547
X-00118
X-001475Y00766
X-0018Y00794547
X-0019Y00813
X-0016Y00827
X-0017Y00858
X-00166Y00886
X-001675Y009325
X-00159Y00944
X-00111Y00903
X-001Y0087
X-00093Y00861
X-00064Y0085
X-00065Y00825
Y00813
X-0005Y00811
X-0003Y008025
X-000225Y00838
Y00848
Y00858
Y00868
Y00878
Y00888
Y00898
Y00908
Y00918
X-00038Y009505
X-0003Y009725
X-00047501Y00982502
X-0006Y009825
X-00084Y00962
X-00086Y00926
X-00085Y00813
X-0006Y00764
X-0018Y00735
X0Y0103
X0004
X0006
X00072Y01143
X00091071Y01314929
X0009109Y01335
X00204Y01345524
X00229
X00254
X00279
X00304
X00329
X00354
X003415Y01370524
X003165
X002915
X002665
X002415
X002165
X001915
X00204Y01295524
X00229
X00254
X00279
X00304
X00329
X00354
X003415Y01270524
X003165
X002915
X002665
X002415
X002165
X00204Y01245524
X00229
X00254
X00279
X00304
X00329
X00354
X003415Y01220524
X003665
Y01270524
Y01370524
X003125Y011925
Y011725
X002665Y01220524
X003915
X004165
X00404Y01245524
X00379
X003915Y01270524
X004165
X00404Y01295524
X00379
Y01345524
X00404
X003915Y01370524
X004165
X004855Y01375
X00537Y013325
Y013125
X0049075Y012265
X004775Y0111
X004665Y01720524
X004415
X00454Y01745524
X004415Y01770524
X005165
X005415
X005665
X005915
X006165
X006415
X00629Y01745524
X00604
X005915Y01720524
X005665
X005415
X005165
X004915
X00529Y01745524
X00554
X006165Y01720524
X006415
X00654Y01745524
X00304
X00279
X00254
X002415Y01720524
X002165
X001915
X00179Y01695524
X00204
X00229
X00254
X00279
X00304
X002915Y01670524
X002665
X002415
X002165
X001915
X001665
X00154Y01645524
X00179
X00204Y01595524
X00229
X00254
X00279
X00304
X002915Y01570524
X002665
X002415
X002165
X001915
X001665
X001415
X00154Y01545524
X00179
X00204
X00229
X00254
X00279
X00304
X002915Y01520524
X002665
X002415
X002165
X00204Y01495524
X00229
X00254
X00279
X00304
Y01445524
X00279
X00254
X00229
X00204
X00179
X00154
X001415Y01470524
X001665
X001915
X002165
X002415
X002665
Y01420524
X002415
X002165
X00204Y01395524
X00179
X00154
X00229
X00254
X00279
X00304
X002915Y01420524
Y01620524
X002665
X002415
X00254Y01645524
X00279
X00304
X002915Y01720524
X002665
Y01770524
X002915
X001915
X00179Y01745524
X00004
X-000085Y01720524
Y01770524
X-000835
X-00071Y01745524
X-000835Y01720524
X-000585
X-000335
X-002085
X-002335
X-002585
X-002835
X-003085
X-00296Y01695524
X-00271
X-00246
X-00221
X-00196
X-002085Y01670524
X-002335
X-002585
X-002835
X-003085
X-00296Y01645524
X-00271
X-00246
X-00221
X-00196
X-002085Y01620524
X-002335
X-002585
X-002835
X-003085
X-00296Y01595524
X-00271
X-00246
X-00221
X-00196
X-002585Y01570524
X-002835
X-003085
X-00296Y01545524
X-00271
X-00246
X-002585Y01520524
X-002835
X-003085
X-00296Y01495524
X-00271
X-00246
X-002585Y01470524
X-002835
X-003085
X-00296Y01445524
X-00271
X-00246
X-002585Y01420524
X-002835
X-003085
X-0016575Y014645
X-001335Y01470524
X-00139469Y01450469
X-00196Y01745524
X-00221
X-00246
X-00271
X-00296
X-003085Y01770524
X-002835
X-002585
X-002335
X-002085
X-00221Y01795524
X-00246
X-00271
X-00296
X-003085Y01820524
X-002835
X-002585
X-002335
X-002085
X-00221Y01845524
X-00246
X-002335Y01870524
X-00221Y01895524
X-00196
Y01845524
Y01795524
X-00071
X-00046
X-00021
X-000335Y01820524
X-000585
X-000835
X-00071Y01845524
X-00046
X-00021
X-000335Y01870524
X-000585
X-000835
X-00071Y01895524
X-00046
X-00021
X00004
X00029
X00054
X00079
X00104
X00129
X00154
X00179
X00204
X00229
X00254
X00279
X00304
X00329
X00354
X003415Y01870524
X003665
X00354Y01845524
X00329
X00304
X00279
X00254
X00229
X00204
X00179
X00154
X00129
X00104
X00079
X00054
X00029
X00004
X-000085Y01820524
X00004Y01795524
X-000085Y01870524
X000165
X000415
X000665
X000915
X001165
X001415
X001665
X001915
X002165
X002415
X002665
X002915
Y01820524
X002665
X002415
X002165
X001915
X00179Y01795524
X00204
X00229
X00254
X00279
X00304
X00379Y01845524
X00404
X00429
X00454
X00479
X00504
X00529
X00554
X005415Y01820524
X005165
X004915
X004665
X004415
X00454Y01795524
X00479
X00504
X00529
X00554
X005665Y01820524
X005915
X006165
X006415
X00629Y01795524
X00604
X00654
X005665Y01870524
X005415
X005165
X004915
X004665
X004415
X004165
X003915
X00379Y01895524
X00404
X00429
X00454
X00479
X00504
X00529
X00554
T02
X-001485Y00031
X-001325
Y00018
X-00129Y00396
Y00409
Y00422
X-00143
Y00409
Y00396
X-00115
Y00409
Y00422
X-00200469Y006
X-000975Y00973
X-0004Y010305
X-00023Y0103
X00019999Y01037502
X0009059Y011575
X002075Y011745
X004025Y011295
X00576Y011575
T06
X002975Y014775
X003475
T07
X00136Y-0003
X0013899Y00506096
X0016439
X0018979
X0021519
X0024059
X0026599
X0029139
Y00531496
X0026599
X0024059
X0021519
X0018979
X0016439
X0013899
X0011359
X0008819
X0006279
Y00506096
X0008819
X0011359
X00028Y00424
X004375Y006575
X00463Y01567
X002175Y01645
X00033211Y016445
X-0014Y01645
T08
X-001072Y00293
X-000818
X0042Y00283231
Y00308631
T09
X-00285Y0030466
Y0033966
Y0037966
Y0041466
X00635Y007
Y00735
T10
X003875Y0176
X004825
X002225Y0176
X001275
X-000375Y0176
X-001325
T11
X0063Y-0003
X-0028Y-0003
X0063Y00925
X-0028
X-0028Y0188
X0063Y0188
M30
